<svg width="1200" height="135" viewBox="0 0 1200 135" fill="none" xmlns="http://www.w3.org/2000/svg">
<rect width="1200" height="135" rx="10" fill="white"/>
<circle cx="49" cy="49" r="25" fill="#00CED1"/>
<path d="M40.6719 39.5V51.47C40.6719 52.45 41.1319 53.38 41.9219 53.97L47.1319 57.87C48.2419 58.7 49.7719 58.7 50.8819 57.87L56.0919 53.97C56.8819 53.38 57.3419 52.45 57.3419 51.47V39.5H40.6719Z" stroke="white" stroke-miterlimit="10"/>
<path d="M39 39.5H59" stroke="white" stroke-miterlimit="10" stroke-linecap="round"/>
<path d="M45 45H53" stroke="white" stroke-miterlimit="10" stroke-linecap="round" stroke-linejoin="round"/>
<path d="M45 50H53" stroke="white" stroke-miterlimit="10" stroke-linecap="round" stroke-linejoin="round"/>
<path d="M103.56 47.4C103.56 46.3013 103.805 45.32 104.296 44.456C104.797 43.5813 105.475 42.904 106.328 42.424C107.192 41.9333 108.157 41.688 109.224 41.688C110.472 41.688 111.565 42.008 112.504 42.648C113.443 43.288 114.099 44.1733 114.472 45.304H111.896C111.64 44.7707 111.277 44.3707 110.808 44.104C110.349 43.8373 109.816 43.704 109.208 43.704C108.557 43.704 107.976 43.8587 107.464 44.168C106.963 44.4667 106.568 44.8933 106.28 45.448C106.003 46.0027 105.864 46.6533 105.864 47.4C105.864 48.136 106.003 48.7867 106.28 49.352C106.568 49.9067 106.963 50.3387 107.464 50.648C107.976 50.9467 108.557 51.096 109.208 51.096C109.816 51.096 110.349 50.9627 110.808 50.696C111.277 50.4187 111.64 50.0133 111.896 49.48H114.472C114.099 50.6213 113.443 51.512 112.504 52.152C111.576 52.7813 110.483 53.096 109.224 53.096C108.157 53.096 107.192 52.856 106.328 52.376C105.475 51.8853 104.797 51.208 104.296 50.344C103.805 49.48 103.56 48.4987 103.56 47.4ZM124.753 44.136V53H122.497V51.88C122.209 52.264 121.831 52.568 121.361 52.792C120.903 53.0053 120.401 53.112 119.857 53.112C119.164 53.112 118.551 52.968 118.017 52.68C117.484 52.3813 117.063 51.9493 116.753 51.384C116.455 50.808 116.305 50.1253 116.305 49.336V44.136H118.545V49.016C118.545 49.72 118.721 50.264 119.073 50.648C119.425 51.0213 119.905 51.208 120.513 51.208C121.132 51.208 121.617 51.0213 121.969 50.648C122.321 50.264 122.497 49.72 122.497 49.016V44.136H124.753ZM130.355 53.144C129.63 53.144 128.979 53.016 128.403 52.76C127.827 52.4933 127.369 52.136 127.027 51.688C126.697 51.24 126.515 50.744 126.483 50.2H128.739C128.782 50.5413 128.947 50.824 129.235 51.048C129.534 51.272 129.902 51.384 130.339 51.384C130.766 51.384 131.097 51.2987 131.331 51.128C131.577 50.9573 131.699 50.7387 131.699 50.472C131.699 50.184 131.55 49.9707 131.251 49.832C130.963 49.6827 130.499 49.5227 129.859 49.352C129.198 49.192 128.654 49.0267 128.227 48.856C127.811 48.6853 127.449 48.424 127.139 48.072C126.841 47.72 126.691 47.2453 126.691 46.648C126.691 46.1573 126.83 45.7093 127.107 45.304C127.395 44.8987 127.801 44.5787 128.323 44.344C128.857 44.1093 129.481 43.992 130.195 43.992C131.251 43.992 132.094 44.2587 132.723 44.792C133.353 45.3147 133.699 46.024 133.763 46.92H131.619C131.587 46.568 131.438 46.2907 131.171 46.088C130.915 45.8747 130.569 45.768 130.131 45.768C129.726 45.768 129.411 45.8427 129.187 45.992C128.974 46.1413 128.867 46.3493 128.867 46.616C128.867 46.9147 129.017 47.144 129.315 47.304C129.614 47.4533 130.078 47.608 130.707 47.768C131.347 47.928 131.875 48.0933 132.291 48.264C132.707 48.4347 133.065 48.7013 133.363 49.064C133.673 49.416 133.833 49.8853 133.843 50.472C133.843 50.984 133.699 51.4427 133.411 51.848C133.134 52.2533 132.729 52.5733 132.195 52.808C131.673 53.032 131.059 53.144 130.355 53.144ZM138.29 45.976V50.264C138.29 50.5627 138.359 50.7813 138.498 50.92C138.647 51.048 138.893 51.112 139.234 51.112H140.274V53H138.866C136.978 53 136.034 52.0827 136.034 50.248V45.976H134.978V44.136H136.034V41.944H138.29V44.136H140.274V45.976H138.29ZM145.821 53.144C144.968 53.144 144.2 52.9573 143.517 52.584C142.835 52.2 142.296 51.6613 141.901 50.968C141.517 50.2747 141.325 49.4747 141.325 48.568C141.325 47.6613 141.523 46.8613 141.917 46.168C142.323 45.4747 142.872 44.9413 143.565 44.568C144.259 44.184 145.032 43.992 145.885 43.992C146.739 43.992 147.512 44.184 148.205 44.568C148.899 44.9413 149.443 45.4747 149.837 46.168C150.243 46.8613 150.445 47.6613 150.445 48.568C150.445 49.4747 150.237 50.2747 149.821 50.968C149.416 51.6613 148.861 52.2 148.157 52.584C147.464 52.9573 146.685 53.144 145.821 53.144ZM145.821 51.192C146.227 51.192 146.605 51.096 146.957 50.904C147.32 50.7013 147.608 50.4027 147.821 50.008C148.035 49.6133 148.141 49.1333 148.141 48.568C148.141 47.7253 147.917 47.08 147.469 46.632C147.032 46.1733 146.493 45.944 145.853 45.944C145.213 45.944 144.675 46.1733 144.237 46.632C143.811 47.08 143.597 47.7253 143.597 48.568C143.597 49.4107 143.805 50.0613 144.221 50.52C144.648 50.968 145.181 51.192 145.821 51.192ZM163.096 44.008C164.184 44.008 165.059 44.344 165.72 45.016C166.392 45.6773 166.728 46.6053 166.728 47.8V53H164.488V48.104C164.488 47.4107 164.312 46.8827 163.96 46.52C163.608 46.1467 163.128 45.96 162.52 45.96C161.912 45.96 161.427 46.1467 161.064 46.52C160.712 46.8827 160.536 47.4107 160.536 48.104V53H158.296V48.104C158.296 47.4107 158.12 46.8827 157.768 46.52C157.416 46.1467 156.936 45.96 156.328 45.96C155.71 45.96 155.219 46.1467 154.856 46.52C154.504 46.8827 154.328 47.4107 154.328 48.104V53H152.088V44.136H154.328V45.208C154.616 44.8347 154.984 44.5413 155.432 44.328C155.891 44.1147 156.392 44.008 156.936 44.008C157.63 44.008 158.248 44.1573 158.792 44.456C159.336 44.744 159.758 45.16 160.056 45.704C160.344 45.192 160.76 44.7813 161.304 44.472C161.859 44.1627 162.456 44.008 163.096 44.008ZM177.851 53.112C176.805 53.112 175.845 52.8667 174.971 52.376C174.096 51.8853 173.403 51.208 172.891 50.344C172.379 49.4693 172.123 48.4827 172.123 47.384C172.123 46.296 172.379 45.32 172.891 44.456C173.403 43.5813 174.096 42.8987 174.971 42.408C175.845 41.9173 176.805 41.672 177.851 41.672C178.907 41.672 179.867 41.9173 180.731 42.408C181.605 42.8987 182.293 43.5813 182.795 44.456C183.307 45.32 183.563 46.296 183.563 47.384C183.563 48.4827 183.307 49.4693 182.795 50.344C182.293 51.208 181.605 51.8853 180.731 52.376C179.856 52.8667 178.896 53.112 177.851 53.112ZM177.851 51.112C178.523 51.112 179.115 50.9627 179.627 50.664C180.139 50.3547 180.539 49.9173 180.827 49.352C181.115 48.7867 181.259 48.1307 181.259 47.384C181.259 46.6373 181.115 45.9867 180.827 45.432C180.539 44.8667 180.139 44.4347 179.627 44.136C179.115 43.8373 178.523 43.688 177.851 43.688C177.179 43.688 176.581 43.8373 176.059 44.136C175.547 44.4347 175.147 44.8667 174.859 45.432C174.571 45.9867 174.427 46.6373 174.427 47.384C174.427 48.1307 174.571 48.7867 174.859 49.352C175.147 49.9173 175.547 50.3547 176.059 50.664C176.581 50.9627 177.179 51.112 177.851 51.112ZM187.469 45.512C187.757 45.0427 188.13 44.6747 188.589 44.408C189.058 44.1413 189.592 44.008 190.189 44.008V46.36H189.597C188.893 46.36 188.36 46.5253 187.997 46.856C187.645 47.1867 187.469 47.7627 187.469 48.584V53H185.229V44.136H187.469V45.512ZM191.122 48.536C191.122 47.64 191.298 46.8453 191.65 46.152C192.012 45.4587 192.503 44.9253 193.122 44.552C193.74 44.1787 194.428 43.992 195.186 43.992C195.762 43.992 196.311 44.12 196.834 44.376C197.356 44.6213 197.772 44.952 198.082 45.368V41.16H200.354V53H198.082V51.688C197.804 52.1253 197.415 52.4773 196.914 52.744C196.412 53.0107 195.831 53.144 195.17 53.144C194.423 53.144 193.74 52.952 193.122 52.568C192.503 52.184 192.012 51.6453 191.65 50.952C191.298 50.248 191.122 49.4427 191.122 48.536ZM198.098 48.568C198.098 48.024 197.991 47.56 197.778 47.176C197.564 46.7813 197.276 46.4827 196.914 46.28C196.551 46.0667 196.162 45.96 195.746 45.96C195.33 45.96 194.946 46.0613 194.594 46.264C194.242 46.4667 193.954 46.7653 193.73 47.16C193.516 47.544 193.41 48.0027 193.41 48.536C193.41 49.0693 193.516 49.5387 193.73 49.944C193.954 50.3387 194.242 50.6427 194.594 50.856C194.956 51.0693 195.34 51.176 195.746 51.176C196.162 51.176 196.551 51.0747 196.914 50.872C197.276 50.6587 197.564 50.36 197.778 49.976C197.991 49.5813 198.098 49.112 198.098 48.568ZM210.782 48.376C210.782 48.696 210.76 48.984 210.718 49.24H204.238C204.291 49.88 204.515 50.3813 204.91 50.744C205.304 51.1067 205.79 51.288 206.366 51.288C207.198 51.288 207.79 50.9307 208.142 50.216H210.558C210.302 51.0693 209.811 51.7733 209.086 52.328C208.36 52.872 207.47 53.144 206.414 53.144C205.56 53.144 204.792 52.9573 204.11 52.584C203.438 52.2 202.91 51.6613 202.526 50.968C202.152 50.2747 201.965 49.4747 201.965 48.568C201.965 47.6507 202.152 46.8453 202.526 46.152C202.899 45.4587 203.422 44.9253 204.094 44.552C204.766 44.1787 205.539 43.992 206.414 43.992C207.256 43.992 208.008 44.1733 208.67 44.536C209.342 44.8987 209.859 45.416 210.222 46.088C210.595 46.7493 210.782 47.512 210.782 48.376ZM208.462 47.736C208.451 47.16 208.243 46.7013 207.838 46.36C207.432 46.008 206.936 45.832 206.35 45.832C205.795 45.832 205.326 46.0027 204.942 46.344C204.568 46.6747 204.339 47.1387 204.254 47.736H208.462ZM214.657 45.512C214.945 45.0427 215.318 44.6747 215.777 44.408C216.246 44.1413 216.779 44.008 217.377 44.008V46.36H216.785C216.081 46.36 215.547 46.5253 215.185 46.856C214.833 47.1867 214.657 47.7627 214.657 48.584V53H212.417V44.136H214.657V45.512Z" fill="black"/>
<path d="M29.502 105.098C28.5967 105.098 27.7707 104.888 27.024 104.468C26.2773 104.039 25.6847 103.446 25.246 102.69C24.8167 101.925 24.602 101.066 24.602 100.114C24.602 99.162 24.8167 98.308 25.246 97.552C25.6847 96.7867 26.2773 96.194 27.024 95.774C27.7707 95.3447 28.5967 95.13 29.502 95.13C30.4167 95.13 31.2473 95.3447 31.994 95.774C32.7407 96.194 33.3287 96.782 33.758 97.538C34.1873 98.294 34.402 99.1527 34.402 100.114C34.402 101.075 34.1873 101.934 33.758 102.69C33.3287 103.446 32.7407 104.039 31.994 104.468C31.2473 104.888 30.4167 105.098 29.502 105.098ZM29.502 103.992C30.1833 103.992 30.7947 103.833 31.336 103.516C31.8867 103.199 32.316 102.746 32.624 102.158C32.9413 101.57 33.1 100.889 33.1 100.114C33.1 99.33 32.9413 98.6487 32.624 98.07C32.316 97.482 31.8913 97.0293 31.35 96.712C30.8087 96.3947 30.1927 96.236 29.502 96.236C28.8113 96.236 28.1953 96.3947 27.654 96.712C27.1127 97.0293 26.6833 97.482 26.366 98.07C26.058 98.6487 25.904 99.33 25.904 100.114C25.904 100.889 26.058 101.57 26.366 102.158C26.6833 102.746 27.1127 103.199 27.654 103.516C28.2047 103.833 28.8207 103.992 29.502 103.992ZM37.3579 98.574C37.5819 98.1353 37.8992 97.7947 38.3099 97.552C38.7299 97.3093 39.2385 97.188 39.8359 97.188V98.504H39.4999C38.0719 98.504 37.3579 99.2787 37.3579 100.828V105H36.0839V97.328H37.3579V98.574ZM40.8305 101.136C40.8305 100.352 40.9892 99.666 41.3065 99.078C41.6238 98.4807 42.0578 98.0187 42.6085 97.692C43.1685 97.3653 43.7938 97.202 44.4845 97.202C45.0818 97.202 45.6372 97.342 46.1505 97.622C46.6638 97.8927 47.0558 98.252 47.3265 98.7V94.64H48.6145V105H47.3265V103.558C47.0745 104.015 46.7012 104.393 46.2065 104.692C45.7118 104.981 45.1332 105.126 44.4705 105.126C43.7892 105.126 43.1685 104.958 42.6085 104.622C42.0578 104.286 41.6238 103.815 41.3065 103.208C40.9892 102.601 40.8305 101.911 40.8305 101.136ZM47.3265 101.15C47.3265 100.571 47.2098 100.067 46.9765 99.638C46.7432 99.2087 46.4258 98.882 46.0245 98.658C45.6325 98.4247 45.1985 98.308 44.7225 98.308C44.2465 98.308 43.8125 98.42 43.4205 98.644C43.0285 98.868 42.7158 99.1947 42.4825 99.624C42.2492 100.053 42.1325 100.557 42.1325 101.136C42.1325 101.724 42.2492 102.237 42.4825 102.676C42.7158 103.105 43.0285 103.437 43.4205 103.67C43.8125 103.894 44.2465 104.006 44.7225 104.006C45.1985 104.006 45.6325 103.894 46.0245 103.67C46.4258 103.437 46.7432 103.105 46.9765 102.676C47.2098 102.237 47.3265 101.729 47.3265 101.15ZM57.7675 100.87C57.7675 101.113 57.7535 101.369 57.7255 101.64H51.5935C51.6401 102.396 51.8968 102.989 52.3635 103.418C52.8395 103.838 53.4135 104.048 54.0855 104.048C54.6361 104.048 55.0935 103.922 55.4575 103.67C55.8308 103.409 56.0921 103.063 56.2415 102.634H57.6135C57.4081 103.371 56.9975 103.973 56.3815 104.44C55.7655 104.897 55.0001 105.126 54.0855 105.126C53.3575 105.126 52.7041 104.963 52.1255 104.636C51.5561 104.309 51.1081 103.847 50.7815 103.25C50.4548 102.643 50.2915 101.943 50.2915 101.15C50.2915 100.357 50.4501 99.6613 50.7675 99.064C51.0848 98.4667 51.5281 98.0093 52.0975 97.692C52.6761 97.3653 53.3388 97.202 54.0855 97.202C54.8135 97.202 55.4575 97.3607 56.0175 97.678C56.5775 97.9953 57.0068 98.434 57.3055 98.994C57.6135 99.5447 57.7675 100.17 57.7675 100.87ZM56.4515 100.604C56.4515 100.119 56.3441 99.7033 56.1295 99.358C55.9148 99.0033 55.6208 98.7373 55.2475 98.56C54.8835 98.3733 54.4775 98.28 54.0295 98.28C53.3855 98.28 52.8348 98.4853 52.3775 98.896C51.9295 99.3067 51.6728 99.876 51.6075 100.604H56.4515ZM60.7231 98.574C60.9471 98.1353 61.2644 97.7947 61.6751 97.552C62.0951 97.3093 62.6038 97.188 63.2011 97.188V98.504H62.8651C61.4371 98.504 60.7231 99.2787 60.7231 100.828V105H59.4491V97.328H60.7231V98.574ZM74.1722 102.83H69.9162L69.1322 105H67.7882L71.3162 95.298H72.7862L76.3002 105H74.9562L74.1722 102.83ZM73.8082 101.794L72.0442 96.866L70.2802 101.794H73.8082ZM81.5758 97.188C82.5091 97.188 83.2651 97.4727 83.8438 98.042C84.4224 98.602 84.7118 99.414 84.7118 100.478V105H83.4518V100.66C83.4518 99.8947 83.2604 99.3113 82.8778 98.91C82.4951 98.4993 81.9724 98.294 81.3098 98.294C80.6378 98.294 80.1011 98.504 79.6998 98.924C79.3078 99.344 79.1118 99.9553 79.1118 100.758V105H77.8378V97.328H79.1118V98.42C79.3638 98.028 79.7044 97.7247 80.1338 97.51C80.5724 97.2953 81.0531 97.188 81.5758 97.188ZM93.4008 97.328L88.7808 108.612H87.4648L88.9768 104.916L85.8828 97.328H87.2968L89.7048 103.544L92.0848 97.328H93.4008ZM96.2355 98.378V102.9C96.2355 103.273 96.3148 103.539 96.4735 103.698C96.6322 103.847 96.9075 103.922 97.2995 103.922H98.2375V105H97.0895C96.3802 105 95.8482 104.837 95.4935 104.51C95.1388 104.183 94.9615 103.647 94.9615 102.9V98.378H93.9675V97.328H94.9615V95.396H96.2355V97.328H98.2375V98.378H96.2355ZM103.589 97.188C104.168 97.188 104.69 97.314 105.157 97.566C105.624 97.8087 105.988 98.1773 106.249 98.672C106.52 99.1667 106.655 99.7687 106.655 100.478V105H105.395V100.66C105.395 99.8947 105.204 99.3113 104.821 98.91C104.438 98.4993 103.916 98.294 103.253 98.294C102.581 98.294 102.044 98.504 101.643 98.924C101.251 99.344 101.055 99.9553 101.055 100.758V105H99.7811V94.64H101.055V98.42C101.307 98.028 101.652 97.7247 102.091 97.51C102.539 97.2953 103.038 97.188 103.589 97.188ZM109.394 96.082C109.152 96.082 108.946 95.998 108.778 95.83C108.61 95.662 108.526 95.4567 108.526 95.214C108.526 94.9713 108.61 94.766 108.778 94.598C108.946 94.43 109.152 94.346 109.394 94.346C109.628 94.346 109.824 94.43 109.982 94.598C110.15 94.766 110.234 94.9713 110.234 95.214C110.234 95.4567 110.15 95.662 109.982 95.83C109.824 95.998 109.628 96.082 109.394 96.082ZM110.01 97.328V105H108.736V97.328H110.01ZM115.92 97.188C116.853 97.188 117.609 97.4727 118.188 98.042C118.766 98.602 119.056 99.414 119.056 100.478V105H117.796V100.66C117.796 99.8947 117.604 99.3113 117.222 98.91C116.839 98.4993 116.316 98.294 115.654 98.294C114.982 98.294 114.445 98.504 114.044 98.924C113.652 99.344 113.456 99.9553 113.456 100.758V105H112.182V97.328H113.456V98.42C113.708 98.028 114.048 97.7247 114.478 97.51C114.916 97.2953 115.397 97.188 115.92 97.188ZM124.301 97.202C124.963 97.202 125.542 97.3467 126.037 97.636C126.541 97.9253 126.914 98.2893 127.157 98.728V97.328H128.445V105.168C128.445 105.868 128.295 106.489 127.997 107.03C127.698 107.581 127.269 108.01 126.709 108.318C126.158 108.626 125.514 108.78 124.777 108.78C123.769 108.78 122.929 108.542 122.257 108.066C121.585 107.59 121.188 106.941 121.067 106.12H122.327C122.467 106.587 122.756 106.96 123.195 107.24C123.633 107.529 124.161 107.674 124.777 107.674C125.477 107.674 126.046 107.455 126.485 107.016C126.933 106.577 127.157 105.961 127.157 105.168V103.558C126.905 104.006 126.531 104.379 126.037 104.678C125.542 104.977 124.963 105.126 124.301 105.126C123.619 105.126 122.999 104.958 122.439 104.622C121.888 104.286 121.454 103.815 121.137 103.208C120.819 102.601 120.661 101.911 120.661 101.136C120.661 100.352 120.819 99.666 121.137 99.078C121.454 98.4807 121.888 98.0187 122.439 97.692C122.999 97.3653 123.619 97.202 124.301 97.202ZM127.157 101.15C127.157 100.571 127.04 100.067 126.807 99.638C126.573 99.2087 126.256 98.882 125.855 98.658C125.463 98.4247 125.029 98.308 124.553 98.308C124.077 98.308 123.643 98.42 123.251 98.644C122.859 98.868 122.546 99.1947 122.313 99.624C122.079 100.053 121.963 100.557 121.963 101.136C121.963 101.724 122.079 102.237 122.313 102.676C122.546 103.105 122.859 103.437 123.251 103.67C123.643 103.894 124.077 104.006 124.553 104.006C125.029 104.006 125.463 103.894 125.855 103.67C126.256 103.437 126.573 103.105 126.807 102.676C127.04 102.237 127.157 101.729 127.157 101.15ZM139.846 95.242V96.278H135.604V99.568H139.048V100.604H135.604V105H134.33V95.242H139.846ZM142.659 98.574C142.883 98.1353 143.2 97.7947 143.611 97.552C144.031 97.3093 144.539 97.188 145.137 97.188V98.504H144.801C143.373 98.504 142.659 99.2787 142.659 100.828V105H141.385V97.328H142.659V98.574ZM149.953 105.126C149.235 105.126 148.581 104.963 147.993 104.636C147.415 104.309 146.957 103.847 146.621 103.25C146.295 102.643 146.131 101.943 146.131 101.15C146.131 100.366 146.299 99.6753 146.635 99.078C146.981 98.4713 147.447 98.0093 148.035 97.692C148.623 97.3653 149.281 97.202 150.009 97.202C150.737 97.202 151.395 97.3653 151.983 97.692C152.571 98.0093 153.033 98.4667 153.369 99.064C153.715 99.6613 153.887 100.357 153.887 101.15C153.887 101.943 153.71 102.643 153.355 103.25C153.01 103.847 152.539 104.309 151.941 104.636C151.344 104.963 150.681 105.126 149.953 105.126ZM149.953 104.006C150.411 104.006 150.84 103.899 151.241 103.684C151.643 103.469 151.965 103.147 152.207 102.718C152.459 102.289 152.585 101.766 152.585 101.15C152.585 100.534 152.464 100.011 152.221 99.582C151.979 99.1527 151.661 98.8353 151.269 98.63C150.877 98.4153 150.453 98.308 149.995 98.308C149.529 98.308 149.099 98.4153 148.707 98.63C148.325 98.8353 148.017 99.1527 147.783 99.582C147.55 100.011 147.433 100.534 147.433 101.15C147.433 101.775 147.545 102.303 147.769 102.732C148.003 103.161 148.311 103.483 148.693 103.698C149.076 103.903 149.496 104.006 149.953 104.006ZM164.788 97.188C165.386 97.188 165.918 97.314 166.384 97.566C166.851 97.8087 167.22 98.1773 167.49 98.672C167.761 99.1667 167.896 99.7687 167.896 100.478V105H166.636V100.66C166.636 99.8947 166.445 99.3113 166.062 98.91C165.689 98.4993 165.18 98.294 164.536 98.294C163.874 98.294 163.346 98.5087 162.954 98.938C162.562 99.358 162.366 99.9693 162.366 100.772V105H161.106V100.66C161.106 99.8947 160.915 99.3113 160.532 98.91C160.159 98.4993 159.65 98.294 159.006 98.294C158.344 98.294 157.816 98.5087 157.424 98.938C157.032 99.358 156.836 99.9693 156.836 100.772V105H155.562V97.328H156.836V98.434C157.088 98.0327 157.424 97.7247 157.844 97.51C158.274 97.2953 158.745 97.188 159.258 97.188C159.902 97.188 160.472 97.3327 160.966 97.622C161.461 97.9113 161.83 98.336 162.072 98.896C162.287 98.3547 162.642 97.9347 163.136 97.636C163.631 97.3373 164.182 97.188 164.788 97.188ZM179.487 102.83H175.231L174.447 105H173.103L176.631 95.298H178.101L181.615 105H180.271L179.487 102.83ZM179.123 101.794L177.359 96.866L175.595 101.794H179.123ZM186.89 97.188C187.824 97.188 188.58 97.4727 189.158 98.042C189.737 98.602 190.026 99.414 190.026 100.478V105H188.766V100.66C188.766 99.8947 188.575 99.3113 188.192 98.91C187.81 98.4993 187.287 98.294 186.624 98.294C185.952 98.294 185.416 98.504 185.014 98.924C184.622 99.344 184.426 99.9553 184.426 100.758V105H183.152V97.328H184.426V98.42C184.678 98.028 185.019 97.7247 185.448 97.51C185.887 97.2953 186.368 97.188 186.89 97.188ZM198.715 97.328L194.095 108.612H192.779L194.291 104.916L191.197 97.328H192.611L195.019 103.544L197.399 97.328H198.715ZM211.4 105H210.126L205.002 97.23V105H203.728V95.228H205.002L210.126 102.984V95.228H211.4V105ZM220.572 100.87C220.572 101.113 220.558 101.369 220.53 101.64H214.398C214.445 102.396 214.701 102.989 215.168 103.418C215.644 103.838 216.218 104.048 216.89 104.048C217.441 104.048 217.898 103.922 218.262 103.67C218.635 103.409 218.897 103.063 219.046 102.634H220.418C220.213 103.371 219.802 103.973 219.186 104.44C218.57 104.897 217.805 105.126 216.89 105.126C216.162 105.126 215.509 104.963 214.93 104.636C214.361 104.309 213.913 103.847 213.586 103.25C213.259 102.643 213.096 101.943 213.096 101.15C213.096 100.357 213.255 99.6613 213.572 99.064C213.889 98.4667 214.333 98.0093 214.902 97.692C215.481 97.3653 216.143 97.202 216.89 97.202C217.618 97.202 218.262 97.3607 218.822 97.678C219.382 97.9953 219.811 98.434 220.11 98.994C220.418 99.5447 220.572 100.17 220.572 100.87ZM219.256 100.604C219.256 100.119 219.149 99.7033 218.934 99.358C218.719 99.0033 218.425 98.7373 218.052 98.56C217.688 98.3733 217.282 98.28 216.834 98.28C216.19 98.28 215.639 98.4853 215.182 98.896C214.734 99.3067 214.477 99.876 214.412 100.604H219.256ZM221.778 101.136C221.778 100.352 221.936 99.666 222.254 99.078C222.571 98.4807 223.005 98.0187 223.556 97.692C224.116 97.3653 224.736 97.202 225.418 97.202C226.09 97.202 226.673 97.3467 227.168 97.636C227.662 97.9253 228.031 98.2893 228.274 98.728V97.328H229.562V105H228.274V103.572C228.022 104.02 227.644 104.393 227.14 104.692C226.645 104.981 226.066 105.126 225.404 105.126C224.722 105.126 224.106 104.958 223.556 104.622C223.005 104.286 222.571 103.815 222.254 103.208C221.936 102.601 221.778 101.911 221.778 101.136ZM228.274 101.15C228.274 100.571 228.157 100.067 227.924 99.638C227.69 99.2087 227.373 98.882 226.972 98.658C226.58 98.4247 226.146 98.308 225.67 98.308C225.194 98.308 224.76 98.42 224.368 98.644C223.976 98.868 223.663 99.1947 223.43 99.624C223.196 100.053 223.08 100.557 223.08 101.136C223.08 101.724 223.196 102.237 223.43 102.676C223.663 103.105 223.976 103.437 224.368 103.67C224.76 103.894 225.194 104.006 225.67 104.006C226.146 104.006 226.58 103.894 226.972 103.67C227.373 103.437 227.69 103.105 227.924 102.676C228.157 102.237 228.274 101.729 228.274 101.15ZM232.989 98.574C233.213 98.1353 233.53 97.7947 233.941 97.552C234.361 97.3093 234.869 97.188 235.467 97.188V98.504H235.131C233.703 98.504 232.989 99.2787 232.989 100.828V105H231.715V97.328H232.989V98.574ZM238.211 98.756C238.473 98.2987 238.855 97.9253 239.359 97.636C239.863 97.3467 240.437 97.202 241.081 97.202C241.772 97.202 242.393 97.3653 242.943 97.692C243.494 98.0187 243.928 98.4807 244.245 99.078C244.563 99.666 244.721 100.352 244.721 101.136C244.721 101.911 244.563 102.601 244.245 103.208C243.928 103.815 243.489 104.286 242.929 104.622C242.379 104.958 241.763 105.126 241.081 105.126C240.419 105.126 239.835 104.981 239.331 104.692C238.837 104.403 238.463 104.034 238.211 103.586V105H236.937V94.64H238.211V98.756ZM243.419 101.136C243.419 100.557 243.303 100.053 243.069 99.624C242.836 99.1947 242.519 98.868 242.117 98.644C241.725 98.42 241.291 98.308 240.815 98.308C240.349 98.308 239.915 98.4247 239.513 98.658C239.121 98.882 238.804 99.2133 238.561 99.652C238.328 100.081 238.211 100.581 238.211 101.15C238.211 101.729 238.328 102.237 238.561 102.676C238.804 103.105 239.121 103.437 239.513 103.67C239.915 103.894 240.349 104.006 240.815 104.006C241.291 104.006 241.725 103.894 242.117 103.67C242.519 103.437 242.836 103.105 243.069 102.676C243.303 102.237 243.419 101.724 243.419 101.136ZM253.006 97.328L248.386 108.612H247.07L248.582 104.916L245.488 97.328H246.902L249.31 103.544L251.69 97.328H253.006ZM261.113 105.098C260.469 105.098 259.891 104.986 259.377 104.762C258.873 104.529 258.477 104.211 258.187 103.81C257.898 103.399 257.749 102.928 257.739 102.396H259.097C259.144 102.853 259.331 103.241 259.657 103.558C259.993 103.866 260.479 104.02 261.113 104.02C261.72 104.02 262.196 103.871 262.541 103.572C262.896 103.264 263.073 102.872 263.073 102.396C263.073 102.023 262.971 101.719 262.765 101.486C262.56 101.253 262.303 101.075 261.995 100.954C261.687 100.833 261.272 100.702 260.749 100.562C260.105 100.394 259.587 100.226 259.195 100.058C258.813 99.89 258.481 99.6287 258.201 99.274C257.931 98.91 257.795 98.4247 257.795 97.818C257.795 97.286 257.931 96.8147 258.201 96.404C258.472 95.9933 258.85 95.676 259.335 95.452C259.83 95.228 260.395 95.116 261.029 95.116C261.944 95.116 262.691 95.3447 263.269 95.802C263.857 96.2593 264.189 96.866 264.263 97.622H262.863C262.817 97.2487 262.621 96.922 262.275 96.642C261.93 96.3527 261.473 96.208 260.903 96.208C260.371 96.208 259.937 96.348 259.601 96.628C259.265 96.8987 259.097 97.2813 259.097 97.776C259.097 98.1307 259.195 98.42 259.391 98.644C259.597 98.868 259.844 99.0407 260.133 99.162C260.432 99.274 260.847 99.4047 261.379 99.554C262.023 99.7313 262.541 99.9087 262.933 100.086C263.325 100.254 263.661 100.52 263.941 100.884C264.221 101.239 264.361 101.724 264.361 102.34C264.361 102.816 264.235 103.264 263.983 103.684C263.731 104.104 263.358 104.445 262.863 104.706C262.369 104.967 261.785 105.098 261.113 105.098ZM267.79 98.378V102.9C267.79 103.273 267.87 103.539 268.028 103.698C268.187 103.847 268.462 103.922 268.854 103.922H269.792V105H268.644C267.935 105 267.403 104.837 267.048 104.51C266.694 104.183 266.516 103.647 266.516 102.9V98.378H265.522V97.328H266.516V95.396H267.79V97.328H269.792V98.378H267.79ZM274.682 105.126C273.963 105.126 273.31 104.963 272.722 104.636C272.143 104.309 271.686 103.847 271.35 103.25C271.023 102.643 270.86 101.943 270.86 101.15C270.86 100.366 271.028 99.6753 271.364 99.078C271.709 98.4713 272.176 98.0093 272.764 97.692C273.352 97.3653 274.01 97.202 274.738 97.202C275.466 97.202 276.124 97.3653 276.712 97.692C277.3 98.0093 277.762 98.4667 278.098 99.064C278.443 99.6613 278.616 100.357 278.616 101.15C278.616 101.943 278.438 102.643 278.084 103.25C277.738 103.847 277.267 104.309 276.67 104.636C276.072 104.963 275.41 105.126 274.682 105.126ZM274.682 104.006C275.139 104.006 275.568 103.899 275.97 103.684C276.371 103.469 276.693 103.147 276.936 102.718C277.188 102.289 277.314 101.766 277.314 101.15C277.314 100.534 277.192 100.011 276.95 99.582C276.707 99.1527 276.39 98.8353 275.998 98.63C275.606 98.4153 275.181 98.308 274.724 98.308C274.257 98.308 273.828 98.4153 273.436 98.63C273.053 98.8353 272.745 99.1527 272.512 99.582C272.278 100.011 272.162 100.534 272.162 101.15C272.162 101.775 272.274 102.303 272.498 102.732C272.731 103.161 273.039 103.483 273.422 103.698C273.804 103.903 274.224 104.006 274.682 104.006ZM281.565 98.574C281.789 98.1353 282.106 97.7947 282.517 97.552C282.937 97.3093 283.446 97.188 284.043 97.188V98.504H283.707C282.279 98.504 281.565 99.2787 281.565 100.828V105H280.291V97.328H281.565V98.574ZM292.514 100.87C292.514 101.113 292.5 101.369 292.472 101.64H286.34C286.386 102.396 286.643 102.989 287.11 103.418C287.586 103.838 288.16 104.048 288.832 104.048C289.382 104.048 289.84 103.922 290.204 103.67C290.577 103.409 290.838 103.063 290.988 102.634H292.36C292.154 103.371 291.744 103.973 291.128 104.44C290.512 104.897 289.746 105.126 288.832 105.126C288.104 105.126 287.45 104.963 286.872 104.636C286.302 104.309 285.854 103.847 285.528 103.25C285.201 102.643 285.038 101.943 285.038 101.15C285.038 100.357 285.196 99.6613 285.514 99.064C285.831 98.4667 286.274 98.0093 286.844 97.692C287.422 97.3653 288.085 97.202 288.832 97.202C289.56 97.202 290.204 97.3607 290.764 97.678C291.324 97.9953 291.753 98.434 292.052 98.994C292.36 99.5447 292.514 100.17 292.514 100.87ZM291.198 100.604C291.198 100.119 291.09 99.7033 290.876 99.358C290.661 99.0033 290.367 98.7373 289.994 98.56C289.63 98.3733 289.224 98.28 288.776 98.28C288.132 98.28 287.581 98.4853 287.124 98.896C286.676 99.3067 286.419 99.876 286.354 100.604H291.198ZM294.601 105.084C294.359 105.084 294.153 105 293.985 104.832C293.817 104.664 293.733 104.459 293.733 104.216C293.733 103.973 293.817 103.768 293.985 103.6C294.153 103.432 294.359 103.348 294.601 103.348C294.835 103.348 295.031 103.432 295.189 103.6C295.357 103.768 295.441 103.973 295.441 104.216C295.441 104.459 295.357 104.664 295.189 104.832C295.031 105 294.835 105.084 294.601 105.084ZM306.873 95.242V96.278H304.213V105H302.939V96.278H300.265V95.242H306.873ZM312.249 97.188C312.828 97.188 313.351 97.314 313.817 97.566C314.284 97.8087 314.648 98.1773 314.909 98.672C315.18 99.1667 315.315 99.7687 315.315 100.478V105H314.055V100.66C314.055 99.8947 313.864 99.3113 313.481 98.91C313.099 98.4993 312.576 98.294 311.913 98.294C311.241 98.294 310.705 98.504 310.303 98.924C309.911 99.344 309.715 99.9553 309.715 100.758V105H308.441V94.64H309.715V98.42C309.967 98.028 310.313 97.7247 310.751 97.51C311.199 97.2953 311.699 97.188 312.249 97.188ZM324.396 100.87C324.396 101.113 324.382 101.369 324.354 101.64H318.222C318.269 102.396 318.526 102.989 318.992 103.418C319.468 103.838 320.042 104.048 320.714 104.048C321.265 104.048 321.722 103.922 322.086 103.67C322.46 103.409 322.721 103.063 322.87 102.634H324.242C324.037 103.371 323.626 103.973 323.01 104.44C322.394 104.897 321.629 105.126 320.714 105.126C319.986 105.126 319.333 104.963 318.754 104.636C318.185 104.309 317.737 103.847 317.41 103.25C317.084 102.643 316.92 101.943 316.92 101.15C316.92 100.357 317.079 99.6613 317.396 99.064C317.714 98.4667 318.157 98.0093 318.726 97.692C319.305 97.3653 319.968 97.202 320.714 97.202C321.442 97.202 322.086 97.3607 322.646 97.678C323.206 97.9953 323.636 98.434 323.934 98.994C324.242 99.5447 324.396 100.17 324.396 100.87ZM323.08 100.604C323.08 100.119 322.973 99.7033 322.758 99.358C322.544 99.0033 322.25 98.7373 321.876 98.56C321.512 98.3733 321.106 98.28 320.658 98.28C320.014 98.28 319.464 98.4853 319.006 98.896C318.558 99.3067 318.302 99.876 318.236 100.604H323.08ZM332.848 95.242C333.912 95.242 334.832 95.4427 335.606 95.844C336.39 96.236 336.988 96.8007 337.398 97.538C337.818 98.2753 338.028 99.1433 338.028 100.142C338.028 101.141 337.818 102.009 337.398 102.746C336.988 103.474 336.39 104.034 335.606 104.426C334.832 104.809 333.912 105 332.848 105H329.81V95.242H332.848ZM332.848 103.95C334.108 103.95 335.07 103.619 335.732 102.956C336.395 102.284 336.726 101.346 336.726 100.142C336.726 98.9287 336.39 97.9813 335.718 97.3C335.056 96.6187 334.099 96.278 332.848 96.278H331.084V103.95H332.848ZM346.709 100.87C346.709 101.113 346.695 101.369 346.667 101.64H340.535C340.582 102.396 340.838 102.989 341.305 103.418C341.781 103.838 342.355 104.048 343.027 104.048C343.578 104.048 344.035 103.922 344.399 103.67C344.772 103.409 345.034 103.063 345.183 102.634H346.555C346.35 103.371 345.939 103.973 345.323 104.44C344.707 104.897 343.942 105.126 343.027 105.126C342.299 105.126 341.646 104.963 341.067 104.636C340.498 104.309 340.05 103.847 339.723 103.25C339.396 102.643 339.233 101.943 339.233 101.15C339.233 100.357 339.392 99.6613 339.709 99.064C340.026 98.4667 340.47 98.0093 341.039 97.692C341.618 97.3653 342.28 97.202 343.027 97.202C343.755 97.202 344.399 97.3607 344.959 97.678C345.519 97.9953 345.948 98.434 346.247 98.994C346.555 99.5447 346.709 100.17 346.709 100.87ZM345.393 100.604C345.393 100.119 345.286 99.7033 345.071 99.358C344.856 99.0033 344.562 98.7373 344.189 98.56C343.825 98.3733 343.419 98.28 342.971 98.28C342.327 98.28 341.776 98.4853 341.319 98.896C340.871 99.3067 340.614 99.876 340.549 100.604H345.393ZM349.665 94.64V105H348.391V94.64H349.665ZM352.494 96.082C352.251 96.082 352.046 95.998 351.878 95.83C351.71 95.662 351.626 95.4567 351.626 95.214C351.626 94.9713 351.71 94.766 351.878 94.598C352.046 94.43 352.251 94.346 352.494 94.346C352.727 94.346 352.923 94.43 353.082 94.598C353.25 94.766 353.334 94.9713 353.334 95.214C353.334 95.4567 353.25 95.662 353.082 95.83C352.923 95.998 352.727 96.082 352.494 96.082ZM353.11 97.328V105H351.836V97.328H353.11ZM358.137 103.824L360.517 97.328H361.875L358.865 105H357.381L354.371 97.328H355.743L358.137 103.824ZM370.129 100.87C370.129 101.113 370.115 101.369 370.087 101.64H363.955C364.001 102.396 364.258 102.989 364.725 103.418C365.201 103.838 365.775 104.048 366.447 104.048C366.997 104.048 367.455 103.922 367.819 103.67C368.192 103.409 368.453 103.063 368.603 102.634H369.975C369.769 103.371 369.359 103.973 368.743 104.44C368.127 104.897 367.361 105.126 366.447 105.126C365.719 105.126 365.065 104.963 364.487 104.636C363.917 104.309 363.469 103.847 363.143 103.25C362.816 102.643 362.653 101.943 362.653 101.15C362.653 100.357 362.811 99.6613 363.129 99.064C363.446 98.4667 363.889 98.0093 364.459 97.692C365.037 97.3653 365.7 97.202 366.447 97.202C367.175 97.202 367.819 97.3607 368.379 97.678C368.939 97.9953 369.368 98.434 369.667 98.994C369.975 99.5447 370.129 100.17 370.129 100.87ZM368.813 100.604C368.813 100.119 368.705 99.7033 368.491 99.358C368.276 99.0033 367.982 98.7373 367.609 98.56C367.245 98.3733 366.839 98.28 366.391 98.28C365.747 98.28 365.196 98.4853 364.739 98.896C364.291 99.3067 364.034 99.876 363.969 100.604H368.813ZM373.084 98.574C373.308 98.1353 373.626 97.7947 374.036 97.552C374.456 97.3093 374.965 97.188 375.562 97.188V98.504H375.226C373.798 98.504 373.084 99.2787 373.084 100.828V105H371.81V97.328H373.084V98.574ZM383.641 97.328L379.021 108.612H377.705L379.217 104.916L376.123 97.328H377.537L379.945 103.544L382.325 97.328H383.641ZM393.54 99.974C393.895 100.03 394.217 100.175 394.506 100.408C394.805 100.641 395.038 100.931 395.206 101.276C395.384 101.621 395.472 101.99 395.472 102.382C395.472 102.877 395.346 103.325 395.094 103.726C394.842 104.118 394.474 104.431 393.988 104.664C393.512 104.888 392.948 105 392.294 105H388.654V95.242H392.154C392.817 95.242 393.382 95.354 393.848 95.578C394.315 95.7927 394.665 96.0867 394.898 96.46C395.132 96.8333 395.248 97.2533 395.248 97.72C395.248 98.2987 395.09 98.7793 394.772 99.162C394.464 99.5353 394.054 99.806 393.54 99.974ZM389.928 99.456H392.07C392.668 99.456 393.13 99.316 393.456 99.036C393.783 98.756 393.946 98.3687 393.946 97.874C393.946 97.3793 393.783 96.992 393.456 96.712C393.13 96.432 392.658 96.292 392.042 96.292H389.928V99.456ZM392.182 103.95C392.817 103.95 393.312 103.801 393.666 103.502C394.021 103.203 394.198 102.788 394.198 102.256C394.198 101.715 394.012 101.29 393.638 100.982C393.265 100.665 392.766 100.506 392.14 100.506H389.928V103.95H392.182ZM400.586 105.126C399.867 105.126 399.214 104.963 398.626 104.636C398.047 104.309 397.59 103.847 397.254 103.25C396.927 102.643 396.764 101.943 396.764 101.15C396.764 100.366 396.932 99.6753 397.268 99.078C397.613 98.4713 398.08 98.0093 398.668 97.692C399.256 97.3653 399.914 97.202 400.642 97.202C401.37 97.202 402.028 97.3653 402.616 97.692C403.204 98.0093 403.666 98.4667 404.002 99.064C404.347 99.6613 404.52 100.357 404.52 101.15C404.52 101.943 404.343 102.643 403.988 103.25C403.643 103.847 403.171 104.309 402.574 104.636C401.977 104.963 401.314 105.126 400.586 105.126ZM400.586 104.006C401.043 104.006 401.473 103.899 401.874 103.684C402.275 103.469 402.597 103.147 402.84 102.718C403.092 102.289 403.218 101.766 403.218 101.15C403.218 100.534 403.097 100.011 402.854 99.582C402.611 99.1527 402.294 98.8353 401.902 98.63C401.51 98.4153 401.085 98.308 400.628 98.308C400.161 98.308 399.732 98.4153 399.34 98.63C398.957 98.8353 398.649 99.1527 398.416 99.582C398.183 100.011 398.066 100.534 398.066 101.15C398.066 101.775 398.178 102.303 398.402 102.732C398.635 103.161 398.943 103.483 399.326 103.698C399.709 103.903 400.129 104.006 400.586 104.006ZM412.803 97.328L408.183 108.612H406.867L408.379 104.916L405.285 97.328H406.699L409.107 103.544L411.487 97.328H412.803ZM430.08 95.242L427.252 105H425.824L423.556 97.146L421.204 105L419.79 105.014L417.06 95.242H418.418L420.546 103.516L422.898 95.242H424.326L426.566 103.488L428.708 95.242H430.08ZM432.132 96.082C431.89 96.082 431.684 95.998 431.516 95.83C431.348 95.662 431.264 95.4567 431.264 95.214C431.264 94.9713 431.348 94.766 431.516 94.598C431.684 94.43 431.89 94.346 432.132 94.346C432.366 94.346 432.562 94.43 432.72 94.598C432.888 94.766 432.972 94.9713 432.972 95.214C432.972 95.4567 432.888 95.662 432.72 95.83C432.562 95.998 432.366 96.082 432.132 96.082ZM432.748 97.328V105H431.474V97.328H432.748ZM436.194 94.64V105H434.92V94.64H436.194ZM439.639 94.64V105H438.365V94.64H439.639ZM448.637 105.098C447.993 105.098 447.414 104.986 446.901 104.762C446.397 104.529 446 104.211 445.711 103.81C445.422 103.399 445.272 102.928 445.263 102.396H446.621C446.668 102.853 446.854 103.241 447.181 103.558C447.517 103.866 448.002 104.02 448.637 104.02C449.244 104.02 449.72 103.871 450.065 103.572C450.42 103.264 450.597 102.872 450.597 102.396C450.597 102.023 450.494 101.719 450.289 101.486C450.084 101.253 449.827 101.075 449.519 100.954C449.211 100.833 448.796 100.702 448.273 100.562C447.629 100.394 447.111 100.226 446.719 100.058C446.336 99.89 446.005 99.6287 445.725 99.274C445.454 98.91 445.319 98.4247 445.319 97.818C445.319 97.286 445.454 96.8147 445.725 96.404C445.996 95.9933 446.374 95.676 446.859 95.452C447.354 95.228 447.918 95.116 448.553 95.116C449.468 95.116 450.214 95.3447 450.793 95.802C451.381 96.2593 451.712 96.866 451.787 97.622H450.387C450.34 97.2487 450.144 96.922 449.799 96.642C449.454 96.3527 448.996 96.208 448.427 96.208C447.895 96.208 447.461 96.348 447.125 96.628C446.789 96.8987 446.621 97.2813 446.621 97.776C446.621 98.1307 446.719 98.42 446.915 98.644C447.12 98.868 447.368 99.0407 447.657 99.162C447.956 99.274 448.371 99.4047 448.903 99.554C449.547 99.7313 450.065 99.9087 450.457 100.086C450.849 100.254 451.185 100.52 451.465 100.884C451.745 101.239 451.885 101.724 451.885 102.34C451.885 102.816 451.759 103.264 451.507 103.684C451.255 104.104 450.882 104.445 450.387 104.706C449.892 104.967 449.309 105.098 448.637 105.098ZM457.568 97.188C458.146 97.188 458.669 97.314 459.136 97.566C459.602 97.8087 459.966 98.1773 460.228 98.672C460.498 99.1667 460.634 99.7687 460.634 100.478V105H459.374V100.66C459.374 99.8947 459.182 99.3113 458.8 98.91C458.417 98.4993 457.894 98.294 457.232 98.294C456.56 98.294 456.023 98.504 455.622 98.924C455.23 99.344 455.034 99.9553 455.034 100.758V105H453.76V94.64H455.034V98.42C455.286 98.028 455.631 97.7247 456.07 97.51C456.518 97.2953 457.017 97.188 457.568 97.188ZM466.061 105.126C465.342 105.126 464.689 104.963 464.101 104.636C463.522 104.309 463.065 103.847 462.729 103.25C462.402 102.643 462.239 101.943 462.239 101.15C462.239 100.366 462.407 99.6753 462.743 99.078C463.088 98.4713 463.555 98.0093 464.143 97.692C464.731 97.3653 465.389 97.202 466.117 97.202C466.845 97.202 467.503 97.3653 468.091 97.692C468.679 98.0093 469.141 98.4667 469.477 99.064C469.822 99.6613 469.995 100.357 469.995 101.15C469.995 101.943 469.817 102.643 469.463 103.25C469.117 103.847 468.646 104.309 468.049 104.636C467.451 104.963 466.789 105.126 466.061 105.126ZM466.061 104.006C466.518 104.006 466.947 103.899 467.349 103.684C467.75 103.469 468.072 103.147 468.315 102.718C468.567 102.289 468.693 101.766 468.693 101.15C468.693 100.534 468.571 100.011 468.329 99.582C468.086 99.1527 467.769 98.8353 467.377 98.63C466.985 98.4153 466.56 98.308 466.103 98.308C465.636 98.308 465.207 98.4153 464.815 98.63C464.432 98.8353 464.124 99.1527 463.891 99.582C463.657 100.011 463.541 100.534 463.541 101.15C463.541 101.775 463.653 102.303 463.877 102.732C464.11 103.161 464.418 103.483 464.801 103.698C465.183 103.903 465.603 104.006 466.061 104.006ZM472.944 98.742C473.196 98.3033 473.569 97.9393 474.064 97.65C474.568 97.3513 475.151 97.202 475.814 97.202C476.495 97.202 477.111 97.3653 477.662 97.692C478.222 98.0187 478.66 98.4807 478.978 99.078C479.295 99.666 479.454 100.352 479.454 101.136C479.454 101.911 479.295 102.601 478.978 103.208C478.66 103.815 478.222 104.286 477.662 104.622C477.111 104.958 476.495 105.126 475.814 105.126C475.16 105.126 474.582 104.981 474.078 104.692C473.583 104.393 473.205 104.025 472.944 103.586V108.64H471.67V97.328H472.944V98.742ZM478.152 101.136C478.152 100.557 478.035 100.053 477.802 99.624C477.568 99.1947 477.251 98.868 476.85 98.644C476.458 98.42 476.024 98.308 475.548 98.308C475.081 98.308 474.647 98.4247 474.246 98.658C473.854 98.882 473.536 99.2133 473.294 99.652C473.06 100.081 472.944 100.581 472.944 101.15C472.944 101.729 473.06 102.237 473.294 102.676C473.536 103.105 473.854 103.437 474.246 103.67C474.647 103.894 475.081 104.006 475.548 104.006C476.024 104.006 476.458 103.894 476.85 103.67C477.251 103.437 477.568 103.105 477.802 102.676C478.035 102.237 478.152 101.724 478.152 101.136ZM490.379 95.242V96.278H486.137V99.568H489.581V100.604H486.137V105H484.863V95.242H490.379ZM495.264 105.126C494.545 105.126 493.892 104.963 493.304 104.636C492.725 104.309 492.268 103.847 491.932 103.25C491.605 102.643 491.442 101.943 491.442 101.15C491.442 100.366 491.61 99.6753 491.946 99.078C492.291 98.4713 492.758 98.0093 493.346 97.692C493.934 97.3653 494.592 97.202 495.32 97.202C496.048 97.202 496.706 97.3653 497.294 97.692C497.882 98.0093 498.344 98.4667 498.68 99.064C499.025 99.6613 499.198 100.357 499.198 101.15C499.198 101.943 499.021 102.643 498.666 103.25C498.321 103.847 497.849 104.309 497.252 104.636C496.655 104.963 495.992 105.126 495.264 105.126ZM495.264 104.006C495.721 104.006 496.151 103.899 496.552 103.684C496.953 103.469 497.275 103.147 497.518 102.718C497.77 102.289 497.896 101.766 497.896 101.15C497.896 100.534 497.775 100.011 497.532 99.582C497.289 99.1527 496.972 98.8353 496.58 98.63C496.188 98.4153 495.763 98.308 495.306 98.308C494.839 98.308 494.41 98.4153 494.018 98.63C493.635 98.8353 493.327 99.1527 493.094 99.582C492.861 100.011 492.744 100.534 492.744 101.15C492.744 101.775 492.856 102.303 493.08 102.732C493.313 103.161 493.621 103.483 494.004 103.698C494.387 103.903 494.807 104.006 495.264 104.006ZM502.147 98.574C502.371 98.1353 502.688 97.7947 503.099 97.552C503.519 97.3093 504.028 97.188 504.625 97.188V98.504H504.289C502.861 98.504 502.147 99.2787 502.147 100.828V105H500.873V97.328H502.147V98.574ZM516.66 95.242L513.482 101.318V105H512.208V101.318L509.016 95.242H510.43L512.838 100.184L515.246 95.242H516.66ZM521.35 105.126C520.631 105.126 519.978 104.963 519.39 104.636C518.811 104.309 518.354 103.847 518.018 103.25C517.691 102.643 517.528 101.943 517.528 101.15C517.528 100.366 517.696 99.6753 518.032 99.078C518.377 98.4713 518.844 98.0093 519.432 97.692C520.02 97.3653 520.678 97.202 521.406 97.202C522.134 97.202 522.792 97.3653 523.38 97.692C523.968 98.0093 524.43 98.4667 524.766 99.064C525.111 99.6613 525.284 100.357 525.284 101.15C525.284 101.943 525.106 102.643 524.752 103.25C524.406 103.847 523.935 104.309 523.338 104.636C522.74 104.963 522.078 105.126 521.35 105.126ZM521.35 104.006C521.807 104.006 522.236 103.899 522.638 103.684C523.039 103.469 523.361 103.147 523.604 102.718C523.856 102.289 523.982 101.766 523.982 101.15C523.982 100.534 523.86 100.011 523.618 99.582C523.375 99.1527 523.058 98.8353 522.666 98.63C522.274 98.4153 521.849 98.308 521.392 98.308C520.925 98.308 520.496 98.4153 520.104 98.63C519.721 98.8353 519.413 99.1527 519.18 99.582C518.946 100.011 518.83 100.534 518.83 101.15C518.83 101.775 518.942 102.303 519.166 102.732C519.399 103.161 519.707 103.483 520.09 103.698C520.472 103.903 520.892 104.006 521.35 104.006ZM533.763 97.328V105H532.489V103.866C532.246 104.258 531.906 104.566 531.467 104.79C531.038 105.005 530.562 105.112 530.039 105.112C529.442 105.112 528.905 104.991 528.429 104.748C527.953 104.496 527.575 104.123 527.295 103.628C527.024 103.133 526.889 102.531 526.889 101.822V97.328H528.149V101.654C528.149 102.41 528.34 102.993 528.723 103.404C529.106 103.805 529.628 104.006 530.291 104.006C530.972 104.006 531.509 103.796 531.901 103.376C532.293 102.956 532.489 102.345 532.489 101.542V97.328H533.763ZM545.414 102.83H541.158L540.374 105H539.03L542.558 95.298H544.028L547.542 105H546.198L545.414 102.83ZM545.05 101.794L543.286 96.866L541.522 101.794H545.05ZM552.818 97.188C553.751 97.188 554.507 97.4727 555.086 98.042C555.665 98.602 555.954 99.414 555.954 100.478V105H554.694V100.66C554.694 99.8947 554.503 99.3113 554.12 98.91C553.737 98.4993 553.215 98.294 552.552 98.294C551.88 98.294 551.343 98.504 550.942 98.924C550.55 99.344 550.354 99.9553 550.354 100.758V105H549.08V97.328H550.354V98.42C550.606 98.028 550.947 97.7247 551.376 97.51C551.815 97.2953 552.295 97.188 552.818 97.188ZM557.559 101.136C557.559 100.352 557.718 99.666 558.035 99.078C558.352 98.4807 558.786 98.0187 559.337 97.692C559.897 97.3653 560.522 97.202 561.213 97.202C561.81 97.202 562.366 97.342 562.879 97.622C563.392 97.8927 563.784 98.252 564.055 98.7V94.64H565.343V105H564.055V103.558C563.803 104.015 563.43 104.393 562.935 104.692C562.44 104.981 561.862 105.126 561.199 105.126C560.518 105.126 559.897 104.958 559.337 104.622C558.786 104.286 558.352 103.815 558.035 103.208C557.718 102.601 557.559 101.911 557.559 101.136ZM564.055 101.15C564.055 100.571 563.938 100.067 563.705 99.638C563.472 99.2087 563.154 98.882 562.753 98.658C562.361 98.4247 561.927 98.308 561.451 98.308C560.975 98.308 560.541 98.42 560.149 98.644C559.757 98.868 559.444 99.1947 559.211 99.624C558.978 100.053 558.861 100.557 558.861 101.136C558.861 101.724 558.978 102.237 559.211 102.676C559.444 103.105 559.757 103.437 560.149 103.67C560.541 103.894 560.975 104.006 561.451 104.006C561.927 104.006 562.361 103.894 562.753 103.67C563.154 103.437 563.472 103.105 563.705 102.676C563.938 102.237 564.055 101.729 564.055 101.15ZM574.266 95.242C575.33 95.242 576.25 95.4427 577.024 95.844C577.808 96.236 578.406 96.8007 578.816 97.538C579.236 98.2753 579.446 99.1433 579.446 100.142C579.446 101.141 579.236 102.009 578.816 102.746C578.406 103.474 577.808 104.034 577.024 104.426C576.25 104.809 575.33 105 574.266 105H571.228V95.242H574.266ZM574.266 103.95C575.526 103.95 576.488 103.619 577.15 102.956C577.813 102.284 578.144 101.346 578.144 100.142C578.144 98.9287 577.808 97.9813 577.136 97.3C576.474 96.6187 575.517 96.278 574.266 96.278H572.502V103.95H574.266ZM588.127 100.87C588.127 101.113 588.113 101.369 588.085 101.64H581.953C581.999 102.396 582.256 102.989 582.723 103.418C583.199 103.838 583.773 104.048 584.445 104.048C584.995 104.048 585.453 103.922 585.817 103.67C586.19 103.409 586.451 103.063 586.601 102.634H587.973C587.767 103.371 587.357 103.973 586.741 104.44C586.125 104.897 585.359 105.126 584.445 105.126C583.717 105.126 583.063 104.963 582.485 104.636C581.915 104.309 581.467 103.847 581.141 103.25C580.814 102.643 580.651 101.943 580.651 101.15C580.651 100.357 580.809 99.6613 581.127 99.064C581.444 98.4667 581.887 98.0093 582.457 97.692C583.035 97.3653 583.698 97.202 584.445 97.202C585.173 97.202 585.817 97.3607 586.377 97.678C586.937 97.9953 587.366 98.434 587.665 98.994C587.973 99.5447 588.127 100.17 588.127 100.87ZM586.811 100.604C586.811 100.119 586.703 99.7033 586.489 99.358C586.274 99.0033 585.98 98.7373 585.607 98.56C585.243 98.3733 584.837 98.28 584.389 98.28C583.745 98.28 583.194 98.4853 582.737 98.896C582.289 99.3067 582.032 99.876 581.967 100.604H586.811ZM591.082 94.64V105H589.808V94.64H591.082ZM593.912 96.082C593.669 96.082 593.464 95.998 593.296 95.83C593.128 95.662 593.044 95.4567 593.044 95.214C593.044 94.9713 593.128 94.766 593.296 94.598C593.464 94.43 593.669 94.346 593.912 94.346C594.145 94.346 594.341 94.43 594.5 94.598C594.668 94.766 594.752 94.9713 594.752 95.214C594.752 95.4567 594.668 95.662 594.5 95.83C594.341 95.998 594.145 96.082 593.912 96.082ZM594.528 97.328V105H593.254V97.328H594.528ZM599.555 103.824L601.935 97.328H603.293L600.283 105H598.799L595.789 97.328H597.161L599.555 103.824ZM611.547 100.87C611.547 101.113 611.533 101.369 611.505 101.64H605.373C605.419 102.396 605.676 102.989 606.143 103.418C606.619 103.838 607.193 104.048 607.865 104.048C608.415 104.048 608.873 103.922 609.237 103.67C609.61 103.409 609.871 103.063 610.021 102.634H611.393C611.187 103.371 610.777 103.973 610.161 104.44C609.545 104.897 608.779 105.126 607.865 105.126C607.137 105.126 606.483 104.963 605.905 104.636C605.335 104.309 604.887 103.847 604.561 103.25C604.234 102.643 604.071 101.943 604.071 101.15C604.071 100.357 604.229 99.6613 604.547 99.064C604.864 98.4667 605.307 98.0093 605.877 97.692C606.455 97.3653 607.118 97.202 607.865 97.202C608.593 97.202 609.237 97.3607 609.797 97.678C610.357 97.9953 610.786 98.434 611.085 98.994C611.393 99.5447 611.547 100.17 611.547 100.87ZM610.231 100.604C610.231 100.119 610.123 99.7033 609.909 99.358C609.694 99.0033 609.4 98.7373 609.027 98.56C608.663 98.3733 608.257 98.28 607.809 98.28C607.165 98.28 606.614 98.4853 606.157 98.896C605.709 99.3067 605.452 99.876 605.387 100.604H610.231ZM614.502 98.574C614.726 98.1353 615.044 97.7947 615.454 97.552C615.874 97.3093 616.383 97.188 616.98 97.188V98.504H616.644C615.216 98.504 614.502 99.2787 614.502 100.828V105H613.228V97.328H614.502V98.574ZM628.189 95.242V96.278H625.529V105H624.255V96.278H621.581V95.242H628.189ZM633.104 105.126C632.385 105.126 631.732 104.963 631.144 104.636C630.565 104.309 630.108 103.847 629.772 103.25C629.445 102.643 629.282 101.943 629.282 101.15C629.282 100.366 629.45 99.6753 629.786 99.078C630.131 98.4713 630.598 98.0093 631.186 97.692C631.774 97.3653 632.432 97.202 633.16 97.202C633.888 97.202 634.546 97.3653 635.134 97.692C635.722 98.0093 636.184 98.4667 636.52 99.064C636.865 99.6613 637.038 100.357 637.038 101.15C637.038 101.943 636.86 102.643 636.506 103.25C636.16 103.847 635.689 104.309 635.092 104.636C634.494 104.963 633.832 105.126 633.104 105.126ZM633.104 104.006C633.561 104.006 633.99 103.899 634.392 103.684C634.793 103.469 635.115 103.147 635.358 102.718C635.61 102.289 635.736 101.766 635.736 101.15C635.736 100.534 635.614 100.011 635.372 99.582C635.129 99.1527 634.812 98.8353 634.42 98.63C634.028 98.4153 633.603 98.308 633.146 98.308C632.679 98.308 632.25 98.4153 631.858 98.63C631.475 98.8353 631.167 99.1527 630.934 99.582C630.7 100.011 630.584 100.534 630.584 101.15C630.584 101.775 630.696 102.303 630.92 102.732C631.153 103.161 631.461 103.483 631.844 103.698C632.226 103.903 632.646 104.006 633.104 104.006ZM649.277 95.242L646.099 101.318V105H644.825V101.318L641.633 95.242H643.047L645.455 100.184L647.863 95.242H649.277ZM653.967 105.126C653.248 105.126 652.595 104.963 652.007 104.636C651.428 104.309 650.971 103.847 650.635 103.25C650.308 102.643 650.145 101.943 650.145 101.15C650.145 100.366 650.313 99.6753 650.649 99.078C650.994 98.4713 651.461 98.0093 652.049 97.692C652.637 97.3653 653.295 97.202 654.023 97.202C654.751 97.202 655.409 97.3653 655.997 97.692C656.585 98.0093 657.047 98.4667 657.383 99.064C657.728 99.6613 657.901 100.357 657.901 101.15C657.901 101.943 657.724 102.643 657.369 103.25C657.024 103.847 656.552 104.309 655.955 104.636C655.358 104.963 654.695 105.126 653.967 105.126ZM653.967 104.006C654.424 104.006 654.854 103.899 655.255 103.684C655.656 103.469 655.978 103.147 656.221 102.718C656.473 102.289 656.599 101.766 656.599 101.15C656.599 100.534 656.478 100.011 656.235 99.582C655.992 99.1527 655.675 98.8353 655.283 98.63C654.891 98.4153 654.466 98.308 654.009 98.308C653.542 98.308 653.113 98.4153 652.721 98.63C652.338 98.8353 652.03 99.1527 651.797 99.582C651.564 100.011 651.447 100.534 651.447 101.15C651.447 101.775 651.559 102.303 651.783 102.732C652.016 103.161 652.324 103.483 652.707 103.698C653.09 103.903 653.51 104.006 653.967 104.006ZM666.38 97.328V105H665.106V103.866C664.863 104.258 664.523 104.566 664.084 104.79C663.655 105.005 663.179 105.112 662.656 105.112C662.059 105.112 661.522 104.991 661.046 104.748C660.57 104.496 660.192 104.123 659.912 103.628C659.641 103.133 659.506 102.531 659.506 101.822V97.328H660.766V101.654C660.766 102.41 660.957 102.993 661.34 103.404C661.723 103.805 662.245 104.006 662.908 104.006C663.589 104.006 664.126 103.796 664.518 103.376C664.91 102.956 665.106 102.345 665.106 101.542V97.328H666.38ZM669.805 98.574C670.029 98.1353 670.346 97.7947 670.757 97.552C671.177 97.3093 671.686 97.188 672.283 97.188V98.504H671.947C670.519 98.504 669.805 99.2787 669.805 100.828V105H668.531V97.328H669.805V98.574ZM680.524 95.242C681.588 95.242 682.508 95.4427 683.282 95.844C684.066 96.236 684.664 96.8007 685.074 97.538C685.494 98.2753 685.704 99.1433 685.704 100.142C685.704 101.141 685.494 102.009 685.074 102.746C684.664 103.474 684.066 104.034 683.282 104.426C682.508 104.809 681.588 105 680.524 105H677.486V95.242H680.524ZM680.524 103.95C681.784 103.95 682.746 103.619 683.408 102.956C684.071 102.284 684.402 101.346 684.402 100.142C684.402 98.9287 684.066 97.9813 683.394 97.3C682.732 96.6187 681.775 96.278 680.524 96.278H678.76V103.95H680.524ZM690.731 105.126C690.012 105.126 689.359 104.963 688.771 104.636C688.192 104.309 687.735 103.847 687.399 103.25C687.072 102.643 686.909 101.943 686.909 101.15C686.909 100.366 687.077 99.6753 687.413 99.078C687.758 98.4713 688.225 98.0093 688.813 97.692C689.401 97.3653 690.059 97.202 690.787 97.202C691.515 97.202 692.173 97.3653 692.761 97.692C693.349 98.0093 693.811 98.4667 694.147 99.064C694.492 99.6613 694.665 100.357 694.665 101.15C694.665 101.943 694.487 102.643 694.133 103.25C693.787 103.847 693.316 104.309 692.719 104.636C692.121 104.963 691.459 105.126 690.731 105.126ZM690.731 104.006C691.188 104.006 691.617 103.899 692.019 103.684C692.42 103.469 692.742 103.147 692.985 102.718C693.237 102.289 693.363 101.766 693.363 101.15C693.363 100.534 693.241 100.011 692.999 99.582C692.756 99.1527 692.439 98.8353 692.047 98.63C691.655 98.4153 691.23 98.308 690.773 98.308C690.306 98.308 689.877 98.4153 689.485 98.63C689.102 98.8353 688.794 99.1527 688.561 99.582C688.327 100.011 688.211 100.534 688.211 101.15C688.211 101.775 688.323 102.303 688.547 102.732C688.78 103.161 689.088 103.483 689.471 103.698C689.853 103.903 690.273 104.006 690.731 104.006ZM699.686 105.126C698.967 105.126 698.314 104.963 697.726 104.636C697.147 104.309 696.69 103.847 696.354 103.25C696.027 102.643 695.864 101.943 695.864 101.15C695.864 100.366 696.032 99.6753 696.368 99.078C696.713 98.4713 697.18 98.0093 697.768 97.692C698.356 97.3653 699.014 97.202 699.742 97.202C700.47 97.202 701.128 97.3653 701.716 97.692C702.304 98.0093 702.766 98.4667 703.102 99.064C703.447 99.6613 703.62 100.357 703.62 101.15C703.62 101.943 703.442 102.643 703.088 103.25C702.742 103.847 702.271 104.309 701.674 104.636C701.076 104.963 700.414 105.126 699.686 105.126ZM699.686 104.006C700.143 104.006 700.572 103.899 700.974 103.684C701.375 103.469 701.697 103.147 701.94 102.718C702.192 102.289 702.318 101.766 702.318 101.15C702.318 100.534 702.196 100.011 701.954 99.582C701.711 99.1527 701.394 98.8353 701.002 98.63C700.61 98.4153 700.185 98.308 699.728 98.308C699.261 98.308 698.832 98.4153 698.44 98.63C698.057 98.8353 697.749 99.1527 697.516 99.582C697.282 100.011 697.166 100.534 697.166 101.15C697.166 101.775 697.278 102.303 697.502 102.732C697.735 103.161 698.043 103.483 698.426 103.698C698.808 103.903 699.228 104.006 699.686 104.006ZM706.569 98.574C706.793 98.1353 707.11 97.7947 707.521 97.552C707.941 97.3093 708.449 97.188 709.047 97.188V98.504H708.711C707.283 98.504 706.569 99.2787 706.569 100.828V105H705.295V97.328H706.569V98.574ZM717.344 105.098C716.7 105.098 716.121 104.986 715.608 104.762C715.104 104.529 714.707 104.211 714.418 103.81C714.129 103.399 713.979 102.928 713.97 102.396H715.328C715.375 102.853 715.561 103.241 715.888 103.558C716.224 103.866 716.709 104.02 717.344 104.02C717.951 104.02 718.427 103.871 718.772 103.572C719.127 103.264 719.304 102.872 719.304 102.396C719.304 102.023 719.201 101.719 718.996 101.486C718.791 101.253 718.534 101.075 718.226 100.954C717.918 100.833 717.503 100.702 716.98 100.562C716.336 100.394 715.818 100.226 715.426 100.058C715.043 99.89 714.712 99.6287 714.432 99.274C714.161 98.91 714.026 98.4247 714.026 97.818C714.026 97.286 714.161 96.8147 714.432 96.404C714.703 95.9933 715.081 95.676 715.566 95.452C716.061 95.228 716.625 95.116 717.26 95.116C718.175 95.116 718.921 95.3447 719.5 95.802C720.088 96.2593 720.419 96.866 720.494 97.622H719.094C719.047 97.2487 718.851 96.922 718.506 96.642C718.161 96.3527 717.703 96.208 717.134 96.208C716.602 96.208 716.168 96.348 715.832 96.628C715.496 96.8987 715.328 97.2813 715.328 97.776C715.328 98.1307 715.426 98.42 715.622 98.644C715.827 98.868 716.075 99.0407 716.364 99.162C716.663 99.274 717.078 99.4047 717.61 99.554C718.254 99.7313 718.772 99.9087 719.164 100.086C719.556 100.254 719.892 100.52 720.172 100.884C720.452 101.239 720.592 101.724 720.592 102.34C720.592 102.816 720.466 103.264 720.214 103.684C719.962 104.104 719.589 104.445 719.094 104.706C718.599 104.967 718.016 105.098 717.344 105.098ZM724.021 98.378V102.9C724.021 103.273 724.1 103.539 724.259 103.698C724.417 103.847 724.693 103.922 725.085 103.922H726.023V105H724.875C724.165 105 723.633 104.837 723.279 104.51C722.924 104.183 722.747 103.647 722.747 102.9V98.378H721.753V97.328H722.747V95.396H724.021V97.328H726.023V98.378H724.021ZM734.566 100.87C734.566 101.113 734.552 101.369 734.524 101.64H728.392C728.439 102.396 728.696 102.989 729.162 103.418C729.638 103.838 730.212 104.048 730.884 104.048C731.435 104.048 731.892 103.922 732.256 103.67C732.63 103.409 732.891 103.063 733.04 102.634H734.412C734.207 103.371 733.796 103.973 733.18 104.44C732.564 104.897 731.799 105.126 730.884 105.126C730.156 105.126 729.503 104.963 728.924 104.636C728.355 104.309 727.907 103.847 727.58 103.25C727.254 102.643 727.09 101.943 727.09 101.15C727.09 100.357 727.249 99.6613 727.566 99.064C727.884 98.4667 728.327 98.0093 728.896 97.692C729.475 97.3653 730.138 97.202 730.884 97.202C731.612 97.202 732.256 97.3607 732.816 97.678C733.376 97.9953 733.806 98.434 734.104 98.994C734.412 99.5447 734.566 100.17 734.566 100.87ZM733.25 100.604C733.25 100.119 733.143 99.7033 732.928 99.358C732.714 99.0033 732.42 98.7373 732.046 98.56C731.682 98.3733 731.276 98.28 730.828 98.28C730.184 98.28 729.634 98.4853 729.176 98.896C728.728 99.3067 728.472 99.876 728.406 100.604H733.25ZM737.522 98.742C737.774 98.3033 738.147 97.9393 738.642 97.65C739.146 97.3513 739.729 97.202 740.392 97.202C741.073 97.202 741.689 97.3653 742.24 97.692C742.8 98.0187 743.239 98.4807 743.556 99.078C743.873 99.666 744.032 100.352 744.032 101.136C744.032 101.911 743.873 102.601 743.556 103.208C743.239 103.815 742.8 104.286 742.24 104.622C741.689 104.958 741.073 105.126 740.392 105.126C739.739 105.126 739.16 104.981 738.656 104.692C738.161 104.393 737.783 104.025 737.522 103.586V108.64H736.248V97.328H737.522V98.742ZM742.73 101.136C742.73 100.557 742.613 100.053 742.38 99.624C742.147 99.1947 741.829 98.868 741.428 98.644C741.036 98.42 740.602 98.308 740.126 98.308C739.659 98.308 739.225 98.4247 738.824 98.658C738.432 98.882 738.115 99.2133 737.872 99.652C737.639 100.081 737.522 100.581 737.522 101.15C737.522 101.729 737.639 102.237 737.872 102.676C738.115 103.105 738.432 103.437 738.824 103.67C739.225 103.894 739.659 104.006 740.126 104.006C740.602 104.006 741.036 103.894 741.428 103.67C741.829 103.437 742.147 103.105 742.38 102.676C742.613 102.237 742.73 101.724 742.73 101.136ZM748.425 105.126C747.837 105.126 747.31 105.028 746.843 104.832C746.376 104.627 746.008 104.347 745.737 103.992C745.466 103.628 745.317 103.213 745.289 102.746H746.605C746.642 103.129 746.82 103.441 747.137 103.684C747.464 103.927 747.888 104.048 748.411 104.048C748.896 104.048 749.279 103.941 749.559 103.726C749.839 103.511 749.979 103.241 749.979 102.914C749.979 102.578 749.83 102.331 749.531 102.172C749.232 102.004 748.77 101.841 748.145 101.682C747.576 101.533 747.109 101.383 746.745 101.234C746.39 101.075 746.082 100.847 745.821 100.548C745.569 100.24 745.443 99.8387 745.443 99.344C745.443 98.952 745.56 98.5927 745.793 98.266C746.026 97.9393 746.358 97.6827 746.787 97.496C747.216 97.3 747.706 97.202 748.257 97.202C749.106 97.202 749.792 97.4167 750.315 97.846C750.838 98.2753 751.118 98.8633 751.155 99.61H749.881C749.853 99.2087 749.69 98.8867 749.391 98.644C749.102 98.4013 748.71 98.28 748.215 98.28C747.758 98.28 747.394 98.378 747.123 98.574C746.852 98.77 746.717 99.0267 746.717 99.344C746.717 99.596 746.796 99.806 746.955 99.974C747.123 100.133 747.328 100.263 747.571 100.366C747.823 100.459 748.168 100.567 748.607 100.688C749.158 100.837 749.606 100.987 749.951 101.136C750.296 101.276 750.59 101.491 750.833 101.78C751.085 102.069 751.216 102.447 751.225 102.914C751.225 103.334 751.108 103.712 750.875 104.048C750.642 104.384 750.31 104.65 749.881 104.846C749.461 105.033 748.976 105.126 748.425 105.126ZM753.429 105.084C753.187 105.084 752.981 105 752.813 104.832C752.645 104.664 752.561 104.459 752.561 104.216C752.561 103.973 752.645 103.768 752.813 103.6C752.981 103.432 753.187 103.348 753.429 103.348C753.663 103.348 753.859 103.432 754.017 103.6C754.185 103.768 754.269 103.973 754.269 104.216C754.269 104.459 754.185 104.664 754.017 104.832C753.859 105 753.663 105.084 753.429 105.084Z" fill="black" fill-opacity="0.75"/>
</svg>
