<svg width="1280" height="123" viewBox="0 0 1280 123" fill="none" xmlns="http://www.w3.org/2000/svg">
<path d="M647.084 43.242V44.278H644.424V53H643.15V44.278H640.476V43.242H647.084ZM652.46 45.188C653.039 45.188 653.562 45.314 654.028 45.566C654.495 45.8087 654.859 46.1773 655.12 46.672C655.391 47.1667 655.526 47.7687 655.526 48.478V53H654.266V48.66C654.266 47.8947 654.075 47.3113 653.692 46.91C653.31 46.4993 652.787 46.294 652.124 46.294C651.452 46.294 650.916 46.504 650.514 46.924C650.122 47.344 649.926 47.9553 649.926 48.758V53H648.652V42.64H649.926V46.42C650.178 46.028 650.524 45.7247 650.962 45.51C651.41 45.2953 651.91 45.188 652.46 45.188ZM664.607 48.87C664.607 49.1127 664.593 49.3693 664.565 49.64H658.433C658.48 50.396 658.737 50.9887 659.203 51.418C659.679 51.838 660.253 52.048 660.925 52.048C661.476 52.048 661.933 51.922 662.297 51.67C662.671 51.4087 662.932 51.0633 663.081 50.634H664.453C664.248 51.3713 663.837 51.9733 663.221 52.44C662.605 52.8973 661.84 53.126 660.925 53.126C660.197 53.126 659.544 52.9627 658.965 52.636C658.396 52.3093 657.948 51.8473 657.621 51.25C657.295 50.6433 657.131 49.9433 657.131 49.15C657.131 48.3567 657.29 47.6613 657.607 47.064C657.925 46.4667 658.368 46.0093 658.937 45.692C659.516 45.3653 660.179 45.202 660.925 45.202C661.653 45.202 662.297 45.3607 662.857 45.678C663.417 45.9953 663.847 46.434 664.145 46.994C664.453 47.5447 664.607 48.17 664.607 48.87ZM663.291 48.604C663.291 48.1187 663.184 47.7033 662.969 47.358C662.755 47.0033 662.461 46.7373 662.087 46.56C661.723 46.3733 661.317 46.28 660.869 46.28C660.225 46.28 659.675 46.4853 659.217 46.896C658.769 47.3067 658.513 47.876 658.447 48.604H663.291ZM673.367 53.126C672.649 53.126 671.995 52.9627 671.407 52.636C670.829 52.3093 670.371 51.8473 670.035 51.25C669.709 50.6433 669.545 49.9433 669.545 49.15C669.545 48.366 669.713 47.6753 670.049 47.078C670.395 46.4713 670.861 46.0093 671.449 45.692C672.037 45.3653 672.695 45.202 673.423 45.202C674.151 45.202 674.809 45.3653 675.397 45.692C675.985 46.0093 676.447 46.4667 676.783 47.064C677.129 47.6613 677.301 48.3567 677.301 49.15C677.301 49.9433 677.124 50.6433 676.769 51.25C676.424 51.8473 675.953 52.3093 675.355 52.636C674.758 52.9627 674.095 53.126 673.367 53.126ZM673.367 52.006C673.825 52.006 674.254 51.8987 674.655 51.684C675.057 51.4693 675.379 51.1473 675.621 50.718C675.873 50.2887 675.999 49.766 675.999 49.15C675.999 48.534 675.878 48.0113 675.635 47.582C675.393 47.1527 675.075 46.8353 674.683 46.63C674.291 46.4153 673.867 46.308 673.409 46.308C672.943 46.308 672.513 46.4153 672.121 46.63C671.739 46.8353 671.431 47.1527 671.197 47.582C670.964 48.0113 670.847 48.534 670.847 49.15C670.847 49.7753 670.959 50.3027 671.183 50.732C671.417 51.1613 671.725 51.4833 672.107 51.698C672.49 51.9033 672.91 52.006 673.367 52.006ZM682.714 45.188C683.648 45.188 684.404 45.4727 684.982 46.042C685.561 46.602 685.85 47.414 685.85 48.478V53H684.59V48.66C684.59 47.8947 684.399 47.3113 684.016 46.91C683.634 46.4993 683.111 46.294 682.448 46.294C681.776 46.294 681.24 46.504 680.838 46.924C680.446 47.344 680.25 47.9553 680.25 48.758V53H678.976V45.328H680.25V46.42C680.502 46.028 680.843 45.7247 681.272 45.51C681.711 45.2953 682.192 45.188 682.714 45.188ZM694.932 48.87C694.932 49.1127 694.918 49.3693 694.89 49.64H688.758C688.804 50.396 689.061 50.9887 689.528 51.418C690.004 51.838 690.578 52.048 691.25 52.048C691.8 52.048 692.258 51.922 692.622 51.67C692.995 51.4087 693.256 51.0633 693.406 50.634H694.778C694.572 51.3713 694.162 51.9733 693.546 52.44C692.93 52.8973 692.164 53.126 691.25 53.126C690.522 53.126 689.868 52.9627 689.29 52.636C688.72 52.3093 688.272 51.8473 687.946 51.25C687.619 50.6433 687.456 49.9433 687.456 49.15C687.456 48.3567 687.614 47.6613 687.932 47.064C688.249 46.4667 688.692 46.0093 689.262 45.692C689.84 45.3653 690.503 45.202 691.25 45.202C691.978 45.202 692.622 45.3607 693.182 45.678C693.742 45.9953 694.171 46.434 694.47 46.994C694.778 47.5447 694.932 48.17 694.932 48.87ZM693.616 48.604C693.616 48.1187 693.508 47.7033 693.294 47.358C693.079 47.0033 692.785 46.7373 692.412 46.56C692.048 46.3733 691.642 46.28 691.194 46.28C690.55 46.28 689.999 46.4853 689.542 46.896C689.094 47.3067 688.837 47.876 688.772 48.604H693.616ZM703.692 53.126C702.973 53.126 702.32 52.9627 701.732 52.636C701.153 52.3093 700.696 51.8473 700.36 51.25C700.033 50.6433 699.87 49.9433 699.87 49.15C699.87 48.366 700.038 47.6753 700.374 47.078C700.719 46.4713 701.186 46.0093 701.774 45.692C702.362 45.3653 703.02 45.202 703.748 45.202C704.476 45.202 705.134 45.3653 705.722 45.692C706.31 46.0093 706.772 46.4667 707.108 47.064C707.453 47.6613 707.626 48.3567 707.626 49.15C707.626 49.9433 707.448 50.6433 707.094 51.25C706.748 51.8473 706.277 52.3093 705.68 52.636C705.082 52.9627 704.42 53.126 703.692 53.126ZM703.692 52.006C704.149 52.006 704.578 51.8987 704.98 51.684C705.381 51.4693 705.703 51.1473 705.946 50.718C706.198 50.2887 706.324 49.766 706.324 49.15C706.324 48.534 706.202 48.0113 705.96 47.582C705.717 47.1527 705.4 46.8353 705.008 46.63C704.616 46.4153 704.191 46.308 703.734 46.308C703.267 46.308 702.838 46.4153 702.446 46.63C702.063 46.8353 701.755 47.1527 701.522 47.582C701.288 48.0113 701.172 48.534 701.172 49.15C701.172 49.7753 701.284 50.3027 701.508 50.732C701.741 51.1613 702.049 51.4833 702.432 51.698C702.814 51.9033 703.234 52.006 703.692 52.006ZM712.423 46.378H710.813V53H709.539V46.378H708.545V45.328H709.539V44.782C709.539 43.9233 709.758 43.298 710.197 42.906C710.645 42.5047 711.359 42.304 712.339 42.304V43.368C711.779 43.368 711.382 43.48 711.149 43.704C710.925 43.9187 710.813 44.278 710.813 44.782V45.328H712.423V46.378ZM719.195 46.378V50.9C719.195 51.2733 719.274 51.5393 719.433 51.698C719.591 51.8473 719.867 51.922 720.258 51.922H721.197V53H720.049C719.339 53 718.807 52.8367 718.453 52.51C718.098 52.1833 717.921 51.6467 717.921 50.9V46.378H716.927V45.328H717.921V43.396H719.195V45.328H721.197V46.378H719.195ZM726.548 45.188C727.127 45.188 727.649 45.314 728.116 45.566C728.583 45.8087 728.947 46.1773 729.208 46.672C729.479 47.1667 729.614 47.7687 729.614 48.478V53H728.354V48.66C728.354 47.8947 728.163 47.3113 727.78 46.91C727.397 46.4993 726.875 46.294 726.212 46.294C725.54 46.294 725.003 46.504 724.602 46.924C724.21 47.344 724.014 47.9553 724.014 48.758V53H722.74V42.64H724.014V46.42C724.266 46.028 724.611 45.7247 725.05 45.51C725.498 45.2953 725.997 45.188 726.548 45.188ZM738.695 48.87C738.695 49.1127 738.681 49.3693 738.653 49.64H732.521C732.568 50.396 732.825 50.9887 733.291 51.418C733.767 51.838 734.341 52.048 735.013 52.048C735.564 52.048 736.021 51.922 736.385 51.67C736.759 51.4087 737.02 51.0633 737.169 50.634H738.541C738.336 51.3713 737.925 51.9733 737.309 52.44C736.693 52.8973 735.928 53.126 735.013 53.126C734.285 53.126 733.632 52.9627 733.053 52.636C732.484 52.3093 732.036 51.8473 731.709 51.25C731.383 50.6433 731.219 49.9433 731.219 49.15C731.219 48.3567 731.378 47.6613 731.695 47.064C732.013 46.4667 732.456 46.0093 733.025 45.692C733.604 45.3653 734.267 45.202 735.013 45.202C735.741 45.202 736.385 45.3607 736.945 45.678C737.505 45.9953 737.935 46.434 738.233 46.994C738.541 47.5447 738.695 48.17 738.695 48.87ZM737.379 48.604C737.379 48.1187 737.272 47.7033 737.057 47.358C736.843 47.0033 736.549 46.7373 736.175 46.56C735.811 46.3733 735.405 46.28 734.957 46.28C734.313 46.28 733.763 46.4853 733.305 46.896C732.857 47.3067 732.601 47.876 732.535 48.604H737.379ZM745.663 46.378V50.9C745.663 51.2733 745.743 51.5393 745.901 51.698C746.06 51.8473 746.335 51.922 746.727 51.922H747.665V53H746.517C745.808 53 745.276 52.8367 744.921 52.51C744.567 52.1833 744.389 51.6467 744.389 50.9V46.378H743.395V45.328H744.389V43.396H745.663V45.328H747.665V46.378H745.663ZM752.555 53.126C751.836 53.126 751.183 52.9627 750.595 52.636C750.016 52.3093 749.559 51.8473 749.223 51.25C748.896 50.6433 748.733 49.9433 748.733 49.15C748.733 48.366 748.901 47.6753 749.237 47.078C749.582 46.4713 750.049 46.0093 750.637 45.692C751.225 45.3653 751.883 45.202 752.611 45.202C753.339 45.202 753.997 45.3653 754.585 45.692C755.173 46.0093 755.635 46.4667 755.971 47.064C756.316 47.6613 756.489 48.3567 756.489 49.15C756.489 49.9433 756.312 50.6433 755.957 51.25C755.612 51.8473 755.14 52.3093 754.543 52.636C753.946 52.9627 753.283 53.126 752.555 53.126ZM752.555 52.006C753.012 52.006 753.442 51.8987 753.843 51.684C754.244 51.4693 754.566 51.1473 754.809 50.718C755.061 50.2887 755.187 49.766 755.187 49.15C755.187 48.534 755.066 48.0113 754.823 47.582C754.58 47.1527 754.263 46.8353 753.871 46.63C753.479 46.4153 753.054 46.308 752.597 46.308C752.13 46.308 751.701 46.4153 751.309 46.63C750.926 46.8353 750.618 47.1527 750.385 47.582C750.152 48.0113 750.035 48.534 750.035 49.15C750.035 49.7753 750.147 50.3027 750.371 50.732C750.604 51.1613 750.912 51.4833 751.295 51.698C751.678 51.9033 752.098 52.006 752.555 52.006ZM759.438 46.742C759.69 46.3033 760.063 45.9393 760.558 45.65C761.062 45.3513 761.645 45.202 762.308 45.202C762.989 45.202 763.605 45.3653 764.156 45.692C764.716 46.0187 765.155 46.4807 765.472 47.078C765.789 47.666 765.948 48.352 765.948 49.136C765.948 49.9107 765.789 50.6013 765.472 51.208C765.155 51.8147 764.716 52.286 764.156 52.622C763.605 52.958 762.989 53.126 762.308 53.126C761.655 53.126 761.076 52.9813 760.572 52.692C760.077 52.3933 759.699 52.0247 759.438 51.586V56.64H758.164V45.328H759.438V46.742ZM764.646 49.136C764.646 48.5573 764.529 48.0533 764.296 47.624C764.063 47.1947 763.745 46.868 763.344 46.644C762.952 46.42 762.518 46.308 762.042 46.308C761.575 46.308 761.141 46.4247 760.74 46.658C760.348 46.882 760.031 47.2133 759.788 47.652C759.555 48.0813 759.438 48.5807 759.438 49.15C759.438 49.7287 759.555 50.2373 759.788 50.676C760.031 51.1053 760.348 51.4367 760.74 51.67C761.141 51.894 761.575 52.006 762.042 52.006C762.518 52.006 762.952 51.894 763.344 51.67C763.745 51.4367 764.063 51.1053 764.296 50.676C764.529 50.2373 764.646 49.724 764.646 49.136ZM774.703 53.126C773.985 53.126 773.331 52.9627 772.743 52.636C772.165 52.3093 771.707 51.8473 771.371 51.25C771.045 50.6433 770.881 49.9433 770.881 49.15C770.881 48.366 771.049 47.6753 771.385 47.078C771.731 46.4713 772.197 46.0093 772.785 45.692C773.373 45.3653 774.031 45.202 774.759 45.202C775.487 45.202 776.145 45.3653 776.733 45.692C777.321 46.0093 777.783 46.4667 778.119 47.064C778.465 47.6613 778.637 48.3567 778.637 49.15C778.637 49.9433 778.46 50.6433 778.105 51.25C777.76 51.8473 777.289 52.3093 776.691 52.636C776.094 52.9627 775.431 53.126 774.703 53.126ZM774.703 52.006C775.161 52.006 775.59 51.8987 775.991 51.684C776.393 51.4693 776.715 51.1473 776.957 50.718C777.209 50.2887 777.335 49.766 777.335 49.15C777.335 48.534 777.214 48.0113 776.971 47.582C776.729 47.1527 776.411 46.8353 776.019 46.63C775.627 46.4153 775.203 46.308 774.745 46.308C774.279 46.308 773.849 46.4153 773.457 46.63C773.075 46.8353 772.767 47.1527 772.533 47.582C772.3 48.0113 772.183 48.534 772.183 49.15C772.183 49.7753 772.295 50.3027 772.519 50.732C772.753 51.1613 773.061 51.4833 773.443 51.698C773.826 51.9033 774.246 52.006 774.703 52.006ZM784.05 45.188C784.984 45.188 785.74 45.4727 786.318 46.042C786.897 46.602 787.186 47.414 787.186 48.478V53H785.926V48.66C785.926 47.8947 785.735 47.3113 785.352 46.91C784.97 46.4993 784.447 46.294 783.784 46.294C783.112 46.294 782.576 46.504 782.174 46.924C781.782 47.344 781.586 47.9553 781.586 48.758V53H780.312V45.328H781.586V46.42C781.838 46.028 782.179 45.7247 782.608 45.51C783.047 45.2953 783.528 45.188 784.05 45.188ZM794.587 47.33V48.408H789.001V47.33H794.587ZM796.502 49.136C796.502 48.352 796.661 47.666 796.978 47.078C797.296 46.4807 797.73 46.0187 798.28 45.692C798.84 45.3653 799.466 45.202 800.156 45.202C800.754 45.202 801.309 45.342 801.822 45.622C802.336 45.8927 802.728 46.252 802.998 46.7V42.64H804.286V53H802.998V51.558C802.746 52.0153 802.373 52.3933 801.878 52.692C801.384 52.9813 800.805 53.126 800.142 53.126C799.461 53.126 798.84 52.958 798.28 52.622C797.73 52.286 797.296 51.8147 796.978 51.208C796.661 50.6013 796.502 49.9107 796.502 49.136ZM802.998 49.15C802.998 48.5713 802.882 48.0673 802.648 47.638C802.415 47.2087 802.098 46.882 801.696 46.658C801.304 46.4247 800.87 46.308 800.394 46.308C799.918 46.308 799.484 46.42 799.092 46.644C798.7 46.868 798.388 47.1947 798.154 47.624C797.921 48.0533 797.804 48.5573 797.804 49.136C797.804 49.724 797.921 50.2373 798.154 50.676C798.388 51.1053 798.7 51.4367 799.092 51.67C799.484 51.894 799.918 52.006 800.394 52.006C800.87 52.006 801.304 51.894 801.696 51.67C802.098 51.4367 802.415 51.1053 802.648 50.676C802.882 50.2373 802.998 49.7287 802.998 49.15ZM813.439 48.87C813.439 49.1127 813.425 49.3693 813.397 49.64H807.265C807.312 50.396 807.569 50.9887 808.035 51.418C808.511 51.838 809.085 52.048 809.757 52.048C810.308 52.048 810.765 51.922 811.129 51.67C811.503 51.4087 811.764 51.0633 811.913 50.634H813.285C813.08 51.3713 812.669 51.9733 812.053 52.44C811.437 52.8973 810.672 53.126 809.757 53.126C809.029 53.126 808.376 52.9627 807.797 52.636C807.228 52.3093 806.78 51.8473 806.453 51.25C806.127 50.6433 805.963 49.9433 805.963 49.15C805.963 48.3567 806.122 47.6613 806.439 47.064C806.757 46.4667 807.2 46.0093 807.769 45.692C808.348 45.3653 809.011 45.202 809.757 45.202C810.485 45.202 811.129 45.3607 811.689 45.678C812.249 45.9953 812.679 46.434 812.977 46.994C813.285 47.5447 813.439 48.17 813.439 48.87ZM812.123 48.604C812.123 48.1187 812.016 47.7033 811.801 47.358C811.587 47.0033 811.293 46.7373 810.919 46.56C810.555 46.3733 810.149 46.28 809.701 46.28C809.057 46.28 808.507 46.4853 808.049 46.896C807.601 47.3067 807.345 47.876 807.279 48.604H812.123ZM824.347 45.188C824.944 45.188 825.476 45.314 825.943 45.566C826.41 45.8087 826.778 46.1773 827.049 46.672C827.32 47.1667 827.455 47.7687 827.455 48.478V53H826.195V48.66C826.195 47.8947 826.004 47.3113 825.621 46.91C825.248 46.4993 824.739 46.294 824.095 46.294C823.432 46.294 822.905 46.5087 822.513 46.938C822.121 47.358 821.925 47.9693 821.925 48.772V53H820.665V48.66C820.665 47.8947 820.474 47.3113 820.091 46.91C819.718 46.4993 819.209 46.294 818.565 46.294C817.902 46.294 817.375 46.5087 816.983 46.938C816.591 47.358 816.395 47.9693 816.395 48.772V53H815.121V45.328H816.395V46.434C816.647 46.0327 816.983 45.7247 817.403 45.51C817.832 45.2953 818.304 45.188 818.817 45.188C819.461 45.188 820.03 45.3327 820.525 45.622C821.02 45.9113 821.388 46.336 821.631 46.896C821.846 46.3547 822.2 45.9347 822.695 45.636C823.19 45.3373 823.74 45.188 824.347 45.188ZM829.069 49.136C829.069 48.352 829.227 47.666 829.545 47.078C829.862 46.4807 830.296 46.0187 830.847 45.692C831.407 45.3653 832.027 45.202 832.709 45.202C833.381 45.202 833.964 45.3467 834.459 45.636C834.953 45.9253 835.322 46.2893 835.565 46.728V45.328H836.853V53H835.565V51.572C835.313 52.02 834.935 52.3933 834.431 52.692C833.936 52.9813 833.357 53.126 832.695 53.126C832.013 53.126 831.397 52.958 830.847 52.622C830.296 52.286 829.862 51.8147 829.545 51.208C829.227 50.6013 829.069 49.9107 829.069 49.136ZM835.565 49.15C835.565 48.5713 835.448 48.0673 835.215 47.638C834.981 47.2087 834.664 46.882 834.263 46.658C833.871 46.4247 833.437 46.308 832.961 46.308C832.485 46.308 832.051 46.42 831.659 46.644C831.267 46.868 830.954 47.1947 830.721 47.624C830.487 48.0533 830.371 48.5573 830.371 49.136C830.371 49.724 830.487 50.2373 830.721 50.676C830.954 51.1053 831.267 51.4367 831.659 51.67C832.051 51.894 832.485 52.006 832.961 52.006C833.437 52.006 833.871 51.894 834.263 51.67C834.664 51.4367 834.981 51.1053 835.215 50.676C835.448 50.2373 835.565 49.7287 835.565 49.15ZM842.744 45.188C843.677 45.188 844.433 45.4727 845.012 46.042C845.59 46.602 845.88 47.414 845.88 48.478V53H844.62V48.66C844.62 47.8947 844.428 47.3113 844.046 46.91C843.663 46.4993 843.14 46.294 842.478 46.294C841.806 46.294 841.269 46.504 840.868 46.924C840.476 47.344 840.28 47.9553 840.28 48.758V53H839.006V45.328H840.28V46.42C840.532 46.028 840.872 45.7247 841.302 45.51C841.74 45.2953 842.221 45.188 842.744 45.188ZM847.485 49.136C847.485 48.352 847.643 47.666 847.961 47.078C848.278 46.4807 848.712 46.0187 849.263 45.692C849.823 45.3653 850.448 45.202 851.139 45.202C851.736 45.202 852.291 45.342 852.805 45.622C853.318 45.8927 853.71 46.252 853.981 46.7V42.64H855.269V53H853.981V51.558C853.729 52.0153 853.355 52.3933 852.861 52.692C852.366 52.9813 851.787 53.126 851.125 53.126C850.443 53.126 849.823 52.958 849.263 52.622C848.712 52.286 848.278 51.8147 847.961 51.208C847.643 50.6013 847.485 49.9107 847.485 49.136ZM853.981 49.15C853.981 48.5713 853.864 48.0673 853.631 47.638C853.397 47.2087 853.08 46.882 852.679 46.658C852.287 46.4247 851.853 46.308 851.377 46.308C850.901 46.308 850.467 46.42 850.075 46.644C849.683 46.868 849.37 47.1947 849.137 47.624C848.903 48.0533 848.787 48.5573 848.787 49.136C848.787 49.724 848.903 50.2373 849.137 50.676C849.37 51.1053 849.683 51.4367 850.075 51.67C850.467 51.894 850.901 52.006 851.377 52.006C851.853 52.006 852.287 51.894 852.679 51.67C853.08 51.4367 853.397 51.1053 853.631 50.676C853.864 50.2373 853.981 49.7287 853.981 49.15ZM860.678 49.136C860.678 48.352 860.837 47.666 861.154 47.078C861.472 46.4807 861.906 46.0187 862.456 45.692C863.016 45.3653 863.642 45.202 864.332 45.202C864.93 45.202 865.485 45.342 865.998 45.622C866.512 45.8927 866.904 46.252 867.174 46.7V42.64H868.462V53H867.174V51.558C866.922 52.0153 866.549 52.3933 866.054 52.692C865.56 52.9813 864.981 53.126 864.318 53.126C863.637 53.126 863.016 52.958 862.456 52.622C861.906 52.286 861.472 51.8147 861.154 51.208C860.837 50.6013 860.678 49.9107 860.678 49.136ZM867.174 49.15C867.174 48.5713 867.058 48.0673 866.824 47.638C866.591 47.2087 866.274 46.882 865.872 46.658C865.48 46.4247 865.046 46.308 864.57 46.308C864.094 46.308 863.66 46.42 863.268 46.644C862.876 46.868 862.564 47.1947 862.33 47.624C862.097 48.0533 861.98 48.5573 861.98 49.136C861.98 49.724 862.097 50.2373 862.33 50.676C862.564 51.1053 862.876 51.4367 863.268 51.67C863.66 51.894 864.094 52.006 864.57 52.006C865.046 52.006 865.48 51.894 865.872 51.67C866.274 51.4367 866.591 51.1053 866.824 50.676C867.058 50.2373 867.174 49.7287 867.174 49.15ZM877.615 48.87C877.615 49.1127 877.601 49.3693 877.573 49.64H871.441C871.488 50.396 871.744 50.9887 872.211 51.418C872.687 51.838 873.261 52.048 873.933 52.048C874.484 52.048 874.941 51.922 875.305 51.67C875.678 51.4087 875.94 51.0633 876.089 50.634H877.461C877.256 51.3713 876.845 51.9733 876.229 52.44C875.613 52.8973 874.848 53.126 873.933 53.126C873.205 53.126 872.552 52.9627 871.973 52.636C871.404 52.3093 870.956 51.8473 870.629 51.25C870.302 50.6433 870.139 49.9433 870.139 49.15C870.139 48.3567 870.298 47.6613 870.615 47.064C870.932 46.4667 871.376 46.0093 871.945 45.692C872.524 45.3653 873.186 45.202 873.933 45.202C874.661 45.202 875.305 45.3607 875.865 45.678C876.425 45.9953 876.854 46.434 877.153 46.994C877.461 47.5447 877.615 48.17 877.615 48.87ZM876.299 48.604C876.299 48.1187 876.192 47.7033 875.977 47.358C875.762 47.0033 875.468 46.7373 875.095 46.56C874.731 46.3733 874.325 46.28 873.877 46.28C873.233 46.28 872.682 46.4853 872.225 46.896C871.777 47.3067 871.52 47.876 871.455 48.604H876.299ZM880.571 42.64V53H879.297V42.64H880.571ZM883.4 44.082C883.157 44.082 882.952 43.998 882.784 43.83C882.616 43.662 882.532 43.4567 882.532 43.214C882.532 42.9713 882.616 42.766 882.784 42.598C882.952 42.43 883.157 42.346 883.4 42.346C883.633 42.346 883.829 42.43 883.988 42.598C884.156 42.766 884.24 42.9713 884.24 43.214C884.24 43.4567 884.156 43.662 883.988 43.83C883.829 43.998 883.633 44.082 883.4 44.082ZM884.016 45.328V53H882.742V45.328H884.016ZM889.043 51.824L891.423 45.328H892.781L889.771 53H888.287L885.277 45.328H886.649L889.043 51.824ZM901.035 48.87C901.035 49.1127 901.021 49.3693 900.993 49.64H894.861C894.908 50.396 895.164 50.9887 895.631 51.418C896.107 51.838 896.681 52.048 897.353 52.048C897.904 52.048 898.361 51.922 898.725 51.67C899.098 51.4087 899.36 51.0633 899.509 50.634H900.881C900.676 51.3713 900.265 51.9733 899.649 52.44C899.033 52.8973 898.268 53.126 897.353 53.126C896.625 53.126 895.972 52.9627 895.393 52.636C894.824 52.3093 894.376 51.8473 894.049 51.25C893.722 50.6433 893.559 49.9433 893.559 49.15C893.559 48.3567 893.718 47.6613 894.035 47.064C894.352 46.4667 894.796 46.0093 895.365 45.692C895.944 45.3653 896.606 45.202 897.353 45.202C898.081 45.202 898.725 45.3607 899.285 45.678C899.845 45.9953 900.274 46.434 900.573 46.994C900.881 47.5447 901.035 48.17 901.035 48.87ZM899.719 48.604C899.719 48.1187 899.612 47.7033 899.397 47.358C899.182 47.0033 898.888 46.7373 898.515 46.56C898.151 46.3733 897.745 46.28 897.297 46.28C896.653 46.28 896.102 46.4853 895.645 46.896C895.197 47.3067 894.94 47.876 894.875 48.604H899.719ZM903.991 46.574C904.215 46.1353 904.532 45.7947 904.943 45.552C905.363 45.3093 905.871 45.188 906.469 45.188V46.504H906.133C904.705 46.504 903.991 47.2787 903.991 48.828V53H902.717V45.328H903.991V46.574ZM914.547 45.328L909.927 56.612H908.611L910.123 52.916L907.029 45.328H908.443L910.851 51.544L913.231 45.328H914.547ZM922.276 53.126C921.688 53.126 921.161 53.028 920.694 52.832C920.228 52.6267 919.859 52.3467 919.588 51.992C919.318 51.628 919.168 51.2127 919.14 50.746H920.456C920.494 51.1287 920.671 51.4413 920.988 51.684C921.315 51.9267 921.74 52.048 922.262 52.048C922.748 52.048 923.13 51.9407 923.41 51.726C923.69 51.5113 923.83 51.2407 923.83 50.914C923.83 50.578 923.681 50.3307 923.382 50.172C923.084 50.004 922.622 49.8407 921.996 49.682C921.427 49.5327 920.96 49.3833 920.596 49.234C920.242 49.0753 919.934 48.8467 919.672 48.548C919.42 48.24 919.294 47.8387 919.294 47.344C919.294 46.952 919.411 46.5927 919.644 46.266C919.878 45.9393 920.209 45.6827 920.638 45.496C921.068 45.3 921.558 45.202 922.108 45.202C922.958 45.202 923.644 45.4167 924.166 45.846C924.689 46.2753 924.969 46.8633 925.006 47.61H923.732C923.704 47.2087 923.541 46.8867 923.242 46.644C922.953 46.4013 922.561 46.28 922.066 46.28C921.609 46.28 921.245 46.378 920.974 46.574C920.704 46.77 920.568 47.0267 920.568 47.344C920.568 47.596 920.648 47.806 920.806 47.974C920.974 48.1327 921.18 48.2633 921.422 48.366C921.674 48.4593 922.02 48.5667 922.458 48.688C923.009 48.8373 923.457 48.9867 923.802 49.136C924.148 49.276 924.442 49.4907 924.684 49.78C924.936 50.0693 925.067 50.4473 925.076 50.914C925.076 51.334 924.96 51.712 924.726 52.048C924.493 52.384 924.162 52.65 923.732 52.846C923.312 53.0327 922.827 53.126 922.276 53.126ZM933.875 48.87C933.875 49.1127 933.861 49.3693 933.833 49.64H927.701C927.748 50.396 928.004 50.9887 928.471 51.418C928.947 51.838 929.521 52.048 930.193 52.048C930.744 52.048 931.201 51.922 931.565 51.67C931.938 51.4087 932.2 51.0633 932.349 50.634H933.721C933.516 51.3713 933.105 51.9733 932.489 52.44C931.873 52.8973 931.108 53.126 930.193 53.126C929.465 53.126 928.812 52.9627 928.233 52.636C927.664 52.3093 927.216 51.8473 926.889 51.25C926.562 50.6433 926.399 49.9433 926.399 49.15C926.399 48.3567 926.558 47.6613 926.875 47.064C927.192 46.4667 927.636 46.0093 928.205 45.692C928.784 45.3653 929.446 45.202 930.193 45.202C930.921 45.202 931.565 45.3607 932.125 45.678C932.685 45.9953 933.114 46.434 933.413 46.994C933.721 47.5447 933.875 48.17 933.875 48.87ZM932.559 48.604C932.559 48.1187 932.452 47.7033 932.237 47.358C932.022 47.0033 931.728 46.7373 931.355 46.56C930.991 46.3733 930.585 46.28 930.137 46.28C929.493 46.28 928.942 46.4853 928.485 46.896C928.037 47.3067 927.78 47.876 927.715 48.604H932.559ZM936.831 46.574C937.055 46.1353 937.372 45.7947 937.783 45.552C938.203 45.3093 938.711 45.188 939.309 45.188V46.504H938.973C937.545 46.504 936.831 47.2787 936.831 48.828V53H935.557V45.328H936.831V46.574ZM943.635 51.824L946.015 45.328H947.373L944.363 53H942.879L939.869 45.328H941.241L943.635 51.824ZM949.285 44.082C949.042 44.082 948.837 43.998 948.669 43.83C948.501 43.662 948.417 43.4567 948.417 43.214C948.417 42.9713 948.501 42.766 948.669 42.598C948.837 42.43 949.042 42.346 949.285 42.346C949.518 42.346 949.714 42.43 949.873 42.598C950.041 42.766 950.125 42.9713 950.125 43.214C950.125 43.4567 950.041 43.662 949.873 43.83C949.714 43.998 949.518 44.082 949.285 44.082ZM949.901 45.328V53H948.627V45.328H949.901ZM951.596 49.15C951.596 48.3567 951.755 47.666 952.072 47.078C952.389 46.4807 952.828 46.0187 953.388 45.692C953.957 45.3653 954.606 45.202 955.334 45.202C956.277 45.202 957.051 45.4307 957.658 45.888C958.274 46.3453 958.68 46.98 958.876 47.792H957.504C957.373 47.3253 957.117 46.9567 956.734 46.686C956.361 46.4153 955.894 46.28 955.334 46.28C954.606 46.28 954.018 46.532 953.57 47.036C953.122 47.5307 952.898 48.2353 952.898 49.15C952.898 50.074 953.122 50.788 953.57 51.292C954.018 51.796 954.606 52.048 955.334 52.048C955.894 52.048 956.361 51.9173 956.734 51.656C957.107 51.3947 957.364 51.0213 957.504 50.536H958.876C958.671 51.32 958.26 51.95 957.644 52.426C957.028 52.8927 956.258 53.126 955.334 53.126C954.606 53.126 953.957 52.9627 953.388 52.636C952.828 52.3093 952.389 51.8473 952.072 51.25C951.755 50.6527 951.596 49.9527 951.596 49.15ZM967.576 48.87C967.576 49.1127 967.562 49.3693 967.534 49.64H961.402C961.449 50.396 961.705 50.9887 962.172 51.418C962.648 51.838 963.222 52.048 963.894 52.048C964.445 52.048 964.902 51.922 965.266 51.67C965.639 51.4087 965.901 51.0633 966.05 50.634H967.422C967.217 51.3713 966.806 51.9733 966.19 52.44C965.574 52.8973 964.809 53.126 963.894 53.126C963.166 53.126 962.513 52.9627 961.934 52.636C961.365 52.3093 960.917 51.8473 960.59 51.25C960.263 50.6433 960.1 49.9433 960.1 49.15C960.1 48.3567 960.259 47.6613 960.576 47.064C960.893 46.4667 961.337 46.0093 961.906 45.692C962.485 45.3653 963.147 45.202 963.894 45.202C964.622 45.202 965.266 45.3607 965.826 45.678C966.386 45.9953 966.815 46.434 967.114 46.994C967.422 47.5447 967.576 48.17 967.576 48.87ZM966.26 48.604C966.26 48.1187 966.153 47.7033 965.938 47.358C965.723 47.0033 965.429 46.7373 965.056 46.56C964.692 46.3733 964.286 46.28 963.838 46.28C963.194 46.28 962.643 46.4853 962.186 46.896C961.738 47.3067 961.481 47.876 961.416 48.604H966.26ZM970.574 51.236L969.006 55.002H968.152L969.174 51.236H970.574ZM981.282 43.242V44.278H977.04V47.568H980.484V48.604H977.04V53H975.766V43.242H981.282ZM982.344 49.136C982.344 48.352 982.503 47.666 982.82 47.078C983.138 46.4807 983.572 46.0187 984.122 45.692C984.682 45.3653 985.303 45.202 985.984 45.202C986.656 45.202 987.24 45.3467 987.734 45.636C988.229 45.9253 988.598 46.2893 988.84 46.728V45.328H990.128V53H988.84V51.572C988.588 52.02 988.21 52.3933 987.706 52.692C987.212 52.9813 986.633 53.126 985.97 53.126C985.289 53.126 984.673 52.958 984.122 52.622C983.572 52.286 983.138 51.8147 982.82 51.208C982.503 50.6013 982.344 49.9107 982.344 49.136ZM988.84 49.15C988.84 48.5713 988.724 48.0673 988.49 47.638C988.257 47.2087 987.94 46.882 987.538 46.658C987.146 46.4247 986.712 46.308 986.236 46.308C985.76 46.308 985.326 46.42 984.934 46.644C984.542 46.868 984.23 47.1947 983.996 47.624C983.763 48.0533 983.646 48.5573 983.646 49.136C983.646 49.724 983.763 50.2373 983.996 50.676C984.23 51.1053 984.542 51.4367 984.934 51.67C985.326 51.894 985.76 52.006 986.236 52.006C986.712 52.006 987.146 51.894 987.538 51.67C987.94 51.4367 988.257 51.1053 988.49 50.676C988.724 50.2373 988.84 49.7287 988.84 49.15ZM1001.51 45.188C1002.1 45.188 1002.64 45.314 1003.1 45.566C1003.57 45.8087 1003.94 46.1773 1004.21 46.672C1004.48 47.1667 1004.62 47.7687 1004.62 48.478V53H1003.36V48.66C1003.36 47.8947 1003.16 47.3113 1002.78 46.91C1002.41 46.4993 1001.9 46.294 1001.26 46.294C1000.59 46.294 1000.07 46.5087 999.673 46.938C999.281 47.358 999.085 47.9693 999.085 48.772V53H997.825V48.66C997.825 47.8947 997.634 47.3113 997.251 46.91C996.878 46.4993 996.369 46.294 995.725 46.294C995.062 46.294 994.535 46.5087 994.143 46.938C993.751 47.358 993.555 47.9693 993.555 48.772V53H992.281V45.328H993.555V46.434C993.807 46.0327 994.143 45.7247 994.563 45.51C994.992 45.2953 995.464 45.188 995.977 45.188C996.621 45.188 997.19 45.3327 997.685 45.622C998.18 45.9113 998.548 46.336 998.791 46.896C999.006 46.3547 999.36 45.9347 999.855 45.636C1000.35 45.3373 1000.9 45.188 1001.51 45.188ZM1008.26 46.378V50.9C1008.26 51.2733 1008.34 51.5393 1008.5 51.698C1008.66 51.8473 1008.93 51.922 1009.32 51.922H1010.26V53H1009.11C1008.4 53 1007.87 52.8367 1007.52 52.51C1007.16 52.1833 1006.98 51.6467 1006.98 50.9V46.378H1005.99V45.328H1006.98V43.396H1008.26V45.328H1010.26V46.378H1008.26ZM1015.15 53.126C1014.43 53.126 1013.78 52.9627 1013.19 52.636C1012.61 52.3093 1012.15 51.8473 1011.82 51.25C1011.49 50.6433 1011.33 49.9433 1011.33 49.15C1011.33 48.366 1011.5 47.6753 1011.83 47.078C1012.18 46.4713 1012.64 46.0093 1013.23 45.692C1013.82 45.3653 1014.48 45.202 1015.21 45.202C1015.93 45.202 1016.59 45.3653 1017.18 45.692C1017.77 46.0093 1018.23 46.4667 1018.57 47.064C1018.91 47.6613 1019.08 48.3567 1019.08 49.15C1019.08 49.9433 1018.91 50.6433 1018.55 51.25C1018.21 51.8473 1017.74 52.3093 1017.14 52.636C1016.54 52.9627 1015.88 53.126 1015.15 53.126ZM1015.15 52.006C1015.61 52.006 1016.04 51.8987 1016.44 51.684C1016.84 51.4693 1017.16 51.1473 1017.4 50.718C1017.66 50.2887 1017.78 49.766 1017.78 49.15C1017.78 48.534 1017.66 48.0113 1017.42 47.582C1017.18 47.1527 1016.86 46.8353 1016.47 46.63C1016.07 46.4153 1015.65 46.308 1015.19 46.308C1014.73 46.308 1014.3 46.4153 1013.9 46.63C1013.52 46.8353 1013.21 47.1527 1012.98 47.582C1012.75 48.0113 1012.63 48.534 1012.63 49.15C1012.63 49.7753 1012.74 50.3027 1012.97 50.732C1013.2 51.1613 1013.51 51.4833 1013.89 51.698C1014.27 51.9033 1014.69 52.006 1015.15 52.006ZM1024.02 49.15C1024.02 48.3567 1024.17 47.666 1024.49 47.078C1024.81 46.4807 1025.25 46.0187 1025.81 45.692C1026.38 45.3653 1027.03 45.202 1027.75 45.202C1028.7 45.202 1029.47 45.4307 1030.08 45.888C1030.69 46.3453 1031.1 46.98 1031.3 47.792H1029.92C1029.79 47.3253 1029.54 46.9567 1029.15 46.686C1028.78 46.4153 1028.31 46.28 1027.75 46.28C1027.03 46.28 1026.44 46.532 1025.99 47.036C1025.54 47.5307 1025.32 48.2353 1025.32 49.15C1025.32 50.074 1025.54 50.788 1025.99 51.292C1026.44 51.796 1027.03 52.048 1027.75 52.048C1028.31 52.048 1028.78 51.9173 1029.15 51.656C1029.53 51.3947 1029.78 51.0213 1029.92 50.536H1031.3C1031.09 51.32 1030.68 51.95 1030.06 52.426C1029.45 52.8927 1028.68 53.126 1027.75 53.126C1027.03 53.126 1026.38 52.9627 1025.81 52.636C1025.25 52.3093 1024.81 51.8473 1024.49 51.25C1024.17 50.6527 1024.02 49.9527 1024.02 49.15ZM1032.52 49.136C1032.52 48.352 1032.68 47.666 1033 47.078C1033.31 46.4807 1033.75 46.0187 1034.3 45.692C1034.86 45.3653 1035.48 45.202 1036.16 45.202C1036.83 45.202 1037.42 45.3467 1037.91 45.636C1038.4 45.9253 1038.77 46.2893 1039.02 46.728V45.328H1040.3V53H1039.02V51.572C1038.76 52.02 1038.39 52.3933 1037.88 52.692C1037.39 52.9813 1036.81 53.126 1036.15 53.126C1035.46 53.126 1034.85 52.958 1034.3 52.622C1033.75 52.286 1033.31 51.8147 1033 51.208C1032.68 50.6013 1032.52 49.9107 1032.52 49.136ZM1039.02 49.15C1039.02 48.5713 1038.9 48.0673 1038.67 47.638C1038.43 47.2087 1038.12 46.882 1037.71 46.658C1037.32 46.4247 1036.89 46.308 1036.41 46.308C1035.94 46.308 1035.5 46.42 1035.11 46.644C1034.72 46.868 1034.41 47.1947 1034.17 47.624C1033.94 48.0533 1033.82 48.5573 1033.82 49.136C1033.82 49.724 1033.94 50.2373 1034.17 50.676C1034.41 51.1053 1034.72 51.4367 1035.11 51.67C1035.5 51.894 1035.94 52.006 1036.41 52.006C1036.89 52.006 1037.32 51.894 1037.71 51.67C1038.12 51.4367 1038.43 51.1053 1038.67 50.676C1038.9 50.2373 1039.02 49.7287 1039.02 49.15ZM1046.19 45.188C1047.13 45.188 1047.88 45.4727 1048.46 46.042C1049.04 46.602 1049.33 47.414 1049.33 48.478V53H1048.07V48.66C1048.07 47.8947 1047.88 47.3113 1047.5 46.91C1047.11 46.4993 1046.59 46.294 1045.93 46.294C1045.26 46.294 1044.72 46.504 1044.32 46.924C1043.93 47.344 1043.73 47.9553 1043.73 48.758V53H1042.46V45.328H1043.73V46.42C1043.98 46.028 1044.32 45.7247 1044.75 45.51C1045.19 45.2953 1045.67 45.188 1046.19 45.188ZM1058.95 45.188C1059.53 45.188 1060.05 45.314 1060.52 45.566C1060.99 45.8087 1061.35 46.1773 1061.61 46.672C1061.88 47.1667 1062.02 47.7687 1062.02 48.478V53H1060.76V48.66C1060.76 47.8947 1060.57 47.3113 1060.18 46.91C1059.8 46.4993 1059.28 46.294 1058.62 46.294C1057.94 46.294 1057.41 46.504 1057.01 46.924C1056.61 47.344 1056.42 47.9553 1056.42 48.758V53H1055.14V42.64H1056.42V46.42C1056.67 46.028 1057.02 45.7247 1057.45 45.51C1057.9 45.2953 1058.4 45.188 1058.95 45.188ZM1071.1 48.87C1071.1 49.1127 1071.09 49.3693 1071.06 49.64H1064.93C1064.97 50.396 1065.23 50.9887 1065.7 51.418C1066.17 51.838 1066.75 52.048 1067.42 52.048C1067.97 52.048 1068.43 51.922 1068.79 51.67C1069.16 51.4087 1069.42 51.0633 1069.57 50.634H1070.95C1070.74 51.3713 1070.33 51.9733 1069.71 52.44C1069.1 52.8973 1068.33 53.126 1067.42 53.126C1066.69 53.126 1066.04 52.9627 1065.46 52.636C1064.89 52.3093 1064.44 51.8473 1064.11 51.25C1063.79 50.6433 1063.62 49.9433 1063.62 49.15C1063.62 48.3567 1063.78 47.6613 1064.1 47.064C1064.42 46.4667 1064.86 46.0093 1065.43 45.692C1066.01 45.3653 1066.67 45.202 1067.42 45.202C1068.15 45.202 1068.79 45.3607 1069.35 45.678C1069.91 45.9953 1070.34 46.434 1070.64 46.994C1070.95 47.5447 1071.1 48.17 1071.1 48.87ZM1069.78 48.604C1069.78 48.1187 1069.68 47.7033 1069.46 47.358C1069.25 47.0033 1068.95 46.7373 1068.58 46.56C1068.22 46.3733 1067.81 46.28 1067.36 46.28C1066.72 46.28 1066.17 46.4853 1065.71 46.896C1065.26 47.3067 1065 47.876 1064.94 48.604H1069.78ZM1074.06 42.64V53H1072.78V42.64H1074.06ZM1077.5 46.742C1077.75 46.3033 1078.13 45.9393 1078.62 45.65C1079.12 45.3513 1079.71 45.202 1080.37 45.202C1081.05 45.202 1081.67 45.3653 1082.22 45.692C1082.78 46.0187 1083.22 46.4807 1083.53 47.078C1083.85 47.666 1084.01 48.352 1084.01 49.136C1084.01 49.9107 1083.85 50.6013 1083.53 51.208C1083.22 51.8147 1082.78 52.286 1082.22 52.622C1081.67 52.958 1081.05 53.126 1080.37 53.126C1079.72 53.126 1079.14 52.9813 1078.63 52.692C1078.14 52.3933 1077.76 52.0247 1077.5 51.586V56.64H1076.23V45.328H1077.5V46.742ZM1082.71 49.136C1082.71 48.5573 1082.59 48.0533 1082.36 47.624C1082.13 47.1947 1081.81 46.868 1081.41 46.644C1081.01 46.42 1080.58 46.308 1080.1 46.308C1079.64 46.308 1079.2 46.4247 1078.8 46.658C1078.41 46.882 1078.09 47.2133 1077.85 47.652C1077.62 48.0813 1077.5 48.5807 1077.5 49.15C1077.5 49.7287 1077.62 50.2373 1077.85 50.676C1078.09 51.1053 1078.41 51.4367 1078.8 51.67C1079.2 51.894 1079.64 52.006 1080.1 52.006C1080.58 52.006 1081.01 51.894 1081.41 51.67C1081.81 51.4367 1082.13 51.1053 1082.36 50.676C1082.59 50.2373 1082.71 49.724 1082.71 49.136ZM1096.03 45.328L1091.41 56.612H1090.09L1091.6 52.916L1088.51 45.328H1089.92L1092.33 51.544L1094.71 45.328H1096.03ZM1100.65 53.126C1099.94 53.126 1099.28 52.9627 1098.69 52.636C1098.12 52.3093 1097.66 51.8473 1097.32 51.25C1097 50.6433 1096.83 49.9433 1096.83 49.15C1096.83 48.366 1097 47.6753 1097.34 47.078C1097.68 46.4713 1098.15 46.0093 1098.74 45.692C1099.32 45.3653 1099.98 45.202 1100.71 45.202C1101.44 45.202 1102.1 45.3653 1102.68 45.692C1103.27 46.0093 1103.73 46.4667 1104.07 47.064C1104.42 47.6613 1104.59 48.3567 1104.59 49.15C1104.59 49.9433 1104.41 50.6433 1104.06 51.25C1103.71 51.8473 1103.24 52.3093 1102.64 52.636C1102.05 52.9627 1101.38 53.126 1100.65 53.126ZM1100.65 52.006C1101.11 52.006 1101.54 51.8987 1101.94 51.684C1102.34 51.4693 1102.67 51.1473 1102.91 50.718C1103.16 50.2887 1103.29 49.766 1103.29 49.15C1103.29 48.534 1103.17 48.0113 1102.92 47.582C1102.68 47.1527 1102.36 46.8353 1101.97 46.63C1101.58 46.4153 1101.15 46.308 1100.7 46.308C1100.23 46.308 1099.8 46.4153 1099.41 46.63C1099.03 46.8353 1098.72 47.1527 1098.48 47.582C1098.25 48.0113 1098.13 48.534 1098.13 49.15C1098.13 49.7753 1098.25 50.3027 1098.47 50.732C1098.7 51.1613 1099.01 51.4833 1099.39 51.698C1099.78 51.9033 1100.2 52.006 1100.65 52.006ZM1113.07 45.328V53H1111.79V51.866C1111.55 52.258 1111.21 52.566 1110.77 52.79C1110.34 53.0047 1109.87 53.112 1109.34 53.112C1108.75 53.112 1108.21 52.9907 1107.73 52.748C1107.26 52.496 1106.88 52.1227 1106.6 51.628C1106.33 51.1333 1106.19 50.5313 1106.19 49.822V45.328H1107.45V49.654C1107.45 50.41 1107.64 50.9933 1108.03 51.404C1108.41 51.8053 1108.93 52.006 1109.6 52.006C1110.28 52.006 1110.81 51.796 1111.21 51.376C1111.6 50.956 1111.79 50.3447 1111.79 49.542V45.328H1113.07ZM1118.48 49.136C1118.48 48.352 1118.63 47.666 1118.95 47.078C1119.27 46.4807 1119.7 46.0187 1120.25 45.692C1120.81 45.3653 1121.43 45.202 1122.12 45.202C1122.79 45.202 1123.37 45.3467 1123.87 45.636C1124.36 45.9253 1124.73 46.2893 1124.97 46.728V45.328H1126.26V53H1124.97V51.572C1124.72 52.02 1124.34 52.3933 1123.84 52.692C1123.34 52.9813 1122.76 53.126 1122.1 53.126C1121.42 53.126 1120.8 52.958 1120.25 52.622C1119.7 52.286 1119.27 51.8147 1118.95 51.208C1118.63 50.6013 1118.48 49.9107 1118.48 49.136ZM1124.97 49.15C1124.97 48.5713 1124.85 48.0673 1124.62 47.638C1124.39 47.2087 1124.07 46.882 1123.67 46.658C1123.28 46.4247 1122.84 46.308 1122.37 46.308C1121.89 46.308 1121.46 46.42 1121.07 46.644C1120.67 46.868 1120.36 47.1947 1120.13 47.624C1119.89 48.0533 1119.78 48.5573 1119.78 49.136C1119.78 49.724 1119.89 50.2373 1120.13 50.676C1120.36 51.1053 1120.67 51.4367 1121.07 51.67C1121.46 51.894 1121.89 52.006 1122.37 52.006C1122.84 52.006 1123.28 51.894 1123.67 51.67C1124.07 51.4367 1124.39 51.1053 1124.62 50.676C1124.85 50.2373 1124.97 49.7287 1124.97 49.15ZM1127.94 49.15C1127.94 48.3567 1128.09 47.666 1128.41 47.078C1128.73 46.4807 1129.17 46.0187 1129.73 45.692C1130.3 45.3653 1130.95 45.202 1131.67 45.202C1132.62 45.202 1133.39 45.4307 1134 45.888C1134.61 46.3453 1135.02 46.98 1135.22 47.792H1133.84C1133.71 47.3253 1133.46 46.9567 1133.07 46.686C1132.7 46.4153 1132.23 46.28 1131.67 46.28C1130.95 46.28 1130.36 46.532 1129.91 47.036C1129.46 47.5307 1129.24 48.2353 1129.24 49.15C1129.24 50.074 1129.46 50.788 1129.91 51.292C1130.36 51.796 1130.95 52.048 1131.67 52.048C1132.23 52.048 1132.7 51.9173 1133.07 51.656C1133.45 51.3947 1133.7 51.0213 1133.84 50.536H1135.22C1135.01 51.32 1134.6 51.95 1133.98 52.426C1133.37 52.8927 1132.6 53.126 1131.67 53.126C1130.95 53.126 1130.3 52.9627 1129.73 52.636C1129.17 52.3093 1128.73 51.8473 1128.41 51.25C1128.09 50.6527 1127.94 49.9527 1127.94 49.15ZM1136.44 49.136C1136.44 48.352 1136.6 47.666 1136.92 47.078C1137.23 46.4807 1137.67 46.0187 1138.22 45.692C1138.78 45.3653 1139.4 45.202 1140.09 45.202C1140.76 45.202 1141.34 45.3513 1141.83 45.65C1142.33 45.9393 1142.7 46.2987 1142.94 46.728V45.328H1144.22V56.64H1142.94V51.586C1142.69 52.0153 1142.32 52.3793 1141.82 52.678C1141.31 52.9767 1140.72 53.126 1140.05 53.126C1139.38 53.126 1138.77 52.958 1138.22 52.622C1137.67 52.286 1137.23 51.8147 1136.92 51.208C1136.6 50.6013 1136.44 49.9107 1136.44 49.136ZM1142.94 49.15C1142.94 48.5713 1142.82 48.0673 1142.59 47.638C1142.35 47.2087 1142.04 46.882 1141.63 46.658C1141.24 46.4247 1140.81 46.308 1140.33 46.308C1139.86 46.308 1139.42 46.42 1139.03 46.644C1138.64 46.868 1138.33 47.1947 1138.09 47.624C1137.86 48.0533 1137.74 48.5573 1137.74 49.136C1137.74 49.724 1137.86 50.2373 1138.09 50.676C1138.33 51.1053 1138.64 51.4367 1139.03 51.67C1139.42 51.894 1139.86 52.006 1140.33 52.006C1140.81 52.006 1141.24 51.894 1141.63 51.67C1142.04 51.4367 1142.35 51.1053 1142.59 50.676C1142.82 50.2373 1142.94 49.7287 1142.94 49.15ZM1153.18 45.328V53H1151.91V51.866C1151.66 52.258 1151.32 52.566 1150.88 52.79C1150.46 53.0047 1149.98 53.112 1149.46 53.112C1148.86 53.112 1148.32 52.9907 1147.85 52.748C1147.37 52.496 1146.99 52.1227 1146.71 51.628C1146.44 51.1333 1146.31 50.5313 1146.31 49.822V45.328H1147.57V49.654C1147.57 50.41 1147.76 50.9933 1148.14 51.404C1148.52 51.8053 1149.05 52.006 1149.71 52.006C1150.39 52.006 1150.93 51.796 1151.32 51.376C1151.71 50.956 1151.91 50.3447 1151.91 49.542V45.328H1153.18ZM1155.99 44.082C1155.75 44.082 1155.54 43.998 1155.37 43.83C1155.21 43.662 1155.12 43.4567 1155.12 43.214C1155.12 42.9713 1155.21 42.766 1155.37 42.598C1155.54 42.43 1155.75 42.346 1155.99 42.346C1156.22 42.346 1156.42 42.43 1156.58 42.598C1156.75 42.766 1156.83 42.9713 1156.83 43.214C1156.83 43.4567 1156.75 43.662 1156.58 43.83C1156.42 43.998 1156.22 44.082 1155.99 44.082ZM1156.61 45.328V53H1155.33V45.328H1156.61ZM1160.05 46.574C1160.28 46.1353 1160.59 45.7947 1161 45.552C1161.42 45.3093 1161.93 45.188 1162.53 45.188V46.504H1162.19C1160.77 46.504 1160.05 47.2787 1160.05 48.828V53H1158.78V45.328H1160.05V46.574ZM1171 48.87C1171 49.1127 1170.99 49.3693 1170.96 49.64H1164.83C1164.87 50.396 1165.13 50.9887 1165.6 51.418C1166.07 51.838 1166.65 52.048 1167.32 52.048C1167.87 52.048 1168.33 51.922 1168.69 51.67C1169.06 51.4087 1169.32 51.0633 1169.47 50.634H1170.85C1170.64 51.3713 1170.23 51.9733 1169.61 52.44C1169 52.8973 1168.23 53.126 1167.32 53.126C1166.59 53.126 1165.94 52.9627 1165.36 52.636C1164.79 52.3093 1164.34 51.8473 1164.01 51.25C1163.69 50.6433 1163.52 49.9433 1163.52 49.15C1163.52 48.3567 1163.68 47.6613 1164 47.064C1164.32 46.4667 1164.76 46.0093 1165.33 45.692C1165.91 45.3653 1166.57 45.202 1167.32 45.202C1168.05 45.202 1168.69 45.3607 1169.25 45.678C1169.81 45.9953 1170.24 46.434 1170.54 46.994C1170.85 47.5447 1171 48.17 1171 48.87ZM1169.68 48.604C1169.68 48.1187 1169.58 47.7033 1169.36 47.358C1169.15 47.0033 1168.85 46.7373 1168.48 46.56C1168.12 46.3733 1167.71 46.28 1167.26 46.28C1166.62 46.28 1166.07 46.4853 1165.61 46.896C1165.16 47.3067 1164.91 47.876 1164.84 48.604H1169.68ZM1186.63 45.328L1184.24 53H1182.92L1181.08 46.91L1179.23 53H1177.91L1175.5 45.328H1176.81L1178.57 51.768L1180.47 45.328H1181.78L1183.64 51.782L1185.37 45.328H1186.63ZM1191.71 45.188C1192.28 45.188 1192.81 45.314 1193.27 45.566C1193.74 45.8087 1194.1 46.1773 1194.37 46.672C1194.64 47.1667 1194.77 47.7687 1194.77 48.478V53H1193.51V48.66C1193.51 47.8947 1193.32 47.3113 1192.94 46.91C1192.56 46.4993 1192.03 46.294 1191.37 46.294C1190.7 46.294 1190.16 46.504 1189.76 46.924C1189.37 47.344 1189.17 47.9553 1189.17 48.758V53H1187.9V42.64H1189.17V46.42C1189.42 46.028 1189.77 45.7247 1190.21 45.51C1190.66 45.2953 1191.16 45.188 1191.71 45.188ZM1196.38 49.136C1196.38 48.352 1196.54 47.666 1196.85 47.078C1197.17 46.4807 1197.6 46.0187 1198.16 45.692C1198.72 45.3653 1199.34 45.202 1200.02 45.202C1200.69 45.202 1201.27 45.3467 1201.77 45.636C1202.26 45.9253 1202.63 46.2893 1202.87 46.728V45.328H1204.16V53H1202.87V51.572C1202.62 52.02 1202.24 52.3933 1201.74 52.692C1201.24 52.9813 1200.67 53.126 1200 53.126C1199.32 53.126 1198.71 52.958 1198.16 52.622C1197.6 52.286 1197.17 51.8147 1196.85 51.208C1196.54 50.6013 1196.38 49.9107 1196.38 49.136ZM1202.87 49.15C1202.87 48.5713 1202.76 48.0673 1202.52 47.638C1202.29 47.2087 1201.97 46.882 1201.57 46.658C1201.18 46.4247 1200.75 46.308 1200.27 46.308C1199.79 46.308 1199.36 46.42 1198.97 46.644C1198.58 46.868 1198.26 47.1947 1198.03 47.624C1197.8 48.0533 1197.68 48.5573 1197.68 49.136C1197.68 49.724 1197.8 50.2373 1198.03 50.676C1198.26 51.1053 1198.58 51.4367 1198.97 51.67C1199.36 51.894 1199.79 52.006 1200.27 52.006C1200.75 52.006 1201.18 51.894 1201.57 51.67C1201.97 51.4367 1202.29 51.1053 1202.52 50.676C1202.76 50.2373 1202.87 49.7287 1202.87 49.15ZM1207.87 46.378V50.9C1207.87 51.2733 1207.95 51.5393 1208.11 51.698C1208.26 51.8473 1208.54 51.922 1208.93 51.922H1209.87V53H1208.72C1208.01 53 1207.48 52.8367 1207.13 52.51C1206.77 52.1833 1206.59 51.6467 1206.59 50.9V46.378H1205.6V45.328H1206.59V43.396H1207.87V45.328H1209.87V46.378H1207.87ZM1221.75 45.328L1217.13 56.612H1215.82L1217.33 52.916L1214.24 45.328H1215.65L1218.06 51.544L1220.44 45.328H1221.75ZM1226.38 53.126C1225.66 53.126 1225.01 52.9627 1224.42 52.636C1223.84 52.3093 1223.39 51.8473 1223.05 51.25C1222.72 50.6433 1222.56 49.9433 1222.56 49.15C1222.56 48.366 1222.73 47.6753 1223.06 47.078C1223.41 46.4713 1223.88 46.0093 1224.46 45.692C1225.05 45.3653 1225.71 45.202 1226.44 45.202C1227.17 45.202 1227.82 45.3653 1228.41 45.692C1229 46.0093 1229.46 46.4667 1229.8 47.064C1230.14 47.6613 1230.32 48.3567 1230.32 49.15C1230.32 49.9433 1230.14 50.6433 1229.78 51.25C1229.44 51.8473 1228.97 52.3093 1228.37 52.636C1227.77 52.9627 1227.11 53.126 1226.38 53.126ZM1226.38 52.006C1226.84 52.006 1227.27 51.8987 1227.67 51.684C1228.07 51.4693 1228.39 51.1473 1228.64 50.718C1228.89 50.2887 1229.01 49.766 1229.01 49.15C1229.01 48.534 1228.89 48.0113 1228.65 47.582C1228.41 47.1527 1228.09 46.8353 1227.7 46.63C1227.31 46.4153 1226.88 46.308 1226.42 46.308C1225.96 46.308 1225.53 46.4153 1225.14 46.63C1224.75 46.8353 1224.44 47.1527 1224.21 47.582C1223.98 48.0113 1223.86 48.534 1223.86 49.15C1223.86 49.7753 1223.97 50.3027 1224.2 50.732C1224.43 51.1613 1224.74 51.4833 1225.12 51.698C1225.5 51.9033 1225.92 52.006 1226.38 52.006ZM1238.79 45.328V53H1237.52V51.866C1237.28 52.258 1236.94 52.566 1236.5 52.79C1236.07 53.0047 1235.59 53.112 1235.07 53.112C1234.47 53.112 1233.94 52.9907 1233.46 52.748C1232.98 52.496 1232.61 52.1227 1232.33 51.628C1232.06 51.1333 1231.92 50.5313 1231.92 49.822V45.328H1233.18V49.654C1233.18 50.41 1233.37 50.9933 1233.75 51.404C1234.14 51.8053 1234.66 52.006 1235.32 52.006C1236 52.006 1236.54 51.796 1236.93 51.376C1237.32 50.956 1237.52 50.3447 1237.52 49.542V45.328H1238.79ZM644.424 81.126C643.705 81.126 643.052 80.9627 642.464 80.636C641.885 80.3093 641.428 79.8473 641.092 79.25C640.765 78.6433 640.602 77.9433 640.602 77.15C640.602 76.366 640.77 75.6753 641.106 75.078C641.451 74.4713 641.918 74.0093 642.506 73.692C643.094 73.3653 643.752 73.202 644.48 73.202C645.208 73.202 645.866 73.3653 646.454 73.692C647.042 74.0093 647.504 74.4667 647.84 75.064C648.185 75.6613 648.358 76.3567 648.358 77.15C648.358 77.9433 648.181 78.6433 647.826 79.25C647.481 79.8473 647.009 80.3093 646.412 80.636C645.815 80.9627 645.152 81.126 644.424 81.126ZM644.424 80.006C644.881 80.006 645.311 79.8987 645.712 79.684C646.113 79.4693 646.435 79.1473 646.678 78.718C646.93 78.2887 647.056 77.766 647.056 77.15C647.056 76.534 646.935 76.0113 646.692 75.582C646.449 75.1527 646.132 74.8353 645.74 74.63C645.348 74.4153 644.923 74.308 644.466 74.308C643.999 74.308 643.57 74.4153 643.178 74.63C642.795 74.8353 642.487 75.1527 642.254 75.582C642.021 76.0113 641.904 76.534 641.904 77.15C641.904 77.7753 642.016 78.3027 642.24 78.732C642.473 79.1613 642.781 79.4833 643.164 79.698C643.547 79.9033 643.967 80.006 644.424 80.006ZM651.307 74.574C651.531 74.1353 651.848 73.7947 652.259 73.552C652.679 73.3093 653.188 73.188 653.785 73.188V74.504H653.449C652.021 74.504 651.307 75.2787 651.307 76.828V81H650.033V73.328H651.307V74.574ZM654.78 77.136C654.78 76.352 654.938 75.666 655.256 75.078C655.573 74.4807 656.007 74.0187 656.558 73.692C657.118 73.3653 657.743 73.202 658.434 73.202C659.031 73.202 659.586 73.342 660.1 73.622C660.613 73.8927 661.005 74.252 661.276 74.7V70.64H662.564V81H661.276V79.558C661.024 80.0153 660.65 80.3933 660.156 80.692C659.661 80.9813 659.082 81.126 658.42 81.126C657.738 81.126 657.118 80.958 656.558 80.622C656.007 80.286 655.573 79.8147 655.256 79.208C654.938 78.6013 654.78 77.9107 654.78 77.136ZM661.276 77.15C661.276 76.5713 661.159 76.0673 660.926 75.638C660.692 75.2087 660.375 74.882 659.974 74.658C659.582 74.4247 659.148 74.308 658.672 74.308C658.196 74.308 657.762 74.42 657.37 74.644C656.978 74.868 656.665 75.1947 656.432 75.624C656.198 76.0533 656.082 76.5573 656.082 77.136C656.082 77.724 656.198 78.2373 656.432 78.676C656.665 79.1053 656.978 79.4367 657.37 79.67C657.762 79.894 658.196 80.006 658.672 80.006C659.148 80.006 659.582 79.894 659.974 79.67C660.375 79.4367 660.692 79.1053 660.926 78.676C661.159 78.2373 661.276 77.7287 661.276 77.15ZM671.717 76.87C671.717 77.1127 671.703 77.3693 671.675 77.64H665.543C665.589 78.396 665.846 78.9887 666.313 79.418C666.789 79.838 667.363 80.048 668.035 80.048C668.585 80.048 669.043 79.922 669.407 79.67C669.78 79.4087 670.041 79.0633 670.191 78.634H671.563C671.357 79.3713 670.947 79.9733 670.331 80.44C669.715 80.8973 668.949 81.126 668.035 81.126C667.307 81.126 666.653 80.9627 666.075 80.636C665.505 80.3093 665.057 79.8473 664.731 79.25C664.404 78.6433 664.241 77.9433 664.241 77.15C664.241 76.3567 664.399 75.6613 664.717 75.064C665.034 74.4667 665.477 74.0093 666.047 73.692C666.625 73.3653 667.288 73.202 668.035 73.202C668.763 73.202 669.407 73.3607 669.967 73.678C670.527 73.9953 670.956 74.434 671.255 74.994C671.563 75.5447 671.717 76.17 671.717 76.87ZM670.401 76.604C670.401 76.1187 670.293 75.7033 670.079 75.358C669.864 75.0033 669.57 74.7373 669.197 74.56C668.833 74.3733 668.427 74.28 667.979 74.28C667.335 74.28 666.784 74.4853 666.327 74.896C665.879 75.3067 665.622 75.876 665.557 76.604H670.401ZM674.672 74.574C674.896 74.1353 675.214 73.7947 675.624 73.552C676.044 73.3093 676.553 73.188 677.15 73.188V74.504H676.814C675.386 74.504 674.672 75.2787 674.672 76.828V81H673.398V73.328H674.672V74.574ZM685.621 76.87C685.621 77.1127 685.607 77.3693 685.579 77.64H679.447C679.494 78.396 679.75 78.9887 680.217 79.418C680.693 79.838 681.267 80.048 681.939 80.048C682.49 80.048 682.947 79.922 683.311 79.67C683.684 79.4087 683.946 79.0633 684.095 78.634H685.467C685.262 79.3713 684.851 79.9733 684.235 80.44C683.619 80.8973 682.854 81.126 681.939 81.126C681.211 81.126 680.558 80.9627 679.979 80.636C679.41 80.3093 678.962 79.8473 678.635 79.25C678.308 78.6433 678.145 77.9433 678.145 77.15C678.145 76.3567 678.304 75.6613 678.621 75.064C678.938 74.4667 679.382 74.0093 679.951 73.692C680.53 73.3653 681.192 73.202 681.939 73.202C682.667 73.202 683.311 73.3607 683.871 73.678C684.431 73.9953 684.86 74.434 685.159 74.994C685.467 75.5447 685.621 76.17 685.621 76.87ZM684.305 76.604C684.305 76.1187 684.198 75.7033 683.983 75.358C683.768 75.0033 683.474 74.7373 683.101 74.56C682.737 74.3733 682.331 74.28 681.883 74.28C681.239 74.28 680.688 74.4853 680.231 74.896C679.783 75.3067 679.526 75.876 679.461 76.604H684.305ZM686.827 77.136C686.827 76.352 686.985 75.666 687.303 75.078C687.62 74.4807 688.054 74.0187 688.605 73.692C689.165 73.3653 689.79 73.202 690.481 73.202C691.078 73.202 691.633 73.342 692.147 73.622C692.66 73.8927 693.052 74.252 693.323 74.7V70.64H694.611V81H693.323V79.558C693.071 80.0153 692.697 80.3933 692.203 80.692C691.708 80.9813 691.129 81.126 690.467 81.126C689.785 81.126 689.165 80.958 688.605 80.622C688.054 80.286 687.62 79.8147 687.303 79.208C686.985 78.6013 686.827 77.9107 686.827 77.136ZM693.323 77.15C693.323 76.5713 693.206 76.0673 692.973 75.638C692.739 75.2087 692.422 74.882 692.021 74.658C691.629 74.4247 691.195 74.308 690.719 74.308C690.243 74.308 689.809 74.42 689.417 74.644C689.025 74.868 688.712 75.1947 688.479 75.624C688.245 76.0533 688.129 76.5573 688.129 77.136C688.129 77.724 688.245 78.2373 688.479 78.676C688.712 79.1053 689.025 79.4367 689.417 79.67C689.809 79.894 690.243 80.006 690.719 80.006C691.195 80.006 691.629 79.894 692.021 79.67C692.422 79.4367 692.739 79.1053 692.973 78.676C693.206 78.2373 693.323 77.7287 693.323 77.15ZM703.842 81.126C703.123 81.126 702.47 80.9627 701.882 80.636C701.303 80.3093 700.846 79.8473 700.51 79.25C700.183 78.6433 700.02 77.9433 700.02 77.15C700.02 76.366 700.188 75.6753 700.524 75.078C700.869 74.4713 701.336 74.0093 701.924 73.692C702.512 73.3653 703.17 73.202 703.898 73.202C704.626 73.202 705.284 73.3653 705.872 73.692C706.46 74.0093 706.922 74.4667 707.258 75.064C707.603 75.6613 707.776 76.3567 707.776 77.15C707.776 77.9433 707.599 78.6433 707.244 79.25C706.899 79.8473 706.427 80.3093 705.83 80.636C705.233 80.9627 704.57 81.126 703.842 81.126ZM703.842 80.006C704.299 80.006 704.729 79.8987 705.13 79.684C705.531 79.4693 705.853 79.1473 706.096 78.718C706.348 78.2887 706.474 77.766 706.474 77.15C706.474 76.534 706.353 76.0113 706.11 75.582C705.867 75.1527 705.55 74.8353 705.158 74.63C704.766 74.4153 704.341 74.308 703.884 74.308C703.417 74.308 702.988 74.4153 702.596 74.63C702.213 74.8353 701.905 75.1527 701.672 75.582C701.439 76.0113 701.322 76.534 701.322 77.15C701.322 77.7753 701.434 78.3027 701.658 78.732C701.891 79.1613 702.199 79.4833 702.582 79.698C702.965 79.9033 703.385 80.006 703.842 80.006ZM713.189 73.188C714.122 73.188 714.878 73.4727 715.457 74.042C716.036 74.602 716.325 75.414 716.325 76.478V81H715.065V76.66C715.065 75.8947 714.874 75.3113 714.491 74.91C714.108 74.4993 713.586 74.294 712.923 74.294C712.251 74.294 711.714 74.504 711.313 74.924C710.921 75.344 710.725 75.9553 710.725 76.758V81H709.451V73.328H710.725V74.42C710.977 74.028 711.318 73.7247 711.747 73.51C712.186 73.2953 712.666 73.188 713.189 73.188ZM721.663 77.136C721.663 76.352 721.821 75.666 722.139 75.078C722.456 74.4807 722.89 74.0187 723.441 73.692C724.001 73.3653 724.621 73.202 725.303 73.202C725.975 73.202 726.558 73.3467 727.053 73.636C727.547 73.9253 727.916 74.2893 728.159 74.728V73.328H729.447V81H728.159V79.572C727.907 80.02 727.529 80.3933 727.025 80.692C726.53 80.9813 725.951 81.126 725.289 81.126C724.607 81.126 723.991 80.958 723.441 80.622C722.89 80.286 722.456 79.8147 722.139 79.208C721.821 78.6013 721.663 77.9107 721.663 77.136ZM728.159 77.15C728.159 76.5713 728.042 76.0673 727.809 75.638C727.575 75.2087 727.258 74.882 726.857 74.658C726.465 74.4247 726.031 74.308 725.555 74.308C725.079 74.308 724.645 74.42 724.253 74.644C723.861 74.868 723.548 75.1947 723.315 75.624C723.081 76.0533 722.965 76.5573 722.965 77.136C722.965 77.724 723.081 78.2373 723.315 78.676C723.548 79.1053 723.861 79.4367 724.253 79.67C724.645 79.894 725.079 80.006 725.555 80.006C726.031 80.006 726.465 79.894 726.857 79.67C727.258 79.4367 727.575 79.1053 727.809 78.676C728.042 78.2373 728.159 77.7287 728.159 77.15ZM738.678 81.126C737.959 81.126 737.306 80.9627 736.718 80.636C736.139 80.3093 735.682 79.8473 735.346 79.25C735.019 78.6433 734.856 77.9433 734.856 77.15C734.856 76.366 735.024 75.6753 735.36 75.078C735.705 74.4713 736.172 74.0093 736.76 73.692C737.348 73.3653 738.006 73.202 738.734 73.202C739.462 73.202 740.12 73.3653 740.708 73.692C741.296 74.0093 741.758 74.4667 742.094 75.064C742.439 75.6613 742.612 76.3567 742.612 77.15C742.612 77.9433 742.435 78.6433 742.08 79.25C741.735 79.8473 741.263 80.3093 740.666 80.636C740.069 80.9627 739.406 81.126 738.678 81.126ZM738.678 80.006C739.135 80.006 739.565 79.8987 739.966 79.684C740.367 79.4693 740.689 79.1473 740.932 78.718C741.184 78.2887 741.31 77.766 741.31 77.15C741.31 76.534 741.189 76.0113 740.946 75.582C740.703 75.1527 740.386 74.8353 739.994 74.63C739.602 74.4153 739.177 74.308 738.72 74.308C738.253 74.308 737.824 74.4153 737.432 74.63C737.049 74.8353 736.741 75.1527 736.508 75.582C736.275 76.0113 736.158 76.534 736.158 77.15C736.158 77.7753 736.27 78.3027 736.494 78.732C736.727 79.1613 737.035 79.4833 737.418 79.698C737.801 79.9033 738.221 80.006 738.678 80.006ZM748.025 73.188C748.958 73.188 749.714 73.4727 750.293 74.042C750.872 74.602 751.161 75.414 751.161 76.478V81H749.901V76.66C749.901 75.8947 749.71 75.3113 749.327 74.91C748.944 74.4993 748.422 74.294 747.759 74.294C747.087 74.294 746.55 74.504 746.149 74.924C745.757 75.344 745.561 75.9553 745.561 76.758V81H744.287V73.328H745.561V74.42C745.813 74.028 746.154 73.7247 746.583 73.51C747.022 73.2953 747.502 73.188 748.025 73.188ZM760.242 76.87C760.242 77.1127 760.228 77.3693 760.2 77.64H754.068C754.115 78.396 754.371 78.9887 754.838 79.418C755.314 79.838 755.888 80.048 756.56 80.048C757.111 80.048 757.568 79.922 757.932 79.67C758.305 79.4087 758.567 79.0633 758.716 78.634H760.088C759.883 79.3713 759.472 79.9733 758.856 80.44C758.24 80.8973 757.475 81.126 756.56 81.126C755.832 81.126 755.179 80.9627 754.6 80.636C754.031 80.3093 753.583 79.8473 753.256 79.25C752.929 78.6433 752.766 77.9433 752.766 77.15C752.766 76.3567 752.925 75.6613 753.242 75.064C753.559 74.4667 754.003 74.0093 754.572 73.692C755.151 73.3653 755.813 73.202 756.56 73.202C757.288 73.202 757.932 73.3607 758.492 73.678C759.052 73.9953 759.481 74.434 759.78 74.994C760.088 75.5447 760.242 76.17 760.242 76.87ZM758.926 76.604C758.926 76.1187 758.819 75.7033 758.604 75.358C758.389 75.0033 758.095 74.7373 757.722 74.56C757.358 74.3733 756.952 74.28 756.504 74.28C755.86 74.28 755.309 74.4853 754.852 74.896C754.404 75.3067 754.147 75.876 754.082 76.604H758.926ZM767.21 74.378V78.9C767.21 79.2733 767.289 79.5393 767.448 79.698C767.607 79.8473 767.882 79.922 768.274 79.922H769.212V81H768.064C767.355 81 766.823 80.8367 766.468 80.51C766.113 80.1833 765.936 79.6467 765.936 78.9V74.378H764.942V73.328H765.936V71.396H767.21V73.328H769.212V74.378H767.21ZM774.102 81.126C773.383 81.126 772.73 80.9627 772.142 80.636C771.563 80.3093 771.106 79.8473 770.77 79.25C770.443 78.6433 770.28 77.9433 770.28 77.15C770.28 76.366 770.448 75.6753 770.784 75.078C771.129 74.4713 771.596 74.0093 772.184 73.692C772.772 73.3653 773.43 73.202 774.158 73.202C774.886 73.202 775.544 73.3653 776.132 73.692C776.72 74.0093 777.182 74.4667 777.518 75.064C777.863 75.6613 778.036 76.3567 778.036 77.15C778.036 77.9433 777.858 78.6433 777.504 79.25C777.158 79.8473 776.687 80.3093 776.09 80.636C775.492 80.9627 774.83 81.126 774.102 81.126ZM774.102 80.006C774.559 80.006 774.988 79.8987 775.39 79.684C775.791 79.4693 776.113 79.1473 776.356 78.718C776.608 78.2887 776.734 77.766 776.734 77.15C776.734 76.534 776.612 76.0113 776.37 75.582C776.127 75.1527 775.81 74.8353 775.418 74.63C775.026 74.4153 774.601 74.308 774.144 74.308C773.677 74.308 773.248 74.4153 772.856 74.63C772.473 74.8353 772.165 75.1527 771.932 75.582C771.698 76.0113 771.582 76.534 771.582 77.15C771.582 77.7753 771.694 78.3027 771.918 78.732C772.151 79.1613 772.459 79.4833 772.842 79.698C773.224 79.9033 773.644 80.006 774.102 80.006ZM786.515 73.328V81H785.241V79.866C784.998 80.258 784.657 80.566 784.219 80.79C783.789 81.0047 783.313 81.112 782.791 81.112C782.193 81.112 781.657 80.9907 781.181 80.748C780.705 80.496 780.327 80.1227 780.047 79.628C779.776 79.1333 779.641 78.5313 779.641 77.822V73.328H780.901V77.654C780.901 78.41 781.092 78.9933 781.475 79.404C781.857 79.8053 782.38 80.006 783.043 80.006C783.724 80.006 784.261 79.796 784.653 79.376C785.045 78.956 785.241 78.3447 785.241 77.542V73.328H786.515ZM788.19 77.15C788.19 76.3567 788.349 75.666 788.666 75.078C788.983 74.4807 789.422 74.0187 789.982 73.692C790.551 73.3653 791.2 73.202 791.928 73.202C792.871 73.202 793.645 73.4307 794.252 73.888C794.868 74.3453 795.274 74.98 795.47 75.792H794.098C793.967 75.3253 793.711 74.9567 793.328 74.686C792.955 74.4153 792.488 74.28 791.928 74.28C791.2 74.28 790.612 74.532 790.164 75.036C789.716 75.5307 789.492 76.2353 789.492 77.15C789.492 78.074 789.716 78.788 790.164 79.292C790.612 79.796 791.2 80.048 791.928 80.048C792.488 80.048 792.955 79.9173 793.328 79.656C793.701 79.3947 793.958 79.0213 794.098 78.536H795.47C795.265 79.32 794.854 79.95 794.238 80.426C793.622 80.8927 792.852 81.126 791.928 81.126C791.2 81.126 790.551 80.9627 789.982 80.636C789.422 80.3093 788.983 79.8473 788.666 79.25C788.349 78.6527 788.19 77.9527 788.19 77.15ZM800.978 73.188C801.556 73.188 802.079 73.314 802.546 73.566C803.012 73.8087 803.376 74.1773 803.638 74.672C803.908 75.1667 804.044 75.7687 804.044 76.478V81H802.784V76.66C802.784 75.8947 802.592 75.3113 802.21 74.91C801.827 74.4993 801.304 74.294 800.642 74.294C799.97 74.294 799.433 74.504 799.032 74.924C798.64 75.344 798.444 75.9553 798.444 76.758V81H797.17V70.64H798.444V74.42C798.696 74.028 799.041 73.7247 799.48 73.51C799.928 73.2953 800.427 73.188 800.978 73.188ZM813.203 81.126C812.485 81.126 811.831 80.9627 811.243 80.636C810.665 80.3093 810.207 79.8473 809.871 79.25C809.545 78.6433 809.381 77.9433 809.381 77.15C809.381 76.366 809.549 75.6753 809.885 75.078C810.231 74.4713 810.697 74.0093 811.285 73.692C811.873 73.3653 812.531 73.202 813.259 73.202C813.987 73.202 814.645 73.3653 815.233 73.692C815.821 74.0093 816.283 74.4667 816.619 75.064C816.965 75.6613 817.137 76.3567 817.137 77.15C817.137 77.9433 816.96 78.6433 816.605 79.25C816.26 79.8473 815.789 80.3093 815.191 80.636C814.594 80.9627 813.931 81.126 813.203 81.126ZM813.203 80.006C813.661 80.006 814.09 79.8987 814.491 79.684C814.893 79.4693 815.215 79.1473 815.457 78.718C815.709 78.2887 815.835 77.766 815.835 77.15C815.835 76.534 815.714 76.0113 815.471 75.582C815.229 75.1527 814.911 74.8353 814.519 74.63C814.127 74.4153 813.703 74.308 813.245 74.308C812.779 74.308 812.349 74.4153 811.957 74.63C811.575 74.8353 811.267 75.1527 811.033 75.582C810.8 76.0113 810.683 76.534 810.683 77.15C810.683 77.7753 810.795 78.3027 811.019 78.732C811.253 79.1613 811.561 79.4833 811.943 79.698C812.326 79.9033 812.746 80.006 813.203 80.006ZM822.55 73.188C823.484 73.188 824.24 73.4727 824.818 74.042C825.397 74.602 825.686 75.414 825.686 76.478V81H824.426V76.66C824.426 75.8947 824.235 75.3113 823.852 74.91C823.47 74.4993 822.947 74.294 822.284 74.294C821.612 74.294 821.076 74.504 820.674 74.924C820.282 75.344 820.086 75.9553 820.086 76.758V81H818.812V73.328H820.086V74.42C820.338 74.028 820.679 73.7247 821.108 73.51C821.547 73.2953 822.028 73.188 822.55 73.188ZM838.108 73.328L833.488 84.612H832.172L833.684 80.916L830.59 73.328H832.004L834.412 79.544L836.792 73.328H838.108ZM842.735 81.126C842.016 81.126 841.363 80.9627 840.775 80.636C840.196 80.3093 839.739 79.8473 839.403 79.25C839.076 78.6433 838.913 77.9433 838.913 77.15C838.913 76.366 839.081 75.6753 839.417 75.078C839.762 74.4713 840.229 74.0093 840.817 73.692C841.405 73.3653 842.063 73.202 842.791 73.202C843.519 73.202 844.177 73.3653 844.765 73.692C845.353 74.0093 845.815 74.4667 846.151 75.064C846.496 75.6613 846.669 76.3567 846.669 77.15C846.669 77.9433 846.491 78.6433 846.137 79.25C845.791 79.8473 845.32 80.3093 844.723 80.636C844.125 80.9627 843.463 81.126 842.735 81.126ZM842.735 80.006C843.192 80.006 843.621 79.8987 844.023 79.684C844.424 79.4693 844.746 79.1473 844.989 78.718C845.241 78.2887 845.367 77.766 845.367 77.15C845.367 76.534 845.245 76.0113 845.003 75.582C844.76 75.1527 844.443 74.8353 844.051 74.63C843.659 74.4153 843.234 74.308 842.777 74.308C842.31 74.308 841.881 74.4153 841.489 74.63C841.106 74.8353 840.798 75.1527 840.565 75.582C840.331 76.0113 840.215 76.534 840.215 77.15C840.215 77.7753 840.327 78.3027 840.551 78.732C840.784 79.1613 841.092 79.4833 841.475 79.698C841.857 79.9033 842.277 80.006 842.735 80.006ZM855.148 73.328V81H853.874V79.866C853.631 80.258 853.29 80.566 852.852 80.79C852.422 81.0047 851.946 81.112 851.424 81.112C850.826 81.112 850.29 80.9907 849.814 80.748C849.338 80.496 848.96 80.1227 848.68 79.628C848.409 79.1333 848.274 78.5313 848.274 77.822V73.328H849.534V77.654C849.534 78.41 849.725 78.9933 850.108 79.404C850.49 79.8053 851.013 80.006 851.676 80.006C852.357 80.006 852.894 79.796 853.286 79.376C853.678 78.956 853.874 78.3447 853.874 77.542V73.328H855.148ZM858.573 74.574C858.797 74.1353 859.114 73.7947 859.525 73.552C859.945 73.3093 860.453 73.188 861.051 73.188V74.504H860.715C859.287 74.504 858.573 75.2787 858.573 76.828V81H857.299V73.328H858.573V74.574ZM865.778 77.136C865.778 76.352 865.936 75.666 866.254 75.078C866.571 74.4807 867.005 74.0187 867.556 73.692C868.116 73.3653 868.736 73.202 869.418 73.202C870.09 73.202 870.673 73.3467 871.168 73.636C871.662 73.9253 872.031 74.2893 872.274 74.728V73.328H873.562V81H872.274V79.572C872.022 80.02 871.644 80.3933 871.14 80.692C870.645 80.9813 870.066 81.126 869.404 81.126C868.722 81.126 868.106 80.958 867.556 80.622C867.005 80.286 866.571 79.8147 866.254 79.208C865.936 78.6013 865.778 77.9107 865.778 77.136ZM872.274 77.15C872.274 76.5713 872.157 76.0673 871.924 75.638C871.69 75.2087 871.373 74.882 870.972 74.658C870.58 74.4247 870.146 74.308 869.67 74.308C869.194 74.308 868.76 74.42 868.368 74.644C867.976 74.868 867.663 75.1947 867.43 75.624C867.196 76.0533 867.08 76.5573 867.08 77.136C867.08 77.724 867.196 78.2373 867.43 78.676C867.663 79.1053 867.976 79.4367 868.368 79.67C868.76 79.894 869.194 80.006 869.67 80.006C870.146 80.006 870.58 79.894 870.972 79.67C871.373 79.4367 871.69 79.1053 871.924 78.676C872.157 78.2373 872.274 77.7287 872.274 77.15ZM876.989 74.742C877.241 74.3033 877.614 73.9393 878.109 73.65C878.613 73.3513 879.196 73.202 879.859 73.202C880.54 73.202 881.156 73.3653 881.707 73.692C882.267 74.0187 882.705 74.4807 883.023 75.078C883.34 75.666 883.499 76.352 883.499 77.136C883.499 77.9107 883.34 78.6013 883.023 79.208C882.705 79.8147 882.267 80.286 881.707 80.622C881.156 80.958 880.54 81.126 879.859 81.126C879.205 81.126 878.627 80.9813 878.123 80.692C877.628 80.3933 877.25 80.0247 876.989 79.586V84.64H875.715V73.328H876.989V74.742ZM882.197 77.136C882.197 76.5573 882.08 76.0533 881.847 75.624C881.613 75.1947 881.296 74.868 880.895 74.644C880.503 74.42 880.069 74.308 879.593 74.308C879.126 74.308 878.692 74.4247 878.291 74.658C877.899 74.882 877.581 75.2133 877.339 75.652C877.105 76.0813 876.989 76.5807 876.989 77.15C876.989 77.7287 877.105 78.2373 877.339 78.676C877.581 79.1053 877.899 79.4367 878.291 79.67C878.692 79.894 879.126 80.006 879.593 80.006C880.069 80.006 880.503 79.894 880.895 79.67C881.296 79.4367 881.613 79.1053 881.847 78.676C882.08 78.2373 882.197 77.724 882.197 77.136ZM886.45 74.742C886.702 74.3033 887.075 73.9393 887.57 73.65C888.074 73.3513 888.657 73.202 889.32 73.202C890.001 73.202 890.617 73.3653 891.168 73.692C891.728 74.0187 892.166 74.4807 892.484 75.078C892.801 75.666 892.96 76.352 892.96 77.136C892.96 77.9107 892.801 78.6013 892.484 79.208C892.166 79.8147 891.728 80.286 891.168 80.622C890.617 80.958 890.001 81.126 889.32 81.126C888.666 81.126 888.088 80.9813 887.584 80.692C887.089 80.3933 886.711 80.0247 886.45 79.586V84.64H885.176V73.328H886.45V74.742ZM891.658 77.136C891.658 76.5573 891.541 76.0533 891.308 75.624C891.074 75.1947 890.757 74.868 890.356 74.644C889.964 74.42 889.53 74.308 889.054 74.308C888.587 74.308 888.153 74.4247 887.752 74.658C887.36 74.882 887.042 75.2133 886.8 75.652C886.566 76.0813 886.45 76.5807 886.45 77.15C886.45 77.7287 886.566 78.2373 886.8 78.676C887.042 79.1053 887.36 79.4367 887.752 79.67C888.153 79.894 888.587 80.006 889.054 80.006C889.53 80.006 889.964 79.894 890.356 79.67C890.757 79.4367 891.074 79.1053 891.308 78.676C891.541 78.2373 891.658 77.724 891.658 77.136ZM895.043 81.084C894.8 81.084 894.595 81 894.427 80.832C894.259 80.664 894.175 80.4587 894.175 80.216C894.175 79.9733 894.259 79.768 894.427 79.6C894.595 79.432 894.8 79.348 895.043 79.348C895.276 79.348 895.472 79.432 895.631 79.6C895.799 79.768 895.883 79.9733 895.883 80.216C895.883 80.4587 895.799 80.664 895.631 80.832C895.472 81 895.276 81.084 895.043 81.084Z" fill="black" fill-opacity="0.6"/>
<path d="M60 38.24V51.8H25.08V73.28H51.84V86.6H25.08V122H8.28V38.24H60ZM123.273 106.04H89.9128L84.3928 122H66.7528L96.8728 38.12H116.433L146.553 122H128.793L123.273 106.04ZM118.713 92.6L106.593 57.56L94.4728 92.6H118.713ZM249.131 38.24V122H232.331V67.52L209.891 122H197.171L174.611 67.52V122H157.811V38.24H176.891L203.531 100.52L230.171 38.24H249.131ZM322.741 38.24V51.8H300.421V122H283.621V51.8H261.301V38.24H322.741ZM373.879 122.84C366.039 122.84 358.839 121 352.279 117.32C345.719 113.64 340.519 108.56 336.679 102.08C332.839 95.52 330.919 88.12 330.919 79.88C330.919 71.72 332.839 64.4 336.679 57.92C340.519 51.36 345.719 46.24 352.279 42.56C358.839 38.88 366.039 37.04 373.879 37.04C381.799 37.04 388.999 38.88 395.479 42.56C402.039 46.24 407.199 51.36 410.959 57.92C414.799 64.4 416.719 71.72 416.719 79.88C416.719 88.12 414.799 95.52 410.959 102.08C407.199 108.56 402.039 113.64 395.479 117.32C388.919 121 381.719 122.84 373.879 122.84ZM373.879 107.84C378.919 107.84 383.359 106.72 387.199 104.48C391.039 102.16 394.039 98.88 396.199 94.64C398.359 90.4 399.439 85.48 399.439 79.88C399.439 74.28 398.359 69.4 396.199 65.24C394.039 61 391.039 57.76 387.199 55.52C383.359 53.28 378.919 52.16 373.879 52.16C368.839 52.16 364.359 53.28 360.439 55.52C356.599 57.76 353.599 61 351.439 65.24C349.279 69.4 348.199 74.28 348.199 79.88C348.199 85.48 349.279 90.4 351.439 94.64C353.599 98.88 356.599 102.16 360.439 104.48C364.359 106.72 368.839 107.84 373.879 107.84Z" fill="black" fill-opacity="0.05"/>
<path d="M25.872 2.272L21.024 19H18.576L14.688 5.536L10.656 19L8.232 19.024L3.552 2.272H5.88L9.528 16.456L13.56 2.272H16.008L19.848 16.408L23.52 2.272H25.872ZM34.7901 5.608C35.7821 5.608 36.6781 5.824 37.4781 6.256C38.2781 6.672 38.9021 7.304 39.3501 8.152C39.8141 9 40.0461 10.032 40.0461 11.248V19H37.8861V11.56C37.8861 10.248 37.5581 9.248 36.9021 8.56C36.2461 7.856 35.3501 7.504 34.2141 7.504C33.0621 7.504 32.1421 7.864 31.4541 8.584C30.7821 9.304 30.4461 10.352 30.4461 11.728V19H28.2621V1.24H30.4461V7.72C30.8781 7.048 31.4701 6.528 32.2221 6.16C32.9901 5.792 33.8461 5.608 34.7901 5.608ZM42.7976 12.376C42.7976 11.032 43.0696 9.856 43.6136 8.848C44.1576 7.824 44.9016 7.032 45.8456 6.472C46.8056 5.912 47.8696 5.632 49.0376 5.632C50.1896 5.632 51.1896 5.88 52.0376 6.376C52.8856 6.872 53.5176 7.496 53.9336 8.248V5.848H56.1416V19H53.9336V16.552C53.5016 17.32 52.8536 17.96 51.9896 18.472C51.1416 18.968 50.1496 19.216 49.0136 19.216C47.8456 19.216 46.7896 18.928 45.8456 18.352C44.9016 17.776 44.1576 16.968 43.6136 15.928C43.0696 14.888 42.7976 13.704 42.7976 12.376ZM53.9336 12.4C53.9336 11.408 53.7336 10.544 53.3336 9.808C52.9336 9.072 52.3896 8.512 51.7016 8.128C51.0296 7.728 50.2856 7.528 49.4696 7.528C48.6536 7.528 47.9096 7.72 47.2376 8.104C46.5656 8.488 46.0296 9.048 45.6296 9.784C45.2296 10.52 45.0296 11.384 45.0296 12.376C45.0296 13.384 45.2296 14.264 45.6296 15.016C46.0296 15.752 46.5656 16.32 47.2376 16.72C47.9096 17.104 48.6536 17.296 49.4696 17.296C50.2856 17.296 51.0296 17.104 51.7016 16.72C52.3896 16.32 52.9336 15.752 53.3336 15.016C53.7336 14.264 53.9336 13.392 53.9336 12.4ZM62.4964 7.648V15.4C62.4964 16.04 62.6324 16.496 62.9044 16.768C63.1764 17.024 63.6484 17.152 64.3204 17.152H65.9284V19H63.9604C62.7444 19 61.8324 18.72 61.2244 18.16C60.6164 17.6 60.3124 16.68 60.3124 15.4V7.648H58.6084V5.848H60.3124V2.536H62.4964V5.848H65.9284V7.648H62.4964ZM92.493 5.848L88.389 19H86.133L82.965 8.56L79.797 19H77.541L73.413 5.848H75.645L78.669 16.888L81.933 5.848H84.165L87.357 16.912L90.333 5.848H92.493ZM106.661 11.92C106.661 12.336 106.637 12.776 106.589 13.24H96.0765C96.1565 14.536 96.5965 15.552 97.3965 16.288C98.2125 17.008 99.1965 17.368 100.349 17.368C101.293 17.368 102.077 17.152 102.701 16.72C103.341 16.272 103.789 15.68 104.045 14.944H106.397C106.045 16.208 105.341 17.24 104.285 18.04C103.229 18.824 101.917 19.216 100.349 19.216C99.1005 19.216 97.9805 18.936 96.9885 18.376C96.0125 17.816 95.2445 17.024 94.6845 16C94.1245 14.96 93.8445 13.76 93.8445 12.4C93.8445 11.04 94.1165 9.848 94.6605 8.824C95.2045 7.8 95.9645 7.016 96.9405 6.472C97.9325 5.912 99.0685 5.632 100.349 5.632C101.597 5.632 102.701 5.904 103.661 6.448C104.621 6.992 105.357 7.744 105.869 8.704C106.397 9.648 106.661 10.72 106.661 11.92ZM104.405 11.464C104.405 10.632 104.221 9.92 103.853 9.328C103.485 8.72 102.981 8.264 102.341 7.96C101.717 7.64 101.021 7.48 100.253 7.48C99.1485 7.48 98.2045 7.832 97.4205 8.536C96.6525 9.24 96.2125 10.216 96.1005 11.464H104.405ZM118.126 8.272C118.558 7.52 119.198 6.896 120.046 6.4C120.91 5.888 121.91 5.632 123.046 5.632C124.214 5.632 125.27 5.912 126.214 6.472C127.174 7.032 127.926 7.824 128.47 8.848C129.014 9.856 129.286 11.032 129.286 12.376C129.286 13.704 129.014 14.888 128.47 15.928C127.926 16.968 127.174 17.776 126.214 18.352C125.27 18.928 124.214 19.216 123.046 19.216C121.926 19.216 120.934 18.968 120.07 18.472C119.222 17.96 118.574 17.328 118.126 16.576V25.24H115.942V5.848H118.126V8.272ZM127.054 12.376C127.054 11.384 126.854 10.52 126.454 9.784C126.054 9.048 125.51 8.488 124.822 8.104C124.15 7.72 123.406 7.528 122.59 7.528C121.79 7.528 121.046 7.728 120.358 8.128C119.686 8.512 119.142 9.08 118.726 9.832C118.326 10.568 118.126 11.424 118.126 12.4C118.126 13.392 118.326 14.264 118.726 15.016C119.142 15.752 119.686 16.32 120.358 16.72C121.046 17.104 121.79 17.296 122.59 17.296C123.406 17.296 124.15 17.104 124.822 16.72C125.51 16.32 126.054 15.752 126.454 15.016C126.854 14.264 127.054 13.384 127.054 12.376ZM134.345 7.984C134.729 7.232 135.273 6.648 135.977 6.232C136.697 5.816 137.569 5.608 138.593 5.608V7.864H138.017C135.569 7.864 134.345 9.192 134.345 11.848V19H132.161V5.848H134.345V7.984ZM146.85 19.216C145.618 19.216 144.498 18.936 143.49 18.376C142.498 17.816 141.714 17.024 141.138 16C140.578 14.96 140.298 13.76 140.298 12.4C140.298 11.056 140.586 9.872 141.162 8.848C141.754 7.808 142.554 7.016 143.562 6.472C144.57 5.912 145.698 5.632 146.946 5.632C148.194 5.632 149.322 5.912 150.33 6.472C151.338 7.016 152.13 7.8 152.706 8.824C153.298 9.848 153.594 11.04 153.594 12.4C153.594 13.76 153.29 14.96 152.682 16C152.09 17.024 151.282 17.816 150.258 18.376C149.234 18.936 148.098 19.216 146.85 19.216ZM146.85 17.296C147.634 17.296 148.37 17.112 149.058 16.744C149.746 16.376 150.298 15.824 150.714 15.088C151.146 14.352 151.362 13.456 151.362 12.4C151.362 11.344 151.154 10.448 150.738 9.712C150.322 8.976 149.778 8.432 149.106 8.08C148.434 7.712 147.706 7.528 146.922 7.528C146.122 7.528 145.386 7.712 144.714 8.08C144.058 8.432 143.53 8.976 143.13 9.712C142.73 10.448 142.53 11.344 142.53 12.4C142.53 13.472 142.722 14.376 143.106 15.112C143.506 15.848 144.034 16.4 144.69 16.768C145.346 17.12 146.066 17.296 146.85 17.296ZM161.361 16.984L165.441 5.848H167.769L162.609 19H160.065L154.905 5.848H157.257L161.361 16.984ZM171.046 3.712C170.63 3.712 170.278 3.568 169.99 3.28C169.702 2.992 169.558 2.64 169.558 2.224C169.558 1.808 169.702 1.456 169.99 1.168C170.278 0.879999 170.63 0.735999 171.046 0.735999C171.446 0.735999 171.782 0.879999 172.054 1.168C172.342 1.456 172.486 1.808 172.486 2.224C172.486 2.64 172.342 2.992 172.054 3.28C171.782 3.568 171.446 3.712 171.046 3.712ZM172.102 5.848V19H169.918V5.848H172.102ZM175.009 12.376C175.009 11.032 175.281 9.856 175.825 8.848C176.369 7.824 177.113 7.032 178.057 6.472C179.017 5.912 180.089 5.632 181.273 5.632C182.297 5.632 183.249 5.872 184.129 6.352C185.009 6.816 185.681 7.432 186.145 8.2V1.24H188.353V19H186.145V16.528C185.713 17.312 185.073 17.96 184.225 18.472C183.377 18.968 182.385 19.216 181.249 19.216C180.081 19.216 179.017 18.928 178.057 18.352C177.113 17.776 176.369 16.968 175.825 15.928C175.281 14.888 175.009 13.704 175.009 12.376ZM186.145 12.4C186.145 11.408 185.945 10.544 185.545 9.808C185.145 9.072 184.601 8.512 183.913 8.128C183.241 7.728 182.497 7.528 181.681 7.528C180.865 7.528 180.121 7.72 179.449 8.104C178.777 8.488 178.241 9.048 177.841 9.784C177.441 10.52 177.241 11.384 177.241 12.376C177.241 13.384 177.441 14.264 177.841 15.016C178.241 15.752 178.777 16.32 179.449 16.72C180.121 17.104 180.865 17.296 181.681 17.296C182.497 17.296 183.241 17.104 183.913 16.72C184.601 16.32 185.145 15.752 185.545 15.016C185.945 14.264 186.145 13.392 186.145 12.4ZM204.043 11.92C204.043 12.336 204.019 12.776 203.971 13.24H193.459C193.539 14.536 193.979 15.552 194.779 16.288C195.595 17.008 196.579 17.368 197.731 17.368C198.675 17.368 199.459 17.152 200.083 16.72C200.723 16.272 201.171 15.68 201.427 14.944H203.779C203.427 16.208 202.723 17.24 201.667 18.04C200.611 18.824 199.299 19.216 197.731 19.216C196.483 19.216 195.363 18.936 194.371 18.376C193.395 17.816 192.627 17.024 192.067 16C191.507 14.96 191.227 13.76 191.227 12.4C191.227 11.04 191.499 9.848 192.043 8.824C192.587 7.8 193.347 7.016 194.323 6.472C195.315 5.912 196.451 5.632 197.731 5.632C198.979 5.632 200.083 5.904 201.043 6.448C202.003 6.992 202.739 7.744 203.251 8.704C203.779 9.648 204.043 10.72 204.043 11.92ZM201.787 11.464C201.787 10.632 201.603 9.92 201.235 9.328C200.867 8.72 200.363 8.264 199.723 7.96C199.099 7.64 198.403 7.48 197.635 7.48C196.531 7.48 195.587 7.832 194.803 8.536C194.035 9.24 193.595 10.216 193.483 11.464H201.787ZM219.061 19.216C217.829 19.216 216.709 18.936 215.701 18.376C214.709 17.816 213.925 17.024 213.349 16C212.789 14.96 212.509 13.76 212.509 12.4C212.509 11.056 212.797 9.872 213.373 8.848C213.965 7.808 214.765 7.016 215.773 6.472C216.781 5.912 217.909 5.632 219.157 5.632C220.405 5.632 221.533 5.912 222.541 6.472C223.549 7.016 224.341 7.8 224.917 8.824C225.509 9.848 225.805 11.04 225.805 12.4C225.805 13.76 225.501 14.96 224.893 16C224.301 17.024 223.493 17.816 222.469 18.376C221.445 18.936 220.309 19.216 219.061 19.216ZM219.061 17.296C219.845 17.296 220.581 17.112 221.269 16.744C221.957 16.376 222.509 15.824 222.925 15.088C223.357 14.352 223.573 13.456 223.573 12.4C223.573 11.344 223.365 10.448 222.949 9.712C222.533 8.976 221.989 8.432 221.317 8.08C220.645 7.712 219.917 7.528 219.133 7.528C218.333 7.528 217.597 7.712 216.925 8.08C216.269 8.432 215.741 8.976 215.341 9.712C214.941 10.448 214.741 11.344 214.741 12.4C214.741 13.472 214.933 14.376 215.317 15.112C215.717 15.848 216.245 16.4 216.901 16.768C217.557 17.12 218.277 17.296 219.061 17.296ZM240.34 5.848V19H238.156V17.056C237.74 17.728 237.156 18.256 236.404 18.64C235.668 19.008 234.852 19.192 233.956 19.192C232.932 19.192 232.012 18.984 231.196 18.568C230.38 18.136 229.732 17.496 229.252 16.648C228.788 15.8 228.556 14.768 228.556 13.552V5.848H230.716V13.264C230.716 14.56 231.044 15.56 231.7 16.264C232.356 16.952 233.252 17.296 234.388 17.296C235.556 17.296 236.476 16.936 237.148 16.216C237.82 15.496 238.156 14.448 238.156 13.072V5.848H240.34ZM246.212 7.984C246.596 7.232 247.14 6.648 247.844 6.232C248.564 5.816 249.436 5.608 250.46 5.608V7.864H249.884C247.436 7.864 246.212 9.192 246.212 11.848V19H244.028V5.848H246.212V7.984Z" fill="black" fill-opacity="0.75"/>
<path d="M5.8 71C5.8 65.5067 7.02667 60.6 9.48 56.28C11.9867 51.9067 15.3733 48.52 19.64 46.12C23.96 43.6667 28.7867 42.44 34.12 42.44C40.36 42.44 45.8267 44.04 50.52 47.24C55.2133 50.44 58.4933 54.8667 60.36 60.52H47.48C46.2 57.8533 44.3867 55.8533 42.04 54.52C39.7467 53.1867 37.08 52.52 34.04 52.52C30.7867 52.52 27.88 53.2933 25.32 54.84C22.8133 56.3333 20.84 58.4667 19.4 61.24C18.0133 64.0133 17.32 67.2667 17.32 71C17.32 74.68 18.0133 77.9333 19.4 80.76C20.84 83.5333 22.8133 85.6933 25.32 87.24C27.88 88.7333 30.7867 89.48 34.04 89.48C37.08 89.48 39.7467 88.8133 42.04 87.48C44.3867 86.0933 46.2 84.0667 47.48 81.4H60.36C58.4933 87.1067 55.2133 91.56 50.52 94.76C45.88 97.9067 40.4133 99.48 34.12 99.48C28.7867 99.48 23.96 98.28 19.64 95.88C15.3733 93.4267 11.9867 90.04 9.48 85.72C7.02667 81.4 5.8 76.4933 5.8 71ZM111.766 54.68V99H100.486V93.4C99.0463 95.32 97.1529 96.84 94.8063 97.96C92.5129 99.0267 90.0063 99.56 87.2863 99.56C83.8196 99.56 80.7529 98.84 78.0863 97.4C75.4196 95.9067 73.3129 93.7467 71.7663 90.92C70.2729 88.04 69.5263 84.6267 69.5263 80.68V54.68H80.7263V79.08C80.7263 82.6 81.6063 85.32 83.3663 87.24C85.1263 89.1067 87.5263 90.04 90.5663 90.04C93.6596 90.04 96.0863 89.1067 97.8463 87.24C99.6063 85.32 100.486 82.6 100.486 79.08V54.68H111.766ZM139.777 99.72C136.15 99.72 132.897 99.08 130.017 97.8C127.137 96.4667 124.844 94.68 123.137 92.44C121.484 90.2 120.577 87.72 120.417 85H131.697C131.91 86.7067 132.737 88.12 134.177 89.24C135.67 90.36 137.51 90.92 139.697 90.92C141.83 90.92 143.484 90.4933 144.657 89.64C145.884 88.7867 146.497 87.6933 146.497 86.36C146.497 84.92 145.75 83.8533 144.257 83.16C142.817 82.4133 140.497 81.6133 137.297 80.76C133.99 79.96 131.27 79.1333 129.137 78.28C127.057 77.4267 125.244 76.12 123.697 74.36C122.204 72.6 121.457 70.2267 121.457 67.24C121.457 64.7867 122.15 62.5467 123.537 60.52C124.977 58.4933 127.004 56.8933 129.617 55.72C132.284 54.5467 135.404 53.96 138.977 53.96C144.257 53.96 148.47 55.2933 151.617 57.96C154.764 60.5733 156.497 64.12 156.817 68.6H146.097C145.937 66.84 145.19 65.4533 143.857 64.44C142.577 63.3733 140.844 62.84 138.657 62.84C136.63 62.84 135.057 63.2133 133.937 63.96C132.87 64.7067 132.337 65.7467 132.337 67.08C132.337 68.5733 133.084 69.72 134.577 70.52C136.07 71.2667 138.39 72.04 141.537 72.84C144.737 73.64 147.377 74.4667 149.457 75.32C151.537 76.1733 153.324 77.5067 154.817 79.32C156.364 81.08 157.164 83.4267 157.217 86.36C157.217 88.92 156.497 91.2133 155.057 93.24C153.67 95.2667 151.644 96.8667 148.977 98.04C146.364 99.16 143.297 99.72 139.777 99.72ZM179.451 63.88V85.32C179.451 86.8133 179.797 87.9067 180.491 88.6C181.237 89.24 182.464 89.56 184.171 89.56H189.371V99H182.331C172.891 99 168.171 94.4133 168.171 85.24V63.88H162.891V54.68H168.171V43.72H179.451V54.68H189.371V63.88H179.451ZM217.106 99.72C212.84 99.72 209 98.7867 205.586 96.92C202.173 95 199.48 92.3067 197.506 88.84C195.586 85.3733 194.626 81.3733 194.626 76.84C194.626 72.3067 195.613 68.3067 197.586 64.84C199.613 61.3733 202.36 58.7067 205.826 56.84C209.293 54.92 213.16 53.96 217.426 53.96C221.693 53.96 225.56 54.92 229.026 56.84C232.493 58.7067 235.213 61.3733 237.186 64.84C239.213 68.3067 240.226 72.3067 240.226 76.84C240.226 81.3733 239.186 85.3733 237.106 88.84C235.08 92.3067 232.306 95 228.786 96.92C225.32 98.7867 221.426 99.72 217.106 99.72ZM217.106 89.96C219.133 89.96 221.026 89.48 222.786 88.52C224.6 87.5067 226.04 86.0133 227.106 84.04C228.173 82.0667 228.706 79.6667 228.706 76.84C228.706 72.6267 227.586 69.4 225.346 67.16C223.16 64.8667 220.466 63.72 217.266 63.72C214.066 63.72 211.373 64.8667 209.186 67.16C207.053 69.4 205.986 72.6267 205.986 76.84C205.986 81.0533 207.026 84.3067 209.106 86.6C211.24 88.84 213.906 89.96 217.106 89.96ZM303.482 54.04C308.922 54.04 313.295 55.72 316.602 59.08C319.962 62.3867 321.642 67.0267 321.642 73V99H310.442V74.52C310.442 71.0533 309.562 68.4133 307.802 66.6C306.042 64.7333 303.642 63.8 300.602 63.8C297.562 63.8 295.135 64.7333 293.322 66.6C291.562 68.4133 290.682 71.0533 290.682 74.52V99H279.482V74.52C279.482 71.0533 278.602 68.4133 276.842 66.6C275.082 64.7333 272.682 63.8 269.642 63.8C266.549 63.8 264.095 64.7333 262.282 66.6C260.522 68.4133 259.642 71.0533 259.642 74.52V99H248.442V54.68H259.642V60.04C261.082 58.1733 262.922 56.7067 265.162 55.64C267.455 54.5733 269.962 54.04 272.682 54.04C276.149 54.04 279.242 54.7867 281.962 56.28C284.682 57.72 286.789 59.8 288.282 62.52C289.722 59.96 291.802 57.9067 294.522 56.36C297.295 54.8133 300.282 54.04 303.482 54.04ZM373.47 75.88C373.47 77.48 373.363 78.92 373.15 80.2H340.75C341.017 83.4 342.137 85.9067 344.11 87.72C346.083 89.5333 348.51 90.44 351.39 90.44C355.55 90.44 358.51 88.6533 360.27 85.08H372.35C371.07 89.3467 368.617 92.8667 364.99 95.64C361.363 98.36 356.91 99.72 351.63 99.72C347.363 99.72 343.523 98.7867 340.11 96.92C336.75 95 334.11 92.3067 332.19 88.84C330.323 85.3733 329.39 81.3733 329.39 76.84C329.39 72.2533 330.323 68.2267 332.19 64.76C334.057 61.2933 336.67 58.6267 340.03 56.76C343.39 54.8933 347.257 53.96 351.63 53.96C355.843 53.96 359.603 54.8667 362.91 56.68C366.27 58.4933 368.857 61.08 370.67 64.44C372.537 67.7467 373.47 71.56 373.47 75.88ZM361.87 72.68C361.817 69.8 360.777 67.5067 358.75 65.8C356.723 64.04 354.243 63.16 351.31 63.16C348.537 63.16 346.19 64.0133 344.27 65.72C342.403 67.3733 341.257 69.6933 340.83 72.68H361.87ZM392.845 61.56C394.285 59.2133 396.152 57.3733 398.445 56.04C400.792 54.7067 403.458 54.04 406.445 54.04V65.8H403.485C399.965 65.8 397.298 66.6267 395.485 68.28C393.725 69.9333 392.845 72.8133 392.845 76.92V99H381.645V54.68H392.845V61.56ZM430.949 99.72C427.322 99.72 424.069 99.08 421.189 97.8C418.309 96.4667 416.015 94.68 414.309 92.44C412.655 90.2 411.749 87.72 411.589 85H422.869C423.082 86.7067 423.909 88.12 425.349 89.24C426.842 90.36 428.682 90.92 430.869 90.92C433.002 90.92 434.655 90.4933 435.829 89.64C437.055 88.7867 437.669 87.6933 437.669 86.36C437.669 84.92 436.922 83.8533 435.429 83.16C433.989 82.4133 431.669 81.6133 428.469 80.76C425.162 79.96 422.442 79.1333 420.309 78.28C418.229 77.4267 416.415 76.12 414.869 74.36C413.375 72.6 412.629 70.2267 412.629 67.24C412.629 64.7867 413.322 62.5467 414.709 60.52C416.149 58.4933 418.175 56.8933 420.789 55.72C423.455 54.5467 426.575 53.96 430.149 53.96C435.429 53.96 439.642 55.2933 442.789 57.96C445.935 60.5733 447.669 64.12 447.989 68.6H437.269C437.109 66.84 436.362 65.4533 435.029 64.44C433.749 63.3733 432.015 62.84 429.829 62.84C427.802 62.84 426.229 63.2133 425.109 63.96C424.042 64.7067 423.509 65.7467 423.509 67.08C423.509 68.5733 424.255 69.72 425.749 70.52C427.242 71.2667 429.562 72.04 432.709 72.84C435.909 73.64 438.549 74.4667 440.629 75.32C442.709 76.1733 444.495 77.5067 445.989 79.32C447.535 81.08 448.335 83.4267 448.389 86.36C448.389 88.92 447.669 91.2133 446.229 93.24C444.842 95.2667 442.815 96.8667 440.149 98.04C437.535 99.16 434.469 99.72 430.949 99.72Z" fill="black"/>
</svg>
