<svg width="600" height="40" viewBox="0 0 600 40" fill="none" xmlns="http://www.w3.org/2000/svg">
<rect width="600" height="40" rx="4" fill="black" fill-opacity="0.1"/>
<path d="M18.352 16.278V19.54H21.908V20.59H18.352V23.95H22.328V25H17.078V15.228H22.328V16.278H18.352ZM33.4817 17.188C34.0791 17.188 34.6111 17.314 35.0777 17.566C35.5444 17.8087 35.9131 18.1773 36.1837 18.672C36.4544 19.1667 36.5897 19.7687 36.5897 20.478V25H35.3297V20.66C35.3297 19.8947 35.1384 19.3113 34.7557 18.91C34.3824 18.4993 33.8737 18.294 33.2297 18.294C32.5671 18.294 32.0397 18.5087 31.6477 18.938C31.2557 19.358 31.0597 19.9693 31.0597 20.772V25H29.7997V20.66C29.7997 19.8947 29.6084 19.3113 29.2257 18.91C28.8524 18.4993 28.3437 18.294 27.6997 18.294C27.0371 18.294 26.5097 18.5087 26.1177 18.938C25.7257 19.358 25.5297 19.9693 25.5297 20.772V25H24.2557V17.328H25.5297V18.434C25.7817 18.0327 26.1177 17.7247 26.5377 17.51C26.9671 17.2953 27.4384 17.188 27.9517 17.188C28.5957 17.188 29.1651 17.3327 29.6597 17.622C30.1544 17.9113 30.5231 18.336 30.7657 18.896C30.9804 18.3547 31.3351 17.9347 31.8297 17.636C32.3244 17.3373 32.8751 17.188 33.4817 17.188ZM38.2036 21.136C38.2036 20.352 38.3622 19.666 38.6796 19.078C38.9969 18.4807 39.4309 18.0187 39.9816 17.692C40.5416 17.3653 41.1622 17.202 41.8436 17.202C42.5156 17.202 43.0989 17.3467 43.5936 17.636C44.0882 17.9253 44.4569 18.2893 44.6996 18.728V17.328H45.9876V25H44.6996V23.572C44.4476 24.02 44.0696 24.3933 43.5656 24.692C43.0709 24.9813 42.4922 25.126 41.8296 25.126C41.1482 25.126 40.5322 24.958 39.9816 24.622C39.4309 24.286 38.9969 23.8147 38.6796 23.208C38.3622 22.6013 38.2036 21.9107 38.2036 21.136ZM44.6996 21.15C44.6996 20.5713 44.5829 20.0673 44.3496 19.638C44.1162 19.2087 43.7989 18.882 43.3976 18.658C43.0056 18.4247 42.5716 18.308 42.0956 18.308C41.6196 18.308 41.1856 18.42 40.7936 18.644C40.4016 18.868 40.0889 19.1947 39.8556 19.624C39.6222 20.0533 39.5056 20.5573 39.5056 21.136C39.5056 21.724 39.6222 22.2373 39.8556 22.676C40.0889 23.1053 40.4016 23.4367 40.7936 23.67C41.1856 23.894 41.6196 24.006 42.0956 24.006C42.5716 24.006 43.0056 23.894 43.3976 23.67C43.7989 23.4367 44.1162 23.1053 44.3496 22.676C44.5829 22.2373 44.6996 21.7287 44.6996 21.15ZM48.7985 16.082C48.5558 16.082 48.3505 15.998 48.1825 15.83C48.0145 15.662 47.9305 15.4567 47.9305 15.214C47.9305 14.9713 48.0145 14.766 48.1825 14.598C48.3505 14.43 48.5558 14.346 48.7985 14.346C49.0318 14.346 49.2278 14.43 49.3865 14.598C49.5545 14.766 49.6385 14.9713 49.6385 15.214C49.6385 15.4567 49.5545 15.662 49.3865 15.83C49.2278 15.998 49.0318 16.082 48.7985 16.082ZM49.4145 17.328V25H48.1405V17.328H49.4145ZM52.8598 14.64V25H51.5858V14.64H52.8598Z" fill="black" fill-opacity="0.6"/>
</svg>
