<svg width="565" height="147" viewBox="0 0 565 147" fill="none" xmlns="http://www.w3.org/2000/svg">
<path d="M0.518 6.114C0.518 5.162 0.737333 4.308 1.176 3.552C1.624 2.796 2.226 2.208 2.982 1.788C3.74733 1.35867 4.58267 1.144 5.488 1.144C6.524 1.144 7.44333 1.40067 8.246 1.914C9.058 2.418 9.646 3.13667 10.01 4.07H8.092C7.84 3.55667 7.49 3.174 7.042 2.922C6.594 2.67 6.076 2.544 5.488 2.544C4.844 2.544 4.27 2.68867 3.766 2.978C3.262 3.26733 2.86533 3.68267 2.576 4.224C2.296 4.76533 2.156 5.39533 2.156 6.114C2.156 6.83267 2.296 7.46267 2.576 8.004C2.86533 8.54533 3.262 8.96533 3.766 9.264C4.27 9.55333 4.844 9.698 5.488 9.698C6.076 9.698 6.594 9.572 7.042 9.32C7.49 9.068 7.84 8.68533 8.092 8.172H10.01C9.646 9.10533 9.058 9.824 8.246 10.328C7.44333 10.832 6.524 11.084 5.488 11.084C4.57333 11.084 3.738 10.874 2.982 10.454C2.226 10.0247 1.624 9.432 1.176 8.676C0.737333 7.92 0.518 7.066 0.518 6.114ZM15.2241 11.126C14.4961 11.126 13.8381 10.9627 13.2501 10.636C12.6621 10.3 12.2001 9.83333 11.8641 9.236C11.5281 8.62933 11.3601 7.92933 11.3601 7.136C11.3601 6.352 11.5328 5.65667 11.8781 5.05C12.2235 4.44333 12.6948 3.97667 13.2921 3.65C13.8895 3.32333 14.5568 3.16 15.2941 3.16C16.0315 3.16 16.6988 3.32333 17.2961 3.65C17.8935 3.97667 18.3648 4.44333 18.7101 5.05C19.0555 5.65667 19.2281 6.352 19.2281 7.136C19.2281 7.92 19.0508 8.61533 18.6961 9.222C18.3415 9.82867 17.8561 10.3 17.2401 10.636C16.6335 10.9627 15.9615 11.126 15.2241 11.126ZM15.2241 9.74C15.6348 9.74 16.0175 9.642 16.3721 9.446C16.7361 9.25 17.0301 8.956 17.2541 8.564C17.4781 8.172 17.5901 7.696 17.5901 7.136C17.5901 6.576 17.4828 6.10467 17.2681 5.722C17.0535 5.33 16.7688 5.036 16.4141 4.84C16.0595 4.644 15.6768 4.546 15.2661 4.546C14.8555 4.546 14.4728 4.644 14.1181 4.84C13.7728 5.036 13.4975 5.33 13.2921 5.722C13.0868 6.10467 12.9841 6.576 12.9841 7.136C12.9841 7.96667 13.1941 8.61067 13.6141 9.068C14.0435 9.516 14.5801 9.74 15.2241 9.74ZM24.6979 3.16C25.3045 3.16 25.8459 3.286 26.3219 3.538C26.8072 3.79 27.1852 4.16333 27.4559 4.658C27.7265 5.15267 27.8619 5.75 27.8619 6.45V11H26.2799V6.688C26.2799 5.99733 26.1072 5.47 25.7619 5.106C25.4165 4.73267 24.9452 4.546 24.3479 4.546C23.7505 4.546 23.2745 4.73267 22.9199 5.106C22.5745 5.47 22.4019 5.99733 22.4019 6.688V11H20.8059V3.286H22.4019V4.168C22.6632 3.85067 22.9945 3.60333 23.3959 3.426C23.8065 3.24867 24.2405 3.16 24.6979 3.16ZM31.7597 4.588V8.858C31.7597 9.14733 31.825 9.35733 31.9557 9.488C32.0957 9.60933 32.329 9.67 32.6557 9.67H33.6357V11H32.3757C31.657 11 31.1063 10.832 30.7237 10.496C30.341 10.16 30.1497 9.614 30.1497 8.858V4.588H29.2397V3.286H30.1497V1.368H31.7597V3.286H33.6357V4.588H31.7597ZM34.5746 7.108C34.5746 6.33333 34.7333 5.64733 35.0506 5.05C35.3773 4.45267 35.816 3.99067 36.3666 3.664C36.9266 3.328 37.5426 3.16 38.2146 3.16C38.8213 3.16 39.3486 3.28133 39.7966 3.524C40.254 3.75733 40.618 4.05133 40.8886 4.406V3.286H42.4986V11H40.8886V9.852C40.618 10.216 40.2493 10.5193 39.7826 10.762C39.316 11.0047 38.784 11.126 38.1866 11.126C37.524 11.126 36.9173 10.958 36.3666 10.622C35.816 10.2767 35.3773 9.80067 35.0506 9.194C34.7333 8.578 34.5746 7.88267 34.5746 7.108ZM40.8886 7.136C40.8886 6.604 40.7766 6.142 40.5526 5.75C40.338 5.358 40.0533 5.05933 39.6986 4.854C39.344 4.64867 38.9613 4.546 38.5506 4.546C38.14 4.546 37.7573 4.64867 37.4026 4.854C37.048 5.05 36.7586 5.344 36.5346 5.736C36.32 6.11867 36.2126 6.576 36.2126 7.108C36.2126 7.64 36.32 8.10667 36.5346 8.508C36.7586 8.90933 37.048 9.21733 37.4026 9.432C37.7666 9.63733 38.1493 9.74 38.5506 9.74C38.9613 9.74 39.344 9.63733 39.6986 9.432C40.0533 9.22667 40.338 8.928 40.5526 8.536C40.7766 8.13467 40.8886 7.668 40.8886 7.136ZM44.0629 7.136C44.0629 6.34267 44.2216 5.64733 44.5389 5.05C44.8656 4.44333 45.3136 3.97667 45.8829 3.65C46.4523 3.32333 47.1056 3.16 47.8429 3.16C48.7763 3.16 49.5463 3.384 50.1529 3.832C50.7689 4.27067 51.1843 4.90067 51.3989 5.722H49.6769C49.5369 5.33933 49.3129 5.04067 49.0049 4.826C48.6969 4.61133 48.3096 4.504 47.8429 4.504C47.1896 4.504 46.6669 4.73733 46.2749 5.204C45.8923 5.66133 45.7009 6.30533 45.7009 7.136C45.7009 7.96667 45.8923 8.61533 46.2749 9.082C46.6669 9.54867 47.1896 9.782 47.8429 9.782C48.7669 9.782 49.3783 9.376 49.6769 8.564H51.3989C51.1749 9.348 50.7549 9.97333 50.1389 10.44C49.5229 10.8973 48.7576 11.126 47.8429 11.126C47.1056 11.126 46.4523 10.9627 45.8829 10.636C45.3136 10.3 44.8656 9.83333 44.5389 9.236C44.2216 8.62933 44.0629 7.92933 44.0629 7.136ZM54.8515 4.588V8.858C54.8515 9.14733 54.9168 9.35733 55.0475 9.488C55.1875 9.60933 55.4208 9.67 55.7475 9.67H56.7275V11H55.4675C54.7488 11 54.1981 10.832 53.8155 10.496C53.4328 10.16 53.2415 9.614 53.2415 8.858V4.588H52.3315V3.286H53.2415V1.368H54.8515V3.286H56.7275V4.588H54.8515ZM63.4172 1.27V7.472C63.4172 8.20933 63.6085 8.76467 63.9912 9.138C64.3832 9.51133 64.9245 9.698 65.6152 9.698C66.3152 9.698 66.8565 9.51133 67.2392 9.138C67.6312 8.76467 67.8272 8.20933 67.8272 7.472V1.27H69.4232V7.444C69.4232 8.23733 69.2505 8.90933 68.9052 9.46C68.5598 10.0107 68.0978 10.4213 67.5192 10.692C66.9405 10.9627 66.3012 11.098 65.6012 11.098C64.9012 11.098 64.2618 10.9627 63.6832 10.692C63.1138 10.4213 62.6612 10.0107 62.3252 9.46C61.9892 8.90933 61.8212 8.23733 61.8212 7.444V1.27H63.4172ZM74.3012 11.126C73.6945 11.126 73.1485 11.0187 72.6632 10.804C72.1872 10.58 71.8092 10.2813 71.5292 9.908C71.2492 9.52533 71.0998 9.10067 71.0812 8.634H72.7332C72.7612 8.96067 72.9152 9.236 73.1952 9.46C73.4845 9.67467 73.8438 9.782 74.2732 9.782C74.7212 9.782 75.0665 9.698 75.3092 9.53C75.5612 9.35267 75.6872 9.12867 75.6872 8.858C75.6872 8.56867 75.5472 8.354 75.2672 8.214C74.9965 8.074 74.5625 7.92 73.9652 7.752C73.3865 7.59333 72.9152 7.43933 72.5512 7.29C72.1872 7.14067 71.8698 6.912 71.5992 6.604C71.3378 6.296 71.2072 5.89 71.2072 5.386C71.2072 4.97533 71.3285 4.602 71.5712 4.266C71.8138 3.92067 72.1592 3.65 72.6072 3.454C73.0645 3.258 73.5872 3.16 74.1752 3.16C75.0525 3.16 75.7572 3.384 76.2892 3.832C76.8305 4.27067 77.1198 4.87267 77.1572 5.638H75.5612C75.5332 5.29267 75.3932 5.01733 75.1412 4.812C74.8892 4.60667 74.5485 4.504 74.1192 4.504C73.6992 4.504 73.3772 4.58333 73.1532 4.742C72.9292 4.90067 72.8172 5.11067 72.8172 5.372C72.8172 5.57733 72.8918 5.75 73.0412 5.89C73.1905 6.03 73.3725 6.142 73.5872 6.226C73.8018 6.30067 74.1192 6.39867 74.5392 6.52C75.0992 6.66933 75.5565 6.82333 75.9112 6.982C76.2752 7.13133 76.5878 7.35533 76.8492 7.654C77.1105 7.95267 77.2458 8.34933 77.2552 8.844C77.2552 9.28267 77.1338 9.67467 76.8912 10.02C76.6485 10.3653 76.3032 10.636 75.8552 10.832C75.4165 11.028 74.8985 11.126 74.3012 11.126Z" fill="white"/>
<g clip-path="url(#clip0_2333_400)">
<path d="M14.6669 46.28V48.28C14.6677 48.4657 14.6297 48.6494 14.5553 48.8195C14.4809 48.9897 14.3718 49.1424 14.235 49.2679C14.0982 49.3934 13.9367 49.489 13.7608 49.5485C13.5849 49.6079 13.3985 49.63 13.2136 49.6133C11.1622 49.3904 9.19161 48.6894 7.46028 47.5667C5.8495 46.5431 4.48384 45.1774 3.46028 43.5667C2.3336 41.8275 1.63244 39.8473 1.41361 37.7866C1.39695 37.6023 1.41886 37.4165 1.47795 37.2411C1.53703 37.0656 1.63199 36.9044 1.75679 36.7677C1.88159 36.631 2.03348 36.5218 2.20281 36.447C2.37213 36.3722 2.55517 36.3335 2.74028 36.3333H4.74028C5.06382 36.3301 5.37748 36.4447 5.62279 36.6557C5.8681 36.8666 6.02833 37.1596 6.07361 37.48C6.15803 38.12 6.31458 38.7485 6.54028 39.3533C6.62998 39.5919 6.64939 39.8513 6.59622 40.1006C6.54305 40.3499 6.41952 40.5787 6.24028 40.76L5.39361 41.6066C6.34265 43.2757 7.72458 44.6576 9.39361 45.6067L10.2403 44.76C10.4215 44.5807 10.6504 44.4572 10.8997 44.404C11.149 44.3509 11.4083 44.3703 11.6469 44.46C12.2518 44.6857 12.8802 44.8422 13.5203 44.9267C13.8441 44.9723 14.1399 45.1355 14.3513 45.385C14.5627 45.6345 14.6751 45.953 14.6669 46.28Z" stroke="white" stroke-opacity="0.75" stroke-linecap="round" stroke-linejoin="round"/>
</g>
<path d="M34.732 41.144C34.732 41.568 34.632 41.968 34.432 42.344C34.232 42.72 33.912 43.028 33.472 43.268C33.032 43.5 32.468 43.616 31.78 43.616H30.268V47H28.9V38.66H31.78C32.42 38.66 32.96 38.772 33.4 38.996C33.848 39.212 34.18 39.508 34.396 39.884C34.62 40.26 34.732 40.68 34.732 41.144ZM31.78 42.5C32.3 42.5 32.688 42.384 32.944 42.152C33.2 41.912 33.328 41.576 33.328 41.144C33.328 40.232 32.812 39.776 31.78 39.776H30.268V42.5H31.78ZM39.4567 40.28C39.9607 40.28 40.4087 40.388 40.8007 40.604C41.2007 40.82 41.5127 41.14 41.7367 41.564C41.9687 41.988 42.0847 42.5 42.0847 43.1V47H40.7287V43.304C40.7287 42.712 40.5807 42.26 40.2847 41.948C39.9887 41.628 39.5847 41.468 39.0727 41.468C38.5607 41.468 38.1527 41.628 37.8487 41.948C37.5527 42.26 37.4047 42.712 37.4047 43.304V47H36.0367V38.12H37.4047V41.156C37.6367 40.876 37.9287 40.66 38.2807 40.508C38.6407 40.356 39.0327 40.28 39.4567 40.28ZM46.6977 47.108C46.0737 47.108 45.5097 46.968 45.0057 46.688C44.5017 46.4 44.1057 46 43.8177 45.488C43.5297 44.968 43.3857 44.368 43.3857 43.688C43.3857 43.016 43.5337 42.42 43.8297 41.9C44.1257 41.38 44.5297 40.98 45.0417 40.7C45.5537 40.42 46.1257 40.28 46.7577 40.28C47.3897 40.28 47.9617 40.42 48.4737 40.7C48.9857 40.98 49.3897 41.38 49.6857 41.9C49.9817 42.42 50.1297 43.016 50.1297 43.688C50.1297 44.36 49.9777 44.956 49.6737 45.476C49.3697 45.996 48.9537 46.4 48.4257 46.688C47.9057 46.968 47.3297 47.108 46.6977 47.108ZM46.6977 45.92C47.0497 45.92 47.3777 45.836 47.6817 45.668C47.9937 45.5 48.2457 45.248 48.4377 44.912C48.6297 44.576 48.7257 44.168 48.7257 43.688C48.7257 43.208 48.6337 42.804 48.4497 42.476C48.2657 42.14 48.0217 41.888 47.7177 41.72C47.4137 41.552 47.0857 41.468 46.7337 41.468C46.3817 41.468 46.0537 41.552 45.7497 41.72C45.4537 41.888 45.2177 42.14 45.0417 42.476C44.8657 42.804 44.7777 43.208 44.7777 43.688C44.7777 44.4 44.9577 44.952 45.3177 45.344C45.6857 45.728 46.1457 45.92 46.6977 45.92ZM54.818 40.28C55.338 40.28 55.802 40.388 56.21 40.604C56.626 40.82 56.95 41.14 57.182 41.564C57.414 41.988 57.53 42.5 57.53 43.1V47H56.174V43.304C56.174 42.712 56.026 42.26 55.73 41.948C55.434 41.628 55.03 41.468 54.518 41.468C54.006 41.468 53.598 41.628 53.294 41.948C52.998 42.26 52.85 42.712 52.85 43.304V47H51.482V40.388H52.85V41.144C53.074 40.872 53.358 40.66 53.702 40.508C54.054 40.356 54.426 40.28 54.818 40.28ZM65.335 43.532C65.335 43.78 65.319 44.004 65.287 44.204H60.235C60.275 44.732 60.471 45.156 60.823 45.476C61.175 45.796 61.607 45.956 62.119 45.956C62.855 45.956 63.375 45.648 63.679 45.032H65.155C64.955 45.64 64.591 46.14 64.063 46.532C63.543 46.916 62.895 47.108 62.119 47.108C61.487 47.108 60.919 46.968 60.415 46.688C59.919 46.4 59.527 46 59.239 45.488C58.959 44.968 58.819 44.368 58.819 43.688C58.819 43.008 58.955 42.412 59.227 41.9C59.507 41.38 59.895 40.98 60.391 40.7C60.895 40.42 61.471 40.28 62.119 40.28C62.743 40.28 63.299 40.416 63.787 40.688C64.275 40.96 64.655 41.344 64.927 41.84C65.199 42.328 65.335 42.892 65.335 43.532ZM63.907 43.1C63.899 42.596 63.719 42.192 63.367 41.888C63.015 41.584 62.579 41.432 62.059 41.432C61.587 41.432 61.183 41.584 60.847 41.888C60.511 42.184 60.311 42.588 60.247 43.1H63.907Z" fill="white" fill-opacity="0.75"/>
<path d="M2.66634 69.6666H13.333C14.0663 69.6666 14.6663 70.2666 14.6663 71V79C14.6663 79.7333 14.0663 80.3333 13.333 80.3333H2.66634C1.93301 80.3333 1.33301 79.7333 1.33301 79V71C1.33301 70.2666 1.93301 69.6666 2.66634 69.6666Z" stroke="white" stroke-opacity="0.75" stroke-linecap="round" stroke-linejoin="round"/>
<path d="M14.6663 71L7.99967 75.6667L1.33301 71" stroke="white" stroke-opacity="0.75" stroke-linecap="round" stroke-linejoin="round"/>
<path d="M37.684 70.66V79H36.316V73.288L33.772 79H32.824L30.268 73.288V79H28.9V70.66H30.376L33.304 77.2L36.22 70.66H37.684ZM39.026 75.664C39.026 75 39.162 74.412 39.434 73.9C39.714 73.388 40.09 72.992 40.562 72.712C41.042 72.424 41.57 72.28 42.146 72.28C42.666 72.28 43.118 72.384 43.502 72.592C43.894 72.792 44.206 73.044 44.438 73.348V72.388H45.818V79H44.438V78.016C44.206 78.328 43.89 78.588 43.49 78.796C43.09 79.004 42.634 79.108 42.122 79.108C41.554 79.108 41.034 78.964 40.562 78.676C40.09 78.38 39.714 77.972 39.434 77.452C39.162 76.924 39.026 76.328 39.026 75.664ZM44.438 75.688C44.438 75.232 44.342 74.836 44.15 74.5C43.966 74.164 43.722 73.908 43.418 73.732C43.114 73.556 42.786 73.468 42.434 73.468C42.082 73.468 41.754 73.556 41.45 73.732C41.146 73.9 40.898 74.152 40.706 74.488C40.522 74.816 40.43 75.208 40.43 75.664C40.43 76.12 40.522 76.52 40.706 76.864C40.898 77.208 41.146 77.472 41.45 77.656C41.762 77.832 42.09 77.92 42.434 77.92C42.786 77.92 43.114 77.832 43.418 77.656C43.722 77.48 43.966 77.224 44.15 76.888C44.342 76.544 44.438 76.144 44.438 75.688ZM48.3108 71.512C48.0628 71.512 47.8548 71.428 47.6868 71.26C47.5188 71.092 47.4348 70.884 47.4348 70.636C47.4348 70.388 47.5188 70.18 47.6868 70.012C47.8548 69.844 48.0628 69.76 48.3108 69.76C48.5508 69.76 48.7548 69.844 48.9228 70.012C49.0908 70.18 49.1748 70.388 49.1748 70.636C49.1748 70.884 49.0908 71.092 48.9228 71.26C48.7548 71.428 48.5508 71.512 48.3108 71.512ZM48.9828 72.388V79H47.6148V72.388H48.9828ZM52.1469 70.12V79H50.7789V70.12H52.1469Z" fill="white" fill-opacity="0.75"/>
<path d="M14 105.667C14 110.333 8 114.333 8 114.333C8 114.333 2 110.333 2 105.667C2 104.075 2.63214 102.549 3.75736 101.424C4.88258 100.299 6.4087 99.6666 8 99.6666C9.5913 99.6666 11.1174 100.299 12.2426 101.424C13.3679 102.549 14 104.075 14 105.667Z" stroke="white" stroke-opacity="0.75" stroke-linecap="round" stroke-linejoin="round"/>
<path d="M8 107.667C9.10457 107.667 10 106.771 10 105.667C10 104.562 9.10457 103.667 8 103.667C6.89543 103.667 6 104.562 6 105.667C6 106.771 6.89543 107.667 8 107.667Z" stroke="white" stroke-opacity="0.75" stroke-linecap="round" stroke-linejoin="round"/>
<path d="M30.268 109.896H33.088V111H28.9V102.66H30.268V109.896ZM37.1 111.108C36.476 111.108 35.912 110.968 35.408 110.688C34.904 110.4 34.508 110 34.22 109.488C33.932 108.968 33.788 108.368 33.788 107.688C33.788 107.016 33.936 106.42 34.232 105.9C34.528 105.38 34.932 104.98 35.444 104.7C35.956 104.42 36.528 104.28 37.16 104.28C37.792 104.28 38.364 104.42 38.876 104.7C39.388 104.98 39.792 105.38 40.088 105.9C40.384 106.42 40.532 107.016 40.532 107.688C40.532 108.36 40.38 108.956 40.076 109.476C39.772 109.996 39.356 110.4 38.828 110.688C38.308 110.968 37.732 111.108 37.1 111.108ZM37.1 109.92C37.452 109.92 37.78 109.836 38.084 109.668C38.396 109.5 38.648 109.248 38.84 108.912C39.032 108.576 39.128 108.168 39.128 107.688C39.128 107.208 39.036 106.804 38.852 106.476C38.668 106.14 38.424 105.888 38.12 105.72C37.816 105.552 37.488 105.468 37.136 105.468C36.784 105.468 36.456 105.552 36.152 105.72C35.856 105.888 35.62 106.14 35.444 106.476C35.268 106.804 35.18 107.208 35.18 107.688C35.18 108.4 35.36 108.952 35.72 109.344C36.088 109.728 36.548 109.92 37.1 109.92ZM41.4284 107.688C41.4284 107.008 41.5644 106.412 41.8364 105.9C42.1164 105.38 42.5004 104.98 42.9884 104.7C43.4764 104.42 44.0364 104.28 44.6684 104.28C45.4684 104.28 46.1284 104.472 46.6484 104.856C47.1764 105.232 47.5324 105.772 47.7164 106.476H46.2404C46.1204 106.148 45.9284 105.892 45.6644 105.708C45.4004 105.524 45.0684 105.432 44.6684 105.432C44.1084 105.432 43.6604 105.632 43.3244 106.032C42.9964 106.424 42.8324 106.976 42.8324 107.688C42.8324 108.4 42.9964 108.956 43.3244 109.356C43.6604 109.756 44.1084 109.956 44.6684 109.956C45.4604 109.956 45.9844 109.608 46.2404 108.912H47.7164C47.5244 109.584 47.1644 110.12 46.6364 110.52C46.1084 110.912 45.4524 111.108 44.6684 111.108C44.0364 111.108 43.4764 110.968 42.9884 110.688C42.5004 110.4 42.1164 110 41.8364 109.488C41.5644 108.968 41.4284 108.368 41.4284 107.688ZM48.6237 107.664C48.6237 107 48.7597 106.412 49.0317 105.9C49.3117 105.388 49.6877 104.992 50.1597 104.712C50.6397 104.424 51.1677 104.28 51.7437 104.28C52.2637 104.28 52.7157 104.384 53.0997 104.592C53.4917 104.792 53.8037 105.044 54.0357 105.348V104.388H55.4157V111H54.0357V110.016C53.8037 110.328 53.4877 110.588 53.0877 110.796C52.6877 111.004 52.2317 111.108 51.7197 111.108C51.1517 111.108 50.6317 110.964 50.1597 110.676C49.6877 110.38 49.3117 109.972 49.0317 109.452C48.7597 108.924 48.6237 108.328 48.6237 107.664ZM54.0357 107.688C54.0357 107.232 53.9397 106.836 53.7477 106.5C53.5637 106.164 53.3197 105.908 53.0157 105.732C52.7117 105.556 52.3837 105.468 52.0317 105.468C51.6797 105.468 51.3517 105.556 51.0477 105.732C50.7437 105.9 50.4957 106.152 50.3037 106.488C50.1197 106.816 50.0277 107.208 50.0277 107.664C50.0277 108.12 50.1197 108.52 50.3037 108.864C50.4957 109.208 50.7437 109.472 51.0477 109.656C51.3597 109.832 51.6877 109.92 52.0317 109.92C52.3837 109.92 52.7117 109.832 53.0157 109.656C53.3197 109.48 53.5637 109.224 53.7477 108.888C53.9397 108.544 54.0357 108.144 54.0357 107.688ZM58.8085 105.504V109.164C58.8085 109.412 58.8645 109.592 58.9765 109.704C59.0965 109.808 59.2965 109.86 59.5765 109.86H60.4165V111H59.3365C58.7205 111 58.2485 110.856 57.9205 110.568C57.5925 110.28 57.4285 109.812 57.4285 109.164V105.504H56.6485V104.388H57.4285V102.744H58.8085V104.388H60.4165V105.504H58.8085ZM62.3733 103.512C62.1253 103.512 61.9173 103.428 61.7493 103.26C61.5813 103.092 61.4973 102.884 61.4973 102.636C61.4973 102.388 61.5813 102.18 61.7493 102.012C61.9173 101.844 62.1253 101.76 62.3733 101.76C62.6133 101.76 62.8173 101.844 62.9853 102.012C63.1533 102.18 63.2373 102.388 63.2373 102.636C63.2373 102.884 63.1533 103.092 62.9853 103.26C62.8173 103.428 62.6133 103.512 62.3733 103.512ZM63.0453 104.388V111H61.6773V104.388H63.0453ZM67.7094 111.108C67.0854 111.108 66.5214 110.968 66.0174 110.688C65.5134 110.4 65.1174 110 64.8294 109.488C64.5414 108.968 64.3974 108.368 64.3974 107.688C64.3974 107.016 64.5454 106.42 64.8414 105.9C65.1374 105.38 65.5414 104.98 66.0534 104.7C66.5654 104.42 67.1374 104.28 67.7694 104.28C68.4014 104.28 68.9734 104.42 69.4854 104.7C69.9974 104.98 70.4014 105.38 70.6974 105.9C70.9934 106.42 71.1414 107.016 71.1414 107.688C71.1414 108.36 70.9894 108.956 70.6854 109.476C70.3814 109.996 69.9654 110.4 69.4374 110.688C68.9174 110.968 68.3414 111.108 67.7094 111.108ZM67.7094 109.92C68.0614 109.92 68.3894 109.836 68.6934 109.668C69.0054 109.5 69.2574 109.248 69.4494 108.912C69.6414 108.576 69.7374 108.168 69.7374 107.688C69.7374 107.208 69.6454 106.804 69.4614 106.476C69.2774 106.14 69.0334 105.888 68.7294 105.72C68.4254 105.552 68.0974 105.468 67.7454 105.468C67.3934 105.468 67.0654 105.552 66.7614 105.72C66.4654 105.888 66.2294 106.14 66.0534 106.476C65.8774 106.804 65.7894 107.208 65.7894 107.688C65.7894 108.4 65.9694 108.952 66.3294 109.344C66.6974 109.728 67.1574 109.92 67.7094 109.92ZM75.8298 104.28C76.3498 104.28 76.8138 104.388 77.2218 104.604C77.6378 104.82 77.9618 105.14 78.1938 105.564C78.4258 105.988 78.5418 106.5 78.5418 107.1V111H77.1858V107.304C77.1858 106.712 77.0378 106.26 76.7418 105.948C76.4458 105.628 76.0418 105.468 75.5298 105.468C75.0178 105.468 74.6098 105.628 74.3058 105.948C74.0098 106.26 73.8618 106.712 73.8618 107.304V111H72.4938V104.388H73.8618V105.144C74.0858 104.872 74.3698 104.66 74.7138 104.508C75.0658 104.356 75.4378 104.28 75.8298 104.28Z" fill="white" fill-opacity="0.75"/>
<g clip-path="url(#clip1_2333_400)">
<path d="M6.66699 139.667C6.95329 140.049 7.31856 140.366 7.73803 140.595C8.15749 140.825 8.62133 140.961 9.09809 140.995C9.57485 141.029 10.0534 140.96 10.5012 140.793C10.9491 140.626 11.3557 140.365 11.6937 140.027L13.6937 138.027C14.3009 137.398 14.6368 136.556 14.6292 135.682C14.6216 134.808 14.2711 133.972 13.6531 133.354C13.035 132.736 12.199 132.385 11.325 132.378C10.451 132.37 9.609 132.706 8.98033 133.313L7.83366 134.453" stroke="white" stroke-opacity="0.75" stroke-linecap="round" stroke-linejoin="round"/>
<path d="M9.33347 138.333C9.04716 137.951 8.68189 137.634 8.26243 137.405C7.84297 137.176 7.37913 137.039 6.90237 137.005C6.4256 136.971 5.94708 137.04 5.49924 137.207C5.0514 137.374 4.64472 137.635 4.3068 137.973L2.3068 139.973C1.69961 140.602 1.36363 141.444 1.37122 142.318C1.37881 143.192 1.72938 144.028 2.3474 144.646C2.96543 145.264 3.80147 145.615 4.67546 145.622C5.54945 145.63 6.39146 145.294 7.02013 144.687L8.16013 143.547" stroke="white" stroke-opacity="0.75" stroke-linecap="round" stroke-linejoin="round"/>
</g>
<path d="M39.76 134.66L37.288 143H35.74L33.988 136.688L32.128 143L30.592 143.012L28.228 134.66H29.68L31.408 141.452L33.28 134.66H34.816L36.556 141.416L38.296 134.66H39.76ZM46.9483 139.532C46.9483 139.78 46.9323 140.004 46.9003 140.204H41.8483C41.8883 140.732 42.0843 141.156 42.4363 141.476C42.7883 141.796 43.2203 141.956 43.7323 141.956C44.4683 141.956 44.9883 141.648 45.2923 141.032H46.7683C46.5683 141.64 46.2043 142.14 45.6763 142.532C45.1563 142.916 44.5083 143.108 43.7323 143.108C43.1003 143.108 42.5323 142.968 42.0283 142.688C41.5323 142.4 41.1403 142 40.8523 141.488C40.5723 140.968 40.4323 140.368 40.4323 139.688C40.4323 139.008 40.5683 138.412 40.8403 137.9C41.1203 137.38 41.5083 136.98 42.0043 136.7C42.5083 136.42 43.0843 136.28 43.7323 136.28C44.3563 136.28 44.9123 136.416 45.4003 136.688C45.8883 136.96 46.2683 137.344 46.5403 137.84C46.8123 138.328 46.9483 138.892 46.9483 139.532ZM45.5203 139.1C45.5123 138.596 45.3323 138.192 44.9803 137.888C44.6283 137.584 44.1923 137.432 43.6723 137.432C43.2003 137.432 42.7963 137.584 42.4603 137.888C42.1243 138.184 41.9243 138.588 41.8603 139.1H45.5203ZM49.6625 137.372C49.8945 137.052 50.2105 136.792 50.6105 136.592C51.0185 136.384 51.4705 136.28 51.9665 136.28C52.5505 136.28 53.0785 136.42 53.5505 136.7C54.0225 136.98 54.3945 137.38 54.6665 137.9C54.9385 138.412 55.0745 139 55.0745 139.664C55.0745 140.328 54.9385 140.924 54.6665 141.452C54.3945 141.972 54.0185 142.38 53.5385 142.676C53.0665 142.964 52.5425 143.108 51.9665 143.108C51.4545 143.108 50.9985 143.008 50.5985 142.808C50.2065 142.608 49.8945 142.352 49.6625 142.04V143H48.2945V134.12H49.6625V137.372ZM53.6825 139.664C53.6825 139.208 53.5865 138.816 53.3945 138.488C53.2105 138.152 52.9625 137.9 52.6505 137.732C52.3465 137.556 52.0185 137.468 51.6665 137.468C51.3225 137.468 50.9945 137.556 50.6825 137.732C50.3785 137.908 50.1305 138.164 49.9385 138.5C49.7545 138.836 49.6625 139.232 49.6625 139.688C49.6625 140.144 49.7545 140.544 49.9385 140.888C50.1305 141.224 50.3785 141.48 50.6825 141.656C50.9945 141.832 51.3225 141.92 51.6665 141.92C52.0185 141.92 52.3465 141.832 52.6505 141.656C52.9625 141.472 53.2105 141.208 53.3945 140.864C53.5865 140.52 53.6825 140.12 53.6825 139.664ZM58.8273 143.108C58.3073 143.108 57.8393 143.016 57.4233 142.832C57.0153 142.64 56.6913 142.384 56.4513 142.064C56.2113 141.736 56.0833 141.372 56.0673 140.972H57.4833C57.5073 141.252 57.6393 141.488 57.8793 141.68C58.1273 141.864 58.4353 141.956 58.8033 141.956C59.1873 141.956 59.4833 141.884 59.6913 141.74C59.9073 141.588 60.0153 141.396 60.0153 141.164C60.0153 140.916 59.8953 140.732 59.6553 140.612C59.4233 140.492 59.0513 140.36 58.5393 140.216C58.0433 140.08 57.6393 139.948 57.3273 139.82C57.0153 139.692 56.7433 139.496 56.5113 139.232C56.2873 138.968 56.1753 138.62 56.1753 138.188C56.1753 137.836 56.2793 137.516 56.4873 137.228C56.6953 136.932 56.9913 136.7 57.3753 136.532C57.7673 136.364 58.2153 136.28 58.7193 136.28C59.4713 136.28 60.0753 136.472 60.5313 136.856C60.9953 137.232 61.2433 137.748 61.2753 138.404H59.9073C59.8833 138.108 59.7633 137.872 59.5473 137.696C59.3313 137.52 59.0393 137.432 58.6713 137.432C58.3113 137.432 58.0353 137.5 57.8433 137.636C57.6513 137.772 57.5553 137.952 57.5553 138.176C57.5553 138.352 57.6193 138.5 57.7473 138.62C57.8753 138.74 58.0313 138.836 58.2153 138.908C58.3993 138.972 58.6713 139.056 59.0313 139.16C59.5113 139.288 59.9033 139.42 60.2073 139.556C60.5193 139.684 60.7873 139.876 61.0113 140.132C61.2353 140.388 61.3513 140.728 61.3593 141.152C61.3593 141.528 61.2553 141.864 61.0473 142.16C60.8393 142.456 60.5433 142.688 60.1593 142.856C59.7833 143.024 59.3393 143.108 58.8273 143.108ZM63.5335 135.512C63.2855 135.512 63.0775 135.428 62.9095 135.26C62.7415 135.092 62.6575 134.884 62.6575 134.636C62.6575 134.388 62.7415 134.18 62.9095 134.012C63.0775 133.844 63.2855 133.76 63.5335 133.76C63.7735 133.76 63.9775 133.844 64.1455 134.012C64.3135 134.18 64.3975 134.388 64.3975 134.636C64.3975 134.884 64.3135 135.092 64.1455 135.26C63.9775 135.428 63.7735 135.512 63.5335 135.512ZM64.2055 136.388V143H62.8375V136.388H64.2055ZM67.5976 137.504V141.164C67.5976 141.412 67.6536 141.592 67.7656 141.704C67.8856 141.808 68.0856 141.86 68.3656 141.86H69.2056V143H68.1256C67.5096 143 67.0376 142.856 66.7096 142.568C66.3816 142.28 66.2176 141.812 66.2176 141.164V137.504H65.4376V136.388H66.2176V134.744H67.5976V136.388H69.2056V137.504H67.5976ZM76.5264 139.532C76.5264 139.78 76.5104 140.004 76.4784 140.204H71.4264C71.4664 140.732 71.6624 141.156 72.0144 141.476C72.3664 141.796 72.7984 141.956 73.3104 141.956C74.0464 141.956 74.5664 141.648 74.8704 141.032H76.3464C76.1464 141.64 75.7824 142.14 75.2544 142.532C74.7344 142.916 74.0864 143.108 73.3104 143.108C72.6784 143.108 72.1104 142.968 71.6064 142.688C71.1104 142.4 70.7184 142 70.4304 141.488C70.1504 140.968 70.0104 140.368 70.0104 139.688C70.0104 139.008 70.1464 138.412 70.4184 137.9C70.6984 137.38 71.0864 136.98 71.5824 136.7C72.0864 136.42 72.6624 136.28 73.3104 136.28C73.9344 136.28 74.4904 136.416 74.9784 136.688C75.4664 136.96 75.8464 137.344 76.1184 137.84C76.3904 138.328 76.5264 138.892 76.5264 139.532ZM75.0984 139.1C75.0904 138.596 74.9104 138.192 74.5584 137.888C74.2064 137.584 73.7704 137.432 73.2504 137.432C72.7784 137.432 72.3744 137.584 72.0384 137.888C71.7024 138.184 71.5024 138.588 71.4384 139.1H75.0984Z" fill="white" fill-opacity="0.75"/>
<path d="M200.518 6.114C200.518 5.162 200.737 4.308 201.176 3.552C201.624 2.796 202.226 2.208 202.982 1.788C203.747 1.35867 204.583 1.144 205.488 1.144C206.524 1.144 207.443 1.40067 208.246 1.914C209.058 2.418 209.646 3.13667 210.01 4.07H208.092C207.84 3.55667 207.49 3.174 207.042 2.922C206.594 2.67 206.076 2.544 205.488 2.544C204.844 2.544 204.27 2.68867 203.766 2.978C203.262 3.26733 202.865 3.68267 202.576 4.224C202.296 4.76533 202.156 5.39533 202.156 6.114C202.156 6.83267 202.296 7.46267 202.576 8.004C202.865 8.54533 203.262 8.96533 203.766 9.264C204.27 9.55333 204.844 9.698 205.488 9.698C206.076 9.698 206.594 9.572 207.042 9.32C207.49 9.068 207.84 8.68533 208.092 8.172H210.01C209.646 9.10533 209.058 9.824 208.246 10.328C207.443 10.832 206.524 11.084 205.488 11.084C204.573 11.084 203.738 10.874 202.982 10.454C202.226 10.0247 201.624 9.432 201.176 8.676C200.737 7.92 200.518 7.066 200.518 6.114ZM215.224 11.126C214.496 11.126 213.838 10.9627 213.25 10.636C212.662 10.3 212.2 9.83333 211.864 9.236C211.528 8.62933 211.36 7.92933 211.36 7.136C211.36 6.352 211.533 5.65667 211.878 5.05C212.223 4.44333 212.695 3.97667 213.292 3.65C213.889 3.32333 214.557 3.16 215.294 3.16C216.031 3.16 216.699 3.32333 217.296 3.65C217.893 3.97667 218.365 4.44333 218.71 5.05C219.055 5.65667 219.228 6.352 219.228 7.136C219.228 7.92 219.051 8.61533 218.696 9.222C218.341 9.82867 217.856 10.3 217.24 10.636C216.633 10.9627 215.961 11.126 215.224 11.126ZM215.224 9.74C215.635 9.74 216.017 9.642 216.372 9.446C216.736 9.25 217.03 8.956 217.254 8.564C217.478 8.172 217.59 7.696 217.59 7.136C217.59 6.576 217.483 6.10467 217.268 5.722C217.053 5.33 216.769 5.036 216.414 4.84C216.059 4.644 215.677 4.546 215.266 4.546C214.855 4.546 214.473 4.644 214.118 4.84C213.773 5.036 213.497 5.33 213.292 5.722C213.087 6.10467 212.984 6.576 212.984 7.136C212.984 7.96667 213.194 8.61067 213.614 9.068C214.043 9.516 214.58 9.74 215.224 9.74ZM230.144 3.16C230.751 3.16 231.292 3.286 231.768 3.538C232.253 3.79 232.631 4.16333 232.902 4.658C233.182 5.15267 233.322 5.75 233.322 6.45V11H231.74V6.688C231.74 5.99733 231.567 5.47 231.222 5.106C230.877 4.73267 230.405 4.546 229.808 4.546C229.211 4.546 228.735 4.73267 228.38 5.106C228.035 5.47 227.862 5.99733 227.862 6.688V11H226.28V6.688C226.28 5.99733 226.107 5.47 225.762 5.106C225.417 4.73267 224.945 4.546 224.348 4.546C223.751 4.546 223.275 4.73267 222.92 5.106C222.575 5.47 222.402 5.99733 222.402 6.688V11H220.806V3.286H222.402V4.168C222.663 3.85067 222.995 3.60333 223.396 3.426C223.797 3.24867 224.227 3.16 224.684 3.16C225.3 3.16 225.851 3.29067 226.336 3.552C226.821 3.81333 227.195 4.19133 227.456 4.686C227.689 4.21933 228.053 3.85067 228.548 3.58C229.043 3.3 229.575 3.16 230.144 3.16ZM236.949 4.42C237.219 4.06533 237.588 3.76667 238.055 3.524C238.521 3.28133 239.049 3.16 239.637 3.16C240.309 3.16 240.92 3.328 241.471 3.664C242.031 3.99067 242.469 4.45267 242.787 5.05C243.104 5.64733 243.263 6.33333 243.263 7.108C243.263 7.88267 243.104 8.578 242.787 9.194C242.469 9.80067 242.031 10.2767 241.471 10.622C240.92 10.958 240.309 11.126 239.637 11.126C239.049 11.126 238.526 11.0093 238.069 10.776C237.611 10.5333 237.238 10.2347 236.949 9.88V14.668H235.353V3.286H236.949V4.42ZM241.639 7.108C241.639 6.576 241.527 6.11867 241.303 5.736C241.088 5.344 240.799 5.05 240.435 4.854C240.08 4.64867 239.697 4.546 239.287 4.546C238.885 4.546 238.503 4.64867 238.139 4.854C237.784 5.05933 237.495 5.358 237.271 5.75C237.056 6.142 236.949 6.604 236.949 7.136C236.949 7.668 237.056 8.13467 237.271 8.536C237.495 8.928 237.784 9.22667 238.139 9.432C238.503 9.63733 238.885 9.74 239.287 9.74C239.697 9.74 240.08 9.63733 240.435 9.432C240.799 9.21733 241.088 8.90933 241.303 8.508C241.527 8.10667 241.639 7.64 241.639 7.108ZM244.309 7.108C244.309 6.33333 244.468 5.64733 244.785 5.05C245.112 4.45267 245.55 3.99067 246.101 3.664C246.661 3.328 247.277 3.16 247.949 3.16C248.556 3.16 249.083 3.28133 249.531 3.524C249.988 3.75733 250.352 4.05133 250.623 4.406V3.286H252.233V11H250.623V9.852C250.352 10.216 249.984 10.5193 249.517 10.762C249.05 11.0047 248.518 11.126 247.921 11.126C247.258 11.126 246.652 10.958 246.101 10.622C245.55 10.2767 245.112 9.80067 244.785 9.194C244.468 8.578 244.309 7.88267 244.309 7.108ZM250.623 7.136C250.623 6.604 250.511 6.142 250.287 5.75C250.072 5.358 249.788 5.05933 249.433 4.854C249.078 4.64867 248.696 4.546 248.285 4.546C247.874 4.546 247.492 4.64867 247.137 4.854C246.782 5.05 246.493 5.344 246.269 5.736C246.054 6.11867 245.947 6.576 245.947 7.108C245.947 7.64 246.054 8.10667 246.269 8.508C246.493 8.90933 246.782 9.21733 247.137 9.432C247.501 9.63733 247.884 9.74 248.285 9.74C248.696 9.74 249.078 9.63733 249.433 9.432C249.788 9.22667 250.072 8.928 250.287 8.536C250.511 8.13467 250.623 7.668 250.623 7.136ZM258.221 3.16C258.828 3.16 259.369 3.286 259.845 3.538C260.331 3.79 260.709 4.16333 260.979 4.658C261.25 5.15267 261.385 5.75 261.385 6.45V11H259.803V6.688C259.803 5.99733 259.631 5.47 259.285 5.106C258.94 4.73267 258.469 4.546 257.871 4.546C257.274 4.546 256.798 4.73267 256.443 5.106C256.098 5.47 255.925 5.99733 255.925 6.688V11H254.329V3.286H255.925V4.168C256.187 3.85067 256.518 3.60333 256.919 3.426C257.33 3.24867 257.764 3.16 258.221 3.16ZM270.365 3.286L265.633 14.626H263.981L265.549 10.874L262.511 3.286H264.289L266.459 9.166L268.713 3.286H270.365Z" fill="white"/>
<path d="M205.964 45.404H202.628L202.076 47H200.312L203.324 38.612H205.28L208.292 47H206.516L205.964 45.404ZM205.508 44.06L204.296 40.556L203.084 44.06H205.508ZM211.098 41.324C211.314 41.004 211.61 40.744 211.986 40.544C212.37 40.344 212.806 40.244 213.294 40.244C213.862 40.244 214.374 40.384 214.83 40.664C215.294 40.944 215.658 41.344 215.922 41.864C216.194 42.376 216.33 42.972 216.33 43.652C216.33 44.332 216.194 44.936 215.922 45.464C215.658 45.984 215.294 46.388 214.83 46.676C214.374 46.964 213.862 47.108 213.294 47.108C212.798 47.108 212.362 47.012 211.986 46.82C211.618 46.62 211.322 46.364 211.098 46.052V47H209.418V38.12H211.098V41.324ZM214.614 43.652C214.614 43.252 214.53 42.908 214.362 42.62C214.202 42.324 213.986 42.1 213.714 41.948C213.45 41.796 213.162 41.72 212.85 41.72C212.546 41.72 212.258 41.8 211.986 41.96C211.722 42.112 211.506 42.336 211.338 42.632C211.178 42.928 211.098 43.276 211.098 43.676C211.098 44.076 211.178 44.424 211.338 44.72C211.506 45.016 211.722 45.244 211.986 45.404C212.258 45.556 212.546 45.632 212.85 45.632C213.162 45.632 213.45 45.552 213.714 45.392C213.986 45.232 214.202 45.004 214.362 44.708C214.53 44.412 214.614 44.06 214.614 43.652ZM220.503 47.108C219.863 47.108 219.287 46.968 218.775 46.688C218.263 46.4 217.859 45.996 217.563 45.476C217.275 44.956 217.131 44.356 217.131 43.676C217.131 42.996 217.279 42.396 217.575 41.876C217.879 41.356 218.291 40.956 218.811 40.676C219.331 40.388 219.911 40.244 220.551 40.244C221.191 40.244 221.771 40.388 222.291 40.676C222.811 40.956 223.219 41.356 223.515 41.876C223.819 42.396 223.971 42.996 223.971 43.676C223.971 44.356 223.815 44.956 223.503 45.476C223.199 45.996 222.783 46.4 222.255 46.688C221.735 46.968 221.151 47.108 220.503 47.108ZM220.503 45.644C220.807 45.644 221.091 45.572 221.355 45.428C221.627 45.276 221.843 45.052 222.003 44.756C222.163 44.46 222.243 44.1 222.243 43.676C222.243 43.044 222.075 42.56 221.739 42.224C221.411 41.88 221.007 41.708 220.527 41.708C220.047 41.708 219.643 41.88 219.315 42.224C218.995 42.56 218.835 43.044 218.835 43.676C218.835 44.308 218.991 44.796 219.303 45.14C219.623 45.476 220.023 45.644 220.503 45.644ZM231.479 40.352V47H229.787V46.16C229.571 46.448 229.287 46.676 228.935 46.844C228.591 47.004 228.215 47.084 227.807 47.084C227.287 47.084 226.827 46.976 226.427 46.76C226.027 46.536 225.711 46.212 225.479 45.788C225.255 45.356 225.143 44.844 225.143 44.252V40.352H226.823V44.012C226.823 44.54 226.955 44.948 227.219 45.236C227.483 45.516 227.843 45.656 228.299 45.656C228.763 45.656 229.127 45.516 229.391 45.236C229.655 44.948 229.787 44.54 229.787 44.012V40.352H231.479ZM235.093 41.732V44.948C235.093 45.172 235.145 45.336 235.249 45.44C235.361 45.536 235.545 45.584 235.801 45.584H236.581V47H235.525C234.109 47 233.401 46.312 233.401 44.936V41.732H232.609V40.352H233.401V38.708H235.093V40.352H236.581V41.732H235.093ZM246.924 40.352V47H245.232V46.16C245.016 46.448 244.732 46.676 244.38 46.844C244.036 47.004 243.66 47.084 243.252 47.084C242.732 47.084 242.272 46.976 241.872 46.76C241.472 46.536 241.156 46.212 240.924 45.788C240.7 45.356 240.588 44.844 240.588 44.252V40.352H242.268V44.012C242.268 44.54 242.4 44.948 242.664 45.236C242.928 45.516 243.288 45.656 243.744 45.656C244.208 45.656 244.572 45.516 244.836 45.236C245.1 44.948 245.232 44.54 245.232 44.012V40.352H246.924ZM251.126 47.108C250.582 47.108 250.094 47.012 249.662 46.82C249.23 46.62 248.886 46.352 248.63 46.016C248.382 45.68 248.246 45.308 248.222 44.9H249.914C249.946 45.156 250.07 45.368 250.286 45.536C250.51 45.704 250.786 45.788 251.114 45.788C251.434 45.788 251.682 45.724 251.858 45.596C252.042 45.468 252.134 45.304 252.134 45.104C252.134 44.888 252.022 44.728 251.798 44.624C251.582 44.512 251.234 44.392 250.754 44.264C250.258 44.144 249.85 44.02 249.53 43.892C249.218 43.764 248.946 43.568 248.714 43.304C248.49 43.04 248.378 42.684 248.378 42.236C248.378 41.868 248.482 41.532 248.69 41.228C248.906 40.924 249.21 40.684 249.602 40.508C250.002 40.332 250.47 40.244 251.006 40.244C251.798 40.244 252.43 40.444 252.902 40.844C253.374 41.236 253.634 41.768 253.682 42.44H252.074C252.05 42.176 251.938 41.968 251.738 41.816C251.546 41.656 251.286 41.576 250.958 41.576C250.654 41.576 250.418 41.632 250.25 41.744C250.09 41.856 250.01 42.012 250.01 42.212C250.01 42.436 250.122 42.608 250.346 42.728C250.57 42.84 250.918 42.956 251.39 43.076C251.87 43.196 252.266 43.32 252.578 43.448C252.89 43.576 253.158 43.776 253.382 44.048C253.614 44.312 253.734 44.664 253.742 45.104C253.742 45.488 253.634 45.832 253.418 46.136C253.21 46.44 252.906 46.68 252.506 46.856C252.114 47.024 251.654 47.108 251.126 47.108Z" fill="white"/>
<path d="M206.288 70.66V71.776H204.068V79H202.7V71.776H200.468V70.66H206.288ZM213.733 75.532C213.733 75.78 213.717 76.004 213.685 76.204H208.633C208.673 76.732 208.869 77.156 209.221 77.476C209.573 77.796 210.005 77.956 210.517 77.956C211.253 77.956 211.773 77.648 212.077 77.032H213.553C213.353 77.64 212.989 78.14 212.461 78.532C211.941 78.916 211.293 79.108 210.517 79.108C209.885 79.108 209.317 78.968 208.813 78.688C208.317 78.4 207.925 78 207.637 77.488C207.357 76.968 207.217 76.368 207.217 75.688C207.217 75.008 207.353 74.412 207.625 73.9C207.905 73.38 208.293 72.98 208.789 72.7C209.293 72.42 209.869 72.28 210.517 72.28C211.141 72.28 211.697 72.416 212.185 72.688C212.673 72.96 213.053 73.344 213.325 73.84C213.597 74.328 213.733 74.892 213.733 75.532ZM212.305 75.1C212.297 74.596 212.117 74.192 211.765 73.888C211.413 73.584 210.977 73.432 210.457 73.432C209.985 73.432 209.581 73.584 209.245 73.888C208.909 74.184 208.709 74.588 208.645 75.1H212.305ZM214.624 75.664C214.624 75 214.76 74.412 215.032 73.9C215.312 73.388 215.688 72.992 216.16 72.712C216.64 72.424 217.168 72.28 217.744 72.28C218.264 72.28 218.716 72.384 219.1 72.592C219.492 72.792 219.804 73.044 220.036 73.348V72.388H221.416V79H220.036V78.016C219.804 78.328 219.488 78.588 219.088 78.796C218.688 79.004 218.232 79.108 217.72 79.108C217.152 79.108 216.632 78.964 216.16 78.676C215.688 78.38 215.312 77.972 215.032 77.452C214.76 76.924 214.624 76.328 214.624 75.664ZM220.036 75.688C220.036 75.232 219.94 74.836 219.748 74.5C219.564 74.164 219.32 73.908 219.016 73.732C218.712 73.556 218.384 73.468 218.032 73.468C217.68 73.468 217.352 73.556 217.048 73.732C216.744 73.9 216.496 74.152 216.304 74.488C216.12 74.816 216.028 75.208 216.028 75.664C216.028 76.12 216.12 76.52 216.304 76.864C216.496 77.208 216.744 77.472 217.048 77.656C217.36 77.832 217.688 77.92 218.032 77.92C218.384 77.92 218.712 77.832 219.016 77.656C219.32 77.48 219.564 77.224 219.748 76.888C219.94 76.544 220.036 76.144 220.036 75.688ZM231.217 72.28C231.737 72.28 232.201 72.388 232.609 72.604C233.025 72.82 233.349 73.14 233.581 73.564C233.821 73.988 233.941 74.5 233.941 75.1V79H232.585V75.304C232.585 74.712 232.437 74.26 232.141 73.948C231.845 73.628 231.441 73.468 230.929 73.468C230.417 73.468 230.009 73.628 229.705 73.948C229.409 74.26 229.261 74.712 229.261 75.304V79H227.905V75.304C227.905 74.712 227.757 74.26 227.461 73.948C227.165 73.628 226.761 73.468 226.249 73.468C225.737 73.468 225.329 73.628 225.025 73.948C224.729 74.26 224.581 74.712 224.581 75.304V79H223.213V72.388H224.581V73.144C224.805 72.872 225.089 72.66 225.433 72.508C225.777 72.356 226.145 72.28 226.537 72.28C227.065 72.28 227.537 72.392 227.953 72.616C228.369 72.84 228.689 73.164 228.913 73.588C229.113 73.188 229.425 72.872 229.849 72.64C230.273 72.4 230.729 72.28 231.217 72.28Z" fill="white" fill-opacity="0.75"/>
<path d="M205.364 106.716C205.812 106.796 206.192 107.032 206.504 107.424C206.816 107.816 206.972 108.26 206.972 108.756C206.972 109.18 206.86 109.564 206.636 109.908C206.42 110.244 206.104 110.512 205.688 110.712C205.272 110.904 204.788 111 204.236 111H200.9V102.66H204.08C204.648 102.66 205.136 102.756 205.544 102.948C205.952 103.14 206.26 103.4 206.468 103.728C206.676 104.048 206.78 104.408 206.78 104.808C206.78 105.288 206.652 105.688 206.396 106.008C206.14 106.328 205.796 106.564 205.364 106.716ZM202.268 106.164H203.96C204.408 106.164 204.756 106.064 205.004 105.864C205.26 105.656 205.388 105.36 205.388 104.976C205.388 104.6 205.26 104.308 205.004 104.1C204.756 103.884 204.408 103.776 203.96 103.776H202.268V106.164ZM204.116 109.884C204.58 109.884 204.944 109.772 205.208 109.548C205.472 109.324 205.604 109.012 205.604 108.612C205.604 108.204 205.464 107.88 205.184 107.64C204.904 107.4 204.532 107.28 204.068 107.28H202.268V109.884H204.116ZM209.827 102.12V111H208.459V102.12H209.827ZM214.491 111.108C213.867 111.108 213.303 110.968 212.799 110.688C212.295 110.4 211.899 110 211.611 109.488C211.323 108.968 211.179 108.368 211.179 107.688C211.179 107.016 211.327 106.42 211.623 105.9C211.919 105.38 212.323 104.98 212.835 104.7C213.347 104.42 213.919 104.28 214.551 104.28C215.183 104.28 215.755 104.42 216.267 104.7C216.779 104.98 217.183 105.38 217.479 105.9C217.775 106.42 217.923 107.016 217.923 107.688C217.923 108.36 217.771 108.956 217.467 109.476C217.163 109.996 216.747 110.4 216.219 110.688C215.699 110.968 215.123 111.108 214.491 111.108ZM214.491 109.92C214.843 109.92 215.171 109.836 215.475 109.668C215.787 109.5 216.039 109.248 216.231 108.912C216.423 108.576 216.519 108.168 216.519 107.688C216.519 107.208 216.427 106.804 216.243 106.476C216.059 106.14 215.815 105.888 215.511 105.72C215.207 105.552 214.879 105.468 214.527 105.468C214.175 105.468 213.847 105.552 213.543 105.72C213.247 105.888 213.011 106.14 212.835 106.476C212.659 106.804 212.571 107.208 212.571 107.688C212.571 108.4 212.751 108.952 213.111 109.344C213.479 109.728 213.939 109.92 214.491 109.92ZM221.939 104.28C222.451 104.28 222.903 104.384 223.295 104.592C223.695 104.792 224.007 105.044 224.231 105.348V104.388H225.611V111.108C225.611 111.716 225.483 112.256 225.227 112.728C224.971 113.208 224.599 113.584 224.111 113.856C223.631 114.128 223.055 114.264 222.383 114.264C221.487 114.264 220.743 114.052 220.151 113.628C219.559 113.212 219.223 112.644 219.143 111.924H220.499C220.603 112.268 220.823 112.544 221.159 112.752C221.503 112.968 221.911 113.076 222.383 113.076C222.935 113.076 223.379 112.908 223.715 112.572C224.059 112.236 224.231 111.748 224.231 111.108V110.004C223.999 110.316 223.683 110.58 223.283 110.796C222.891 111.004 222.443 111.108 221.939 111.108C221.363 111.108 220.835 110.964 220.355 110.676C219.883 110.38 219.507 109.972 219.227 109.452C218.955 108.924 218.819 108.328 218.819 107.664C218.819 107 218.955 106.412 219.227 105.9C219.507 105.388 219.883 104.992 220.355 104.712C220.835 104.424 221.363 104.28 221.939 104.28ZM224.231 107.688C224.231 107.232 224.135 106.836 223.943 106.5C223.759 106.164 223.515 105.908 223.211 105.732C222.907 105.556 222.579 105.468 222.227 105.468C221.875 105.468 221.547 105.556 221.243 105.732C220.939 105.9 220.691 106.152 220.499 106.488C220.315 106.816 220.223 107.208 220.223 107.664C220.223 108.12 220.315 108.52 220.499 108.864C220.691 109.208 220.939 109.472 221.243 109.656C221.555 109.832 221.883 109.92 222.227 109.92C222.579 109.92 222.907 109.832 223.211 109.656C223.515 109.48 223.759 109.224 223.943 108.888C224.135 108.544 224.231 108.144 224.231 107.688Z" fill="white" fill-opacity="0.75"/>
<path d="M399.82 1.27V11H398.224V6.744H393.646V11H392.05V1.27H393.646V5.442H398.224V1.27H399.82ZM408.991 6.954C408.991 7.24333 408.972 7.50467 408.935 7.738H403.041C403.088 8.354 403.316 8.84867 403.727 9.222C404.138 9.59533 404.642 9.782 405.239 9.782C406.098 9.782 406.704 9.42267 407.059 8.704H408.781C408.548 9.41333 408.123 9.99667 407.507 10.454C406.9 10.902 406.144 11.126 405.239 11.126C404.502 11.126 403.839 10.9627 403.251 10.636C402.672 10.3 402.215 9.83333 401.879 9.236C401.552 8.62933 401.389 7.92933 401.389 7.136C401.389 6.34267 401.548 5.64733 401.865 5.05C402.192 4.44333 402.644 3.97667 403.223 3.65C403.811 3.32333 404.483 3.16 405.239 3.16C405.967 3.16 406.616 3.31867 407.185 3.636C407.754 3.95333 408.198 4.40133 408.515 4.98C408.832 5.54933 408.991 6.20733 408.991 6.954ZM407.325 6.45C407.316 5.862 407.106 5.39067 406.695 5.036C406.284 4.68133 405.776 4.504 405.169 4.504C404.618 4.504 404.147 4.68133 403.755 5.036C403.363 5.38133 403.13 5.85267 403.055 6.45H407.325ZM412.158 0.64V11H410.562V0.64H412.158ZM415.849 4.42C416.12 4.06533 416.488 3.76667 416.955 3.524C417.422 3.28133 417.949 3.16 418.537 3.16C419.209 3.16 419.82 3.328 420.371 3.664C420.931 3.99067 421.37 4.45267 421.687 5.05C422.004 5.64733 422.163 6.33333 422.163 7.108C422.163 7.88267 422.004 8.578 421.687 9.194C421.37 9.80067 420.931 10.2767 420.371 10.622C419.82 10.958 419.209 11.126 418.537 11.126C417.949 11.126 417.426 11.0093 416.969 10.776C416.512 10.5333 416.138 10.2347 415.849 9.88V14.668H414.253V3.286H415.849V4.42ZM420.539 7.108C420.539 6.576 420.427 6.11867 420.203 5.736C419.988 5.344 419.699 5.05 419.335 4.854C418.98 4.64867 418.598 4.546 418.187 4.546C417.786 4.546 417.403 4.64867 417.039 4.854C416.684 5.05933 416.395 5.358 416.171 5.75C415.956 6.142 415.849 6.604 415.849 7.136C415.849 7.668 415.956 8.13467 416.171 8.536C416.395 8.928 416.684 9.22667 417.039 9.432C417.403 9.63733 417.786 9.74 418.187 9.74C418.598 9.74 418.98 9.63733 419.335 9.432C419.699 9.21733 419.988 8.90933 420.203 8.508C420.427 8.10667 420.539 7.64 420.539 7.108ZM434.896 11L433.692 9.796C433.225 10.2627 432.717 10.6127 432.166 10.846C431.615 11.07 430.999 11.182 430.318 11.182C429.627 11.182 429.016 11.0607 428.484 10.818C427.952 10.5753 427.541 10.23 427.252 9.782C426.963 9.32467 426.818 8.79733 426.818 8.2C426.818 7.528 427.009 6.93067 427.392 6.408C427.775 5.876 428.344 5.456 429.1 5.148C428.829 4.82133 428.638 4.518 428.526 4.238C428.414 3.94867 428.358 3.63133 428.358 3.286C428.358 2.85667 428.465 2.474 428.68 2.138C428.904 1.802 429.221 1.536 429.632 1.34C430.043 1.144 430.519 1.046 431.06 1.046C431.611 1.046 432.077 1.15333 432.46 1.368C432.852 1.57333 433.141 1.858 433.328 2.222C433.524 2.586 433.603 2.992 433.566 3.44H431.97C431.979 3.09467 431.895 2.82867 431.718 2.642C431.541 2.446 431.298 2.348 430.99 2.348C430.682 2.348 430.43 2.44133 430.234 2.628C430.047 2.80533 429.954 3.02467 429.954 3.286C429.954 3.538 430.024 3.79 430.164 4.042C430.313 4.28467 430.57 4.602 430.934 4.994L433.51 7.556L434.504 5.918H436.226L434.966 8.074L434.616 8.648L436.982 11H434.896ZM430.318 9.824C431.195 9.824 431.97 9.46467 432.642 8.746L430.066 6.156C428.965 6.59467 428.414 7.25733 428.414 8.144C428.414 8.62 428.591 9.02133 428.946 9.348C429.301 9.66533 429.758 9.824 430.318 9.824ZM443.261 9.712H446.551V11H441.665V1.27H443.261V9.712ZM454.956 6.954C454.956 7.24333 454.937 7.50467 454.9 7.738H449.006C449.053 8.354 449.281 8.84867 449.692 9.222C450.103 9.59533 450.607 9.782 451.204 9.782C452.063 9.782 452.669 9.42267 453.024 8.704H454.746C454.513 9.41333 454.088 9.99667 453.472 10.454C452.865 10.902 452.109 11.126 451.204 11.126C450.467 11.126 449.804 10.9627 449.216 10.636C448.637 10.3 448.18 9.83333 447.844 9.236C447.517 8.62933 447.354 7.92933 447.354 7.136C447.354 6.34267 447.513 5.64733 447.83 5.05C448.157 4.44333 448.609 3.97667 449.188 3.65C449.776 3.32333 450.448 3.16 451.204 3.16C451.932 3.16 452.581 3.31867 453.15 3.636C453.719 3.95333 454.163 4.40133 454.48 4.98C454.797 5.54933 454.956 6.20733 454.956 6.954ZM453.29 6.45C453.281 5.862 453.071 5.39067 452.66 5.036C452.249 4.68133 451.741 4.504 451.134 4.504C450.583 4.504 450.112 4.68133 449.72 5.036C449.328 5.38133 449.095 5.85267 449.02 6.45H453.29ZM459.635 3.16C460.232 3.16 460.759 3.28133 461.217 3.524C461.683 3.75733 462.047 4.05133 462.309 4.406V3.286H463.919V11.126C463.919 11.8353 463.769 12.4653 463.471 13.016C463.172 13.576 462.738 14.0147 462.169 14.332C461.609 14.6493 460.937 14.808 460.153 14.808C459.107 14.808 458.239 14.5607 457.549 14.066C456.858 13.5807 456.466 12.918 456.373 12.078H457.955C458.076 12.4793 458.333 12.8013 458.725 13.044C459.126 13.296 459.602 13.422 460.153 13.422C460.797 13.422 461.315 13.226 461.707 12.834C462.108 12.442 462.309 11.8727 462.309 11.126V9.838C462.038 10.202 461.669 10.51 461.203 10.762C460.745 11.0047 460.223 11.126 459.635 11.126C458.963 11.126 458.347 10.958 457.787 10.622C457.236 10.2767 456.797 9.80067 456.471 9.194C456.153 8.578 455.995 7.88267 455.995 7.108C455.995 6.33333 456.153 5.64733 456.471 5.05C456.797 4.45267 457.236 3.99067 457.787 3.664C458.347 3.328 458.963 3.16 459.635 3.16ZM462.309 7.136C462.309 6.604 462.197 6.142 461.973 5.75C461.758 5.358 461.473 5.05933 461.119 4.854C460.764 4.64867 460.381 4.546 459.971 4.546C459.56 4.546 459.177 4.64867 458.823 4.854C458.468 5.05 458.179 5.344 457.955 5.736C457.74 6.11867 457.633 6.576 457.633 7.108C457.633 7.64 457.74 8.10667 457.955 8.508C458.179 8.90933 458.468 9.21733 458.823 9.432C459.187 9.63733 459.569 9.74 459.971 9.74C460.381 9.74 460.764 9.63733 461.119 9.432C461.473 9.22667 461.758 8.928 461.973 8.536C462.197 8.13467 462.309 7.668 462.309 7.136ZM465.483 7.108C465.483 6.33333 465.642 5.64733 465.959 5.05C466.286 4.45267 466.724 3.99067 467.275 3.664C467.835 3.328 468.451 3.16 469.123 3.16C469.73 3.16 470.257 3.28133 470.705 3.524C471.162 3.75733 471.526 4.05133 471.797 4.406V3.286H473.407V11H471.797V9.852C471.526 10.216 471.158 10.5193 470.691 10.762C470.224 11.0047 469.692 11.126 469.095 11.126C468.432 11.126 467.826 10.958 467.275 10.622C466.724 10.2767 466.286 9.80067 465.959 9.194C465.642 8.578 465.483 7.88267 465.483 7.108ZM471.797 7.136C471.797 6.604 471.685 6.142 471.461 5.75C471.246 5.358 470.962 5.05933 470.607 4.854C470.252 4.64867 469.87 4.546 469.459 4.546C469.048 4.546 468.666 4.64867 468.311 4.854C467.956 5.05 467.667 5.344 467.443 5.736C467.228 6.11867 467.121 6.576 467.121 7.108C467.121 7.64 467.228 8.10667 467.443 8.508C467.667 8.90933 467.956 9.21733 468.311 9.432C468.675 9.63733 469.058 9.74 469.459 9.74C469.87 9.74 470.252 9.63733 470.607 9.432C470.962 9.22667 471.246 8.928 471.461 8.536C471.685 8.13467 471.797 7.668 471.797 7.136ZM477.099 0.64V11H475.503V0.64H477.099Z" fill="white"/>
<path d="M396.808 38.66V39.776H393.268V42.236H396.028V43.352H393.268V47H391.9V38.66H396.808ZM403.104 45.296H399.612L399.012 47H397.584L400.572 38.648H402.156L405.144 47H403.704L403.104 45.296ZM402.72 44.18L401.364 40.304L399.996 44.18H402.72ZM412.899 48.512L411.435 46.928C411.075 47.032 410.679 47.084 410.247 47.084C409.471 47.084 408.755 46.904 408.099 46.544C407.451 46.176 406.935 45.668 406.551 45.02C406.175 44.364 405.987 43.628 405.987 42.812C405.987 41.996 406.175 41.264 406.551 40.616C406.935 39.968 407.451 39.464 408.099 39.104C408.755 38.736 409.471 38.552 410.247 38.552C411.031 38.552 411.747 38.736 412.395 39.104C413.051 39.464 413.567 39.968 413.943 40.616C414.319 41.264 414.507 41.996 414.507 42.812C414.507 43.58 414.339 44.276 414.003 44.9C413.675 45.516 413.219 46.012 412.635 46.388L414.639 48.512H412.899ZM407.391 42.812C407.391 43.428 407.511 43.972 407.751 44.444C407.999 44.908 408.339 45.268 408.771 45.524C409.203 45.772 409.695 45.896 410.247 45.896C410.799 45.896 411.291 45.772 411.723 45.524C412.155 45.268 412.491 44.908 412.731 44.444C412.979 43.972 413.103 43.428 413.103 42.812C413.103 42.196 412.979 41.656 412.731 41.192C412.491 40.728 412.155 40.372 411.723 40.124C411.291 39.876 410.799 39.752 410.247 39.752C409.695 39.752 409.203 39.876 408.771 40.124C408.339 40.372 407.999 40.728 407.751 41.192C407.511 41.656 407.391 42.196 407.391 42.812ZM418.288 47.108C417.768 47.108 417.3 47.016 416.884 46.832C416.476 46.64 416.152 46.384 415.912 46.064C415.672 45.736 415.544 45.372 415.528 44.972H416.944C416.968 45.252 417.1 45.488 417.34 45.68C417.588 45.864 417.896 45.956 418.264 45.956C418.648 45.956 418.944 45.884 419.152 45.74C419.368 45.588 419.476 45.396 419.476 45.164C419.476 44.916 419.356 44.732 419.116 44.612C418.884 44.492 418.512 44.36 418 44.216C417.504 44.08 417.1 43.948 416.788 43.82C416.476 43.692 416.204 43.496 415.972 43.232C415.748 42.968 415.636 42.62 415.636 42.188C415.636 41.836 415.74 41.516 415.948 41.228C416.156 40.932 416.452 40.7 416.836 40.532C417.228 40.364 417.676 40.28 418.18 40.28C418.932 40.28 419.536 40.472 419.992 40.856C420.456 41.232 420.704 41.748 420.736 42.404H419.368C419.344 42.108 419.224 41.872 419.008 41.696C418.792 41.52 418.5 41.432 418.132 41.432C417.772 41.432 417.496 41.5 417.304 41.636C417.112 41.772 417.016 41.952 417.016 42.176C417.016 42.352 417.08 42.5 417.208 42.62C417.336 42.74 417.492 42.836 417.676 42.908C417.86 42.972 418.132 43.056 418.492 43.16C418.972 43.288 419.364 43.42 419.668 43.556C419.98 43.684 420.248 43.876 420.472 44.132C420.696 44.388 420.812 44.728 420.82 45.152C420.82 45.528 420.716 45.864 420.508 46.16C420.3 46.456 420.004 46.688 419.62 46.856C419.244 47.024 418.8 47.108 418.288 47.108Z" fill="white" fill-opacity="0.75"/>
<path d="M397.288 70.66V71.776H395.068V79H393.7V71.776H391.468V70.66H397.288ZM404.733 75.532C404.733 75.78 404.717 76.004 404.685 76.204H399.633C399.673 76.732 399.869 77.156 400.221 77.476C400.573 77.796 401.005 77.956 401.517 77.956C402.253 77.956 402.773 77.648 403.077 77.032H404.553C404.353 77.64 403.989 78.14 403.461 78.532C402.941 78.916 402.293 79.108 401.517 79.108C400.885 79.108 400.317 78.968 399.813 78.688C399.317 78.4 398.925 78 398.637 77.488C398.357 76.968 398.217 76.368 398.217 75.688C398.217 75.008 398.353 74.412 398.625 73.9C398.905 73.38 399.293 72.98 399.789 72.7C400.293 72.42 400.869 72.28 401.517 72.28C402.141 72.28 402.697 72.416 403.185 72.688C403.673 72.96 404.053 73.344 404.325 73.84C404.597 74.328 404.733 74.892 404.733 75.532ZM403.305 75.1C403.297 74.596 403.117 74.192 402.765 73.888C402.413 73.584 401.977 73.432 401.457 73.432C400.985 73.432 400.581 73.584 400.245 73.888C399.909 74.184 399.709 74.588 399.645 75.1H403.305ZM407.448 73.348C407.648 73.012 407.912 72.752 408.24 72.568C408.576 72.376 408.972 72.28 409.428 72.28V73.696H409.08C408.544 73.696 408.136 73.832 407.856 74.104C407.584 74.376 407.448 74.848 407.448 75.52V79H406.08V72.388H407.448V73.348ZM418.689 72.28C419.209 72.28 419.673 72.388 420.081 72.604C420.497 72.82 420.821 73.14 421.053 73.564C421.293 73.988 421.413 74.5 421.413 75.1V79H420.057V75.304C420.057 74.712 419.909 74.26 419.613 73.948C419.317 73.628 418.913 73.468 418.401 73.468C417.889 73.468 417.481 73.628 417.177 73.948C416.881 74.26 416.733 74.712 416.733 75.304V79H415.377V75.304C415.377 74.712 415.229 74.26 414.933 73.948C414.637 73.628 414.233 73.468 413.721 73.468C413.209 73.468 412.801 73.628 412.497 73.948C412.201 74.26 412.053 74.712 412.053 75.304V79H410.685V72.388H412.053V73.144C412.277 72.872 412.561 72.66 412.905 72.508C413.249 72.356 413.617 72.28 414.009 72.28C414.537 72.28 415.009 72.392 415.425 72.616C415.841 72.84 416.161 73.164 416.385 73.588C416.585 73.188 416.897 72.872 417.321 72.64C417.745 72.4 418.201 72.28 418.689 72.28ZM425.554 79.108C425.034 79.108 424.566 79.016 424.15 78.832C423.742 78.64 423.418 78.384 423.178 78.064C422.938 77.736 422.81 77.372 422.794 76.972H424.21C424.234 77.252 424.366 77.488 424.606 77.68C424.854 77.864 425.162 77.956 425.53 77.956C425.914 77.956 426.21 77.884 426.418 77.74C426.634 77.588 426.742 77.396 426.742 77.164C426.742 76.916 426.622 76.732 426.382 76.612C426.15 76.492 425.778 76.36 425.266 76.216C424.77 76.08 424.366 75.948 424.054 75.82C423.742 75.692 423.47 75.496 423.238 75.232C423.014 74.968 422.902 74.62 422.902 74.188C422.902 73.836 423.006 73.516 423.214 73.228C423.422 72.932 423.718 72.7 424.102 72.532C424.494 72.364 424.942 72.28 425.446 72.28C426.198 72.28 426.802 72.472 427.258 72.856C427.722 73.232 427.97 73.748 428.002 74.404H426.634C426.61 74.108 426.49 73.872 426.274 73.696C426.058 73.52 425.766 73.432 425.398 73.432C425.038 73.432 424.762 73.5 424.57 73.636C424.378 73.772 424.282 73.952 424.282 74.176C424.282 74.352 424.346 74.5 424.474 74.62C424.602 74.74 424.758 74.836 424.942 74.908C425.126 74.972 425.398 75.056 425.758 75.16C426.238 75.288 426.63 75.42 426.934 75.556C427.246 75.684 427.514 75.876 427.738 76.132C427.962 76.388 428.078 76.728 428.086 77.152C428.086 77.528 427.982 77.864 427.774 78.16C427.566 78.456 427.27 78.688 426.886 78.856C426.51 79.024 426.066 79.108 425.554 79.108ZM439.125 79L438.093 77.968C437.693 78.368 437.257 78.668 436.785 78.868C436.313 79.06 435.785 79.156 435.201 79.156C434.609 79.156 434.085 79.052 433.629 78.844C433.173 78.636 432.821 78.34 432.573 77.956C432.325 77.564 432.201 77.112 432.201 76.6C432.201 76.024 432.365 75.512 432.693 75.064C433.021 74.608 433.509 74.248 434.157 73.984C433.925 73.704 433.761 73.444 433.665 73.204C433.569 72.956 433.521 72.684 433.521 72.388C433.521 72.02 433.613 71.692 433.797 71.404C433.989 71.116 434.261 70.888 434.613 70.72C434.965 70.552 435.373 70.468 435.837 70.468C436.309 70.468 436.709 70.56 437.037 70.744C437.373 70.92 437.621 71.164 437.781 71.476C437.949 71.788 438.017 72.136 437.985 72.52H436.617C436.625 72.224 436.553 71.996 436.401 71.836C436.249 71.668 436.041 71.584 435.777 71.584C435.513 71.584 435.297 71.664 435.129 71.824C434.969 71.976 434.889 72.164 434.889 72.388C434.889 72.604 434.949 72.82 435.069 73.036C435.197 73.244 435.417 73.516 435.729 73.852L437.937 76.048L438.789 74.644H440.265L439.185 76.492L438.885 76.984L440.913 79H439.125ZM435.201 77.992C435.953 77.992 436.617 77.684 437.193 77.068L434.985 74.848C434.041 75.224 433.569 75.792 433.569 76.552C433.569 76.96 433.721 77.304 434.025 77.584C434.329 77.856 434.721 77.992 435.201 77.992ZM444.471 74.812C444.471 73.996 444.659 73.264 445.035 72.616C445.419 71.968 445.935 71.464 446.583 71.104C447.239 70.736 447.955 70.552 448.731 70.552C449.619 70.552 450.407 70.772 451.095 71.212C451.791 71.644 452.295 72.26 452.607 73.06H450.963C450.747 72.62 450.447 72.292 450.063 72.076C449.679 71.86 449.235 71.752 448.731 71.752C448.179 71.752 447.687 71.876 447.255 72.124C446.823 72.372 446.483 72.728 446.235 73.192C445.995 73.656 445.875 74.196 445.875 74.812C445.875 75.428 445.995 75.968 446.235 76.432C446.483 76.896 446.823 77.256 447.255 77.512C447.687 77.76 448.179 77.884 448.731 77.884C449.235 77.884 449.679 77.776 450.063 77.56C450.447 77.344 450.747 77.016 450.963 76.576H452.607C452.295 77.376 451.791 77.992 451.095 78.424C450.407 78.856 449.619 79.072 448.731 79.072C447.947 79.072 447.231 78.892 446.583 78.532C445.935 78.164 445.419 77.656 445.035 77.008C444.659 76.36 444.471 75.628 444.471 74.812ZM457.077 79.108C456.453 79.108 455.889 78.968 455.385 78.688C454.881 78.4 454.485 78 454.197 77.488C453.909 76.968 453.765 76.368 453.765 75.688C453.765 75.016 453.913 74.42 454.209 73.9C454.505 73.38 454.909 72.98 455.421 72.7C455.933 72.42 456.505 72.28 457.137 72.28C457.769 72.28 458.341 72.42 458.853 72.7C459.365 72.98 459.769 73.38 460.065 73.9C460.361 74.42 460.509 75.016 460.509 75.688C460.509 76.36 460.357 76.956 460.053 77.476C459.749 77.996 459.333 78.4 458.805 78.688C458.285 78.968 457.709 79.108 457.077 79.108ZM457.077 77.92C457.429 77.92 457.757 77.836 458.061 77.668C458.373 77.5 458.625 77.248 458.817 76.912C459.009 76.576 459.105 76.168 459.105 75.688C459.105 75.208 459.013 74.804 458.829 74.476C458.645 74.14 458.401 73.888 458.097 73.72C457.793 73.552 457.465 73.468 457.113 73.468C456.761 73.468 456.433 73.552 456.129 73.72C455.833 73.888 455.597 74.14 455.421 74.476C455.245 74.804 455.157 75.208 455.157 75.688C455.157 76.4 455.337 76.952 455.697 77.344C456.065 77.728 456.525 77.92 457.077 77.92ZM465.197 72.28C465.717 72.28 466.181 72.388 466.589 72.604C467.005 72.82 467.329 73.14 467.561 73.564C467.793 73.988 467.909 74.5 467.909 75.1V79H466.553V75.304C466.553 74.712 466.405 74.26 466.109 73.948C465.813 73.628 465.409 73.468 464.897 73.468C464.385 73.468 463.977 73.628 463.673 73.948C463.377 74.26 463.229 74.712 463.229 75.304V79H461.861V72.388H463.229V73.144C463.453 72.872 463.737 72.66 464.081 72.508C464.433 72.356 464.805 72.28 465.197 72.28ZM469.198 75.664C469.198 75 469.334 74.412 469.606 73.9C469.886 73.388 470.262 72.992 470.734 72.712C471.214 72.424 471.746 72.28 472.33 72.28C472.762 72.28 473.186 72.376 473.602 72.568C474.026 72.752 474.362 73 474.61 73.312V70.12H475.99V79H474.61V78.004C474.386 78.324 474.074 78.588 473.674 78.796C473.282 79.004 472.83 79.108 472.318 79.108C471.742 79.108 471.214 78.964 470.734 78.676C470.262 78.38 469.886 77.972 469.606 77.452C469.334 76.924 469.198 76.328 469.198 75.664ZM474.61 75.688C474.61 75.232 474.514 74.836 474.322 74.5C474.138 74.164 473.894 73.908 473.59 73.732C473.286 73.556 472.958 73.468 472.606 73.468C472.254 73.468 471.926 73.556 471.622 73.732C471.318 73.9 471.07 74.152 470.878 74.488C470.694 74.816 470.602 75.208 470.602 75.664C470.602 76.12 470.694 76.52 470.878 76.864C471.07 77.208 471.318 77.472 471.622 77.656C471.934 77.832 472.262 77.92 472.606 77.92C472.958 77.92 473.286 77.832 473.59 77.656C473.894 77.48 474.138 77.224 474.322 76.888C474.514 76.544 474.61 76.144 474.61 75.688ZM478.483 71.512C478.235 71.512 478.027 71.428 477.859 71.26C477.691 71.092 477.607 70.884 477.607 70.636C477.607 70.388 477.691 70.18 477.859 70.012C478.027 69.844 478.235 69.76 478.483 69.76C478.723 69.76 478.927 69.844 479.095 70.012C479.263 70.18 479.347 70.388 479.347 70.636C479.347 70.884 479.263 71.092 479.095 71.26C478.927 71.428 478.723 71.512 478.483 71.512ZM479.155 72.388V79H477.787V72.388H479.155ZM482.547 73.504V77.164C482.547 77.412 482.603 77.592 482.715 77.704C482.835 77.808 483.035 77.86 483.315 77.86H484.155V79H483.075C482.459 79 481.987 78.856 481.659 78.568C481.331 78.28 481.167 77.812 481.167 77.164V73.504H480.387V72.388H481.167V70.744H482.547V72.388H484.155V73.504H482.547ZM486.112 71.512C485.864 71.512 485.656 71.428 485.488 71.26C485.32 71.092 485.236 70.884 485.236 70.636C485.236 70.388 485.32 70.18 485.488 70.012C485.656 69.844 485.864 69.76 486.112 69.76C486.352 69.76 486.556 69.844 486.724 70.012C486.892 70.18 486.976 70.388 486.976 70.636C486.976 70.884 486.892 71.092 486.724 71.26C486.556 71.428 486.352 71.512 486.112 71.512ZM486.784 72.388V79H485.416V72.388H486.784ZM491.448 79.108C490.824 79.108 490.26 78.968 489.756 78.688C489.252 78.4 488.856 78 488.568 77.488C488.28 76.968 488.136 76.368 488.136 75.688C488.136 75.016 488.284 74.42 488.58 73.9C488.876 73.38 489.28 72.98 489.792 72.7C490.304 72.42 490.876 72.28 491.508 72.28C492.14 72.28 492.712 72.42 493.224 72.7C493.736 72.98 494.14 73.38 494.436 73.9C494.732 74.42 494.88 75.016 494.88 75.688C494.88 76.36 494.728 76.956 494.424 77.476C494.12 77.996 493.704 78.4 493.176 78.688C492.656 78.968 492.08 79.108 491.448 79.108ZM491.448 77.92C491.8 77.92 492.128 77.836 492.432 77.668C492.744 77.5 492.996 77.248 493.188 76.912C493.38 76.576 493.476 76.168 493.476 75.688C493.476 75.208 493.384 74.804 493.2 74.476C493.016 74.14 492.772 73.888 492.468 73.72C492.164 73.552 491.836 73.468 491.484 73.468C491.132 73.468 490.804 73.552 490.5 73.72C490.204 73.888 489.968 74.14 489.792 74.476C489.616 74.804 489.528 75.208 489.528 75.688C489.528 76.4 489.708 76.952 490.068 77.344C490.436 77.728 490.896 77.92 491.448 77.92ZM499.568 72.28C500.088 72.28 500.552 72.388 500.96 72.604C501.376 72.82 501.7 73.14 501.932 73.564C502.164 73.988 502.28 74.5 502.28 75.1V79H500.924V75.304C500.924 74.712 500.776 74.26 500.48 73.948C500.184 73.628 499.78 73.468 499.268 73.468C498.756 73.468 498.348 73.628 498.044 73.948C497.748 74.26 497.6 74.712 497.6 75.304V79H496.232V72.388H497.6V73.144C497.824 72.872 498.108 72.66 498.452 72.508C498.804 72.356 499.176 72.28 499.568 72.28ZM506.425 79.108C505.905 79.108 505.437 79.016 505.021 78.832C504.613 78.64 504.289 78.384 504.049 78.064C503.809 77.736 503.681 77.372 503.665 76.972H505.081C505.105 77.252 505.237 77.488 505.477 77.68C505.725 77.864 506.033 77.956 506.401 77.956C506.785 77.956 507.081 77.884 507.289 77.74C507.505 77.588 507.613 77.396 507.613 77.164C507.613 76.916 507.493 76.732 507.253 76.612C507.021 76.492 506.649 76.36 506.137 76.216C505.641 76.08 505.237 75.948 504.925 75.82C504.613 75.692 504.341 75.496 504.109 75.232C503.885 74.968 503.773 74.62 503.773 74.188C503.773 73.836 503.877 73.516 504.085 73.228C504.293 72.932 504.589 72.7 504.973 72.532C505.365 72.364 505.813 72.28 506.317 72.28C507.069 72.28 507.673 72.472 508.129 72.856C508.593 73.232 508.841 73.748 508.873 74.404H507.505C507.481 74.108 507.361 73.872 507.145 73.696C506.929 73.52 506.637 73.432 506.269 73.432C505.909 73.432 505.633 73.5 505.441 73.636C505.249 73.772 505.153 73.952 505.153 74.176C505.153 74.352 505.217 74.5 505.345 74.62C505.473 74.74 505.629 74.836 505.813 74.908C505.997 74.972 506.269 75.056 506.629 75.16C507.109 75.288 507.501 75.42 507.805 75.556C508.117 75.684 508.385 75.876 508.609 76.132C508.833 76.388 508.949 76.728 508.957 77.152C508.957 77.528 508.853 77.864 508.645 78.16C508.437 78.456 508.141 78.688 507.757 78.856C507.381 79.024 506.937 79.108 506.425 79.108Z" fill="white" fill-opacity="0.75"/>
<path d="M397.732 105.144C397.732 105.568 397.632 105.968 397.432 106.344C397.232 106.72 396.912 107.028 396.472 107.268C396.032 107.5 395.468 107.616 394.78 107.616H393.268V111H391.9V102.66H394.78C395.42 102.66 395.96 102.772 396.4 102.996C396.848 103.212 397.18 103.508 397.396 103.884C397.62 104.26 397.732 104.68 397.732 105.144ZM394.78 106.5C395.3 106.5 395.688 106.384 395.944 106.152C396.2 105.912 396.328 105.576 396.328 105.144C396.328 104.232 395.812 103.776 394.78 103.776H393.268V106.5H394.78ZM400.405 105.348C400.605 105.012 400.869 104.752 401.197 104.568C401.533 104.376 401.929 104.28 402.385 104.28V105.696H402.037C401.501 105.696 401.093 105.832 400.813 106.104C400.541 106.376 400.405 106.848 400.405 107.52V111H399.037V104.388H400.405V105.348ZM404.338 103.512C404.09 103.512 403.882 103.428 403.714 103.26C403.546 103.092 403.462 102.884 403.462 102.636C403.462 102.388 403.546 102.18 403.714 102.012C403.882 101.844 404.09 101.76 404.338 101.76C404.578 101.76 404.782 101.844 404.95 102.012C405.118 102.18 405.202 102.388 405.202 102.636C405.202 102.884 405.118 103.092 404.95 103.26C404.782 103.428 404.578 103.512 404.338 103.512ZM405.01 104.388V111H403.642V104.388H405.01ZM409.362 109.776L411.234 104.388H412.686L410.166 111H408.534L406.026 104.388H407.49L409.362 109.776ZM413.264 107.664C413.264 107 413.4 106.412 413.672 105.9C413.952 105.388 414.328 104.992 414.8 104.712C415.28 104.424 415.808 104.28 416.384 104.28C416.904 104.28 417.356 104.384 417.74 104.592C418.132 104.792 418.444 105.044 418.676 105.348V104.388H420.056V111H418.676V110.016C418.444 110.328 418.128 110.588 417.728 110.796C417.328 111.004 416.872 111.108 416.36 111.108C415.792 111.108 415.272 110.964 414.8 110.676C414.328 110.38 413.952 109.972 413.672 109.452C413.4 108.924 413.264 108.328 413.264 107.664ZM418.676 107.688C418.676 107.232 418.58 106.836 418.388 106.5C418.204 106.164 417.96 105.908 417.656 105.732C417.352 105.556 417.024 105.468 416.672 105.468C416.32 105.468 415.992 105.556 415.688 105.732C415.384 105.9 415.136 106.152 414.944 106.488C414.76 106.816 414.668 107.208 414.668 107.664C414.668 108.12 414.76 108.52 414.944 108.864C415.136 109.208 415.384 109.472 415.688 109.656C416 109.832 416.328 109.92 416.672 109.92C417.024 109.92 417.352 109.832 417.656 109.656C417.96 109.48 418.204 109.224 418.388 108.888C418.58 108.544 418.676 108.144 418.676 107.688ZM421.397 107.688C421.397 107.008 421.533 106.412 421.805 105.9C422.085 105.38 422.469 104.98 422.957 104.7C423.445 104.42 424.005 104.28 424.637 104.28C425.437 104.28 426.097 104.472 426.617 104.856C427.145 105.232 427.501 105.772 427.685 106.476H426.209C426.089 106.148 425.897 105.892 425.633 105.708C425.369 105.524 425.037 105.432 424.637 105.432C424.077 105.432 423.629 105.632 423.293 106.032C422.965 106.424 422.801 106.976 422.801 107.688C422.801 108.4 422.965 108.956 423.293 109.356C423.629 109.756 424.077 109.956 424.637 109.956C425.429 109.956 425.953 109.608 426.209 108.912H427.685C427.493 109.584 427.133 110.12 426.605 110.52C426.077 110.912 425.421 111.108 424.637 111.108C424.005 111.108 423.445 110.968 422.957 110.688C422.469 110.4 422.085 110 421.805 109.488C421.533 108.968 421.397 108.368 421.397 107.688ZM435 104.388L430.944 114.108H429.528L430.872 110.892L428.268 104.388H429.792L431.652 109.428L433.584 104.388H435ZM444.982 105.144C444.982 105.568 444.882 105.968 444.682 106.344C444.482 106.72 444.162 107.028 443.722 107.268C443.282 107.5 442.718 107.616 442.03 107.616H440.518V111H439.15V102.66H442.03C442.67 102.66 443.21 102.772 443.65 102.996C444.098 103.212 444.43 103.508 444.646 103.884C444.87 104.26 444.982 104.68 444.982 105.144ZM442.03 106.5C442.55 106.5 442.938 106.384 443.194 106.152C443.45 105.912 443.578 105.576 443.578 105.144C443.578 104.232 443.062 103.776 442.03 103.776H440.518V106.5H442.03ZM449.155 111.108C448.531 111.108 447.967 110.968 447.463 110.688C446.959 110.4 446.563 110 446.275 109.488C445.987 108.968 445.843 108.368 445.843 107.688C445.843 107.016 445.991 106.42 446.287 105.9C446.583 105.38 446.987 104.98 447.499 104.7C448.011 104.42 448.583 104.28 449.215 104.28C449.847 104.28 450.419 104.42 450.931 104.7C451.443 104.98 451.847 105.38 452.143 105.9C452.439 106.42 452.587 107.016 452.587 107.688C452.587 108.36 452.435 108.956 452.131 109.476C451.827 109.996 451.411 110.4 450.883 110.688C450.363 110.968 449.787 111.108 449.155 111.108ZM449.155 109.92C449.507 109.92 449.835 109.836 450.139 109.668C450.451 109.5 450.703 109.248 450.895 108.912C451.087 108.576 451.183 108.168 451.183 107.688C451.183 107.208 451.091 106.804 450.907 106.476C450.723 106.14 450.479 105.888 450.175 105.72C449.871 105.552 449.543 105.468 449.191 105.468C448.839 105.468 448.511 105.552 448.207 105.72C447.911 105.888 447.675 106.14 447.499 106.476C447.323 106.804 447.235 107.208 447.235 107.688C447.235 108.4 447.415 108.952 447.775 109.344C448.143 109.728 448.603 109.92 449.155 109.92ZM455.307 102.12V111H453.939V102.12H455.307ZM457.799 103.512C457.551 103.512 457.343 103.428 457.175 103.26C457.007 103.092 456.923 102.884 456.923 102.636C456.923 102.388 457.007 102.18 457.175 102.012C457.343 101.844 457.551 101.76 457.799 101.76C458.039 101.76 458.243 101.844 458.411 102.012C458.579 102.18 458.663 102.388 458.663 102.636C458.663 102.884 458.579 103.092 458.411 103.26C458.243 103.428 458.039 103.512 457.799 103.512ZM458.471 104.388V111H457.103V104.388H458.471ZM459.811 107.688C459.811 107.008 459.947 106.412 460.219 105.9C460.499 105.38 460.883 104.98 461.371 104.7C461.859 104.42 462.419 104.28 463.051 104.28C463.851 104.28 464.511 104.472 465.031 104.856C465.559 105.232 465.915 105.772 466.099 106.476H464.623C464.503 106.148 464.311 105.892 464.047 105.708C463.783 105.524 463.451 105.432 463.051 105.432C462.491 105.432 462.043 105.632 461.707 106.032C461.379 106.424 461.215 106.976 461.215 107.688C461.215 108.4 461.379 108.956 461.707 109.356C462.043 109.756 462.491 109.956 463.051 109.956C463.843 109.956 464.367 109.608 464.623 108.912H466.099C465.907 109.584 465.547 110.12 465.019 110.52C464.491 110.912 463.835 111.108 463.051 111.108C462.419 111.108 461.859 110.968 461.371 110.688C460.883 110.4 460.499 110 460.219 109.488C459.947 108.968 459.811 108.368 459.811 107.688ZM473.415 104.388L469.359 114.108H467.943L469.287 110.892L466.683 104.388H468.207L470.067 109.428L471.999 104.388H473.415Z" fill="white" fill-opacity="0.75"/>
<path d="M391.444 138.812C391.444 137.996 391.632 137.264 392.008 136.616C392.392 135.968 392.908 135.464 393.556 135.104C394.212 134.736 394.928 134.552 395.704 134.552C396.592 134.552 397.38 134.772 398.068 135.212C398.764 135.644 399.268 136.26 399.58 137.06H397.936C397.72 136.62 397.42 136.292 397.036 136.076C396.652 135.86 396.208 135.752 395.704 135.752C395.152 135.752 394.66 135.876 394.228 136.124C393.796 136.372 393.456 136.728 393.208 137.192C392.968 137.656 392.848 138.196 392.848 138.812C392.848 139.428 392.968 139.968 393.208 140.432C393.456 140.896 393.796 141.256 394.228 141.512C394.66 141.76 395.152 141.884 395.704 141.884C396.208 141.884 396.652 141.776 397.036 141.56C397.42 141.344 397.72 141.016 397.936 140.576H399.58C399.268 141.376 398.764 141.992 398.068 142.424C397.38 142.856 396.592 143.072 395.704 143.072C394.92 143.072 394.204 142.892 393.556 142.532C392.908 142.164 392.392 141.656 392.008 141.008C391.632 140.36 391.444 139.628 391.444 138.812ZM400.725 139.664C400.725 139 400.861 138.412 401.133 137.9C401.413 137.388 401.789 136.992 402.261 136.712C402.741 136.424 403.269 136.28 403.845 136.28C404.365 136.28 404.817 136.384 405.201 136.592C405.593 136.792 405.905 137.044 406.137 137.348V136.388H407.517V143H406.137V142.016C405.905 142.328 405.589 142.588 405.189 142.796C404.789 143.004 404.333 143.108 403.821 143.108C403.253 143.108 402.733 142.964 402.261 142.676C401.789 142.38 401.413 141.972 401.133 141.452C400.861 140.924 400.725 140.328 400.725 139.664ZM406.137 139.688C406.137 139.232 406.041 138.836 405.849 138.5C405.665 138.164 405.421 137.908 405.117 137.732C404.813 137.556 404.485 137.468 404.133 137.468C403.781 137.468 403.453 137.556 403.149 137.732C402.845 137.9 402.597 138.152 402.405 138.488C402.221 138.816 402.129 139.208 402.129 139.664C402.129 140.12 402.221 140.52 402.405 140.864C402.597 141.208 402.845 141.472 403.149 141.656C403.461 141.832 403.789 141.92 404.133 141.92C404.485 141.92 404.813 141.832 405.117 141.656C405.421 141.48 405.665 141.224 405.849 140.888C406.041 140.544 406.137 140.144 406.137 139.688ZM412.65 136.28C413.17 136.28 413.634 136.388 414.042 136.604C414.458 136.82 414.782 137.14 415.014 137.564C415.246 137.988 415.362 138.5 415.362 139.1V143H414.006V139.304C414.006 138.712 413.858 138.26 413.562 137.948C413.266 137.628 412.862 137.468 412.35 137.468C411.838 137.468 411.43 137.628 411.126 137.948C410.83 138.26 410.682 138.712 410.682 139.304V143H409.314V136.388H410.682V137.144C410.906 136.872 411.19 136.66 411.534 136.508C411.886 136.356 412.258 136.28 412.65 136.28ZM416.651 139.688C416.651 139.008 416.787 138.412 417.059 137.9C417.339 137.38 417.723 136.98 418.211 136.7C418.699 136.42 419.259 136.28 419.891 136.28C420.691 136.28 421.351 136.472 421.871 136.856C422.399 137.232 422.755 137.772 422.939 138.476H421.463C421.343 138.148 421.151 137.892 420.887 137.708C420.623 137.524 420.291 137.432 419.891 137.432C419.331 137.432 418.883 137.632 418.547 138.032C418.219 138.424 418.055 138.976 418.055 139.688C418.055 140.4 418.219 140.956 418.547 141.356C418.883 141.756 419.331 141.956 419.891 141.956C420.683 141.956 421.207 141.608 421.463 140.912H422.939C422.747 141.584 422.387 142.12 421.859 142.52C421.331 142.912 420.675 143.108 419.891 143.108C419.259 143.108 418.699 142.968 418.211 142.688C417.723 142.4 417.339 142 417.059 141.488C416.787 140.968 416.651 140.368 416.651 139.688ZM430.362 139.532C430.362 139.78 430.346 140.004 430.314 140.204H425.262C425.302 140.732 425.498 141.156 425.85 141.476C426.202 141.796 426.634 141.956 427.146 141.956C427.882 141.956 428.402 141.648 428.706 141.032H430.182C429.982 141.64 429.618 142.14 429.09 142.532C428.57 142.916 427.922 143.108 427.146 143.108C426.514 143.108 425.946 142.968 425.442 142.688C424.946 142.4 424.554 142 424.266 141.488C423.986 140.968 423.846 140.368 423.846 139.688C423.846 139.008 423.982 138.412 424.254 137.9C424.534 137.38 424.922 136.98 425.418 136.7C425.922 136.42 426.498 136.28 427.146 136.28C427.77 136.28 428.326 136.416 428.814 136.688C429.302 136.96 429.682 137.344 429.954 137.84C430.226 138.328 430.362 138.892 430.362 139.532ZM428.934 139.1C428.926 138.596 428.746 138.192 428.394 137.888C428.042 137.584 427.606 137.432 427.086 137.432C426.614 137.432 426.21 137.584 425.874 137.888C425.538 138.184 425.338 138.588 425.274 139.1H428.934ZM433.077 134.12V143H431.709V134.12H433.077ZM436.241 134.12V143H434.873V134.12H436.241ZM437.581 139.664C437.581 139 437.717 138.412 437.989 137.9C438.269 137.388 438.645 136.992 439.117 136.712C439.597 136.424 440.125 136.28 440.701 136.28C441.221 136.28 441.673 136.384 442.057 136.592C442.449 136.792 442.761 137.044 442.993 137.348V136.388H444.373V143H442.993V142.016C442.761 142.328 442.445 142.588 442.045 142.796C441.645 143.004 441.189 143.108 440.677 143.108C440.109 143.108 439.589 142.964 439.117 142.676C438.645 142.38 438.269 141.972 437.989 141.452C437.717 140.924 437.581 140.328 437.581 139.664ZM442.993 139.688C442.993 139.232 442.897 138.836 442.705 138.5C442.521 138.164 442.277 137.908 441.973 137.732C441.669 137.556 441.341 137.468 440.989 137.468C440.637 137.468 440.309 137.556 440.005 137.732C439.701 137.9 439.453 138.152 439.261 138.488C439.077 138.816 438.985 139.208 438.985 139.664C438.985 140.12 439.077 140.52 439.261 140.864C439.453 141.208 439.701 141.472 440.005 141.656C440.317 141.832 440.645 141.92 440.989 141.92C441.341 141.92 441.669 141.832 441.973 141.656C442.277 141.48 442.521 141.224 442.705 140.888C442.897 140.544 442.993 140.144 442.993 139.688ZM447.766 137.504V141.164C447.766 141.412 447.822 141.592 447.934 141.704C448.054 141.808 448.254 141.86 448.534 141.86H449.374V143H448.294C447.678 143 447.206 142.856 446.878 142.568C446.55 142.28 446.386 141.812 446.386 141.164V137.504H445.606V136.388H446.386V134.744H447.766V136.388H449.374V137.504H447.766ZM451.33 135.512C451.082 135.512 450.874 135.428 450.706 135.26C450.538 135.092 450.454 134.884 450.454 134.636C450.454 134.388 450.538 134.18 450.706 134.012C450.874 133.844 451.082 133.76 451.33 133.76C451.57 133.76 451.774 133.844 451.942 134.012C452.11 134.18 452.194 134.388 452.194 134.636C452.194 134.884 452.11 135.092 451.942 135.26C451.774 135.428 451.57 135.512 451.33 135.512ZM452.002 136.388V143H450.634V136.388H452.002ZM456.666 143.108C456.042 143.108 455.478 142.968 454.974 142.688C454.47 142.4 454.074 142 453.786 141.488C453.498 140.968 453.354 140.368 453.354 139.688C453.354 139.016 453.502 138.42 453.798 137.9C454.094 137.38 454.498 136.98 455.01 136.7C455.522 136.42 456.094 136.28 456.726 136.28C457.358 136.28 457.93 136.42 458.442 136.7C458.954 136.98 459.358 137.38 459.654 137.9C459.95 138.42 460.098 139.016 460.098 139.688C460.098 140.36 459.946 140.956 459.642 141.476C459.338 141.996 458.922 142.4 458.394 142.688C457.874 142.968 457.298 143.108 456.666 143.108ZM456.666 141.92C457.018 141.92 457.346 141.836 457.65 141.668C457.962 141.5 458.214 141.248 458.406 140.912C458.598 140.576 458.694 140.168 458.694 139.688C458.694 139.208 458.602 138.804 458.418 138.476C458.234 138.14 457.99 137.888 457.686 137.72C457.382 137.552 457.054 137.468 456.702 137.468C456.35 137.468 456.022 137.552 455.718 137.72C455.422 137.888 455.186 138.14 455.01 138.476C454.834 138.804 454.746 139.208 454.746 139.688C454.746 140.4 454.926 140.952 455.286 141.344C455.654 141.728 456.114 141.92 456.666 141.92ZM464.787 136.28C465.307 136.28 465.771 136.388 466.179 136.604C466.595 136.82 466.919 137.14 467.151 137.564C467.383 137.988 467.499 138.5 467.499 139.1V143H466.143V139.304C466.143 138.712 465.995 138.26 465.699 137.948C465.403 137.628 464.999 137.468 464.487 137.468C463.975 137.468 463.567 137.628 463.263 137.948C462.967 138.26 462.819 138.712 462.819 139.304V143H461.451V136.388H462.819V137.144C463.043 136.872 463.327 136.66 463.671 136.508C464.023 136.356 464.395 136.28 464.787 136.28ZM478.805 143L477.773 141.968C477.373 142.368 476.937 142.668 476.465 142.868C475.993 143.06 475.465 143.156 474.881 143.156C474.289 143.156 473.765 143.052 473.309 142.844C472.853 142.636 472.501 142.34 472.253 141.956C472.005 141.564 471.881 141.112 471.881 140.6C471.881 140.024 472.045 139.512 472.373 139.064C472.701 138.608 473.189 138.248 473.837 137.984C473.605 137.704 473.441 137.444 473.345 137.204C473.249 136.956 473.201 136.684 473.201 136.388C473.201 136.02 473.293 135.692 473.477 135.404C473.669 135.116 473.941 134.888 474.293 134.72C474.645 134.552 475.053 134.468 475.517 134.468C475.989 134.468 476.389 134.56 476.717 134.744C477.053 134.92 477.301 135.164 477.461 135.476C477.629 135.788 477.697 136.136 477.665 136.52H476.297C476.305 136.224 476.233 135.996 476.081 135.836C475.929 135.668 475.721 135.584 475.457 135.584C475.193 135.584 474.977 135.664 474.809 135.824C474.649 135.976 474.569 136.164 474.569 136.388C474.569 136.604 474.629 136.82 474.749 137.036C474.877 137.244 475.097 137.516 475.409 137.852L477.617 140.048L478.469 138.644H479.945L478.865 140.492L478.565 140.984L480.593 143H478.805ZM474.881 141.992C475.633 141.992 476.297 141.684 476.873 141.068L474.665 138.848C473.721 139.224 473.249 139.792 473.249 140.552C473.249 140.96 473.401 141.304 473.705 141.584C474.009 141.856 474.401 141.992 474.881 141.992ZM488.939 143L487.019 139.664H485.975V143H484.607V134.66H487.487C488.127 134.66 488.667 134.772 489.107 134.996C489.555 135.22 489.887 135.52 490.103 135.896C490.327 136.272 490.439 136.692 490.439 137.156C490.439 137.7 490.279 138.196 489.959 138.644C489.647 139.084 489.163 139.384 488.507 139.544L490.571 143H488.939ZM485.975 138.572H487.487C487.999 138.572 488.383 138.444 488.639 138.188C488.903 137.932 489.035 137.588 489.035 137.156C489.035 136.724 488.907 136.388 488.651 136.148C488.395 135.9 488.007 135.776 487.487 135.776H485.975V138.572ZM498.249 139.532C498.249 139.78 498.233 140.004 498.201 140.204H493.149C493.189 140.732 493.385 141.156 493.737 141.476C494.089 141.796 494.521 141.956 495.033 141.956C495.769 141.956 496.289 141.648 496.593 141.032H498.069C497.869 141.64 497.505 142.14 496.977 142.532C496.457 142.916 495.809 143.108 495.033 143.108C494.401 143.108 493.833 142.968 493.329 142.688C492.833 142.4 492.441 142 492.153 141.488C491.873 140.968 491.733 140.368 491.733 139.688C491.733 139.008 491.869 138.412 492.141 137.9C492.421 137.38 492.809 136.98 493.305 136.7C493.809 136.42 494.385 136.28 495.033 136.28C495.657 136.28 496.213 136.416 496.701 136.688C497.189 136.96 497.569 137.344 497.841 137.84C498.113 138.328 498.249 138.892 498.249 139.532ZM496.821 139.1C496.813 138.596 496.633 138.192 496.281 137.888C495.929 137.584 495.493 137.432 494.973 137.432C494.501 137.432 494.097 137.584 493.761 137.888C493.425 138.184 493.225 138.588 493.161 139.1H496.821ZM502.367 137.504H501.143V143H499.763V137.504H498.983V136.388H499.763V135.92C499.763 135.16 499.963 134.608 500.363 134.264C500.771 133.912 501.407 133.736 502.271 133.736V134.876C501.855 134.876 501.563 134.956 501.395 135.116C501.227 135.268 501.143 135.536 501.143 135.92V136.388H502.367V137.504ZM509.568 136.388V143H508.2V142.22C507.984 142.492 507.7 142.708 507.348 142.868C507.004 143.02 506.636 143.096 506.244 143.096C505.724 143.096 505.256 142.988 504.84 142.772C504.432 142.556 504.108 142.236 503.868 141.812C503.636 141.388 503.52 140.876 503.52 140.276V136.388H504.876V140.072C504.876 140.664 505.024 141.12 505.32 141.44C505.616 141.752 506.02 141.908 506.532 141.908C507.044 141.908 507.448 141.752 507.744 141.44C508.048 141.12 508.2 140.664 508.2 140.072V136.388H509.568ZM514.709 136.28C515.229 136.28 515.693 136.388 516.101 136.604C516.517 136.82 516.841 137.14 517.073 137.564C517.305 137.988 517.421 138.5 517.421 139.1V143H516.065V139.304C516.065 138.712 515.917 138.26 515.621 137.948C515.325 137.628 514.921 137.468 514.409 137.468C513.897 137.468 513.489 137.628 513.185 137.948C512.889 138.26 512.741 138.712 512.741 139.304V143H511.373V136.388H512.741V137.144C512.965 136.872 513.249 136.66 513.593 136.508C513.945 136.356 514.317 136.28 514.709 136.28ZM518.71 139.664C518.71 139 518.846 138.412 519.118 137.9C519.398 137.388 519.774 136.992 520.246 136.712C520.726 136.424 521.258 136.28 521.842 136.28C522.274 136.28 522.698 136.376 523.114 136.568C523.538 136.752 523.874 137 524.122 137.312V134.12H525.502V143H524.122V142.004C523.898 142.324 523.586 142.588 523.186 142.796C522.794 143.004 522.342 143.108 521.83 143.108C521.254 143.108 520.726 142.964 520.246 142.676C519.774 142.38 519.398 141.972 519.118 141.452C518.846 140.924 518.71 140.328 518.71 139.664ZM524.122 139.688C524.122 139.232 524.026 138.836 523.834 138.5C523.65 138.164 523.406 137.908 523.102 137.732C522.798 137.556 522.47 137.468 522.118 137.468C521.766 137.468 521.438 137.556 521.134 137.732C520.83 137.9 520.582 138.152 520.39 138.488C520.206 138.816 520.114 139.208 520.114 139.664C520.114 140.12 520.206 140.52 520.39 140.864C520.582 141.208 520.83 141.472 521.134 141.656C521.446 141.832 521.774 141.92 522.118 141.92C522.47 141.92 522.798 141.832 523.102 141.656C523.406 141.48 523.65 141.224 523.834 140.888C524.026 140.544 524.122 140.144 524.122 139.688ZM536.248 137.144C536.248 137.568 536.148 137.968 535.948 138.344C535.748 138.72 535.428 139.028 534.988 139.268C534.548 139.5 533.984 139.616 533.296 139.616H531.784V143H530.416V134.66H533.296C533.936 134.66 534.476 134.772 534.916 134.996C535.364 135.212 535.696 135.508 535.912 135.884C536.136 136.26 536.248 136.68 536.248 137.144ZM533.296 138.5C533.816 138.5 534.204 138.384 534.46 138.152C534.716 137.912 534.844 137.576 534.844 137.144C534.844 136.232 534.328 135.776 533.296 135.776H531.784V138.5H533.296ZM540.42 143.108C539.796 143.108 539.232 142.968 538.728 142.688C538.224 142.4 537.828 142 537.54 141.488C537.252 140.968 537.108 140.368 537.108 139.688C537.108 139.016 537.256 138.42 537.552 137.9C537.848 137.38 538.252 136.98 538.764 136.7C539.276 136.42 539.848 136.28 540.48 136.28C541.112 136.28 541.684 136.42 542.196 136.7C542.708 136.98 543.112 137.38 543.408 137.9C543.704 138.42 543.852 139.016 543.852 139.688C543.852 140.36 543.7 140.956 543.396 141.476C543.092 141.996 542.676 142.4 542.148 142.688C541.628 142.968 541.052 143.108 540.42 143.108ZM540.42 141.92C540.772 141.92 541.1 141.836 541.404 141.668C541.716 141.5 541.968 141.248 542.16 140.912C542.352 140.576 542.448 140.168 542.448 139.688C542.448 139.208 542.356 138.804 542.172 138.476C541.988 138.14 541.744 137.888 541.44 137.72C541.136 137.552 540.808 137.468 540.456 137.468C540.104 137.468 539.776 137.552 539.472 137.72C539.176 137.888 538.94 138.14 538.764 138.476C538.588 138.804 538.5 139.208 538.5 139.688C538.5 140.4 538.68 140.952 539.04 141.344C539.408 141.728 539.868 141.92 540.42 141.92ZM546.573 134.12V143H545.205V134.12H546.573ZM549.065 135.512C548.817 135.512 548.609 135.428 548.441 135.26C548.273 135.092 548.189 134.884 548.189 134.636C548.189 134.388 548.273 134.18 548.441 134.012C548.609 133.844 548.817 133.76 549.065 133.76C549.305 133.76 549.509 133.844 549.677 134.012C549.845 134.18 549.929 134.388 549.929 134.636C549.929 134.884 549.845 135.092 549.677 135.26C549.509 135.428 549.305 135.512 549.065 135.512ZM549.737 136.388V143H548.369V136.388H549.737ZM551.077 139.688C551.077 139.008 551.213 138.412 551.485 137.9C551.765 137.38 552.149 136.98 552.637 136.7C553.125 136.42 553.685 136.28 554.317 136.28C555.117 136.28 555.777 136.472 556.297 136.856C556.825 137.232 557.181 137.772 557.365 138.476H555.889C555.769 138.148 555.577 137.892 555.313 137.708C555.049 137.524 554.717 137.432 554.317 137.432C553.757 137.432 553.309 137.632 552.973 138.032C552.645 138.424 552.481 138.976 552.481 139.688C552.481 140.4 552.645 140.956 552.973 141.356C553.309 141.756 553.757 141.956 554.317 141.956C555.109 141.956 555.633 141.608 555.889 140.912H557.365C557.173 141.584 556.813 142.12 556.285 142.52C555.757 142.912 555.101 143.108 554.317 143.108C553.685 143.108 553.125 142.968 552.637 142.688C552.149 142.4 551.765 142 551.485 141.488C551.213 140.968 551.077 140.368 551.077 139.688ZM564.68 136.388L560.624 146.108H559.208L560.552 142.892L557.948 136.388H559.472L561.332 141.428L563.264 136.388H564.68Z" fill="white" fill-opacity="0.75"/>
<defs>
<clipPath id="clip0_2333_400">
<rect width="16" height="16" fill="white" transform="translate(0 35)"/>
</clipPath>
<clipPath id="clip1_2333_400">
<rect width="16" height="16" fill="white" transform="translate(0 131)"/>
</clipPath>
</defs>
</svg>
