<svg width="167" height="40" viewBox="0 0 167 40" fill="none" xmlns="http://www.w3.org/2000/svg">
<rect x="0.5" y="0.5" width="166" height="39" rx="3.5" stroke="black"/>
<path d="M45.646 23.712H48.936V25H44.05V15.27H45.646V23.712ZM57.3407 20.954C57.3407 21.2433 57.322 21.5047 57.2847 21.738H51.3907C51.4374 22.354 51.666 22.8487 52.0767 23.222C52.4874 23.5953 52.9914 23.782 53.5887 23.782C54.4474 23.782 55.054 23.4227 55.4087 22.704H57.1307C56.8974 23.4133 56.4727 23.9967 55.8567 24.454C55.25 24.902 54.494 25.126 53.5887 25.126C52.8514 25.126 52.1887 24.9627 51.6007 24.636C51.022 24.3 50.5647 23.8333 50.2287 23.236C49.902 22.6293 49.7387 21.9293 49.7387 21.136C49.7387 20.3427 49.8974 19.6473 50.2147 19.05C50.5414 18.4433 50.994 17.9767 51.5727 17.65C52.1607 17.3233 52.8327 17.16 53.5887 17.16C54.3167 17.16 54.9654 17.3187 55.5347 17.636C56.104 17.9533 56.5474 18.4013 56.8647 18.98C57.182 19.5493 57.3407 20.2073 57.3407 20.954ZM55.6747 20.45C55.6654 19.862 55.4554 19.3907 55.0447 19.036C54.634 18.6813 54.1254 18.504 53.5187 18.504C52.968 18.504 52.4967 18.6813 52.1047 19.036C51.7127 19.3813 51.4794 19.8527 51.4047 20.45H55.6747ZM58.3793 21.108C58.3793 20.3333 58.538 19.6473 58.8553 19.05C59.182 18.4527 59.6207 17.9907 60.1713 17.664C60.7313 17.328 61.3473 17.16 62.0193 17.16C62.626 17.16 63.1533 17.2813 63.6013 17.524C64.0587 17.7573 64.4227 18.0513 64.6933 18.406V17.286H66.3033V25H64.6933V23.852C64.4227 24.216 64.054 24.5193 63.5873 24.762C63.1207 25.0047 62.5887 25.126 61.9913 25.126C61.3287 25.126 60.722 24.958 60.1713 24.622C59.6207 24.2767 59.182 23.8007 58.8553 23.194C58.538 22.578 58.3793 21.8827 58.3793 21.108ZM64.6933 21.136C64.6933 20.604 64.5813 20.142 64.3573 19.75C64.1427 19.358 63.858 19.0593 63.5033 18.854C63.1487 18.6487 62.766 18.546 62.3553 18.546C61.9447 18.546 61.562 18.6487 61.2073 18.854C60.8527 19.05 60.5633 19.344 60.3393 19.736C60.1247 20.1187 60.0173 20.576 60.0173 21.108C60.0173 21.64 60.1247 22.1067 60.3393 22.508C60.5633 22.9093 60.8527 23.2173 61.2073 23.432C61.5713 23.6373 61.954 23.74 62.3553 23.74C62.766 23.74 63.1487 23.6373 63.5033 23.432C63.858 23.2267 64.1427 22.928 64.3573 22.536C64.5813 22.1347 64.6933 21.668 64.6933 21.136ZM69.9956 18.406C70.2289 18.014 70.5369 17.7107 70.9196 17.496C71.3116 17.272 71.7736 17.16 72.3056 17.16V18.812H71.8996C71.2743 18.812 70.7983 18.9707 70.4716 19.288C70.1543 19.6053 69.9956 20.156 69.9956 20.94V25H68.3996V17.286H69.9956V18.406ZM77.6647 17.16C78.2713 17.16 78.8127 17.286 79.2887 17.538C79.774 17.79 80.152 18.1633 80.4227 18.658C80.6933 19.1527 80.8287 19.75 80.8287 20.45V25H79.2467V20.688C79.2467 19.9973 79.074 19.47 78.7287 19.106C78.3833 18.7327 77.912 18.546 77.3147 18.546C76.7173 18.546 76.2413 18.7327 75.8867 19.106C75.5413 19.47 75.3687 19.9973 75.3687 20.688V25H73.7727V17.286H75.3687V18.168C75.63 17.8507 75.9613 17.6033 76.3627 17.426C76.7733 17.2487 77.2073 17.16 77.6647 17.16ZM95.8392 17.16C96.4458 17.16 96.9872 17.286 97.4632 17.538C97.9485 17.79 98.3265 18.1633 98.5972 18.658C98.8772 19.1527 99.0172 19.75 99.0172 20.45V25H97.4352V20.688C97.4352 19.9973 97.2625 19.47 96.9172 19.106C96.5718 18.7327 96.1005 18.546 95.5032 18.546C94.9058 18.546 94.4298 18.7327 94.0752 19.106C93.7298 19.47 93.5572 19.9973 93.5572 20.688V25H91.9752V20.688C91.9752 19.9973 91.8025 19.47 91.4572 19.106C91.1118 18.7327 90.6405 18.546 90.0432 18.546C89.4458 18.546 88.9698 18.7327 88.6152 19.106C88.2698 19.47 88.0972 19.9973 88.0972 20.688V25H86.5012V17.286H88.0972V18.168C88.3585 17.8507 88.6898 17.6033 89.0912 17.426C89.4925 17.2487 89.9218 17.16 90.3792 17.16C90.9952 17.16 91.5458 17.2907 92.0312 17.552C92.5165 17.8133 92.8898 18.1913 93.1512 18.686C93.3845 18.2193 93.7485 17.8507 94.2432 17.58C94.7378 17.3 95.2698 17.16 95.8392 17.16ZM104.394 25.126C103.666 25.126 103.008 24.9627 102.42 24.636C101.832 24.3 101.37 23.8333 101.034 23.236C100.698 22.6293 100.53 21.9293 100.53 21.136C100.53 20.352 100.703 19.6567 101.048 19.05C101.393 18.4433 101.865 17.9767 102.462 17.65C103.059 17.3233 103.727 17.16 104.464 17.16C105.201 17.16 105.869 17.3233 106.466 17.65C107.063 17.9767 107.535 18.4433 107.88 19.05C108.225 19.6567 108.398 20.352 108.398 21.136C108.398 21.92 108.221 22.6153 107.866 23.222C107.511 23.8287 107.026 24.3 106.41 24.636C105.803 24.9627 105.131 25.126 104.394 25.126ZM104.394 23.74C104.805 23.74 105.187 23.642 105.542 23.446C105.906 23.25 106.2 22.956 106.424 22.564C106.648 22.172 106.76 21.696 106.76 21.136C106.76 20.576 106.653 20.1047 106.438 19.722C106.223 19.33 105.939 19.036 105.584 18.84C105.229 18.644 104.847 18.546 104.436 18.546C104.025 18.546 103.643 18.644 103.288 18.84C102.943 19.036 102.667 19.33 102.462 19.722C102.257 20.1047 102.154 20.576 102.154 21.136C102.154 21.9667 102.364 22.6107 102.784 23.068C103.213 23.516 103.75 23.74 104.394 23.74ZM111.572 18.406C111.805 18.014 112.113 17.7107 112.496 17.496C112.888 17.272 113.35 17.16 113.882 17.16V18.812H113.476C112.85 18.812 112.374 18.9707 112.048 19.288C111.73 19.6053 111.572 20.156 111.572 20.94V25H109.976V17.286H111.572V18.406ZM122.419 20.954C122.419 21.2433 122.4 21.5047 122.363 21.738H116.469C116.515 22.354 116.744 22.8487 117.155 23.222C117.565 23.5953 118.069 23.782 118.667 23.782C119.525 23.782 120.132 23.4227 120.487 22.704H122.209C121.975 23.4133 121.551 23.9967 120.935 24.454C120.328 24.902 119.572 25.126 118.667 25.126C117.929 25.126 117.267 24.9627 116.679 24.636C116.1 24.3 115.643 23.8333 115.307 23.236C114.98 22.6293 114.817 21.9293 114.817 21.136C114.817 20.3427 114.975 19.6473 115.293 19.05C115.619 18.4433 116.072 17.9767 116.651 17.65C117.239 17.3233 117.911 17.16 118.667 17.16C119.395 17.16 120.043 17.3187 120.613 17.636C121.182 17.9533 121.625 18.4013 121.943 18.98C122.26 19.5493 122.419 20.2073 122.419 20.954ZM120.753 20.45C120.743 19.862 120.533 19.3907 120.123 19.036C119.712 18.6813 119.203 18.504 118.597 18.504C118.046 18.504 117.575 18.6813 117.183 19.036C116.791 19.3813 116.557 19.8527 116.483 20.45H120.753Z" fill="black"/>
</svg>
