<svg width="493" height="54" viewBox="0 0 493 54" fill="none" xmlns="http://www.w3.org/2000/svg">
<circle cx="25" cy="27" r="25" fill="#00CED1"/>
<path d="M24.9999 28.43C26.723 28.43 28.1199 27.0331 28.1199 25.31C28.1199 23.5869 26.723 22.19 24.9999 22.19C23.2768 22.19 21.8799 23.5869 21.8799 25.31C21.8799 27.0331 23.2768 28.43 24.9999 28.43Z" stroke="white" stroke-width="1.5"/>
<path d="M16.6197 23.49C18.5897 14.83 31.4197 14.84 33.3797 23.5C34.5297 28.58 31.3697 32.88 28.5997 35.54C26.5897 37.48 23.4097 37.48 21.3897 35.54C18.6297 32.88 15.4697 28.57 16.6197 23.49Z" stroke="white" stroke-width="1.5"/>
<path d="M82.892 17.444H77.654L76.754 20H74.612L79.094 7.472H81.47L85.952 20H83.792L82.892 17.444ZM82.316 15.77L80.282 9.956L78.23 15.77H82.316ZM95.5148 12.62V14.348H88.1168V12.62H95.5148ZM97.8901 8.75V6.878H101.634V20H99.5641V8.75H97.8901ZM106.667 13.142C105.419 12.518 104.795 11.534 104.795 10.19C104.795 9.542 104.957 8.948 105.281 8.408C105.605 7.868 106.091 7.442 106.739 7.13C107.387 6.806 108.179 6.644 109.115 6.644C110.039 6.644 110.825 6.806 111.473 7.13C112.133 7.442 112.625 7.868 112.949 8.408C113.273 8.948 113.435 9.542 113.435 10.19C113.435 10.862 113.261 11.456 112.913 11.972C112.577 12.476 112.127 12.866 111.563 13.142C112.247 13.394 112.787 13.808 113.183 14.384C113.579 14.948 113.777 15.614 113.777 16.382C113.777 17.162 113.579 17.852 113.183 18.452C112.787 19.052 112.235 19.514 111.527 19.838C110.819 20.162 110.015 20.324 109.115 20.324C108.215 20.324 107.411 20.162 106.703 19.838C106.007 19.514 105.461 19.052 105.065 18.452C104.669 17.852 104.471 17.162 104.471 16.382C104.471 15.602 104.669 14.93 105.065 14.366C105.461 13.802 105.995 13.394 106.667 13.142ZM111.473 10.442C111.473 9.77 111.263 9.254 110.843 8.894C110.423 8.534 109.847 8.354 109.115 8.354C108.395 8.354 107.825 8.534 107.405 8.894C106.985 9.254 106.775 9.776 106.775 10.46C106.775 11.06 106.991 11.552 107.423 11.936C107.867 12.308 108.431 12.494 109.115 12.494C109.799 12.494 110.363 12.302 110.807 11.918C111.251 11.534 111.473 11.042 111.473 10.442ZM109.115 14.042C108.323 14.042 107.675 14.24 107.171 14.636C106.679 15.02 106.433 15.578 106.433 16.31C106.433 16.994 106.673 17.552 107.153 17.984C107.633 18.404 108.287 18.614 109.115 18.614C109.931 18.614 110.573 18.398 111.041 17.966C111.521 17.534 111.761 16.982 111.761 16.31C111.761 15.59 111.515 15.032 111.023 14.636C110.543 14.24 109.907 14.042 109.115 14.042ZM118.452 17.534L116.274 22.502H114.942L116.22 17.534H118.452ZM126.972 18.344H131.202V20H124.92V7.49H126.972V18.344ZM142.008 14.798C142.008 15.17 141.984 15.506 141.936 15.806H134.358C134.418 16.598 134.712 17.234 135.24 17.714C135.768 18.194 136.416 18.434 137.184 18.434C138.288 18.434 139.068 17.972 139.524 17.048H141.738C141.438 17.96 140.892 18.71 140.1 19.298C139.32 19.874 138.348 20.162 137.184 20.162C136.236 20.162 135.384 19.952 134.628 19.532C133.884 19.1 133.296 18.5 132.864 17.732C132.444 16.952 132.234 16.052 132.234 15.032C132.234 14.012 132.438 13.118 132.846 12.35C133.266 11.57 133.848 10.97 134.592 10.55C135.348 10.13 136.212 9.92 137.184 9.92C138.12 9.92 138.954 10.124 139.686 10.532C140.418 10.94 140.988 11.516 141.396 12.26C141.804 12.992 142.008 13.838 142.008 14.798ZM139.866 14.15C139.854 13.394 139.584 12.788 139.056 12.332C138.528 11.876 137.874 11.648 137.094 11.648C136.386 11.648 135.78 11.876 135.276 12.332C134.772 12.776 134.472 13.382 134.376 14.15H139.866ZM147.952 15.05L152.524 20H149.752L146.08 15.734V20H144.028V6.68H146.08V14.42L149.68 10.082H152.524L147.952 15.05ZM157.595 20.162C156.815 20.162 156.113 20.024 155.489 19.748C154.877 19.46 154.391 19.076 154.031 18.596C153.671 18.104 153.479 17.558 153.455 16.958H155.579C155.615 17.378 155.813 17.732 156.173 18.02C156.545 18.296 157.007 18.434 157.559 18.434C158.135 18.434 158.579 18.326 158.891 18.11C159.215 17.882 159.377 17.594 159.377 17.246C159.377 16.874 159.197 16.598 158.837 16.418C158.489 16.238 157.931 16.04 157.163 15.824C156.419 15.62 155.813 15.422 155.345 15.23C154.877 15.038 154.469 14.744 154.121 14.348C153.785 13.952 153.617 13.43 153.617 12.782C153.617 12.254 153.773 11.774 154.085 11.342C154.397 10.898 154.841 10.55 155.417 10.298C156.005 10.046 156.677 9.92 157.433 9.92C158.561 9.92 159.467 10.208 160.151 10.784C160.847 11.348 161.219 12.122 161.267 13.106H159.215C159.179 12.662 158.999 12.308 158.675 12.044C158.351 11.78 157.913 11.648 157.361 11.648C156.821 11.648 156.407 11.75 156.119 11.954C155.831 12.158 155.687 12.428 155.687 12.764C155.687 13.028 155.783 13.25 155.975 13.43C156.167 13.61 156.401 13.754 156.677 13.862C156.953 13.958 157.361 14.084 157.901 14.24C158.621 14.432 159.209 14.63 159.665 14.834C160.133 15.026 160.535 15.314 160.871 15.698C161.207 16.082 161.381 16.592 161.393 17.228C161.393 17.792 161.237 18.296 160.925 18.74C160.613 19.184 160.169 19.532 159.593 19.784C159.029 20.036 158.363 20.162 157.595 20.162ZM168.74 9.92C169.496 9.92 170.168 10.082 170.756 10.406C171.356 10.73 171.824 11.21 172.16 11.846C172.508 12.482 172.682 13.25 172.682 14.15V20H170.648V14.456C170.648 13.568 170.426 12.89 169.982 12.422C169.538 11.942 168.932 11.702 168.164 11.702C167.396 11.702 166.784 11.942 166.328 12.422C165.884 12.89 165.662 13.568 165.662 14.456V20H163.61V6.68H165.662V11.234C166.01 10.814 166.448 10.49 166.976 10.262C167.516 10.034 168.104 9.92 168.74 9.92ZM187.305 9.92C188.085 9.92 188.781 10.082 189.393 10.406C190.017 10.73 190.503 11.21 190.851 11.846C191.211 12.482 191.391 13.25 191.391 14.15V20H189.357V14.456C189.357 13.568 189.135 12.89 188.691 12.422C188.247 11.942 187.641 11.702 186.873 11.702C186.105 11.702 185.493 11.942 185.037 12.422C184.593 12.89 184.371 13.568 184.371 14.456V20H182.337V14.456C182.337 13.568 182.115 12.89 181.671 12.422C181.227 11.942 180.621 11.702 179.853 11.702C179.085 11.702 178.473 11.942 178.017 12.422C177.573 12.89 177.351 13.568 177.351 14.456V20H175.299V10.082H177.351V11.216C177.687 10.808 178.113 10.49 178.629 10.262C179.145 10.034 179.697 9.92 180.285 9.92C181.077 9.92 181.785 10.088 182.409 10.424C183.033 10.76 183.513 11.246 183.849 11.882C184.149 11.282 184.617 10.808 185.253 10.46C185.889 10.1 186.573 9.92 187.305 9.92ZM195.046 8.768C194.674 8.768 194.362 8.642 194.11 8.39C193.858 8.138 193.732 7.826 193.732 7.454C193.732 7.082 193.858 6.77 194.11 6.518C194.362 6.266 194.674 6.14 195.046 6.14C195.406 6.14 195.712 6.266 195.964 6.518C196.216 6.77 196.342 7.082 196.342 7.454C196.342 7.826 196.216 8.138 195.964 8.39C195.712 8.642 195.406 8.768 195.046 8.768ZM196.054 10.082V20H194.002V10.082H196.054ZM213.702 20H211.65L205.476 10.658V20H203.424V7.472H205.476L211.65 16.796V7.472H213.702V20ZM215.713 14.996C215.713 14 215.917 13.118 216.325 12.35C216.745 11.582 217.309 10.988 218.017 10.568C218.737 10.136 219.529 9.92 220.393 9.92C221.173 9.92 221.851 10.076 222.427 10.388C223.015 10.688 223.483 11.066 223.831 11.522V10.082H225.901V20H223.831V18.524C223.483 18.992 223.009 19.382 222.409 19.694C221.809 20.006 221.125 20.162 220.357 20.162C219.505 20.162 218.725 19.946 218.017 19.514C217.309 19.07 216.745 18.458 216.325 17.678C215.917 16.886 215.713 15.992 215.713 14.996ZM223.831 15.032C223.831 14.348 223.687 13.754 223.399 13.25C223.123 12.746 222.757 12.362 222.301 12.098C221.845 11.834 221.353 11.702 220.825 11.702C220.297 11.702 219.805 11.834 219.349 12.098C218.893 12.35 218.521 12.728 218.233 13.232C217.957 13.724 217.819 14.312 217.819 14.996C217.819 15.68 217.957 16.28 218.233 16.796C218.521 17.312 218.893 17.708 219.349 17.984C219.817 18.248 220.309 18.38 220.825 18.38C221.353 18.38 221.845 18.248 222.301 17.984C222.757 17.72 223.123 17.336 223.399 16.832C223.687 16.316 223.831 15.716 223.831 15.032ZM232.592 9.92C233.36 9.92 234.038 10.076 234.626 10.388C235.226 10.688 235.694 11.066 236.03 11.522V10.082H238.1V20.162C238.1 21.074 237.908 21.884 237.524 22.592C237.14 23.312 236.582 23.876 235.85 24.284C235.13 24.692 234.266 24.896 233.258 24.896C231.914 24.896 230.798 24.578 229.91 23.942C229.022 23.318 228.518 22.466 228.398 21.386H230.432C230.588 21.902 230.918 22.316 231.422 22.628C231.938 22.952 232.55 23.114 233.258 23.114C234.086 23.114 234.752 22.862 235.256 22.358C235.772 21.854 236.03 21.122 236.03 20.162V18.506C235.682 18.974 235.208 19.37 234.608 19.694C234.02 20.006 233.348 20.162 232.592 20.162C231.728 20.162 230.936 19.946 230.216 19.514C229.508 19.07 228.944 18.458 228.524 17.678C228.116 16.886 227.912 15.992 227.912 14.996C227.912 14 228.116 13.118 228.524 12.35C228.944 11.582 229.508 10.988 230.216 10.568C230.936 10.136 231.728 9.92 232.592 9.92ZM236.03 15.032C236.03 14.348 235.886 13.754 235.598 13.25C235.322 12.746 234.956 12.362 234.5 12.098C234.044 11.834 233.552 11.702 233.024 11.702C232.496 11.702 232.004 11.834 231.548 12.098C231.092 12.35 230.72 12.728 230.432 13.232C230.156 13.724 230.018 14.312 230.018 14.996C230.018 15.68 230.156 16.28 230.432 16.796C230.72 17.312 231.092 17.708 231.548 17.984C232.016 18.248 232.508 18.38 233.024 18.38C233.552 18.38 234.044 18.248 234.5 17.984C234.956 17.72 235.322 17.336 235.598 16.832C235.886 16.316 236.03 15.716 236.03 15.032ZM240.111 14.996C240.111 14 240.315 13.118 240.723 12.35C241.143 11.582 241.707 10.988 242.415 10.568C243.135 10.136 243.927 9.92 244.791 9.92C245.571 9.92 246.249 10.076 246.825 10.388C247.413 10.688 247.881 11.066 248.229 11.522V10.082H250.299V20H248.229V18.524C247.881 18.992 247.407 19.382 246.807 19.694C246.207 20.006 245.523 20.162 244.755 20.162C243.903 20.162 243.123 19.946 242.415 19.514C241.707 19.07 241.143 18.458 240.723 17.678C240.315 16.886 240.111 15.992 240.111 14.996ZM248.229 15.032C248.229 14.348 248.085 13.754 247.797 13.25C247.521 12.746 247.155 12.362 246.699 12.098C246.243 11.834 245.751 11.702 245.223 11.702C244.695 11.702 244.203 11.834 243.747 12.098C243.291 12.35 242.919 12.728 242.631 13.232C242.355 13.724 242.217 14.312 242.217 14.996C242.217 15.68 242.355 16.28 242.631 16.796C242.919 17.312 243.291 17.708 243.747 17.984C244.215 18.248 244.707 18.38 245.223 18.38C245.751 18.38 246.243 18.248 246.699 17.984C247.155 17.72 247.521 17.336 247.797 16.832C248.085 16.316 248.229 15.716 248.229 15.032ZM255.047 11.522C255.347 11.018 255.743 10.628 256.235 10.352C256.739 10.064 257.333 9.92 258.017 9.92V12.044H257.495C256.691 12.044 256.079 12.248 255.659 12.656C255.251 13.064 255.047 13.772 255.047 14.78V20H252.995V10.082H255.047V11.522ZM262.153 17.534L259.975 22.502H258.643L259.921 17.534H262.153ZM275.515 20L270.673 14.402V20H268.621V7.49H270.673V13.196L275.533 7.49H278.107L272.671 13.754L278.197 20H275.515ZM289.102 14.798C289.102 15.17 289.078 15.506 289.03 15.806H281.452C281.512 16.598 281.806 17.234 282.334 17.714C282.862 18.194 283.51 18.434 284.278 18.434C285.382 18.434 286.162 17.972 286.618 17.048H288.832C288.532 17.96 287.986 18.71 287.194 19.298C286.414 19.874 285.442 20.162 284.278 20.162C283.33 20.162 282.478 19.952 281.722 19.532C280.978 19.1 280.39 18.5 279.958 17.732C279.538 16.952 279.328 16.052 279.328 15.032C279.328 14.012 279.532 13.118 279.94 12.35C280.36 11.57 280.942 10.97 281.686 10.55C282.442 10.13 283.306 9.92 284.278 9.92C285.214 9.92 286.048 10.124 286.78 10.532C287.512 10.94 288.082 11.516 288.49 12.26C288.898 12.992 289.102 13.838 289.102 14.798ZM286.96 14.15C286.948 13.394 286.678 12.788 286.15 12.332C285.622 11.876 284.968 11.648 284.188 11.648C283.48 11.648 282.874 11.876 282.37 12.332C281.866 12.776 281.566 13.382 281.47 14.15H286.96ZM294.721 20.162C293.941 20.162 293.239 20.024 292.615 19.748C292.003 19.46 291.517 19.076 291.157 18.596C290.797 18.104 290.605 17.558 290.581 16.958H292.705C292.741 17.378 292.939 17.732 293.299 18.02C293.671 18.296 294.133 18.434 294.685 18.434C295.261 18.434 295.705 18.326 296.017 18.11C296.341 17.882 296.503 17.594 296.503 17.246C296.503 16.874 296.323 16.598 295.963 16.418C295.615 16.238 295.057 16.04 294.289 15.824C293.545 15.62 292.939 15.422 292.471 15.23C292.003 15.038 291.595 14.744 291.247 14.348C290.911 13.952 290.743 13.43 290.743 12.782C290.743 12.254 290.899 11.774 291.211 11.342C291.523 10.898 291.967 10.55 292.543 10.298C293.131 10.046 293.803 9.92 294.559 9.92C295.687 9.92 296.593 10.208 297.277 10.784C297.973 11.348 298.345 12.122 298.393 13.106H296.341C296.305 12.662 296.125 12.308 295.801 12.044C295.477 11.78 295.039 11.648 294.487 11.648C293.947 11.648 293.533 11.75 293.245 11.954C292.957 12.158 292.813 12.428 292.813 12.764C292.813 13.028 292.909 13.25 293.101 13.43C293.293 13.61 293.527 13.754 293.803 13.862C294.079 13.958 294.487 14.084 295.027 14.24C295.747 14.432 296.335 14.63 296.791 14.834C297.259 15.026 297.661 15.314 297.997 15.698C298.333 16.082 298.507 16.592 298.519 17.228C298.519 17.792 298.363 18.296 298.051 18.74C297.739 19.184 297.295 19.532 296.719 19.784C296.155 20.036 295.489 20.162 294.721 20.162ZM300.053 14.996C300.053 14 300.257 13.118 300.665 12.35C301.085 11.582 301.649 10.988 302.357 10.568C303.077 10.136 303.869 9.92 304.733 9.92C305.513 9.92 306.191 10.076 306.767 10.388C307.355 10.688 307.823 11.066 308.171 11.522V10.082H310.241V20H308.171V18.524C307.823 18.992 307.349 19.382 306.749 19.694C306.149 20.006 305.465 20.162 304.697 20.162C303.845 20.162 303.065 19.946 302.357 19.514C301.649 19.07 301.085 18.458 300.665 17.678C300.257 16.886 300.053 15.992 300.053 14.996ZM308.171 15.032C308.171 14.348 308.027 13.754 307.739 13.25C307.463 12.746 307.097 12.362 306.641 12.098C306.185 11.834 305.693 11.702 305.165 11.702C304.637 11.702 304.145 11.834 303.689 12.098C303.233 12.35 302.861 12.728 302.573 13.232C302.297 13.724 302.159 14.312 302.159 14.996C302.159 15.68 302.297 16.28 302.573 16.796C302.861 17.312 303.233 17.708 303.689 17.984C304.157 18.248 304.649 18.38 305.165 18.38C305.693 18.38 306.185 18.248 306.641 17.984C307.097 17.72 307.463 17.336 307.739 16.832C308.027 16.316 308.171 15.716 308.171 15.032ZM316.77 18.164L319.578 10.082H321.756L317.976 20H315.528L311.766 10.082H313.962L316.77 18.164ZM322.623 14.996C322.623 14 322.827 13.118 323.235 12.35C323.655 11.582 324.219 10.988 324.927 10.568C325.647 10.136 326.439 9.92 327.303 9.92C328.083 9.92 328.761 10.076 329.337 10.388C329.925 10.688 330.393 11.066 330.741 11.522V10.082H332.811V20H330.741V18.524C330.393 18.992 329.919 19.382 329.319 19.694C328.719 20.006 328.035 20.162 327.267 20.162C326.415 20.162 325.635 19.946 324.927 19.514C324.219 19.07 323.655 18.458 323.235 17.678C322.827 16.886 322.623 15.992 322.623 14.996ZM330.741 15.032C330.741 14.348 330.597 13.754 330.309 13.25C330.033 12.746 329.667 12.362 329.211 12.098C328.755 11.834 328.263 11.702 327.735 11.702C327.207 11.702 326.715 11.834 326.259 12.098C325.803 12.35 325.431 12.728 325.143 13.232C324.867 13.724 324.729 14.312 324.729 14.996C324.729 15.68 324.867 16.28 325.143 16.796C325.431 17.312 325.803 17.708 326.259 17.984C326.727 18.248 327.219 18.38 327.735 18.38C328.263 18.38 328.755 18.248 329.211 17.984C329.667 17.72 330.033 17.336 330.309 16.832C330.597 16.316 330.741 15.716 330.741 15.032ZM334.822 14.996C334.822 14 335.026 13.118 335.434 12.35C335.854 11.582 336.418 10.988 337.126 10.568C337.846 10.136 338.644 9.92 339.52 9.92C340.168 9.92 340.804 10.064 341.428 10.352C342.064 10.628 342.568 11 342.94 11.468V6.68H345.01V20H342.94V18.506C342.604 18.986 342.136 19.382 341.536 19.694C340.948 20.006 340.27 20.162 339.502 20.162C338.638 20.162 337.846 19.946 337.126 19.514C336.418 19.07 335.854 18.458 335.434 17.678C335.026 16.886 334.822 15.992 334.822 14.996ZM342.94 15.032C342.94 14.348 342.796 13.754 342.508 13.25C342.232 12.746 341.866 12.362 341.41 12.098C340.954 11.834 340.462 11.702 339.934 11.702C339.406 11.702 338.914 11.834 338.458 12.098C338.002 12.35 337.63 12.728 337.342 13.232C337.066 13.724 336.928 14.312 336.928 14.996C336.928 15.68 337.066 16.28 337.342 16.796C337.63 17.312 338.002 17.708 338.458 17.984C338.926 18.248 339.418 18.38 339.934 18.38C340.462 18.38 340.954 18.248 341.41 17.984C341.866 17.72 342.232 17.336 342.508 16.832C342.796 16.316 342.94 15.716 342.94 15.032ZM347.021 14.996C347.021 14 347.225 13.118 347.633 12.35C348.053 11.582 348.617 10.988 349.325 10.568C350.045 10.136 350.837 9.92 351.701 9.92C352.481 9.92 353.159 10.076 353.735 10.388C354.323 10.688 354.791 11.066 355.139 11.522V10.082H357.209V20H355.139V18.524C354.791 18.992 354.317 19.382 353.717 19.694C353.117 20.006 352.433 20.162 351.665 20.162C350.813 20.162 350.033 19.946 349.325 19.514C348.617 19.07 348.053 18.458 347.633 17.678C347.225 16.886 347.021 15.992 347.021 14.996ZM355.139 15.032C355.139 14.348 354.995 13.754 354.707 13.25C354.431 12.746 354.065 12.362 353.609 12.098C353.153 11.834 352.661 11.702 352.133 11.702C351.605 11.702 351.113 11.834 350.657 12.098C350.201 12.35 349.829 12.728 349.541 13.232C349.265 13.724 349.127 14.312 349.127 14.996C349.127 15.68 349.265 16.28 349.541 16.796C349.829 17.312 350.201 17.708 350.657 17.984C351.125 18.248 351.617 18.38 352.133 18.38C352.661 18.38 353.153 18.248 353.609 17.984C354.065 17.72 354.431 17.336 354.707 16.832C354.995 16.316 355.139 15.716 355.139 15.032ZM363.505 20.162C362.725 20.162 362.023 20.024 361.399 19.748C360.787 19.46 360.301 19.076 359.941 18.596C359.581 18.104 359.389 17.558 359.365 16.958H361.489C361.525 17.378 361.723 17.732 362.083 18.02C362.455 18.296 362.917 18.434 363.469 18.434C364.045 18.434 364.489 18.326 364.801 18.11C365.125 17.882 365.287 17.594 365.287 17.246C365.287 16.874 365.107 16.598 364.747 16.418C364.399 16.238 363.841 16.04 363.073 15.824C362.329 15.62 361.723 15.422 361.255 15.23C360.787 15.038 360.379 14.744 360.031 14.348C359.695 13.952 359.527 13.43 359.527 12.782C359.527 12.254 359.683 11.774 359.995 11.342C360.307 10.898 360.751 10.55 361.327 10.298C361.915 10.046 362.587 9.92 363.343 9.92C364.471 9.92 365.377 10.208 366.061 10.784C366.757 11.348 367.129 12.122 367.177 13.106H365.125C365.089 12.662 364.909 12.308 364.585 12.044C364.261 11.78 363.823 11.648 363.271 11.648C362.731 11.648 362.317 11.75 362.029 11.954C361.741 12.158 361.597 12.428 361.597 12.764C361.597 13.028 361.693 13.25 361.885 13.43C362.077 13.61 362.311 13.754 362.587 13.862C362.863 13.958 363.271 14.084 363.811 14.24C364.531 14.432 365.119 14.63 365.575 14.834C366.043 15.026 366.445 15.314 366.781 15.698C367.117 16.082 367.291 16.592 367.303 17.228C367.303 17.792 367.147 18.296 366.835 18.74C366.523 19.184 366.079 19.532 365.503 19.784C364.939 20.036 364.273 20.162 363.505 20.162ZM368.836 14.996C368.836 14 369.04 13.118 369.448 12.35C369.868 11.582 370.432 10.988 371.14 10.568C371.86 10.136 372.652 9.92 373.516 9.92C374.296 9.92 374.974 10.076 375.55 10.388C376.138 10.688 376.606 11.066 376.954 11.522V10.082H379.024V20H376.954V18.524C376.606 18.992 376.132 19.382 375.532 19.694C374.932 20.006 374.248 20.162 373.48 20.162C372.628 20.162 371.848 19.946 371.14 19.514C370.432 19.07 369.868 18.458 369.448 17.678C369.04 16.886 368.836 15.992 368.836 14.996ZM376.954 15.032C376.954 14.348 376.81 13.754 376.522 13.25C376.246 12.746 375.88 12.362 375.424 12.098C374.968 11.834 374.476 11.702 373.948 11.702C373.42 11.702 372.928 11.834 372.472 12.098C372.016 12.35 371.644 12.728 371.356 13.232C371.08 13.724 370.942 14.312 370.942 14.996C370.942 15.68 371.08 16.28 371.356 16.796C371.644 17.312 372.016 17.708 372.472 17.984C372.94 18.248 373.432 18.38 373.948 18.38C374.476 18.38 374.968 18.248 375.424 17.984C375.88 17.72 376.246 17.336 376.522 16.832C376.81 16.316 376.954 15.716 376.954 15.032ZM383.771 11.54C384.119 11.084 384.593 10.7 385.193 10.388C385.793 10.076 386.471 9.92 387.227 9.92C388.091 9.92 388.877 10.136 389.585 10.568C390.305 10.988 390.869 11.582 391.277 12.35C391.685 13.118 391.889 14 391.889 14.996C391.889 15.992 391.685 16.886 391.277 17.678C390.869 18.458 390.305 19.07 389.585 19.514C388.877 19.946 388.091 20.162 387.227 20.162C386.471 20.162 385.799 20.012 385.211 19.712C384.623 19.4 384.143 19.016 383.771 18.56V24.716H381.719V10.082H383.771V11.54ZM389.801 14.996C389.801 14.312 389.657 13.724 389.369 13.232C389.093 12.728 388.721 12.35 388.253 12.098C387.797 11.834 387.305 11.702 386.777 11.702C386.261 11.702 385.769 11.834 385.301 12.098C384.845 12.362 384.473 12.746 384.185 13.25C383.909 13.754 383.771 14.348 383.771 15.032C383.771 15.716 383.909 16.316 384.185 16.832C384.473 17.336 384.845 17.72 385.301 17.984C385.769 18.248 386.261 18.38 386.777 18.38C387.305 18.38 387.797 18.248 388.253 17.984C388.721 17.708 389.093 17.312 389.369 16.796C389.657 16.28 389.801 15.68 389.801 14.996ZM402.9 10.082V20H400.848V18.83C400.524 19.238 400.098 19.562 399.57 19.802C399.054 20.03 398.502 20.144 397.914 20.144C397.134 20.144 396.432 19.982 395.808 19.658C395.196 19.334 394.71 18.854 394.35 18.218C394.002 17.582 393.828 16.814 393.828 15.914V10.082H395.862V15.608C395.862 16.496 396.084 17.18 396.528 17.66C396.972 18.128 397.578 18.362 398.346 18.362C399.114 18.362 399.72 18.128 400.164 17.66C400.62 17.18 400.848 16.496 400.848 15.608V10.082H402.9ZM407.66 11.522C407.96 11.018 408.356 10.628 408.848 10.352C409.352 10.064 409.946 9.92 410.63 9.92V12.044H410.108C409.304 12.044 408.692 12.248 408.272 12.656C407.864 13.064 407.66 13.772 407.66 14.78V20H405.608V10.082H407.66V11.522ZM411.832 14.996C411.832 14 412.036 13.118 412.444 12.35C412.864 11.582 413.428 10.988 414.136 10.568C414.856 10.136 415.648 9.92 416.512 9.92C417.292 9.92 417.97 10.076 418.546 10.388C419.134 10.688 419.602 11.066 419.95 11.522V10.082H422.02V20H419.95V18.524C419.602 18.992 419.128 19.382 418.528 19.694C417.928 20.006 417.244 20.162 416.476 20.162C415.624 20.162 414.844 19.946 414.136 19.514C413.428 19.07 412.864 18.458 412.444 17.678C412.036 16.886 411.832 15.992 411.832 14.996ZM419.95 15.032C419.95 14.348 419.806 13.754 419.518 13.25C419.242 12.746 418.876 12.362 418.42 12.098C417.964 11.834 417.472 11.702 416.944 11.702C416.416 11.702 415.924 11.834 415.468 12.098C415.012 12.35 414.64 12.728 414.352 13.232C414.076 13.724 413.938 14.312 413.938 14.996C413.938 15.68 414.076 16.28 414.352 16.796C414.64 17.312 415.012 17.708 415.468 17.984C415.936 18.248 416.428 18.38 416.944 18.38C417.472 18.38 417.964 18.248 418.42 17.984C418.876 17.72 419.242 17.336 419.518 16.832C419.806 16.316 419.95 15.716 419.95 15.032ZM436.721 9.92C437.501 9.92 438.197 10.082 438.809 10.406C439.433 10.73 439.919 11.21 440.267 11.846C440.627 12.482 440.807 13.25 440.807 14.15V20H438.773V14.456C438.773 13.568 438.551 12.89 438.107 12.422C437.663 11.942 437.057 11.702 436.289 11.702C435.521 11.702 434.909 11.942 434.453 12.422C434.009 12.89 433.787 13.568 433.787 14.456V20H431.753V14.456C431.753 13.568 431.531 12.89 431.087 12.422C430.643 11.942 430.037 11.702 429.269 11.702C428.501 11.702 427.889 11.942 427.433 12.422C426.989 12.89 426.767 13.568 426.767 14.456V20H424.715V10.082H426.767V11.216C427.103 10.808 427.529 10.49 428.045 10.262C428.561 10.034 429.113 9.92 429.701 9.92C430.493 9.92 431.201 10.088 431.825 10.424C432.449 10.76 432.929 11.246 433.265 11.882C433.565 11.282 434.033 10.808 434.669 10.46C435.305 10.1 435.989 9.92 436.721 9.92ZM445.668 17.534L443.49 22.502H442.158L443.436 17.534H445.668ZM83.432 34.49V36.164H80.102V47H78.05V36.164H74.702V34.49H83.432ZM90.6402 36.92C91.3962 36.92 92.0682 37.082 92.6562 37.406C93.2562 37.73 93.7242 38.21 94.0602 38.846C94.4082 39.482 94.5822 40.25 94.5822 41.15V47H92.5482V41.456C92.5482 40.568 92.3262 39.89 91.8822 39.422C91.4382 38.942 90.8322 38.702 90.0642 38.702C89.2962 38.702 88.6842 38.942 88.2282 39.422C87.7842 39.89 87.5622 40.568 87.5622 41.456V47H85.5102V33.68H87.5622V38.234C87.9102 37.814 88.3482 37.49 88.8762 37.262C89.4162 37.034 90.0042 36.92 90.6402 36.92ZM98.2436 35.768C97.8716 35.768 97.5596 35.642 97.3076 35.39C97.0556 35.138 96.9296 34.826 96.9296 34.454C96.9296 34.082 97.0556 33.77 97.3076 33.518C97.5596 33.266 97.8716 33.14 98.2436 33.14C98.6036 33.14 98.9096 33.266 99.1616 33.518C99.4136 33.77 99.5396 34.082 99.5396 34.454C99.5396 34.826 99.4136 35.138 99.1616 35.39C98.9096 35.642 98.6036 35.768 98.2436 35.768ZM99.2516 37.082V47H97.1996V37.082H99.2516ZM103.998 38.522C104.298 38.018 104.694 37.628 105.186 37.352C105.69 37.064 106.284 36.92 106.968 36.92V39.044H106.446C105.642 39.044 105.03 39.248 104.61 39.656C104.202 40.064 103.998 40.772 103.998 41.78V47H101.946V37.082H103.998V38.522ZM117.836 37.082V47H115.784V45.83C115.46 46.238 115.034 46.562 114.506 46.802C113.99 47.03 113.438 47.144 112.85 47.144C112.07 47.144 111.368 46.982 110.744 46.658C110.132 46.334 109.646 45.854 109.286 45.218C108.938 44.582 108.764 43.814 108.764 42.914V37.082H110.798V42.608C110.798 43.496 111.02 44.18 111.464 44.66C111.908 45.128 112.514 45.362 113.282 45.362C114.05 45.362 114.656 45.128 115.1 44.66C115.556 44.18 115.784 43.496 115.784 42.608V37.082H117.836ZM124.377 45.164L127.185 37.082H129.363L125.583 47H123.135L119.373 37.082H121.569L124.377 45.164ZM130.23 41.996C130.23 41 130.434 40.118 130.842 39.35C131.262 38.582 131.826 37.988 132.534 37.568C133.254 37.136 134.046 36.92 134.91 36.92C135.69 36.92 136.368 37.076 136.944 37.388C137.532 37.688 138 38.066 138.348 38.522V37.082H140.418V47H138.348V45.524C138 45.992 137.526 46.382 136.926 46.694C136.326 47.006 135.642 47.162 134.874 47.162C134.022 47.162 133.242 46.946 132.534 46.514C131.826 46.07 131.262 45.458 130.842 44.678C130.434 43.886 130.23 42.992 130.23 41.996ZM138.348 42.032C138.348 41.348 138.204 40.754 137.916 40.25C137.64 39.746 137.274 39.362 136.818 39.098C136.362 38.834 135.87 38.702 135.342 38.702C134.814 38.702 134.322 38.834 133.866 39.098C133.41 39.35 133.038 39.728 132.75 40.232C132.474 40.724 132.336 41.312 132.336 41.996C132.336 42.68 132.474 43.28 132.75 43.796C133.038 44.312 133.41 44.708 133.866 44.984C134.334 45.248 134.826 45.38 135.342 45.38C135.87 45.38 136.362 45.248 136.818 44.984C137.274 44.72 137.64 44.336 137.916 43.832C138.204 43.316 138.348 42.716 138.348 42.032ZM148.118 36.92C148.898 36.92 149.594 37.082 150.206 37.406C150.83 37.73 151.316 38.21 151.664 38.846C152.012 39.482 152.186 40.25 152.186 41.15V47H150.152V41.456C150.152 40.568 149.93 39.89 149.486 39.422C149.042 38.942 148.436 38.702 147.668 38.702C146.9 38.702 146.288 38.942 145.832 39.422C145.388 39.89 145.166 40.568 145.166 41.456V47H143.114V37.082H145.166V38.216C145.502 37.808 145.928 37.49 146.444 37.262C146.972 37.034 147.53 36.92 148.118 36.92ZM154.119 41.996C154.119 41 154.323 40.118 154.731 39.35C155.151 38.582 155.715 37.988 156.423 37.568C157.143 37.136 157.935 36.92 158.799 36.92C159.579 36.92 160.257 37.076 160.833 37.388C161.421 37.688 161.889 38.066 162.237 38.522V37.082H164.307V47H162.237V45.524C161.889 45.992 161.415 46.382 160.815 46.694C160.215 47.006 159.531 47.162 158.763 47.162C157.911 47.162 157.131 46.946 156.423 46.514C155.715 46.07 155.151 45.458 154.731 44.678C154.323 43.886 154.119 42.992 154.119 41.996ZM162.237 42.032C162.237 41.348 162.093 40.754 161.805 40.25C161.529 39.746 161.163 39.362 160.707 39.098C160.251 38.834 159.759 38.702 159.231 38.702C158.703 38.702 158.211 38.834 157.755 39.098C157.299 39.35 156.927 39.728 156.639 40.232C156.363 40.724 156.225 41.312 156.225 41.996C156.225 42.68 156.363 43.28 156.639 43.796C156.927 44.312 157.299 44.708 157.755 44.984C158.223 45.248 158.715 45.38 159.231 45.38C159.759 45.38 160.251 45.248 160.707 44.984C161.163 44.72 161.529 44.336 161.805 43.832C162.093 43.316 162.237 42.716 162.237 42.032ZM172.006 36.92C172.786 36.92 173.482 37.082 174.094 37.406C174.718 37.73 175.204 38.21 175.552 38.846C175.9 39.482 176.074 40.25 176.074 41.15V47H174.04V41.456C174.04 40.568 173.818 39.89 173.374 39.422C172.93 38.942 172.324 38.702 171.556 38.702C170.788 38.702 170.176 38.942 169.72 39.422C169.276 39.89 169.054 40.568 169.054 41.456V47H167.002V37.082H169.054V38.216C169.39 37.808 169.816 37.49 170.332 37.262C170.86 37.034 171.418 36.92 172.006 36.92ZM181.086 38.756V44.246C181.086 44.618 181.17 44.888 181.338 45.056C181.518 45.212 181.818 45.29 182.238 45.29H183.498V47H181.878C180.954 47 180.246 46.784 179.754 46.352C179.262 45.92 179.016 45.218 179.016 44.246V38.756H177.846V37.082H179.016V34.616H181.086V37.082H183.498V38.756H181.086ZM190.519 36.92C191.275 36.92 191.947 37.082 192.535 37.406C193.135 37.73 193.603 38.21 193.939 38.846C194.287 39.482 194.461 40.25 194.461 41.15V47H192.427V41.456C192.427 40.568 192.205 39.89 191.761 39.422C191.317 38.942 190.711 38.702 189.943 38.702C189.175 38.702 188.563 38.942 188.107 39.422C187.663 39.89 187.441 40.568 187.441 41.456V47H185.389V33.68H187.441V38.234C187.789 37.814 188.227 37.49 188.755 37.262C189.295 37.034 189.883 36.92 190.519 36.92ZM196.395 41.996C196.395 41 196.599 40.118 197.007 39.35C197.427 38.582 197.991 37.988 198.699 37.568C199.419 37.136 200.211 36.92 201.075 36.92C201.855 36.92 202.533 37.076 203.109 37.388C203.697 37.688 204.165 38.066 204.513 38.522V37.082H206.583V47H204.513V45.524C204.165 45.992 203.691 46.382 203.091 46.694C202.491 47.006 201.807 47.162 201.039 47.162C200.187 47.162 199.407 46.946 198.699 46.514C197.991 46.07 197.427 45.458 197.007 44.678C196.599 43.886 196.395 42.992 196.395 41.996ZM204.513 42.032C204.513 41.348 204.369 40.754 204.081 40.25C203.805 39.746 203.439 39.362 202.983 39.098C202.527 38.834 202.035 38.702 201.507 38.702C200.979 38.702 200.487 38.834 200.031 39.098C199.575 39.35 199.203 39.728 198.915 40.232C198.639 40.724 198.501 41.312 198.501 41.996C198.501 42.68 198.639 43.28 198.915 43.796C199.203 44.312 199.575 44.708 200.031 44.984C200.499 45.248 200.991 45.38 201.507 45.38C202.035 45.38 202.527 45.248 202.983 44.984C203.439 44.72 203.805 44.336 204.081 43.832C204.369 43.316 204.513 42.716 204.513 42.032ZM211.33 38.54C211.678 38.084 212.152 37.7 212.752 37.388C213.352 37.076 214.03 36.92 214.786 36.92C215.65 36.92 216.436 37.136 217.144 37.568C217.864 37.988 218.428 38.582 218.836 39.35C219.244 40.118 219.448 41 219.448 41.996C219.448 42.992 219.244 43.886 218.836 44.678C218.428 45.458 217.864 46.07 217.144 46.514C216.436 46.946 215.65 47.162 214.786 47.162C214.03 47.162 213.358 47.012 212.77 46.712C212.182 46.4 211.702 46.016 211.33 45.56V51.716H209.278V37.082H211.33V38.54ZM217.36 41.996C217.36 41.312 217.216 40.724 216.928 40.232C216.652 39.728 216.28 39.35 215.812 39.098C215.356 38.834 214.864 38.702 214.336 38.702C213.82 38.702 213.328 38.834 212.86 39.098C212.404 39.362 212.032 39.746 211.744 40.25C211.468 40.754 211.33 41.348 211.33 42.032C211.33 42.716 211.468 43.316 211.744 43.832C212.032 44.336 212.404 44.72 212.86 44.984C213.328 45.248 213.82 45.38 214.336 45.38C214.864 45.38 215.356 45.248 215.812 44.984C216.28 44.708 216.652 44.312 216.928 43.796C217.216 43.28 217.36 42.68 217.36 41.996ZM230.459 37.082V47H228.407V45.83C228.083 46.238 227.657 46.562 227.129 46.802C226.613 47.03 226.061 47.144 225.473 47.144C224.693 47.144 223.991 46.982 223.367 46.658C222.755 46.334 222.269 45.854 221.909 45.218C221.561 44.582 221.387 43.814 221.387 42.914V37.082H223.421V42.608C223.421 43.496 223.643 44.18 224.087 44.66C224.531 45.128 225.137 45.362 225.905 45.362C226.673 45.362 227.279 45.128 227.723 44.66C228.179 44.18 228.407 43.496 228.407 42.608V37.082H230.459ZM235.218 38.522C235.518 38.018 235.914 37.628 236.406 37.352C236.91 37.064 237.504 36.92 238.188 36.92V39.044H237.666C236.862 39.044 236.25 39.248 235.83 39.656C235.422 40.064 235.218 40.772 235.218 41.78V47H233.166V37.082H235.218V38.522ZM239.391 41.996C239.391 41 239.595 40.118 240.003 39.35C240.423 38.582 240.987 37.988 241.695 37.568C242.415 37.136 243.207 36.92 244.071 36.92C244.851 36.92 245.529 37.076 246.105 37.388C246.693 37.688 247.161 38.066 247.509 38.522V37.082H249.579V47H247.509V45.524C247.161 45.992 246.687 46.382 246.087 46.694C245.487 47.006 244.803 47.162 244.035 47.162C243.183 47.162 242.403 46.946 241.695 46.514C240.987 46.07 240.423 45.458 240.003 44.678C239.595 43.886 239.391 42.992 239.391 41.996ZM247.509 42.032C247.509 41.348 247.365 40.754 247.077 40.25C246.801 39.746 246.435 39.362 245.979 39.098C245.523 38.834 245.031 38.702 244.503 38.702C243.975 38.702 243.483 38.834 243.027 39.098C242.571 39.35 242.199 39.728 241.911 40.232C241.635 40.724 241.497 41.312 241.497 41.996C241.497 42.68 241.635 43.28 241.911 43.796C242.199 44.312 242.571 44.708 243.027 44.984C243.495 45.248 243.987 45.38 244.503 45.38C245.031 45.38 245.523 45.248 245.979 44.984C246.435 44.72 246.801 44.336 247.077 43.832C247.365 43.316 247.509 42.716 247.509 42.032ZM264.28 36.92C265.06 36.92 265.756 37.082 266.368 37.406C266.992 37.73 267.478 38.21 267.826 38.846C268.186 39.482 268.366 40.25 268.366 41.15V47H266.332V41.456C266.332 40.568 266.11 39.89 265.666 39.422C265.222 38.942 264.616 38.702 263.848 38.702C263.08 38.702 262.468 38.942 262.012 39.422C261.568 39.89 261.346 40.568 261.346 41.456V47H259.312V41.456C259.312 40.568 259.09 39.89 258.646 39.422C258.202 38.942 257.596 38.702 256.828 38.702C256.06 38.702 255.448 38.942 254.992 39.422C254.548 39.89 254.326 40.568 254.326 41.456V47H252.274V37.082H254.326V38.216C254.662 37.808 255.088 37.49 255.604 37.262C256.12 37.034 256.672 36.92 257.26 36.92C258.052 36.92 258.76 37.088 259.384 37.424C260.008 37.76 260.488 38.246 260.824 38.882C261.124 38.282 261.592 37.808 262.228 37.46C262.864 37.1 263.548 36.92 264.28 36.92ZM273.227 44.534L271.049 49.502H269.717L270.995 44.534H273.227ZM286.59 47L281.748 41.402V47H279.696V34.49H281.748V40.196L286.608 34.49H289.182L283.746 40.754L289.272 47H286.59ZM300.176 41.798C300.176 42.17 300.152 42.506 300.104 42.806H292.526C292.586 43.598 292.88 44.234 293.408 44.714C293.936 45.194 294.584 45.434 295.352 45.434C296.456 45.434 297.236 44.972 297.692 44.048H299.906C299.606 44.96 299.06 45.71 298.268 46.298C297.488 46.874 296.516 47.162 295.352 47.162C294.404 47.162 293.552 46.952 292.796 46.532C292.052 46.1 291.464 45.5 291.032 44.732C290.612 43.952 290.402 43.052 290.402 42.032C290.402 41.012 290.606 40.118 291.014 39.35C291.434 38.57 292.016 37.97 292.76 37.55C293.516 37.13 294.38 36.92 295.352 36.92C296.288 36.92 297.122 37.124 297.854 37.532C298.586 37.94 299.156 38.516 299.564 39.26C299.972 39.992 300.176 40.838 300.176 41.798ZM298.034 41.15C298.022 40.394 297.752 39.788 297.224 39.332C296.696 38.876 296.042 38.648 295.262 38.648C294.554 38.648 293.948 38.876 293.444 39.332C292.94 39.776 292.64 40.382 292.544 41.15H298.034ZM304.248 38.522C304.548 38.018 304.944 37.628 305.436 37.352C305.94 37.064 306.534 36.92 307.218 36.92V39.044H306.696C305.892 39.044 305.28 39.248 304.86 39.656C304.452 40.064 304.248 40.772 304.248 41.78V47H302.196V37.082H304.248V38.522ZM308.42 41.996C308.42 41 308.624 40.118 309.032 39.35C309.452 38.582 310.016 37.988 310.724 37.568C311.444 37.136 312.236 36.92 313.1 36.92C313.88 36.92 314.558 37.076 315.134 37.388C315.722 37.688 316.19 38.066 316.538 38.522V37.082H318.608V47H316.538V45.524C316.19 45.992 315.716 46.382 315.116 46.694C314.516 47.006 313.832 47.162 313.064 47.162C312.212 47.162 311.432 46.946 310.724 46.514C310.016 46.07 309.452 45.458 309.032 44.678C308.624 43.886 308.42 42.992 308.42 41.996ZM316.538 42.032C316.538 41.348 316.394 40.754 316.106 40.25C315.83 39.746 315.464 39.362 315.008 39.098C314.552 38.834 314.06 38.702 313.532 38.702C313.004 38.702 312.512 38.834 312.056 39.098C311.6 39.35 311.228 39.728 310.94 40.232C310.664 40.724 310.526 41.312 310.526 41.996C310.526 42.68 310.664 43.28 310.94 43.796C311.228 44.312 311.6 44.708 312.056 44.984C312.524 45.248 313.016 45.38 313.532 45.38C314.06 45.38 314.552 45.248 315.008 44.984C315.464 44.72 315.83 44.336 316.106 43.832C316.394 43.316 316.538 42.716 316.538 42.032ZM323.355 33.68V47H321.303V33.68H323.355ZM325.365 41.996C325.365 41 325.569 40.118 325.977 39.35C326.397 38.582 326.961 37.988 327.669 37.568C328.389 37.136 329.181 36.92 330.045 36.92C330.825 36.92 331.503 37.076 332.079 37.388C332.667 37.688 333.135 38.066 333.483 38.522V37.082H335.553V47H333.483V45.524C333.135 45.992 332.661 46.382 332.061 46.694C331.461 47.006 330.777 47.162 330.009 47.162C329.157 47.162 328.377 46.946 327.669 46.514C326.961 46.07 326.397 45.458 325.977 44.678C325.569 43.886 325.365 42.992 325.365 41.996ZM333.483 42.032C333.483 41.348 333.339 40.754 333.051 40.25C332.775 39.746 332.409 39.362 331.953 39.098C331.497 38.834 331.005 38.702 330.477 38.702C329.949 38.702 329.457 38.834 329.001 39.098C328.545 39.35 328.173 39.728 327.885 40.232C327.609 40.724 327.471 41.312 327.471 41.996C327.471 42.68 327.609 43.28 327.885 43.796C328.173 44.312 328.545 44.708 329.001 44.984C329.469 45.248 329.961 45.38 330.477 45.38C331.005 45.38 331.497 45.248 331.953 44.984C332.409 44.72 332.775 44.336 333.051 43.832C333.339 43.316 333.483 42.716 333.483 42.032ZM349.71 36.92C349.578 36.368 349.338 35.954 348.99 35.678C348.642 35.402 348.156 35.264 347.532 35.264C346.584 35.264 345.876 35.63 345.408 36.362C344.94 37.082 344.694 38.282 344.67 39.962C344.982 39.434 345.438 39.026 346.038 38.738C346.638 38.45 347.286 38.306 347.982 38.306C348.774 38.306 349.47 38.48 350.07 38.828C350.682 39.164 351.156 39.656 351.492 40.304C351.84 40.952 352.014 41.726 352.014 42.626C352.014 43.466 351.846 44.216 351.51 44.876C351.186 45.536 350.7 46.058 350.052 46.442C349.404 46.814 348.624 47 347.712 47C346.476 47 345.504 46.73 344.796 46.19C344.1 45.638 343.608 44.864 343.32 43.868C343.044 42.872 342.906 41.63 342.906 40.142C342.906 35.75 344.454 33.554 347.55 33.554C348.75 33.554 349.692 33.878 350.376 34.526C351.072 35.174 351.48 35.972 351.6 36.92H349.71ZM347.532 40.034C346.8 40.034 346.176 40.256 345.66 40.7C345.156 41.132 344.904 41.762 344.904 42.59C344.904 43.418 345.138 44.078 345.606 44.57C346.086 45.05 346.752 45.29 347.604 45.29C348.36 45.29 348.954 45.056 349.386 44.588C349.83 44.12 350.052 43.496 350.052 42.716C350.052 41.9 349.836 41.252 349.404 40.772C348.984 40.28 348.36 40.034 347.532 40.034ZM356.759 43.436C356.879 44.036 357.137 44.492 357.533 44.804C357.929 45.116 358.463 45.272 359.135 45.272C359.987 45.272 360.611 44.936 361.007 44.264C361.403 43.592 361.601 42.446 361.601 40.826C361.313 41.234 360.905 41.552 360.377 41.78C359.861 41.996 359.297 42.104 358.685 42.104C357.905 42.104 357.197 41.948 356.561 41.636C355.925 41.312 355.421 40.838 355.049 40.214C354.689 39.578 354.509 38.81 354.509 37.91C354.509 36.59 354.893 35.54 355.661 34.76C356.441 33.968 357.509 33.572 358.865 33.572C360.497 33.572 361.655 34.118 362.339 35.21C363.035 36.29 363.383 37.952 363.383 40.196C363.383 41.744 363.251 43.01 362.987 43.994C362.735 44.978 362.291 45.722 361.655 46.226C361.019 46.73 360.137 46.982 359.009 46.982C357.725 46.982 356.735 46.646 356.039 45.974C355.343 45.302 354.953 44.456 354.869 43.436H356.759ZM359.045 40.376C359.765 40.376 360.329 40.154 360.737 39.71C361.157 39.254 361.367 38.654 361.367 37.91C361.367 37.082 361.145 36.44 360.701 35.984C360.269 35.516 359.675 35.282 358.919 35.282C358.163 35.282 357.563 35.522 357.119 36.002C356.687 36.47 356.471 37.088 356.471 37.856C356.471 38.588 356.681 39.194 357.101 39.674C357.533 40.142 358.181 40.376 359.045 40.376ZM374.089 35.642H368.059V39.224C368.311 38.888 368.683 38.606 369.175 38.378C369.679 38.15 370.213 38.036 370.777 38.036C371.785 38.036 372.601 38.252 373.225 38.684C373.861 39.116 374.311 39.662 374.575 40.322C374.851 40.982 374.989 41.678 374.989 42.41C374.989 43.298 374.815 44.09 374.467 44.786C374.131 45.47 373.621 46.01 372.937 46.406C372.265 46.802 371.437 47 370.453 47C369.145 47 368.095 46.676 367.303 46.028C366.511 45.38 366.037 44.522 365.881 43.454H367.879C368.011 44.018 368.305 44.468 368.761 44.804C369.217 45.128 369.787 45.29 370.471 45.29C371.323 45.29 371.959 45.032 372.379 44.516C372.811 44 373.027 43.316 373.027 42.464C373.027 41.6 372.811 40.94 372.379 40.484C371.947 40.016 371.311 39.782 370.471 39.782C369.883 39.782 369.385 39.932 368.977 40.232C368.581 40.52 368.293 40.916 368.113 41.42H366.169V33.842H374.089V35.642ZM377.125 40.268C377.125 38.192 377.473 36.572 378.169 35.408C378.877 34.232 380.089 33.644 381.805 33.644C383.521 33.644 384.727 34.232 385.423 35.408C386.131 36.572 386.485 38.192 386.485 40.268C386.485 42.368 386.131 44.012 385.423 45.2C384.727 46.376 383.521 46.964 381.805 46.964C380.089 46.964 378.877 46.376 378.169 45.2C377.473 44.012 377.125 42.368 377.125 40.268ZM384.469 40.268C384.469 39.296 384.403 38.474 384.271 37.802C384.151 37.13 383.899 36.584 383.515 36.164C383.131 35.732 382.561 35.516 381.805 35.516C381.049 35.516 380.479 35.732 380.095 36.164C379.711 36.584 379.453 37.13 379.321 37.802C379.201 38.474 379.141 39.296 379.141 40.268C379.141 41.276 379.201 42.122 379.321 42.806C379.441 43.49 379.693 44.042 380.077 44.462C380.473 44.882 381.049 45.092 381.805 45.092C382.561 45.092 383.131 44.882 383.515 44.462C383.911 44.042 384.169 43.49 384.289 42.806C384.409 42.122 384.469 41.276 384.469 40.268ZM388.656 40.268C388.656 38.192 389.004 36.572 389.7 35.408C390.408 34.232 391.62 33.644 393.336 33.644C395.052 33.644 396.258 34.232 396.954 35.408C397.662 36.572 398.016 38.192 398.016 40.268C398.016 42.368 397.662 44.012 396.954 45.2C396.258 46.376 395.052 46.964 393.336 46.964C391.62 46.964 390.408 46.376 389.7 45.2C389.004 44.012 388.656 42.368 388.656 40.268ZM396 40.268C396 39.296 395.934 38.474 395.802 37.802C395.682 37.13 395.43 36.584 395.046 36.164C394.662 35.732 394.092 35.516 393.336 35.516C392.58 35.516 392.01 35.732 391.626 36.164C391.242 36.584 390.984 37.13 390.852 37.802C390.732 38.474 390.672 39.296 390.672 40.268C390.672 41.276 390.732 42.122 390.852 42.806C390.972 43.49 391.224 44.042 391.608 44.462C392.004 44.882 392.58 45.092 393.336 45.092C394.092 45.092 394.662 44.882 395.046 44.462C395.442 44.042 395.7 43.49 395.82 42.806C395.94 42.122 396 41.276 396 40.268ZM399.935 44.264V42.716L405.983 34.04H408.467V42.482H410.141V44.264H408.467V47H406.451V44.264H399.935ZM406.541 36.128L402.293 42.482H406.541V36.128Z" fill="black" fill-opacity="0.75"/>
</svg>
