<svg width="239" height="50" viewBox="0 0 239 50" fill="none" xmlns="http://www.w3.org/2000/svg">
<circle cx="25" cy="25" r="25" fill="#00CED1"/>
<path d="M15 21.5C15 18 17 16.5 20 16.5H30C33 16.5 35 18 35 21.5V28.5C35 32 33 33.5 30 33.5H20" stroke="white" stroke-width="1.5" stroke-miterlimit="10" stroke-linecap="round" stroke-linejoin="round"/>
<path d="M30 22L26.87 24.5C25.84 25.32 24.15 25.32 23.12 24.5L20 22" stroke="white" stroke-width="1.5" stroke-miterlimit="10" stroke-linecap="round" stroke-linejoin="round"/>
<path d="M15 29.5H21" stroke="white" stroke-width="1.5" stroke-miterlimit="10" stroke-linecap="round" stroke-linejoin="round"/>
<path d="M15 25.5H18" stroke="white" stroke-width="1.5" stroke-miterlimit="10" stroke-linecap="round" stroke-linejoin="round"/>
<path d="M74.666 26.032C74.666 25.012 74.87 24.118 75.278 23.35C75.698 22.57 76.274 21.97 77.006 21.55C77.738 21.13 78.578 20.92 79.526 20.92C80.726 20.92 81.716 21.208 82.496 21.784C83.288 22.348 83.822 23.158 84.098 24.214H81.884C81.704 23.722 81.416 23.338 81.02 23.062C80.624 22.786 80.126 22.648 79.526 22.648C78.686 22.648 78.014 22.948 77.51 23.548C77.018 24.136 76.772 24.964 76.772 26.032C76.772 27.1 77.018 27.934 77.51 28.534C78.014 29.134 78.686 29.434 79.526 29.434C80.714 29.434 81.5 28.912 81.884 27.868H84.098C83.81 28.876 83.27 29.68 82.478 30.28C81.686 30.868 80.702 31.162 79.526 31.162C78.578 31.162 77.738 30.952 77.006 30.532C76.274 30.1 75.698 29.5 75.278 28.732C74.87 27.952 74.666 27.052 74.666 26.032ZM90.445 31.162C89.509 31.162 88.663 30.952 87.907 30.532C87.151 30.1 86.557 29.5 86.125 28.732C85.693 27.952 85.477 27.052 85.477 26.032C85.477 25.024 85.699 24.13 86.143 23.35C86.587 22.57 87.193 21.97 87.961 21.55C88.729 21.13 89.587 20.92 90.535 20.92C91.483 20.92 92.341 21.13 93.109 21.55C93.877 21.97 94.483 22.57 94.927 23.35C95.371 24.13 95.593 25.024 95.593 26.032C95.593 27.04 95.365 27.934 94.909 28.714C94.453 29.494 93.829 30.1 93.037 30.532C92.257 30.952 91.393 31.162 90.445 31.162ZM90.445 29.38C90.973 29.38 91.465 29.254 91.921 29.002C92.389 28.75 92.767 28.372 93.055 27.868C93.343 27.364 93.487 26.752 93.487 26.032C93.487 25.312 93.349 24.706 93.073 24.214C92.797 23.71 92.431 23.332 91.975 23.08C91.519 22.828 91.027 22.702 90.499 22.702C89.971 22.702 89.479 22.828 89.023 23.08C88.579 23.332 88.225 23.71 87.961 24.214C87.697 24.706 87.565 25.312 87.565 26.032C87.565 27.1 87.835 27.928 88.375 28.516C88.927 29.092 89.617 29.38 90.445 29.38ZM102.625 20.92C103.405 20.92 104.101 21.082 104.713 21.406C105.337 21.73 105.823 22.21 106.171 22.846C106.519 23.482 106.693 24.25 106.693 25.15V31H104.659V25.456C104.659 24.568 104.437 23.89 103.993 23.422C103.549 22.942 102.943 22.702 102.175 22.702C101.407 22.702 100.795 22.942 100.339 23.422C99.8955 23.89 99.6735 24.568 99.6735 25.456V31H97.6215V21.082H99.6735V22.216C100.009 21.808 100.435 21.49 100.951 21.262C101.479 21.034 102.037 20.92 102.625 20.92ZM111.705 22.756V28.246C111.705 28.618 111.789 28.888 111.957 29.056C112.137 29.212 112.437 29.29 112.857 29.29H114.117V31H112.497C111.573 31 110.865 30.784 110.373 30.352C109.881 29.92 109.635 29.218 109.635 28.246V22.756H108.465V21.082H109.635V18.616H111.705V21.082H114.117V22.756H111.705ZM115.324 25.996C115.324 25 115.528 24.118 115.936 23.35C116.356 22.582 116.92 21.988 117.628 21.568C118.348 21.136 119.14 20.92 120.004 20.92C120.784 20.92 121.462 21.076 122.038 21.388C122.626 21.688 123.094 22.066 123.442 22.522V21.082H125.512V31H123.442V29.524C123.094 29.992 122.62 30.382 122.02 30.694C121.42 31.006 120.736 31.162 119.968 31.162C119.116 31.162 118.336 30.946 117.628 30.514C116.92 30.07 116.356 29.458 115.936 28.678C115.528 27.886 115.324 26.992 115.324 25.996ZM123.442 26.032C123.442 25.348 123.298 24.754 123.01 24.25C122.734 23.746 122.368 23.362 121.912 23.098C121.456 22.834 120.964 22.702 120.436 22.702C119.908 22.702 119.416 22.834 118.96 23.098C118.504 23.35 118.132 23.728 117.844 24.232C117.568 24.724 117.43 25.312 117.43 25.996C117.43 26.68 117.568 27.28 117.844 27.796C118.132 28.312 118.504 28.708 118.96 28.984C119.428 29.248 119.92 29.38 120.436 29.38C120.964 29.38 121.456 29.248 121.912 28.984C122.368 28.72 122.734 28.336 123.01 27.832C123.298 27.316 123.442 26.716 123.442 26.032ZM127.523 26.032C127.523 25.012 127.727 24.118 128.135 23.35C128.555 22.57 129.131 21.97 129.863 21.55C130.595 21.13 131.435 20.92 132.383 20.92C133.583 20.92 134.573 21.208 135.353 21.784C136.145 22.348 136.679 23.158 136.955 24.214H134.741C134.561 23.722 134.273 23.338 133.877 23.062C133.481 22.786 132.983 22.648 132.383 22.648C131.543 22.648 130.871 22.948 130.367 23.548C129.875 24.136 129.629 24.964 129.629 26.032C129.629 27.1 129.875 27.934 130.367 28.534C130.871 29.134 131.543 29.434 132.383 29.434C133.571 29.434 134.357 28.912 134.741 27.868H136.955C136.667 28.876 136.127 29.68 135.335 30.28C134.543 30.868 133.559 31.162 132.383 31.162C131.435 31.162 130.595 30.952 129.863 30.532C129.131 30.1 128.555 29.5 128.135 28.732C127.727 27.952 127.523 27.052 127.523 26.032ZM141.394 22.756V28.246C141.394 28.618 141.478 28.888 141.646 29.056C141.826 29.212 142.126 29.29 142.546 29.29H143.806V31H142.186C141.262 31 140.554 30.784 140.062 30.352C139.57 29.92 139.324 29.218 139.324 28.246V22.756H138.154V21.082H139.324V18.616H141.394V21.082H143.806V22.756H141.394ZM154.932 19.372C156.3 19.372 157.482 19.624 158.478 20.128C159.474 20.632 160.23 21.34 160.746 22.252C161.274 23.152 161.538 24.202 161.538 25.402C161.538 26.362 161.37 27.28 161.034 28.156C160.71 29.032 160.236 29.746 159.612 30.298C159 30.85 158.274 31.126 157.434 31.126C156.822 31.126 156.342 30.994 155.994 30.73C155.646 30.454 155.43 30.07 155.346 29.578C154.974 30.058 154.506 30.436 153.942 30.712C153.378 30.988 152.79 31.126 152.178 31.126C151.254 31.126 150.528 30.85 150 30.298C149.484 29.734 149.226 28.972 149.226 28.012C149.226 27.1 149.412 26.248 149.784 25.456C150.168 24.664 150.702 24.034 151.386 23.566C152.07 23.086 152.838 22.846 153.69 22.846C154.734 22.846 155.466 23.2 155.886 23.908L156.048 23.008H157.83L156.93 28.156C156.894 28.408 156.876 28.63 156.876 28.822C156.876 29.134 156.936 29.368 157.056 29.524C157.188 29.68 157.416 29.758 157.74 29.758C158.196 29.758 158.586 29.536 158.91 29.092C159.234 28.636 159.474 28.078 159.63 27.418C159.798 26.758 159.882 26.116 159.882 25.492C159.882 23.968 159.438 22.804 158.55 22C157.662 21.196 156.372 20.794 154.68 20.794C153.264 20.794 151.992 21.13 150.864 21.802C149.748 22.474 148.872 23.398 148.236 24.574C147.6 25.75 147.282 27.058 147.282 28.498C147.282 30.034 147.738 31.204 148.65 32.008C149.562 32.812 150.864 33.214 152.556 33.214C153.696 33.214 154.692 33.004 155.544 32.584L155.814 33.952C154.722 34.42 153.498 34.654 152.142 34.654C150.834 34.654 149.688 34.408 148.704 33.916C147.72 33.424 146.958 32.722 146.418 31.81C145.878 30.91 145.608 29.86 145.608 28.66C145.608 26.944 146.004 25.378 146.796 23.962C147.6 22.546 148.71 21.43 150.126 20.614C151.542 19.786 153.144 19.372 154.932 19.372ZM152.808 29.542C153.312 29.542 153.768 29.398 154.176 29.11C154.596 28.81 154.926 28.42 155.166 27.94C155.406 27.448 155.526 26.926 155.526 26.374C155.526 25.798 155.364 25.33 155.04 24.97C154.728 24.598 154.284 24.412 153.708 24.412C153.192 24.412 152.736 24.574 152.34 24.898C151.956 25.21 151.656 25.618 151.44 26.122C151.236 26.626 151.134 27.154 151.134 27.706C151.134 28.27 151.272 28.72 151.548 29.056C151.824 29.38 152.244 29.542 152.808 29.542ZM168.313 22.756H166.477V31H164.407V22.756H163.237V21.082H164.407V20.38C164.407 19.24 164.707 18.412 165.307 17.896C165.919 17.368 166.873 17.104 168.169 17.104V18.814C167.545 18.814 167.107 18.934 166.855 19.174C166.603 19.402 166.477 19.804 166.477 20.38V21.082H168.313V22.756ZM169.447 25.996C169.447 25 169.651 24.118 170.059 23.35C170.479 22.582 171.043 21.988 171.751 21.568C172.471 21.136 173.263 20.92 174.127 20.92C174.907 20.92 175.585 21.076 176.161 21.388C176.749 21.688 177.217 22.066 177.565 22.522V21.082H179.635V31H177.565V29.524C177.217 29.992 176.743 30.382 176.143 30.694C175.543 31.006 174.859 31.162 174.091 31.162C173.239 31.162 172.459 30.946 171.751 30.514C171.043 30.07 170.479 29.458 170.059 28.678C169.651 27.886 169.447 26.992 169.447 25.996ZM177.565 26.032C177.565 25.348 177.421 24.754 177.133 24.25C176.857 23.746 176.491 23.362 176.035 23.098C175.579 22.834 175.087 22.702 174.559 22.702C174.031 22.702 173.539 22.834 173.083 23.098C172.627 23.35 172.255 23.728 171.967 24.232C171.691 24.724 171.553 25.312 171.553 25.996C171.553 26.68 171.691 27.28 171.967 27.796C172.255 28.312 172.627 28.708 173.083 28.984C173.551 29.248 174.043 29.38 174.559 29.38C175.087 29.38 175.579 29.248 176.035 28.984C176.491 28.72 176.857 28.336 177.133 27.832C177.421 27.316 177.565 26.716 177.565 26.032ZM194.336 20.92C195.116 20.92 195.812 21.082 196.424 21.406C197.048 21.73 197.534 22.21 197.882 22.846C198.242 23.482 198.422 24.25 198.422 25.15V31H196.388V25.456C196.388 24.568 196.166 23.89 195.722 23.422C195.278 22.942 194.672 22.702 193.904 22.702C193.136 22.702 192.524 22.942 192.068 23.422C191.624 23.89 191.402 24.568 191.402 25.456V31H189.368V25.456C189.368 24.568 189.146 23.89 188.702 23.422C188.258 22.942 187.652 22.702 186.884 22.702C186.116 22.702 185.504 22.942 185.048 23.422C184.604 23.89 184.382 24.568 184.382 25.456V31H182.33V21.082H184.382V22.216C184.718 21.808 185.144 21.49 185.66 21.262C186.176 21.034 186.728 20.92 187.316 20.92C188.108 20.92 188.816 21.088 189.44 21.424C190.064 21.76 190.544 22.246 190.88 22.882C191.18 22.282 191.648 21.808 192.284 21.46C192.92 21.1 193.604 20.92 194.336 20.92ZM203.428 22.756V28.246C203.428 28.618 203.512 28.888 203.68 29.056C203.86 29.212 204.16 29.29 204.58 29.29H205.84V31H204.22C203.296 31 202.588 30.784 202.096 30.352C201.604 29.92 201.358 29.218 201.358 28.246V22.756H200.188V21.082H201.358V18.616H203.428V21.082H205.84V22.756H203.428ZM212.033 31.162C211.097 31.162 210.251 30.952 209.495 30.532C208.739 30.1 208.145 29.5 207.713 28.732C207.281 27.952 207.065 27.052 207.065 26.032C207.065 25.024 207.287 24.13 207.731 23.35C208.175 22.57 208.781 21.97 209.549 21.55C210.317 21.13 211.175 20.92 212.123 20.92C213.071 20.92 213.929 21.13 214.697 21.55C215.465 21.97 216.071 22.57 216.515 23.35C216.959 24.13 217.181 25.024 217.181 26.032C217.181 27.04 216.953 27.934 216.497 28.714C216.041 29.494 215.417 30.1 214.625 30.532C213.845 30.952 212.981 31.162 212.033 31.162ZM212.033 29.38C212.561 29.38 213.053 29.254 213.509 29.002C213.977 28.75 214.355 28.372 214.643 27.868C214.931 27.364 215.075 26.752 215.075 26.032C215.075 25.312 214.937 24.706 214.661 24.214C214.385 23.71 214.019 23.332 213.563 23.08C213.107 22.828 212.615 22.702 212.087 22.702C211.559 22.702 211.067 22.828 210.611 23.08C210.167 23.332 209.813 23.71 209.549 24.214C209.285 24.706 209.153 25.312 209.153 26.032C209.153 27.1 209.423 27.928 209.963 28.516C210.515 29.092 211.205 29.38 212.033 29.38ZM220.037 31.126C219.665 31.126 219.353 31 219.101 30.748C218.849 30.496 218.723 30.184 218.723 29.812C218.723 29.44 218.849 29.128 219.101 28.876C219.353 28.624 219.665 28.498 220.037 28.498C220.397 28.498 220.703 28.624 220.955 28.876C221.207 29.128 221.333 29.44 221.333 29.812C221.333 30.184 221.207 30.496 220.955 30.748C220.703 31 220.397 31.126 220.037 31.126ZM224.595 19.768C224.223 19.768 223.911 19.642 223.659 19.39C223.407 19.138 223.281 18.826 223.281 18.454C223.281 18.082 223.407 17.77 223.659 17.518C223.911 17.266 224.223 17.14 224.595 17.14C224.955 17.14 225.261 17.266 225.513 17.518C225.765 17.77 225.891 18.082 225.891 18.454C225.891 18.826 225.765 19.138 225.513 19.39C225.261 19.642 224.955 19.768 224.595 19.768ZM225.603 21.082V31H223.551V21.082H225.603ZM233.301 20.92C234.081 20.92 234.777 21.082 235.389 21.406C236.013 21.73 236.499 22.21 236.847 22.846C237.195 23.482 237.369 24.25 237.369 25.15V31H235.335V25.456C235.335 24.568 235.113 23.89 234.669 23.422C234.225 22.942 233.619 22.702 232.851 22.702C232.083 22.702 231.471 22.942 231.015 23.422C230.571 23.89 230.349 24.568 230.349 25.456V31H228.297V21.082H230.349V22.216C230.685 21.808 231.111 21.49 231.627 21.262C232.155 21.034 232.713 20.92 233.301 20.92Z" fill="black" fill-opacity="0.75"/>
</svg>
