<svg width="600" height="100" viewBox="0 0 600 100" fill="none" xmlns="http://www.w3.org/2000/svg">
<rect width="600" height="100" rx="4" fill="black" fill-opacity="0.1"/>
<path d="M26.976 15.312V25H25.702V17.776L22.482 25H21.586L18.352 17.762V25H17.078V15.312H18.45L22.034 23.32L25.618 15.312H26.976ZM36.1366 20.87C36.1366 21.1127 36.1226 21.3693 36.0946 21.64H29.9626C30.0093 22.396 30.2659 22.9887 30.7326 23.418C31.2086 23.838 31.7826 24.048 32.4546 24.048C33.0053 24.048 33.4626 23.922 33.8266 23.67C34.1999 23.4087 34.4613 23.0633 34.6106 22.634H35.9826C35.7773 23.3713 35.3666 23.9733 34.7506 24.44C34.1346 24.8973 33.3693 25.126 32.4546 25.126C31.7266 25.126 31.0733 24.9627 30.4946 24.636C29.9253 24.3093 29.4773 23.8473 29.1506 23.25C28.8239 22.6433 28.6606 21.9433 28.6606 21.15C28.6606 20.3567 28.8193 19.6613 29.1366 19.064C29.4539 18.4667 29.8973 18.0093 30.4666 17.692C31.0453 17.3653 31.7079 17.202 32.4546 17.202C33.1826 17.202 33.8266 17.3607 34.3866 17.678C34.9466 17.9953 35.3759 18.434 35.6746 18.994C35.9826 19.5447 36.1366 20.17 36.1366 20.87ZM34.8206 20.604C34.8206 20.1187 34.7133 19.7033 34.4986 19.358C34.2839 19.0033 33.9899 18.7373 33.6166 18.56C33.2526 18.3733 32.8466 18.28 32.3986 18.28C31.7546 18.28 31.2039 18.4853 30.7466 18.896C30.2986 19.3067 30.0419 19.876 29.9766 20.604H34.8206ZM40.5342 25.126C39.9462 25.126 39.4189 25.028 38.9522 24.832C38.4856 24.6267 38.1169 24.3467 37.8462 23.992C37.5756 23.628 37.4262 23.2127 37.3982 22.746H38.7142C38.7516 23.1287 38.9289 23.4413 39.2462 23.684C39.5729 23.9267 39.9976 24.048 40.5202 24.048C41.0056 24.048 41.3882 23.9407 41.6682 23.726C41.9482 23.5113 42.0882 23.2407 42.0882 22.914C42.0882 22.578 41.9389 22.3307 41.6402 22.172C41.3416 22.004 40.8796 21.8407 40.2542 21.682C39.6849 21.5327 39.2182 21.3833 38.8542 21.234C38.4996 21.0753 38.1916 20.8467 37.9302 20.548C37.6782 20.24 37.5522 19.8387 37.5522 19.344C37.5522 18.952 37.6689 18.5927 37.9022 18.266C38.1356 17.9393 38.4669 17.6827 38.8962 17.496C39.3256 17.3 39.8156 17.202 40.3662 17.202C41.2156 17.202 41.9016 17.4167 42.4242 17.846C42.9469 18.2753 43.2269 18.8633 43.2642 19.61H41.9902C41.9622 19.2087 41.7989 18.8867 41.5002 18.644C41.2109 18.4013 40.8189 18.28 40.3242 18.28C39.8669 18.28 39.5029 18.378 39.2322 18.574C38.9616 18.77 38.8262 19.0267 38.8262 19.344C38.8262 19.596 38.9056 19.806 39.0642 19.974C39.2322 20.1327 39.4376 20.2633 39.6802 20.366C39.9322 20.4593 40.2776 20.5667 40.7162 20.688C41.2669 20.8373 41.7149 20.9867 42.0602 21.136C42.4056 21.276 42.6996 21.4907 42.9422 21.78C43.1942 22.0693 43.3249 22.4473 43.3342 22.914C43.3342 23.334 43.2176 23.712 42.9842 24.048C42.7509 24.384 42.4196 24.65 41.9902 24.846C41.5702 25.0327 41.0849 25.126 40.5342 25.126ZM47.8487 25.126C47.2607 25.126 46.7334 25.028 46.2667 24.832C45.8 24.6267 45.4314 24.3467 45.1607 23.992C44.89 23.628 44.7407 23.2127 44.7127 22.746H46.0287C46.066 23.1287 46.2434 23.4413 46.5607 23.684C46.8874 23.9267 47.312 24.048 47.8347 24.048C48.32 24.048 48.7027 23.9407 48.9827 23.726C49.2627 23.5113 49.4027 23.2407 49.4027 22.914C49.4027 22.578 49.2534 22.3307 48.9547 22.172C48.656 22.004 48.194 21.8407 47.5687 21.682C46.9994 21.5327 46.5327 21.3833 46.1687 21.234C45.814 21.0753 45.506 20.8467 45.2447 20.548C44.9927 20.24 44.8667 19.8387 44.8667 19.344C44.8667 18.952 44.9834 18.5927 45.2167 18.266C45.45 17.9393 45.7814 17.6827 46.2107 17.496C46.64 17.3 47.13 17.202 47.6807 17.202C48.53 17.202 49.216 17.4167 49.7387 17.846C50.2614 18.2753 50.5414 18.8633 50.5787 19.61H49.3047C49.2767 19.2087 49.1134 18.8867 48.8147 18.644C48.5254 18.4013 48.1334 18.28 47.6387 18.28C47.1814 18.28 46.8174 18.378 46.5467 18.574C46.276 18.77 46.1407 19.0267 46.1407 19.344C46.1407 19.596 46.22 19.806 46.3787 19.974C46.5467 20.1327 46.752 20.2633 46.9947 20.366C47.2467 20.4593 47.592 20.5667 48.0307 20.688C48.5814 20.8373 49.0294 20.9867 49.3747 21.136C49.72 21.276 50.014 21.4907 50.2567 21.78C50.5087 22.0693 50.6394 22.4473 50.6487 22.914C50.6487 23.334 50.532 23.712 50.2987 24.048C50.0654 24.384 49.734 24.65 49.3047 24.846C48.8847 25.0327 48.3994 25.126 47.8487 25.126ZM51.9711 21.136C51.9711 20.352 52.1298 19.666 52.4471 19.078C52.7645 18.4807 53.1985 18.0187 53.7491 17.692C54.3091 17.3653 54.9298 17.202 55.6111 17.202C56.2831 17.202 56.8665 17.3467 57.3611 17.636C57.8558 17.9253 58.2245 18.2893 58.4671 18.728V17.328H59.7551V25H58.4671V23.572C58.2151 24.02 57.8371 24.3933 57.3331 24.692C56.8385 24.9813 56.2598 25.126 55.5971 25.126C54.9158 25.126 54.2998 24.958 53.7491 24.622C53.1985 24.286 52.7645 23.8147 52.4471 23.208C52.1298 22.6013 51.9711 21.9107 51.9711 21.136ZM58.4671 21.15C58.4671 20.5713 58.3505 20.0673 58.1171 19.638C57.8838 19.2087 57.5665 18.882 57.1651 18.658C56.7731 18.4247 56.3391 18.308 55.8631 18.308C55.3871 18.308 54.9531 18.42 54.5611 18.644C54.1691 18.868 53.8565 19.1947 53.6231 19.624C53.3898 20.0533 53.2731 20.5573 53.2731 21.136C53.2731 21.724 53.3898 22.2373 53.6231 22.676C53.8565 23.1053 54.1691 23.4367 54.5611 23.67C54.9531 23.894 55.3871 24.006 55.8631 24.006C56.3391 24.006 56.7731 23.894 57.1651 23.67C57.5665 23.4367 57.8838 23.1053 58.1171 22.676C58.3505 22.2373 58.4671 21.7287 58.4671 21.15ZM65.0721 17.202C65.7347 17.202 66.3134 17.3467 66.8081 17.636C67.3121 17.9253 67.6854 18.2893 67.9281 18.728V17.328H69.2161V25.168C69.2161 25.868 69.0667 26.4887 68.7681 27.03C68.4694 27.5807 68.0401 28.01 67.4801 28.318C66.9294 28.626 66.2854 28.78 65.5481 28.78C64.5401 28.78 63.7001 28.542 63.0281 28.066C62.3561 27.59 61.9594 26.9413 61.8381 26.12H63.0981C63.2381 26.5867 63.5274 26.96 63.9661 27.24C64.4047 27.5293 64.9321 27.674 65.5481 27.674C66.2481 27.674 66.8174 27.4547 67.2561 27.016C67.7041 26.5773 67.9281 25.9613 67.9281 25.168V23.558C67.6761 24.006 67.3027 24.3793 66.8081 24.678C66.3134 24.9767 65.7347 25.126 65.0721 25.126C64.3907 25.126 63.7701 24.958 63.2101 24.622C62.6594 24.286 62.2254 23.8147 61.9081 23.208C61.5907 22.6013 61.4321 21.9107 61.4321 21.136C61.4321 20.352 61.5907 19.666 61.9081 19.078C62.2254 18.4807 62.6594 18.0187 63.2101 17.692C63.7701 17.3653 64.3907 17.202 65.0721 17.202ZM67.9281 21.15C67.9281 20.5713 67.8114 20.0673 67.5781 19.638C67.3447 19.2087 67.0274 18.882 66.6261 18.658C66.2341 18.4247 65.8001 18.308 65.3241 18.308C64.8481 18.308 64.4141 18.42 64.0221 18.644C63.6301 18.868 63.3174 19.1947 63.0841 19.624C62.8507 20.0533 62.7341 20.5573 62.7341 21.136C62.7341 21.724 62.8507 22.2373 63.0841 22.676C63.3174 23.1053 63.6301 23.4367 64.0221 23.67C64.4141 23.894 64.8481 24.006 65.3241 24.006C65.8001 24.006 66.2341 23.894 66.6261 23.67C67.0274 23.4367 67.3447 23.1053 67.5781 22.676C67.8114 22.2373 67.9281 21.7287 67.9281 21.15ZM78.369 20.87C78.369 21.1127 78.355 21.3693 78.327 21.64H72.195C72.2417 22.396 72.4983 22.9887 72.965 23.418C73.441 23.838 74.015 24.048 74.687 24.048C75.2377 24.048 75.695 23.922 76.059 23.67C76.4323 23.4087 76.6937 23.0633 76.843 22.634H78.215C78.0097 23.3713 77.599 23.9733 76.983 24.44C76.367 24.8973 75.6017 25.126 74.687 25.126C73.959 25.126 73.3057 24.9627 72.727 24.636C72.1577 24.3093 71.7097 23.8473 71.383 23.25C71.0563 22.6433 70.893 21.9433 70.893 21.15C70.893 20.3567 71.0517 19.6613 71.369 19.064C71.6863 18.4667 72.1297 18.0093 72.699 17.692C73.2777 17.3653 73.9403 17.202 74.687 17.202C75.415 17.202 76.059 17.3607 76.619 17.678C77.179 17.9953 77.6083 18.434 77.907 18.994C78.215 19.5447 78.369 20.17 78.369 20.87ZM77.053 20.604C77.053 20.1187 76.9457 19.7033 76.731 19.358C76.5163 19.0033 76.2223 18.7373 75.849 18.56C75.485 18.3733 75.079 18.28 74.631 18.28C73.987 18.28 73.4363 18.4853 72.979 18.896C72.531 19.3067 72.2743 19.876 72.209 20.604H77.053ZM87.1291 25.126C86.4104 25.126 85.7571 24.9627 85.1691 24.636C84.5904 24.3093 84.1331 23.8473 83.7971 23.25C83.4704 22.6433 83.3071 21.9433 83.3071 21.15C83.3071 20.366 83.4751 19.6753 83.8111 19.078C84.1564 18.4713 84.6231 18.0093 85.2111 17.692C85.7991 17.3653 86.4571 17.202 87.1851 17.202C87.9131 17.202 88.5711 17.3653 89.1591 17.692C89.7471 18.0093 90.2091 18.4667 90.5451 19.064C90.8904 19.6613 91.0631 20.3567 91.0631 21.15C91.0631 21.9433 90.8857 22.6433 90.5311 23.25C90.1857 23.8473 89.7144 24.3093 89.1171 24.636C88.5197 24.9627 87.8571 25.126 87.1291 25.126ZM87.1291 24.006C87.5864 24.006 88.0157 23.8987 88.4171 23.684C88.8184 23.4693 89.1404 23.1473 89.3831 22.718C89.6351 22.2887 89.7611 21.766 89.7611 21.15C89.7611 20.534 89.6397 20.0113 89.3971 19.582C89.1544 19.1527 88.8371 18.8353 88.4451 18.63C88.0531 18.4153 87.6284 18.308 87.1711 18.308C86.7044 18.308 86.2751 18.4153 85.8831 18.63C85.5004 18.8353 85.1924 19.1527 84.9591 19.582C84.7257 20.0113 84.6091 20.534 84.6091 21.15C84.6091 21.7753 84.7211 22.3027 84.9451 22.732C85.1784 23.1613 85.4864 23.4833 85.8691 23.698C86.2517 23.9033 86.6717 24.006 87.1291 24.006ZM94.0122 18.574C94.2362 18.1353 94.5535 17.7947 94.9642 17.552C95.3842 17.3093 95.8928 17.188 96.4902 17.188V18.504H96.1542C94.7262 18.504 94.0122 19.2787 94.0122 20.828V25H92.7382V17.328H94.0122V18.574ZM107.209 15.242V16.278H102.967V19.568H106.411V20.604H102.967V25H101.693V15.242H107.209ZM115.748 20.87C115.748 21.1127 115.734 21.3693 115.706 21.64H109.574C109.621 22.396 109.877 22.9887 110.344 23.418C110.82 23.838 111.394 24.048 112.066 24.048C112.617 24.048 113.074 23.922 113.438 23.67C113.811 23.4087 114.073 23.0633 114.222 22.634H115.594C115.389 23.3713 114.978 23.9733 114.362 24.44C113.746 24.8973 112.981 25.126 112.066 25.126C111.338 25.126 110.685 24.9627 110.106 24.636C109.537 24.3093 109.089 23.8473 108.762 23.25C108.435 22.6433 108.272 21.9433 108.272 21.15C108.272 20.3567 108.431 19.6613 108.748 19.064C109.065 18.4667 109.509 18.0093 110.078 17.692C110.657 17.3653 111.319 17.202 112.066 17.202C112.794 17.202 113.438 17.3607 113.998 17.678C114.558 17.9953 114.987 18.434 115.286 18.994C115.594 19.5447 115.748 20.17 115.748 20.87ZM114.432 20.604C114.432 20.1187 114.325 19.7033 114.11 19.358C113.895 19.0033 113.601 18.7373 113.228 18.56C112.864 18.3733 112.458 18.28 112.01 18.28C111.366 18.28 110.815 18.4853 110.358 18.896C109.91 19.3067 109.653 19.876 109.588 20.604H114.432ZM124.43 20.87C124.43 21.1127 124.416 21.3693 124.388 21.64H118.256C118.302 22.396 118.559 22.9887 119.026 23.418C119.502 23.838 120.076 24.048 120.748 24.048C121.298 24.048 121.756 23.922 122.12 23.67C122.493 23.4087 122.754 23.0633 122.904 22.634H124.276C124.07 23.3713 123.66 23.9733 123.044 24.44C122.428 24.8973 121.662 25.126 120.748 25.126C120.02 25.126 119.366 24.9627 118.788 24.636C118.218 24.3093 117.77 23.8473 117.444 23.25C117.117 22.6433 116.954 21.9433 116.954 21.15C116.954 20.3567 117.112 19.6613 117.43 19.064C117.747 18.4667 118.19 18.0093 118.76 17.692C119.338 17.3653 120.001 17.202 120.748 17.202C121.476 17.202 122.12 17.3607 122.68 17.678C123.24 17.9953 123.669 18.434 123.968 18.994C124.276 19.5447 124.43 20.17 124.43 20.87ZM123.114 20.604C123.114 20.1187 123.006 19.7033 122.792 19.358C122.577 19.0033 122.283 18.7373 121.91 18.56C121.546 18.3733 121.14 18.28 120.692 18.28C120.048 18.28 119.497 18.4853 119.04 18.896C118.592 19.3067 118.335 19.876 118.27 20.604H123.114ZM125.635 21.136C125.635 20.352 125.794 19.666 126.111 19.078C126.429 18.4807 126.863 18.0187 127.413 17.692C127.973 17.3653 128.599 17.202 129.289 17.202C129.887 17.202 130.442 17.342 130.955 17.622C131.469 17.8927 131.861 18.252 132.131 18.7V14.64H133.419V25H132.131V23.558C131.879 24.0153 131.506 24.3933 131.011 24.692C130.517 24.9813 129.938 25.126 129.275 25.126C128.594 25.126 127.973 24.958 127.413 24.622C126.863 24.286 126.429 23.8147 126.111 23.208C125.794 22.6013 125.635 21.9107 125.635 21.136ZM132.131 21.15C132.131 20.5713 132.015 20.0673 131.781 19.638C131.548 19.2087 131.231 18.882 130.829 18.658C130.437 18.4247 130.003 18.308 129.527 18.308C129.051 18.308 128.617 18.42 128.225 18.644C127.833 18.868 127.521 19.1947 127.287 19.624C127.054 20.0533 126.937 20.5573 126.937 21.136C126.937 21.724 127.054 22.2373 127.287 22.676C127.521 23.1053 127.833 23.4367 128.225 23.67C128.617 23.894 129.051 24.006 129.527 24.006C130.003 24.006 130.437 23.894 130.829 23.67C131.231 23.4367 131.548 23.1053 131.781 22.676C132.015 22.2373 132.131 21.7287 132.131 21.15ZM136.846 18.756C137.107 18.2987 137.49 17.9253 137.994 17.636C138.498 17.3467 139.072 17.202 139.716 17.202C140.407 17.202 141.027 17.3653 141.578 17.692C142.129 18.0187 142.563 18.4807 142.88 19.078C143.197 19.666 143.356 20.352 143.356 21.136C143.356 21.9107 143.197 22.6013 142.88 23.208C142.563 23.8147 142.124 24.286 141.564 24.622C141.013 24.958 140.397 25.126 139.716 25.126C139.053 25.126 138.47 24.9813 137.966 24.692C137.471 24.4027 137.098 24.034 136.846 23.586V25H135.572V14.64H136.846V18.756ZM142.054 21.136C142.054 20.5573 141.937 20.0533 141.704 19.624C141.471 19.1947 141.153 18.868 140.752 18.644C140.36 18.42 139.926 18.308 139.45 18.308C138.983 18.308 138.549 18.4247 138.148 18.658C137.756 18.882 137.439 19.2133 137.196 19.652C136.963 20.0813 136.846 20.5807 136.846 21.15C136.846 21.7287 136.963 22.2373 137.196 22.676C137.439 23.1053 137.756 23.4367 138.148 23.67C138.549 23.894 138.983 24.006 139.45 24.006C139.926 24.006 140.36 23.894 140.752 23.67C141.153 23.4367 141.471 23.1053 141.704 22.676C141.937 22.2373 142.054 21.724 142.054 21.136ZM144.557 21.136C144.557 20.352 144.716 19.666 145.033 19.078C145.35 18.4807 145.784 18.0187 146.335 17.692C146.895 17.3653 147.516 17.202 148.197 17.202C148.869 17.202 149.452 17.3467 149.947 17.636C150.442 17.9253 150.81 18.2893 151.053 18.728V17.328H152.341V25H151.053V23.572C150.801 24.02 150.423 24.3933 149.919 24.692C149.424 24.9813 148.846 25.126 148.183 25.126C147.502 25.126 146.886 24.958 146.335 24.622C145.784 24.286 145.35 23.8147 145.033 23.208C144.716 22.6013 144.557 21.9107 144.557 21.136ZM151.053 21.15C151.053 20.5713 150.936 20.0673 150.703 19.638C150.47 19.2087 150.152 18.882 149.751 18.658C149.359 18.4247 148.925 18.308 148.449 18.308C147.973 18.308 147.539 18.42 147.147 18.644C146.755 18.868 146.442 19.1947 146.209 19.624C145.976 20.0533 145.859 20.5573 145.859 21.136C145.859 21.724 145.976 22.2373 146.209 22.676C146.442 23.1053 146.755 23.4367 147.147 23.67C147.539 23.894 147.973 24.006 148.449 24.006C148.925 24.006 149.359 23.894 149.751 23.67C150.152 23.4367 150.47 23.1053 150.703 22.676C150.936 22.2373 151.053 21.7287 151.053 21.15ZM154.018 21.15C154.018 20.3567 154.177 19.666 154.494 19.078C154.811 18.4807 155.25 18.0187 155.81 17.692C156.379 17.3653 157.028 17.202 157.756 17.202C158.699 17.202 159.473 17.4307 160.08 17.888C160.696 18.3453 161.102 18.98 161.298 19.792H159.926C159.795 19.3253 159.539 18.9567 159.156 18.686C158.783 18.4153 158.316 18.28 157.756 18.28C157.028 18.28 156.44 18.532 155.992 19.036C155.544 19.5307 155.32 20.2353 155.32 21.15C155.32 22.074 155.544 22.788 155.992 23.292C156.44 23.796 157.028 24.048 157.756 24.048C158.316 24.048 158.783 23.9173 159.156 23.656C159.529 23.3947 159.786 23.0213 159.926 22.536H161.298C161.093 23.32 160.682 23.95 160.066 24.426C159.45 24.8927 158.68 25.126 157.756 25.126C157.028 25.126 156.379 24.9627 155.81 24.636C155.25 24.3093 154.811 23.8473 154.494 23.25C154.177 22.6527 154.018 21.9527 154.018 21.15ZM167.282 25L164.272 21.612V25H162.998V14.64H164.272V20.73L167.226 17.328H169.004L165.392 21.15L169.018 25H167.282Z" fill="black" fill-opacity="0.6"/>
</svg>
