<svg width="600" height="40" viewBox="0 0 600 40" fill="none" xmlns="http://www.w3.org/2000/svg">
<rect width="600" height="40" rx="4" fill="black" fill-opacity="0.1"/>
<path d="M24.75 25H23.476L18.352 17.23V25H17.078V15.228H18.352L23.476 22.984V15.228H24.75V25ZM26.4458 21.136C26.4458 20.352 26.6044 19.666 26.9218 19.078C27.2391 18.4807 27.6731 18.0187 28.2238 17.692C28.7838 17.3653 29.4044 17.202 30.0858 17.202C30.7578 17.202 31.3411 17.3467 31.8358 17.636C32.3304 17.9253 32.6991 18.2893 32.9418 18.728V17.328H34.2298V25H32.9418V23.572C32.6898 24.02 32.3118 24.3933 31.8078 24.692C31.3131 24.9813 30.7344 25.126 30.0718 25.126C29.3904 25.126 28.7744 24.958 28.2238 24.622C27.6731 24.286 27.2391 23.8147 26.9218 23.208C26.6044 22.6013 26.4458 21.9107 26.4458 21.136ZM32.9418 21.15C32.9418 20.5713 32.8251 20.0673 32.5918 19.638C32.3584 19.2087 32.0411 18.882 31.6398 18.658C31.2478 18.4247 30.8138 18.308 30.3378 18.308C29.8618 18.308 29.4278 18.42 29.0358 18.644C28.6438 18.868 28.3311 19.1947 28.0978 19.624C27.8644 20.0533 27.7478 20.5573 27.7478 21.136C27.7478 21.724 27.8644 22.2373 28.0978 22.676C28.3311 23.1053 28.6438 23.4367 29.0358 23.67C29.4278 23.894 29.8618 24.006 30.3378 24.006C30.8138 24.006 31.2478 23.894 31.6398 23.67C32.0411 23.4367 32.3584 23.1053 32.5918 22.676C32.8251 22.2373 32.9418 21.7287 32.9418 21.15ZM45.6087 17.188C46.206 17.188 46.738 17.314 47.2047 17.566C47.6714 17.8087 48.04 18.1773 48.3107 18.672C48.5814 19.1667 48.7167 19.7687 48.7167 20.478V25H47.4567V20.66C47.4567 19.8947 47.2654 19.3113 46.8827 18.91C46.5094 18.4993 46.0007 18.294 45.3567 18.294C44.694 18.294 44.1667 18.5087 43.7747 18.938C43.3827 19.358 43.1867 19.9693 43.1867 20.772V25H41.9267V20.66C41.9267 19.8947 41.7354 19.3113 41.3527 18.91C40.9794 18.4993 40.4707 18.294 39.8267 18.294C39.164 18.294 38.6367 18.5087 38.2447 18.938C37.8527 19.358 37.6567 19.9693 37.6567 20.772V25H36.3827V17.328H37.6567V18.434C37.9087 18.0327 38.2447 17.7247 38.6647 17.51C39.094 17.2953 39.5654 17.188 40.0787 17.188C40.7227 17.188 41.292 17.3327 41.7867 17.622C42.2814 17.9113 42.65 18.336 42.8927 18.896C43.1074 18.3547 43.462 17.9347 43.9567 17.636C44.4514 17.3373 45.002 17.188 45.6087 17.188ZM57.8065 20.87C57.8065 21.1127 57.7925 21.3693 57.7645 21.64H51.6325C51.6792 22.396 51.9358 22.9887 52.4025 23.418C52.8785 23.838 53.4525 24.048 54.1245 24.048C54.6752 24.048 55.1325 23.922 55.4965 23.67C55.8698 23.4087 56.1312 23.0633 56.2805 22.634H57.6525C57.4472 23.3713 57.0365 23.9733 56.4205 24.44C55.8045 24.8973 55.0392 25.126 54.1245 25.126C53.3965 25.126 52.7432 24.9627 52.1645 24.636C51.5952 24.3093 51.1472 23.8473 50.8205 23.25C50.4938 22.6433 50.3305 21.9433 50.3305 21.15C50.3305 20.3567 50.4892 19.6613 50.8065 19.064C51.1238 18.4667 51.5672 18.0093 52.1365 17.692C52.7152 17.3653 53.3778 17.202 54.1245 17.202C54.8525 17.202 55.4965 17.3607 56.0565 17.678C56.6165 17.9953 57.0458 18.434 57.3445 18.994C57.6525 19.5447 57.8065 20.17 57.8065 20.87ZM56.4905 20.604C56.4905 20.1187 56.3832 19.7033 56.1685 19.358C55.9538 19.0033 55.6598 18.7373 55.2865 18.56C54.9225 18.3733 54.5165 18.28 54.0685 18.28C53.4245 18.28 52.8738 18.4853 52.4165 18.896C51.9685 19.3067 51.7118 19.876 51.6465 20.604H56.4905Z" fill="black" fill-opacity="0.6"/>
</svg>
