<svg width="1200" height="135" viewBox="0 0 1200 135" fill="none" xmlns="http://www.w3.org/2000/svg">
<rect width="1200" height="135" rx="10" fill="white"/>
<circle cx="49" cy="49" r="25" fill="#00CED1"/>
<path d="M40.0098 48.22V52.71C40.0098 57.2 41.8098 59 46.2998 59H51.6898C56.1798 59 57.9798 57.2 57.9798 52.71V48.22" stroke="white" stroke-linecap="round" stroke-linejoin="round"/>
<path d="M49.0005 49C50.8305 49 52.1805 47.51 52.0005 45.68L51.3405 39H46.6705L46.0005 45.68C45.8205 47.51 47.1705 49 49.0005 49Z" stroke="white" stroke-linecap="round" stroke-linejoin="round"/>
<path d="M55.3108 49C57.3308 49 58.8108 47.36 58.6108 45.35L58.3308 42.6C57.9708 40 56.9708 39 54.3508 39H51.3008L52.0008 46.01C52.1708 47.66 53.6608 49 55.3108 49Z" stroke="white" stroke-linecap="round" stroke-linejoin="round"/>
<path d="M42.6404 49C44.2904 49 45.7804 47.66 45.9404 46.01L46.1604 43.8L46.6404 39H43.5904C40.9704 39 39.9704 40 39.6104 42.6L39.3404 45.35C39.1404 47.36 40.6204 49 42.6404 49Z" stroke="white" stroke-linecap="round" stroke-linejoin="round"/>
<path d="M49 54C47.33 54 46.5 54.83 46.5 56.5V59H51.5V56.5C51.5 54.83 50.67 54 49 54Z" stroke="white" stroke-linecap="round" stroke-linejoin="round"/>
<path d="M104.288 53.112C103.243 53.112 102.283 52.8667 101.408 52.376C100.533 51.8853 99.84 51.208 99.328 50.344C98.816 49.4693 98.56 48.4827 98.56 47.384C98.56 46.296 98.816 45.32 99.328 44.456C99.84 43.5813 100.533 42.8987 101.408 42.408C102.283 41.9173 103.243 41.672 104.288 41.672C105.344 41.672 106.304 41.9173 107.168 42.408C108.043 42.8987 108.731 43.5813 109.232 44.456C109.744 45.32 110 46.296 110 47.384C110 48.4827 109.744 49.4693 109.232 50.344C108.731 51.208 108.043 51.8853 107.168 52.376C106.293 52.8667 105.333 53.112 104.288 53.112ZM104.288 51.112C104.96 51.112 105.552 50.9627 106.064 50.664C106.576 50.3547 106.976 49.9173 107.264 49.352C107.552 48.7867 107.696 48.1307 107.696 47.384C107.696 46.6373 107.552 45.9867 107.264 45.432C106.976 44.8667 106.576 44.4347 106.064 44.136C105.552 43.8373 104.96 43.688 104.288 43.688C103.616 43.688 103.019 43.8373 102.496 44.136C101.984 44.4347 101.584 44.8667 101.296 45.432C101.008 45.9867 100.864 46.6373 100.864 47.384C100.864 48.1307 101.008 48.7867 101.296 49.352C101.584 49.9173 101.984 50.3547 102.496 50.664C103.019 50.9627 103.616 51.112 104.288 51.112ZM113.907 45.512C114.195 45.0427 114.568 44.6747 115.027 44.408C115.496 44.1413 116.029 44.008 116.627 44.008V46.36H116.035C115.331 46.36 114.797 46.5253 114.435 46.856C114.083 47.1867 113.907 47.7627 113.907 48.584V53H111.667V44.136H113.907V45.512ZM117.559 48.536C117.559 47.64 117.735 46.8453 118.087 46.152C118.45 45.4587 118.941 44.9253 119.559 44.552C120.178 44.1787 120.866 43.992 121.623 43.992C122.199 43.992 122.749 44.12 123.271 44.376C123.794 44.6213 124.21 44.952 124.519 45.368V41.16H126.791V53H124.519V51.688C124.242 52.1253 123.853 52.4773 123.351 52.744C122.85 53.0107 122.269 53.144 121.607 53.144C120.861 53.144 120.178 52.952 119.559 52.568C118.941 52.184 118.45 51.6453 118.087 50.952C117.735 50.248 117.559 49.4427 117.559 48.536ZM124.535 48.568C124.535 48.024 124.429 47.56 124.215 47.176C124.002 46.7813 123.714 46.4827 123.351 46.28C122.989 46.0667 122.599 45.96 122.183 45.96C121.767 45.96 121.383 46.0613 121.031 46.264C120.679 46.4667 120.391 46.7653 120.167 47.16C119.954 47.544 119.847 48.0027 119.847 48.536C119.847 49.0693 119.954 49.5387 120.167 49.944C120.391 50.3387 120.679 50.6427 121.031 50.856C121.394 51.0693 121.778 51.176 122.183 51.176C122.599 51.176 122.989 51.0747 123.351 50.872C123.714 50.6587 124.002 50.36 124.215 49.976C124.429 49.5813 124.535 49.112 124.535 48.568ZM137.219 48.376C137.219 48.696 137.198 48.984 137.155 49.24H130.675C130.728 49.88 130.952 50.3813 131.347 50.744C131.742 51.1067 132.227 51.288 132.803 51.288C133.635 51.288 134.227 50.9307 134.579 50.216H136.995C136.739 51.0693 136.248 51.7733 135.523 52.328C134.798 52.872 133.907 53.144 132.851 53.144C131.998 53.144 131.23 52.9573 130.547 52.584C129.875 52.2 129.347 51.6613 128.963 50.968C128.59 50.2747 128.403 49.4747 128.403 48.568C128.403 47.6507 128.59 46.8453 128.963 46.152C129.336 45.4587 129.859 44.9253 130.531 44.552C131.203 44.1787 131.976 43.992 132.851 43.992C133.694 43.992 134.446 44.1733 135.107 44.536C135.779 44.8987 136.296 45.416 136.659 46.088C137.032 46.7493 137.219 47.512 137.219 48.376ZM134.899 47.736C134.888 47.16 134.68 46.7013 134.275 46.36C133.87 46.008 133.374 45.832 132.787 45.832C132.232 45.832 131.763 46.0027 131.379 46.344C131.006 46.6747 130.776 47.1387 130.691 47.736H134.899ZM141.094 45.512C141.382 45.0427 141.755 44.6747 142.214 44.408C142.683 44.1413 143.217 44.008 143.814 44.008V46.36H143.222C142.518 46.36 141.985 46.5253 141.622 46.856C141.27 47.1867 141.094 47.7627 141.094 48.584V53H138.854V44.136H141.094V45.512ZM155.983 50.872H151.535L150.799 53H148.447L152.463 41.816H155.071L159.087 53H156.719L155.983 50.872ZM155.375 49.08L153.759 44.408L152.143 49.08H155.375ZM165.5 44.008C166.556 44.008 167.41 44.344 168.06 45.016C168.711 45.6773 169.036 46.6053 169.036 47.8V53H166.796V48.104C166.796 47.4 166.62 46.8613 166.268 46.488C165.916 46.104 165.436 45.912 164.828 45.912C164.21 45.912 163.719 46.104 163.356 46.488C163.004 46.8613 162.828 47.4 162.828 48.104V53H160.588V44.136H162.828V45.24C163.127 44.856 163.506 44.5573 163.964 44.344C164.434 44.12 164.946 44.008 165.5 44.008ZM179.647 44.136L174.159 57.192H171.775L173.695 52.776L170.143 44.136H172.655L174.943 50.328L177.263 44.136H179.647ZM183.462 45.976V50.264C183.462 50.5627 183.531 50.7813 183.67 50.92C183.819 51.048 184.065 51.112 184.406 51.112H185.446V53H184.038C182.15 53 181.206 52.0827 181.206 50.248V45.976H180.15V44.136H181.206V41.944H183.462V44.136H185.446V45.976H183.462ZM192.049 44.008C192.721 44.008 193.318 44.1573 193.841 44.456C194.364 44.744 194.769 45.176 195.057 45.752C195.356 46.3173 195.505 47 195.505 47.8V53H193.265V48.104C193.265 47.4 193.089 46.8613 192.737 46.488C192.385 46.104 191.905 45.912 191.297 45.912C190.678 45.912 190.188 46.104 189.825 46.488C189.473 46.8613 189.297 47.4 189.297 48.104V53H187.057V41.16H189.297V45.24C189.585 44.856 189.969 44.5573 190.449 44.344C190.929 44.12 191.462 44.008 192.049 44.008ZM198.771 43.08C198.377 43.08 198.046 42.9573 197.779 42.712C197.523 42.456 197.395 42.1413 197.395 41.768C197.395 41.3947 197.523 41.0853 197.779 40.84C198.046 40.584 198.377 40.456 198.771 40.456C199.166 40.456 199.491 40.584 199.747 40.84C200.014 41.0853 200.147 41.3947 200.147 41.768C200.147 42.1413 200.014 42.456 199.747 42.712C199.491 42.9573 199.166 43.08 198.771 43.08ZM199.875 44.136V53H197.635V44.136H199.875ZM207 44.008C208.056 44.008 208.91 44.344 209.56 45.016C210.211 45.6773 210.536 46.6053 210.536 47.8V53H208.296V48.104C208.296 47.4 208.12 46.8613 207.768 46.488C207.416 46.104 206.936 45.912 206.328 45.912C205.71 45.912 205.219 46.104 204.856 46.488C204.504 46.8613 204.328 47.4 204.328 48.104V53H202.088V44.136H204.328V45.24C204.627 44.856 205.006 44.5573 205.464 44.344C205.934 44.12 206.446 44.008 207 44.008ZM216.139 43.992C216.8 43.992 217.381 44.1253 217.883 44.392C218.384 44.648 218.779 44.984 219.067 45.4V44.136H221.323V53.064C221.323 53.8853 221.157 54.616 220.827 55.256C220.496 55.9067 220 56.4187 219.339 56.792C218.677 57.176 217.877 57.368 216.939 57.368C215.68 57.368 214.645 57.0747 213.835 56.488C213.035 55.9013 212.581 55.1013 212.475 54.088H214.699C214.816 54.4933 215.067 54.8133 215.451 55.048C215.845 55.2933 216.32 55.416 216.875 55.416C217.525 55.416 218.053 55.2187 218.459 54.824C218.864 54.44 219.067 53.8533 219.067 53.064V51.688C218.779 52.104 218.379 52.4507 217.867 52.728C217.365 53.0053 216.789 53.144 216.139 53.144C215.392 53.144 214.709 52.952 214.091 52.568C213.472 52.184 212.981 51.6453 212.618 50.952C212.266 50.248 212.09 49.4427 212.09 48.536C212.09 47.64 212.266 46.8453 212.618 46.152C212.981 45.4587 213.467 44.9253 214.075 44.552C214.693 44.1787 215.381 43.992 216.139 43.992ZM219.067 48.568C219.067 48.024 218.96 47.56 218.747 47.176C218.533 46.7813 218.245 46.4827 217.883 46.28C217.52 46.0667 217.131 45.96 216.715 45.96C216.299 45.96 215.915 46.0613 215.562 46.264C215.211 46.4667 214.923 46.7653 214.699 47.16C214.485 47.544 214.379 48.0027 214.379 48.536C214.379 49.0693 214.485 49.5387 214.699 49.944C214.923 50.3387 215.211 50.6427 215.562 50.856C215.925 51.0693 216.309 51.176 216.715 51.176C217.131 51.176 217.52 51.0747 217.883 50.872C218.245 50.6587 218.533 50.36 218.747 49.976C218.96 49.5813 219.067 49.112 219.067 48.568Z" fill="black"/>
<path d="M29.502 105.098C28.5967 105.098 27.7707 104.888 27.024 104.468C26.2773 104.039 25.6847 103.446 25.246 102.69C24.8167 101.925 24.602 101.066 24.602 100.114C24.602 99.162 24.8167 98.308 25.246 97.552C25.6847 96.7867 26.2773 96.194 27.024 95.774C27.7707 95.3447 28.5967 95.13 29.502 95.13C30.4167 95.13 31.2473 95.3447 31.994 95.774C32.7407 96.194 33.3287 96.782 33.758 97.538C34.1873 98.294 34.402 99.1527 34.402 100.114C34.402 101.075 34.1873 101.934 33.758 102.69C33.3287 103.446 32.7407 104.039 31.994 104.468C31.2473 104.888 30.4167 105.098 29.502 105.098ZM29.502 103.992C30.1833 103.992 30.7947 103.833 31.336 103.516C31.8867 103.199 32.316 102.746 32.624 102.158C32.9413 101.57 33.1 100.889 33.1 100.114C33.1 99.33 32.9413 98.6487 32.624 98.07C32.316 97.482 31.8913 97.0293 31.35 96.712C30.8087 96.3947 30.1927 96.236 29.502 96.236C28.8113 96.236 28.1953 96.3947 27.654 96.712C27.1127 97.0293 26.6833 97.482 26.366 98.07C26.058 98.6487 25.904 99.33 25.904 100.114C25.904 100.889 26.058 101.57 26.366 102.158C26.6833 102.746 27.1127 103.199 27.654 103.516C28.2047 103.833 28.8207 103.992 29.502 103.992ZM37.3579 98.574C37.5819 98.1353 37.8992 97.7947 38.3099 97.552C38.7299 97.3093 39.2385 97.188 39.8359 97.188V98.504H39.4999C38.0719 98.504 37.3579 99.2787 37.3579 100.828V105H36.0839V97.328H37.3579V98.574ZM40.8305 101.136C40.8305 100.352 40.9892 99.666 41.3065 99.078C41.6238 98.4807 42.0578 98.0187 42.6085 97.692C43.1685 97.3653 43.7938 97.202 44.4845 97.202C45.0818 97.202 45.6372 97.342 46.1505 97.622C46.6638 97.8927 47.0558 98.252 47.3265 98.7V94.64H48.6145V105H47.3265V103.558C47.0745 104.015 46.7012 104.393 46.2065 104.692C45.7118 104.981 45.1332 105.126 44.4705 105.126C43.7892 105.126 43.1685 104.958 42.6085 104.622C42.0578 104.286 41.6238 103.815 41.3065 103.208C40.9892 102.601 40.8305 101.911 40.8305 101.136ZM47.3265 101.15C47.3265 100.571 47.2098 100.067 46.9765 99.638C46.7432 99.2087 46.4258 98.882 46.0245 98.658C45.6325 98.4247 45.1985 98.308 44.7225 98.308C44.2465 98.308 43.8125 98.42 43.4205 98.644C43.0285 98.868 42.7158 99.1947 42.4825 99.624C42.2492 100.053 42.1325 100.557 42.1325 101.136C42.1325 101.724 42.2492 102.237 42.4825 102.676C42.7158 103.105 43.0285 103.437 43.4205 103.67C43.8125 103.894 44.2465 104.006 44.7225 104.006C45.1985 104.006 45.6325 103.894 46.0245 103.67C46.4258 103.437 46.7432 103.105 46.9765 102.676C47.2098 102.237 47.3265 101.729 47.3265 101.15ZM57.7675 100.87C57.7675 101.113 57.7535 101.369 57.7255 101.64H51.5935C51.6401 102.396 51.8968 102.989 52.3635 103.418C52.8395 103.838 53.4135 104.048 54.0855 104.048C54.6361 104.048 55.0935 103.922 55.4575 103.67C55.8308 103.409 56.0921 103.063 56.2415 102.634H57.6135C57.4081 103.371 56.9975 103.973 56.3815 104.44C55.7655 104.897 55.0001 105.126 54.0855 105.126C53.3575 105.126 52.7041 104.963 52.1255 104.636C51.5561 104.309 51.1081 103.847 50.7815 103.25C50.4548 102.643 50.2915 101.943 50.2915 101.15C50.2915 100.357 50.4501 99.6613 50.7675 99.064C51.0848 98.4667 51.5281 98.0093 52.0975 97.692C52.6761 97.3653 53.3388 97.202 54.0855 97.202C54.8135 97.202 55.4575 97.3607 56.0175 97.678C56.5775 97.9953 57.0068 98.434 57.3055 98.994C57.6135 99.5447 57.7675 100.17 57.7675 100.87ZM56.4515 100.604C56.4515 100.119 56.3441 99.7033 56.1295 99.358C55.9148 99.0033 55.6208 98.7373 55.2475 98.56C54.8835 98.3733 54.4775 98.28 54.0295 98.28C53.3855 98.28 52.8348 98.4853 52.3775 98.896C51.9295 99.3067 51.6728 99.876 51.6075 100.604H56.4515ZM60.7231 98.574C60.9471 98.1353 61.2644 97.7947 61.6751 97.552C62.0951 97.3093 62.6038 97.188 63.2011 97.188V98.504H62.8651C61.4371 98.504 60.7231 99.2787 60.7231 100.828V105H59.4491V97.328H60.7231V98.574ZM71.5262 98.378H69.9162V105H68.6422V98.378H67.6482V97.328H68.6422V96.782C68.6422 95.9233 68.8615 95.298 69.3002 94.906C69.7482 94.5047 70.4622 94.304 71.4422 94.304V95.368C70.8822 95.368 70.4855 95.48 70.2522 95.704C70.0282 95.9187 69.9162 96.278 69.9162 96.782V97.328H71.5262V98.378ZM76.3576 105.126C75.6389 105.126 74.9856 104.963 74.3976 104.636C73.8189 104.309 73.3616 103.847 73.0256 103.25C72.6989 102.643 72.5356 101.943 72.5356 101.15C72.5356 100.366 72.7036 99.6753 73.0396 99.078C73.3849 98.4713 73.8516 98.0093 74.4396 97.692C75.0276 97.3653 75.6856 97.202 76.4136 97.202C77.1416 97.202 77.7996 97.3653 78.3876 97.692C78.9756 98.0093 79.4376 98.4667 79.7736 99.064C80.1189 99.6613 80.2916 100.357 80.2916 101.15C80.2916 101.943 80.1143 102.643 79.7596 103.25C79.4143 103.847 78.9429 104.309 78.3456 104.636C77.7483 104.963 77.0856 105.126 76.3576 105.126ZM76.3576 104.006C76.8149 104.006 77.2443 103.899 77.6456 103.684C78.0469 103.469 78.3689 103.147 78.6116 102.718C78.8636 102.289 78.9896 101.766 78.9896 101.15C78.9896 100.534 78.8683 100.011 78.6256 99.582C78.3829 99.1527 78.0656 98.8353 77.6736 98.63C77.2816 98.4153 76.8569 98.308 76.3996 98.308C75.9329 98.308 75.5036 98.4153 75.1116 98.63C74.7289 98.8353 74.4209 99.1527 74.1876 99.582C73.9543 100.011 73.8376 100.534 73.8376 101.15C73.8376 101.775 73.9496 102.303 74.1736 102.732C74.4069 103.161 74.7149 103.483 75.0976 103.698C75.4803 103.903 75.9003 104.006 76.3576 104.006ZM85.3127 105.126C84.594 105.126 83.9407 104.963 83.3527 104.636C82.774 104.309 82.3167 103.847 81.9807 103.25C81.654 102.643 81.4907 101.943 81.4907 101.15C81.4907 100.366 81.6587 99.6753 81.9947 99.078C82.34 98.4713 82.8067 98.0093 83.3947 97.692C83.9827 97.3653 84.6407 97.202 85.3687 97.202C86.0967 97.202 86.7547 97.3653 87.3427 97.692C87.9307 98.0093 88.3927 98.4667 88.7287 99.064C89.074 99.6613 89.2467 100.357 89.2467 101.15C89.2467 101.943 89.0693 102.643 88.7147 103.25C88.3693 103.847 87.898 104.309 87.3007 104.636C86.7033 104.963 86.0407 105.126 85.3127 105.126ZM85.3127 104.006C85.77 104.006 86.1993 103.899 86.6007 103.684C87.002 103.469 87.324 103.147 87.5667 102.718C87.8187 102.289 87.9447 101.766 87.9447 101.15C87.9447 100.534 87.8233 100.011 87.5807 99.582C87.338 99.1527 87.0207 98.8353 86.6287 98.63C86.2367 98.4153 85.812 98.308 85.3547 98.308C84.888 98.308 84.4587 98.4153 84.0667 98.63C83.684 98.8353 83.376 99.1527 83.1427 99.582C82.9093 100.011 82.7927 100.534 82.7927 101.15C82.7927 101.775 82.9047 102.303 83.1287 102.732C83.362 103.161 83.67 103.483 84.0527 103.698C84.4353 103.903 84.8553 104.006 85.3127 104.006ZM90.4458 101.136C90.4458 100.352 90.6044 99.666 90.9218 99.078C91.2391 98.4807 91.6731 98.0187 92.2238 97.692C92.7838 97.3653 93.4091 97.202 94.0998 97.202C94.6971 97.202 95.2524 97.342 95.7658 97.622C96.2791 97.8927 96.6711 98.252 96.9418 98.7V94.64H98.2298V105H96.9418V103.558C96.6898 104.015 96.3164 104.393 95.8218 104.692C95.3271 104.981 94.7484 105.126 94.0858 105.126C93.4044 105.126 92.7838 104.958 92.2238 104.622C91.6731 104.286 91.2391 103.815 90.9218 103.208C90.6044 102.601 90.4458 101.911 90.4458 101.136ZM96.9418 101.15C96.9418 100.571 96.8251 100.067 96.5918 99.638C96.3584 99.2087 96.0411 98.882 95.6398 98.658C95.2478 98.4247 94.8138 98.308 94.3378 98.308C93.8618 98.308 93.4278 98.42 93.0358 98.644C92.6438 98.868 92.3311 99.1947 92.0978 99.624C91.8644 100.053 91.7478 100.557 91.7478 101.136C91.7478 101.724 91.8644 102.237 92.0978 102.676C92.3311 103.105 92.6438 103.437 93.0358 103.67C93.4278 103.894 93.8618 104.006 94.3378 104.006C94.8138 104.006 95.2478 103.894 95.6398 103.67C96.0411 103.437 96.3584 103.105 96.5918 102.676C96.8251 102.237 96.9418 101.729 96.9418 101.15ZM101.699 103.236L100.131 107.002H99.2767L100.299 103.236H101.699ZM110.055 97.202C110.717 97.202 111.296 97.3467 111.791 97.636C112.295 97.9253 112.668 98.2893 112.911 98.728V97.328H114.199V105.168C114.199 105.868 114.049 106.489 113.751 107.03C113.452 107.581 113.023 108.01 112.463 108.318C111.912 108.626 111.268 108.78 110.531 108.78C109.523 108.78 108.683 108.542 108.011 108.066C107.339 107.59 106.942 106.941 106.821 106.12H108.081C108.221 106.587 108.51 106.96 108.949 107.24C109.387 107.529 109.915 107.674 110.531 107.674C111.231 107.674 111.8 107.455 112.239 107.016C112.687 106.577 112.911 105.961 112.911 105.168V103.558C112.659 104.006 112.285 104.379 111.791 104.678C111.296 104.977 110.717 105.126 110.055 105.126C109.373 105.126 108.753 104.958 108.193 104.622C107.642 104.286 107.208 103.815 106.891 103.208C106.573 102.601 106.415 101.911 106.415 101.136C106.415 100.352 106.573 99.666 106.891 99.078C107.208 98.4807 107.642 98.0187 108.193 97.692C108.753 97.3653 109.373 97.202 110.055 97.202ZM112.911 101.15C112.911 100.571 112.794 100.067 112.561 99.638C112.327 99.2087 112.01 98.882 111.609 98.658C111.217 98.4247 110.783 98.308 110.307 98.308C109.831 98.308 109.397 98.42 109.005 98.644C108.613 98.868 108.3 99.1947 108.067 99.624C107.833 100.053 107.717 100.557 107.717 101.136C107.717 101.724 107.833 102.237 108.067 102.676C108.3 103.105 108.613 103.437 109.005 103.67C109.397 103.894 109.831 104.006 110.307 104.006C110.783 104.006 111.217 103.894 111.609 103.67C112.01 103.437 112.327 103.105 112.561 102.676C112.794 102.237 112.911 101.729 112.911 101.15ZM117.625 98.574C117.849 98.1353 118.167 97.7947 118.577 97.552C118.997 97.3093 119.506 97.188 120.103 97.188V98.504H119.767C118.339 98.504 117.625 99.2787 117.625 100.828V105H116.351V97.328H117.625V98.574ZM124.92 105.126C124.201 105.126 123.548 104.963 122.96 104.636C122.381 104.309 121.924 103.847 121.588 103.25C121.261 102.643 121.098 101.943 121.098 101.15C121.098 100.366 121.266 99.6753 121.602 99.078C121.947 98.4713 122.414 98.0093 123.002 97.692C123.59 97.3653 124.248 97.202 124.976 97.202C125.704 97.202 126.362 97.3653 126.95 97.692C127.538 98.0093 128 98.4667 128.336 99.064C128.681 99.6613 128.854 100.357 128.854 101.15C128.854 101.943 128.677 102.643 128.322 103.25C127.977 103.847 127.505 104.309 126.908 104.636C126.311 104.963 125.648 105.126 124.92 105.126ZM124.92 104.006C125.377 104.006 125.807 103.899 126.208 103.684C126.609 103.469 126.931 103.147 127.174 102.718C127.426 102.289 127.552 101.766 127.552 101.15C127.552 100.534 127.431 100.011 127.188 99.582C126.945 99.1527 126.628 98.8353 126.236 98.63C125.844 98.4153 125.419 98.308 124.962 98.308C124.495 98.308 124.066 98.4153 123.674 98.63C123.291 98.8353 122.983 99.1527 122.75 99.582C122.517 100.011 122.4 100.534 122.4 101.15C122.4 101.775 122.512 102.303 122.736 102.732C122.969 103.161 123.277 103.483 123.66 103.698C124.043 103.903 124.463 104.006 124.92 104.006ZM130.053 101.15C130.053 100.357 130.212 99.666 130.529 99.078C130.847 98.4807 131.285 98.0187 131.845 97.692C132.415 97.3653 133.063 97.202 133.791 97.202C134.734 97.202 135.509 97.4307 136.115 97.888C136.731 98.3453 137.137 98.98 137.333 99.792H135.961C135.831 99.3253 135.574 98.9567 135.191 98.686C134.818 98.4153 134.351 98.28 133.791 98.28C133.063 98.28 132.475 98.532 132.027 99.036C131.579 99.5307 131.355 100.235 131.355 101.15C131.355 102.074 131.579 102.788 132.027 103.292C132.475 103.796 133.063 104.048 133.791 104.048C134.351 104.048 134.818 103.917 135.191 103.656C135.565 103.395 135.821 103.021 135.961 102.536H137.333C137.128 103.32 136.717 103.95 136.101 104.426C135.485 104.893 134.715 105.126 133.791 105.126C133.063 105.126 132.415 104.963 131.845 104.636C131.285 104.309 130.847 103.847 130.529 103.25C130.212 102.653 130.053 101.953 130.053 101.15ZM146.033 100.87C146.033 101.113 146.019 101.369 145.991 101.64H139.859C139.906 102.396 140.162 102.989 140.629 103.418C141.105 103.838 141.679 104.048 142.351 104.048C142.902 104.048 143.359 103.922 143.723 103.67C144.096 103.409 144.358 103.063 144.507 102.634H145.879C145.674 103.371 145.263 103.973 144.647 104.44C144.031 104.897 143.266 105.126 142.351 105.126C141.623 105.126 140.97 104.963 140.391 104.636C139.822 104.309 139.374 103.847 139.047 103.25C138.72 102.643 138.557 101.943 138.557 101.15C138.557 100.357 138.716 99.6613 139.033 99.064C139.35 98.4667 139.794 98.0093 140.363 97.692C140.942 97.3653 141.604 97.202 142.351 97.202C143.079 97.202 143.723 97.3607 144.283 97.678C144.843 97.9953 145.272 98.434 145.571 98.994C145.879 99.5447 146.033 100.17 146.033 100.87ZM144.717 100.604C144.717 100.119 144.61 99.7033 144.395 99.358C144.18 99.0033 143.886 98.7373 143.513 98.56C143.149 98.3733 142.743 98.28 142.295 98.28C141.651 98.28 141.1 98.4853 140.643 98.896C140.195 99.3067 139.938 99.876 139.873 100.604H144.717ZM148.989 98.574C149.213 98.1353 149.53 97.7947 149.941 97.552C150.361 97.3093 150.869 97.188 151.467 97.188V98.504H151.131C149.703 98.504 148.989 99.2787 148.989 100.828V105H147.715V97.328H148.989V98.574ZM159.545 97.328L154.925 108.612H153.609L155.121 104.916L152.027 97.328H153.441L155.849 103.544L158.229 97.328H159.545ZM162.142 103.236L160.574 107.002H159.72L160.742 103.236H162.142ZM166.858 101.15C166.858 100.357 167.017 99.666 167.334 99.078C167.651 98.4807 168.09 98.0187 168.65 97.692C169.219 97.3653 169.868 97.202 170.596 97.202C171.539 97.202 172.313 97.4307 172.92 97.888C173.536 98.3453 173.942 98.98 174.138 99.792H172.766C172.635 99.3253 172.379 98.9567 171.996 98.686C171.623 98.4153 171.156 98.28 170.596 98.28C169.868 98.28 169.28 98.532 168.832 99.036C168.384 99.5307 168.16 100.235 168.16 101.15C168.16 102.074 168.384 102.788 168.832 103.292C169.28 103.796 169.868 104.048 170.596 104.048C171.156 104.048 171.623 103.917 171.996 103.656C172.369 103.395 172.626 103.021 172.766 102.536H174.138C173.933 103.32 173.522 103.95 172.906 104.426C172.29 104.893 171.52 105.126 170.596 105.126C169.868 105.126 169.219 104.963 168.65 104.636C168.09 104.309 167.651 103.847 167.334 103.25C167.017 102.653 166.858 101.953 166.858 101.15ZM175.362 101.136C175.362 100.352 175.52 99.666 175.838 99.078C176.155 98.4807 176.589 98.0187 177.14 97.692C177.7 97.3653 178.32 97.202 179.002 97.202C179.674 97.202 180.257 97.3467 180.752 97.636C181.246 97.9253 181.615 98.2893 181.858 98.728V97.328H183.146V105H181.858V103.572C181.606 104.02 181.228 104.393 180.724 104.692C180.229 104.981 179.65 105.126 178.988 105.126C178.306 105.126 177.69 104.958 177.14 104.622C176.589 104.286 176.155 103.815 175.838 103.208C175.52 102.601 175.362 101.911 175.362 101.136ZM181.858 101.15C181.858 100.571 181.741 100.067 181.508 99.638C181.274 99.2087 180.957 98.882 180.556 98.658C180.164 98.4247 179.73 98.308 179.254 98.308C178.778 98.308 178.344 98.42 177.952 98.644C177.56 98.868 177.247 99.1947 177.014 99.624C176.78 100.053 176.664 100.557 176.664 101.136C176.664 101.724 176.78 102.237 177.014 102.676C177.247 103.105 177.56 103.437 177.952 103.67C178.344 103.894 178.778 104.006 179.254 104.006C179.73 104.006 180.164 103.894 180.556 103.67C180.957 103.437 181.274 103.105 181.508 102.676C181.741 102.237 181.858 101.729 181.858 101.15ZM189.583 105L186.573 101.612V105H185.299V94.64H186.573V100.73L189.527 97.328H191.305L187.693 101.15L191.319 105H189.583ZM199.504 100.87C199.504 101.113 199.49 101.369 199.462 101.64H193.33C193.376 102.396 193.633 102.989 194.1 103.418C194.576 103.838 195.15 104.048 195.822 104.048C196.372 104.048 196.83 103.922 197.194 103.67C197.567 103.409 197.828 103.063 197.978 102.634H199.35C199.144 103.371 198.734 103.973 198.118 104.44C197.502 104.897 196.736 105.126 195.822 105.126C195.094 105.126 194.44 104.963 193.862 104.636C193.292 104.309 192.844 103.847 192.518 103.25C192.191 102.643 192.028 101.943 192.028 101.15C192.028 100.357 192.186 99.6613 192.504 99.064C192.821 98.4667 193.264 98.0093 193.834 97.692C194.412 97.3653 195.075 97.202 195.822 97.202C196.55 97.202 197.194 97.3607 197.754 97.678C198.314 97.9953 198.743 98.434 199.042 98.994C199.35 99.5447 199.504 100.17 199.504 100.87ZM198.188 100.604C198.188 100.119 198.08 99.7033 197.866 99.358C197.651 99.0033 197.357 98.7373 196.984 98.56C196.62 98.3733 196.214 98.28 195.766 98.28C195.122 98.28 194.571 98.4853 194.114 98.896C193.666 99.3067 193.409 99.876 193.344 100.604H198.188ZM202.501 103.236L200.933 107.002H200.079L201.101 103.236H202.501ZM216.919 97.188C217.517 97.188 218.049 97.314 218.515 97.566C218.982 97.8087 219.351 98.1773 219.621 98.672C219.892 99.1667 220.027 99.7687 220.027 100.478V105H218.767V100.66C218.767 99.8947 218.576 99.3113 218.193 98.91C217.82 98.4993 217.311 98.294 216.667 98.294C216.005 98.294 215.477 98.5087 215.085 98.938C214.693 99.358 214.497 99.9693 214.497 100.772V105H213.237V100.66C213.237 99.8947 213.046 99.3113 212.663 98.91C212.29 98.4993 211.781 98.294 211.137 98.294C210.475 98.294 209.947 98.5087 209.555 98.938C209.163 99.358 208.967 99.9693 208.967 100.772V105H207.693V97.328H208.967V98.434C209.219 98.0327 209.555 97.7247 209.975 97.51C210.405 97.2953 210.876 97.188 211.389 97.188C212.033 97.188 212.603 97.3327 213.097 97.622C213.592 97.9113 213.961 98.336 214.203 98.896C214.418 98.3547 214.773 97.9347 215.267 97.636C215.762 97.3373 216.313 97.188 216.919 97.188ZM229.117 100.87C229.117 101.113 229.103 101.369 229.075 101.64H222.943C222.99 102.396 223.246 102.989 223.713 103.418C224.189 103.838 224.763 104.048 225.435 104.048C225.986 104.048 226.443 103.922 226.807 103.67C227.18 103.409 227.442 103.063 227.591 102.634H228.963C228.758 103.371 228.347 103.973 227.731 104.44C227.115 104.897 226.35 105.126 225.435 105.126C224.707 105.126 224.054 104.963 223.475 104.636C222.906 104.309 222.458 103.847 222.131 103.25C221.804 102.643 221.641 101.943 221.641 101.15C221.641 100.357 221.8 99.6613 222.117 99.064C222.434 98.4667 222.878 98.0093 223.447 97.692C224.026 97.3653 224.688 97.202 225.435 97.202C226.163 97.202 226.807 97.3607 227.367 97.678C227.927 97.9953 228.356 98.434 228.655 98.994C228.963 99.5447 229.117 100.17 229.117 100.87ZM227.801 100.604C227.801 100.119 227.694 99.7033 227.479 99.358C227.264 99.0033 226.97 98.7373 226.597 98.56C226.233 98.3733 225.827 98.28 225.379 98.28C224.735 98.28 224.184 98.4853 223.727 98.896C223.279 99.3067 223.022 99.876 222.957 100.604H227.801ZM230.323 101.136C230.323 100.352 230.481 99.666 230.799 99.078C231.116 98.4807 231.55 98.0187 232.101 97.692C232.661 97.3653 233.281 97.202 233.963 97.202C234.635 97.202 235.218 97.3467 235.713 97.636C236.207 97.9253 236.576 98.2893 236.819 98.728V97.328H238.107V105H236.819V103.572C236.567 104.02 236.189 104.393 235.685 104.692C235.19 104.981 234.611 105.126 233.949 105.126C233.267 105.126 232.651 104.958 232.101 104.622C231.55 104.286 231.116 103.815 230.799 103.208C230.481 102.601 230.323 101.911 230.323 101.136ZM236.819 101.15C236.819 100.571 236.702 100.067 236.469 99.638C236.235 99.2087 235.918 98.882 235.517 98.658C235.125 98.4247 234.691 98.308 234.215 98.308C233.739 98.308 233.305 98.42 232.913 98.644C232.521 98.868 232.208 99.1947 231.975 99.624C231.741 100.053 231.625 100.557 231.625 101.136C231.625 101.724 231.741 102.237 231.975 102.676C232.208 103.105 232.521 103.437 232.913 103.67C233.305 103.894 233.739 104.006 234.215 104.006C234.691 104.006 235.125 103.894 235.517 103.67C235.918 103.437 236.235 103.105 236.469 102.676C236.702 102.237 236.819 101.729 236.819 101.15ZM241.814 98.378V102.9C241.814 103.273 241.893 103.539 242.052 103.698C242.21 103.847 242.486 103.922 242.878 103.922H243.816V105H242.668C241.958 105 241.426 104.837 241.072 104.51C240.717 104.183 240.54 103.647 240.54 102.9V98.378H239.546V97.328H240.54V95.396H241.814V97.328H243.816V98.378H241.814ZM246.675 103.236L245.107 107.002H244.253L245.275 103.236H246.675ZM254.989 98.378H253.379V105H252.105V98.378H251.111V97.328H252.105V96.782C252.105 95.9233 252.324 95.298 252.763 94.906C253.211 94.5047 253.925 94.304 254.905 94.304V95.368C254.345 95.368 253.948 95.48 253.715 95.704C253.491 95.9187 253.379 96.278 253.379 96.782V97.328H254.989V98.378ZM257.132 96.082C256.89 96.082 256.684 95.998 256.516 95.83C256.348 95.662 256.264 95.4567 256.264 95.214C256.264 94.9713 256.348 94.766 256.516 94.598C256.684 94.43 256.89 94.346 257.132 94.346C257.366 94.346 257.562 94.43 257.72 94.598C257.888 94.766 257.972 94.9713 257.972 95.214C257.972 95.4567 257.888 95.662 257.72 95.83C257.562 95.998 257.366 96.082 257.132 96.082ZM257.748 97.328V105H256.474V97.328H257.748ZM262.636 105.126C262.048 105.126 261.52 105.028 261.054 104.832C260.587 104.627 260.218 104.347 259.948 103.992C259.677 103.628 259.528 103.213 259.5 102.746H260.816C260.853 103.129 261.03 103.441 261.348 103.684C261.674 103.927 262.099 104.048 262.622 104.048C263.107 104.048 263.49 103.941 263.77 103.726C264.05 103.511 264.19 103.241 264.19 102.914C264.19 102.578 264.04 102.331 263.742 102.172C263.443 102.004 262.981 101.841 262.356 101.682C261.786 101.533 261.32 101.383 260.956 101.234C260.601 101.075 260.293 100.847 260.032 100.548C259.78 100.24 259.654 99.8387 259.654 99.344C259.654 98.952 259.77 98.5927 260.004 98.266C260.237 97.9393 260.568 97.6827 260.998 97.496C261.427 97.3 261.917 97.202 262.468 97.202C263.317 97.202 264.003 97.4167 264.526 97.846C265.048 98.2753 265.328 98.8633 265.366 99.61H264.092C264.064 99.2087 263.9 98.8867 263.602 98.644C263.312 98.4013 262.92 98.28 262.426 98.28C261.968 98.28 261.604 98.378 261.334 98.574C261.063 98.77 260.928 99.0267 260.928 99.344C260.928 99.596 261.007 99.806 261.166 99.974C261.334 100.133 261.539 100.263 261.782 100.366C262.034 100.459 262.379 100.567 262.818 100.688C263.368 100.837 263.816 100.987 264.162 101.136C264.507 101.276 264.801 101.491 265.044 101.78C265.296 102.069 265.426 102.447 265.436 102.914C265.436 103.334 265.319 103.712 265.086 104.048C264.852 104.384 264.521 104.65 264.092 104.846C263.672 105.033 263.186 105.126 262.636 105.126ZM271.042 97.188C271.621 97.188 272.144 97.314 272.61 97.566C273.077 97.8087 273.441 98.1773 273.702 98.672C273.973 99.1667 274.108 99.7687 274.108 100.478V105H272.848V100.66C272.848 99.8947 272.657 99.3113 272.274 98.91C271.892 98.4993 271.369 98.294 270.706 98.294C270.034 98.294 269.498 98.504 269.096 98.924C268.704 99.344 268.508 99.9553 268.508 100.758V105H267.234V94.64H268.508V98.42C268.76 98.028 269.106 97.7247 269.544 97.51C269.992 97.2953 270.492 97.188 271.042 97.188ZM277.505 103.236L275.937 107.002H275.083L276.105 103.236H277.505ZM285.413 105.126C284.825 105.126 284.298 105.028 283.831 104.832C283.364 104.627 282.996 104.347 282.725 103.992C282.454 103.628 282.305 103.213 282.277 102.746H283.593C283.63 103.129 283.808 103.441 284.125 103.684C284.452 103.927 284.876 104.048 285.399 104.048C285.884 104.048 286.267 103.941 286.547 103.726C286.827 103.511 286.967 103.241 286.967 102.914C286.967 102.578 286.818 102.331 286.519 102.172C286.22 102.004 285.758 101.841 285.133 101.682C284.564 101.533 284.097 101.383 283.733 101.234C283.378 101.075 283.07 100.847 282.809 100.548C282.557 100.24 282.431 99.8387 282.431 99.344C282.431 98.952 282.548 98.5927 282.781 98.266C283.014 97.9393 283.346 97.6827 283.775 97.496C284.204 97.3 284.694 97.202 285.245 97.202C286.094 97.202 286.78 97.4167 287.303 97.846C287.826 98.2753 288.106 98.8633 288.143 99.61H286.869C286.841 99.2087 286.678 98.8867 286.379 98.644C286.09 98.4013 285.698 98.28 285.203 98.28C284.746 98.28 284.382 98.378 284.111 98.574C283.84 98.77 283.705 99.0267 283.705 99.344C283.705 99.596 283.784 99.806 283.943 99.974C284.111 100.133 284.316 100.263 284.559 100.366C284.811 100.459 285.156 100.567 285.595 100.688C286.146 100.837 286.594 100.987 286.939 101.136C287.284 101.276 287.578 101.491 287.821 101.78C288.073 102.069 288.204 102.447 288.213 102.914C288.213 103.334 288.096 103.712 287.863 104.048C287.63 104.384 287.298 104.65 286.869 104.846C286.449 105.033 285.964 105.126 285.413 105.126ZM291.566 98.378V102.9C291.566 103.273 291.645 103.539 291.804 103.698C291.962 103.847 292.238 103.922 292.63 103.922H293.568V105H292.42C291.71 105 291.178 104.837 290.824 104.51C290.469 104.183 290.292 103.647 290.292 102.9V98.378H289.298V97.328H290.292V95.396H291.566V97.328H293.568V98.378H291.566ZM294.635 101.136C294.635 100.352 294.794 99.666 295.111 99.078C295.429 98.4807 295.863 98.0187 296.413 97.692C296.973 97.3653 297.594 97.202 298.275 97.202C298.947 97.202 299.531 97.3467 300.025 97.636C300.52 97.9253 300.889 98.2893 301.131 98.728V97.328H302.419V105H301.131V103.572C300.879 104.02 300.501 104.393 299.997 104.692C299.503 104.981 298.924 105.126 298.261 105.126C297.58 105.126 296.964 104.958 296.413 104.622C295.863 104.286 295.429 103.815 295.111 103.208C294.794 102.601 294.635 101.911 294.635 101.136ZM301.131 101.15C301.131 100.571 301.015 100.067 300.781 99.638C300.548 99.2087 300.231 98.882 299.829 98.658C299.437 98.4247 299.003 98.308 298.527 98.308C298.051 98.308 297.617 98.42 297.225 98.644C296.833 98.868 296.521 99.1947 296.287 99.624C296.054 100.053 295.937 100.557 295.937 101.136C295.937 101.724 296.054 102.237 296.287 102.676C296.521 103.105 296.833 103.437 297.225 103.67C297.617 103.894 298.051 104.006 298.527 104.006C299.003 104.006 299.437 103.894 299.829 103.67C300.231 103.437 300.548 103.105 300.781 102.676C301.015 102.237 301.131 101.729 301.131 101.15ZM306.126 98.378V102.9C306.126 103.273 306.205 103.539 306.364 103.698C306.523 103.847 306.798 103.922 307.19 103.922H308.128V105H306.98C306.271 105 305.739 104.837 305.384 104.51C305.029 104.183 304.852 103.647 304.852 102.9V98.378H303.858V97.328H304.852V95.396H306.126V97.328H308.128V98.378H306.126ZM310.33 96.082C310.087 96.082 309.882 95.998 309.714 95.83C309.546 95.662 309.462 95.4567 309.462 95.214C309.462 94.9713 309.546 94.766 309.714 94.598C309.882 94.43 310.087 94.346 310.33 94.346C310.563 94.346 310.759 94.43 310.918 94.598C311.086 94.766 311.17 94.9713 311.17 95.214C311.17 95.4567 311.086 95.662 310.918 95.83C310.759 95.998 310.563 96.082 310.33 96.082ZM310.946 97.328V105H309.672V97.328H310.946ZM316.463 105.126C315.744 105.126 315.091 104.963 314.503 104.636C313.924 104.309 313.467 103.847 313.131 103.25C312.804 102.643 312.641 101.943 312.641 101.15C312.641 100.366 312.809 99.6753 313.145 99.078C313.49 98.4713 313.957 98.0093 314.545 97.692C315.133 97.3653 315.791 97.202 316.519 97.202C317.247 97.202 317.905 97.3653 318.493 97.692C319.081 98.0093 319.543 98.4667 319.879 99.064C320.224 99.6613 320.397 100.357 320.397 101.15C320.397 101.943 320.22 102.643 319.865 103.25C319.52 103.847 319.048 104.309 318.451 104.636C317.854 104.963 317.191 105.126 316.463 105.126ZM316.463 104.006C316.92 104.006 317.35 103.899 317.751 103.684C318.152 103.469 318.474 103.147 318.717 102.718C318.969 102.289 319.095 101.766 319.095 101.15C319.095 100.534 318.974 100.011 318.731 99.582C318.488 99.1527 318.171 98.8353 317.779 98.63C317.387 98.4153 316.962 98.308 316.505 98.308C316.038 98.308 315.609 98.4153 315.217 98.63C314.834 98.8353 314.526 99.1527 314.293 99.582C314.06 100.011 313.943 100.534 313.943 101.15C313.943 101.775 314.055 102.303 314.279 102.732C314.512 103.161 314.82 103.483 315.203 103.698C315.586 103.903 316.006 104.006 316.463 104.006ZM325.81 97.188C326.743 97.188 327.499 97.4727 328.078 98.042C328.657 98.602 328.946 99.414 328.946 100.478V105H327.686V100.66C327.686 99.8947 327.495 99.3113 327.112 98.91C326.729 98.4993 326.207 98.294 325.544 98.294C324.872 98.294 324.335 98.504 323.934 98.924C323.542 99.344 323.346 99.9553 323.346 100.758V105H322.072V97.328H323.346V98.42C323.598 98.028 323.939 97.7247 324.368 97.51C324.807 97.2953 325.287 97.188 325.81 97.188ZM330.551 101.136C330.551 100.352 330.71 99.666 331.027 99.078C331.345 98.4807 331.779 98.0187 332.329 97.692C332.889 97.3653 333.51 97.202 334.191 97.202C334.863 97.202 335.447 97.3467 335.941 97.636C336.436 97.9253 336.805 98.2893 337.047 98.728V97.328H338.335V105H337.047V103.572C336.795 104.02 336.417 104.393 335.913 104.692C335.419 104.981 334.84 105.126 334.177 105.126C333.496 105.126 332.88 104.958 332.329 104.622C331.779 104.286 331.345 103.815 331.027 103.208C330.71 102.601 330.551 101.911 330.551 101.136ZM337.047 101.15C337.047 100.571 336.931 100.067 336.697 99.638C336.464 99.2087 336.147 98.882 335.745 98.658C335.353 98.4247 334.919 98.308 334.443 98.308C333.967 98.308 333.533 98.42 333.141 98.644C332.749 98.868 332.437 99.1947 332.203 99.624C331.97 100.053 331.853 100.557 331.853 101.136C331.853 101.724 331.97 102.237 332.203 102.676C332.437 103.105 332.749 103.437 333.141 103.67C333.533 103.894 333.967 104.006 334.443 104.006C334.919 104.006 335.353 103.894 335.745 103.67C336.147 103.437 336.464 103.105 336.697 102.676C336.931 102.237 337.047 101.729 337.047 101.15ZM341.762 98.574C341.986 98.1353 342.303 97.7947 342.714 97.552C343.134 97.3093 343.643 97.188 344.24 97.188V98.504H343.904C342.476 98.504 341.762 99.2787 341.762 100.828V105H340.488V97.328H341.762V98.574ZM352.319 97.328L347.699 108.612H346.383L347.895 104.916L344.801 97.328H346.215L348.623 103.544L351.003 97.328H352.319ZM356.856 101.136C356.856 100.352 357.015 99.666 357.332 99.078C357.649 98.4807 358.083 98.0187 358.634 97.692C359.194 97.3653 359.815 97.202 360.496 97.202C361.168 97.202 361.751 97.3467 362.246 97.636C362.741 97.9253 363.109 98.2893 363.352 98.728V97.328H364.64V105H363.352V103.572C363.1 104.02 362.722 104.393 362.218 104.692C361.723 104.981 361.145 105.126 360.482 105.126C359.801 105.126 359.185 104.958 358.634 104.622C358.083 104.286 357.649 103.815 357.332 103.208C357.015 102.601 356.856 101.911 356.856 101.136ZM363.352 101.15C363.352 100.571 363.235 100.067 363.002 99.638C362.769 99.2087 362.451 98.882 362.05 98.658C361.658 98.4247 361.224 98.308 360.748 98.308C360.272 98.308 359.838 98.42 359.446 98.644C359.054 98.868 358.741 99.1947 358.508 99.624C358.275 100.053 358.158 100.557 358.158 101.136C358.158 101.724 358.275 102.237 358.508 102.676C358.741 103.105 359.054 103.437 359.446 103.67C359.838 103.894 360.272 104.006 360.748 104.006C361.224 104.006 361.658 103.894 362.05 103.67C362.451 103.437 362.769 103.105 363.002 102.676C363.235 102.237 363.352 101.729 363.352 101.15ZM370.531 97.188C371.464 97.188 372.22 97.4727 372.799 98.042C373.378 98.602 373.667 99.414 373.667 100.478V105H372.407V100.66C372.407 99.8947 372.216 99.3113 371.833 98.91C371.45 98.4993 370.928 98.294 370.265 98.294C369.593 98.294 369.056 98.504 368.655 98.924C368.263 99.344 368.067 99.9553 368.067 100.758V105H366.793V97.328H368.067V98.42C368.319 98.028 368.66 97.7247 369.089 97.51C369.528 97.2953 370.008 97.188 370.531 97.188ZM375.272 101.136C375.272 100.352 375.431 99.666 375.748 99.078C376.065 98.4807 376.499 98.0187 377.05 97.692C377.61 97.3653 378.235 97.202 378.926 97.202C379.523 97.202 380.079 97.342 380.592 97.622C381.105 97.8927 381.497 98.252 381.768 98.7V94.64H383.056V105H381.768V103.558C381.516 104.015 381.143 104.393 380.648 104.692C380.153 104.981 379.575 105.126 378.912 105.126C378.231 105.126 377.61 104.958 377.05 104.622C376.499 104.286 376.065 103.815 375.748 103.208C375.431 102.601 375.272 101.911 375.272 101.136ZM381.768 101.15C381.768 100.571 381.651 100.067 381.418 99.638C381.185 99.2087 380.867 98.882 380.466 98.658C380.074 98.4247 379.64 98.308 379.164 98.308C378.688 98.308 378.254 98.42 377.862 98.644C377.47 98.868 377.157 99.1947 376.924 99.624C376.691 100.053 376.574 100.557 376.574 101.136C376.574 101.724 376.691 102.237 376.924 102.676C377.157 103.105 377.47 103.437 377.862 103.67C378.254 103.894 378.688 104.006 379.164 104.006C379.64 104.006 380.074 103.894 380.466 103.67C380.867 103.437 381.185 103.105 381.418 102.676C381.651 102.237 381.768 101.729 381.768 101.15ZM388.465 101.136C388.465 100.352 388.624 99.666 388.941 99.078C389.259 98.4807 389.693 98.0187 390.243 97.692C390.803 97.3653 391.424 97.202 392.105 97.202C392.777 97.202 393.361 97.3467 393.855 97.636C394.35 97.9253 394.719 98.2893 394.961 98.728V97.328H396.249V105H394.961V103.572C394.709 104.02 394.331 104.393 393.827 104.692C393.333 104.981 392.754 105.126 392.091 105.126C391.41 105.126 390.794 104.958 390.243 104.622C389.693 104.286 389.259 103.815 388.941 103.208C388.624 102.601 388.465 101.911 388.465 101.136ZM394.961 101.15C394.961 100.571 394.845 100.067 394.611 99.638C394.378 99.2087 394.061 98.882 393.659 98.658C393.267 98.4247 392.833 98.308 392.357 98.308C391.881 98.308 391.447 98.42 391.055 98.644C390.663 98.868 390.351 99.1947 390.117 99.624C389.884 100.053 389.767 100.557 389.767 101.136C389.767 101.724 389.884 102.237 390.117 102.676C390.351 103.105 390.663 103.437 391.055 103.67C391.447 103.894 391.881 104.006 392.357 104.006C392.833 104.006 393.267 103.894 393.659 103.67C394.061 103.437 394.378 103.105 394.611 102.676C394.845 102.237 394.961 101.729 394.961 101.15ZM402.14 97.188C403.074 97.188 403.83 97.4727 404.408 98.042C404.987 98.602 405.276 99.414 405.276 100.478V105H404.016V100.66C404.016 99.8947 403.825 99.3113 403.442 98.91C403.06 98.4993 402.537 98.294 401.874 98.294C401.202 98.294 400.666 98.504 400.264 98.924C399.872 99.344 399.676 99.9553 399.676 100.758V105H398.402V97.328H399.676V98.42C399.928 98.028 400.269 97.7247 400.698 97.51C401.137 97.2953 401.618 97.188 402.14 97.188ZM413.965 97.328L409.345 108.612H408.029L409.541 104.916L406.447 97.328H407.861L410.269 103.544L412.649 97.328H413.965ZM419.636 96.082C419.394 96.082 419.188 95.998 419.02 95.83C418.852 95.662 418.768 95.4567 418.768 95.214C418.768 94.9713 418.852 94.766 419.02 94.598C419.188 94.43 419.394 94.346 419.636 94.346C419.87 94.346 420.066 94.43 420.224 94.598C420.392 94.766 420.476 94.9713 420.476 95.214C420.476 95.4567 420.392 95.662 420.224 95.83C420.066 95.998 419.87 96.082 419.636 96.082ZM420.252 97.328V105H418.978V97.328H420.252ZM423.978 98.378V102.9C423.978 103.273 424.057 103.539 424.216 103.698C424.374 103.847 424.65 103.922 425.042 103.922H425.98V105H424.832C424.122 105 423.59 104.837 423.236 104.51C422.881 104.183 422.704 103.647 422.704 102.9V98.378H421.71V97.328H422.704V95.396H423.978V97.328H425.98V98.378H423.978ZM434.523 100.87C434.523 101.113 434.509 101.369 434.481 101.64H428.349C428.396 102.396 428.653 102.989 429.119 103.418C429.595 103.838 430.169 104.048 430.841 104.048C431.392 104.048 431.849 103.922 432.213 103.67C432.587 103.409 432.848 103.063 432.997 102.634H434.369C434.164 103.371 433.753 103.973 433.137 104.44C432.521 104.897 431.756 105.126 430.841 105.126C430.113 105.126 429.46 104.963 428.881 104.636C428.312 104.309 427.864 103.847 427.537 103.25C427.211 102.643 427.047 101.943 427.047 101.15C427.047 100.357 427.206 99.6613 427.523 99.064C427.841 98.4667 428.284 98.0093 428.853 97.692C429.432 97.3653 430.095 97.202 430.841 97.202C431.569 97.202 432.213 97.3607 432.773 97.678C433.333 97.9953 433.763 98.434 434.061 98.994C434.369 99.5447 434.523 100.17 434.523 100.87ZM433.207 100.604C433.207 100.119 433.1 99.7033 432.885 99.358C432.671 99.0033 432.377 98.7373 432.003 98.56C431.639 98.3733 431.233 98.28 430.785 98.28C430.141 98.28 429.591 98.4853 429.133 98.896C428.685 99.3067 428.429 99.876 428.363 100.604H433.207ZM445.431 97.188C446.028 97.188 446.56 97.314 447.027 97.566C447.494 97.8087 447.862 98.1773 448.133 98.672C448.404 99.1667 448.539 99.7687 448.539 100.478V105H447.279V100.66C447.279 99.8947 447.088 99.3113 446.705 98.91C446.332 98.4993 445.823 98.294 445.179 98.294C444.516 98.294 443.989 98.5087 443.597 98.938C443.205 99.358 443.009 99.9693 443.009 100.772V105H441.749V100.66C441.749 99.8947 441.558 99.3113 441.175 98.91C440.802 98.4993 440.293 98.294 439.649 98.294C438.986 98.294 438.459 98.5087 438.067 98.938C437.675 99.358 437.479 99.9693 437.479 100.772V105H436.205V97.328H437.479V98.434C437.731 98.0327 438.067 97.7247 438.487 97.51C438.916 97.2953 439.388 97.188 439.901 97.188C440.545 97.188 441.114 97.3327 441.609 97.622C442.104 97.9113 442.472 98.336 442.715 98.896C442.93 98.3547 443.284 97.9347 443.779 97.636C444.274 97.3373 444.824 97.188 445.431 97.188ZM457.483 98.378H455.873V105H454.599V98.378H453.605V97.328H454.599V96.782C454.599 95.9233 454.819 95.298 455.257 94.906C455.705 94.5047 456.419 94.304 457.399 94.304V95.368C456.839 95.368 456.443 95.48 456.209 95.704C455.985 95.9187 455.873 96.278 455.873 96.782V97.328H457.483V98.378ZM460.243 98.574C460.467 98.1353 460.784 97.7947 461.195 97.552C461.615 97.3093 462.123 97.188 462.721 97.188V98.504H462.385C460.957 98.504 460.243 99.2787 460.243 100.828V105H458.969V97.328H460.243V98.574ZM467.537 105.126C466.819 105.126 466.165 104.963 465.577 104.636C464.999 104.309 464.541 103.847 464.205 103.25C463.879 102.643 463.715 101.943 463.715 101.15C463.715 100.366 463.883 99.6753 464.219 99.078C464.565 98.4713 465.031 98.0093 465.619 97.692C466.207 97.3653 466.865 97.202 467.593 97.202C468.321 97.202 468.979 97.3653 469.567 97.692C470.155 98.0093 470.617 98.4667 470.953 99.064C471.299 99.6613 471.471 100.357 471.471 101.15C471.471 101.943 471.294 102.643 470.939 103.25C470.594 103.847 470.123 104.309 469.525 104.636C468.928 104.963 468.265 105.126 467.537 105.126ZM467.537 104.006C467.995 104.006 468.424 103.899 468.825 103.684C469.227 103.469 469.549 103.147 469.791 102.718C470.043 102.289 470.169 101.766 470.169 101.15C470.169 100.534 470.048 100.011 469.805 99.582C469.563 99.1527 469.245 98.8353 468.853 98.63C468.461 98.4153 468.037 98.308 467.579 98.308C467.113 98.308 466.683 98.4153 466.291 98.63C465.909 98.8353 465.601 99.1527 465.367 99.582C465.134 100.011 465.017 100.534 465.017 101.15C465.017 101.775 465.129 102.303 465.353 102.732C465.587 103.161 465.895 103.483 466.277 103.698C466.66 103.903 467.08 104.006 467.537 104.006ZM482.372 97.188C482.97 97.188 483.502 97.314 483.968 97.566C484.435 97.8087 484.804 98.1773 485.074 98.672C485.345 99.1667 485.48 99.7687 485.48 100.478V105H484.22V100.66C484.22 99.8947 484.029 99.3113 483.646 98.91C483.273 98.4993 482.764 98.294 482.12 98.294C481.458 98.294 480.93 98.5087 480.538 98.938C480.146 99.358 479.95 99.9693 479.95 100.772V105H478.69V100.66C478.69 99.8947 478.499 99.3113 478.116 98.91C477.743 98.4993 477.234 98.294 476.59 98.294C475.928 98.294 475.4 98.5087 475.008 98.938C474.616 99.358 474.42 99.9693 474.42 100.772V105H473.146V97.328H474.42V98.434C474.672 98.0327 475.008 97.7247 475.428 97.51C475.858 97.2953 476.329 97.188 476.842 97.188C477.486 97.188 478.056 97.3327 478.55 97.622C479.045 97.9113 479.414 98.336 479.656 98.896C479.871 98.3547 480.226 97.9347 480.72 97.636C481.215 97.3373 481.766 97.188 482.372 97.188ZM490.827 101.136C490.827 100.352 490.985 99.666 491.303 99.078C491.62 98.4807 492.054 98.0187 492.605 97.692C493.165 97.3653 493.785 97.202 494.467 97.202C495.139 97.202 495.722 97.3467 496.217 97.636C496.711 97.9253 497.08 98.2893 497.323 98.728V97.328H498.611V105H497.323V103.572C497.071 104.02 496.693 104.393 496.189 104.692C495.694 104.981 495.115 105.126 494.453 105.126C493.771 105.126 493.155 104.958 492.605 104.622C492.054 104.286 491.62 103.815 491.303 103.208C490.985 102.601 490.827 101.911 490.827 101.136ZM497.323 101.15C497.323 100.571 497.206 100.067 496.973 99.638C496.739 99.2087 496.422 98.882 496.021 98.658C495.629 98.4247 495.195 98.308 494.719 98.308C494.243 98.308 493.809 98.42 493.417 98.644C493.025 98.868 492.712 99.1947 492.479 99.624C492.245 100.053 492.129 100.557 492.129 101.136C492.129 101.724 492.245 102.237 492.479 102.676C492.712 103.105 493.025 103.437 493.417 103.67C493.809 103.894 494.243 104.006 494.719 104.006C495.195 104.006 495.629 103.894 496.021 103.67C496.422 103.437 496.739 103.105 496.973 102.676C497.206 102.237 497.323 101.729 497.323 101.15ZM504.502 97.188C505.435 97.188 506.191 97.4727 506.77 98.042C507.348 98.602 507.638 99.414 507.638 100.478V105H506.378V100.66C506.378 99.8947 506.186 99.3113 505.804 98.91C505.421 98.4993 504.898 98.294 504.236 98.294C503.564 98.294 503.027 98.504 502.626 98.924C502.234 99.344 502.038 99.9553 502.038 100.758V105H500.764V97.328H502.038V98.42C502.29 98.028 502.63 97.7247 503.06 97.51C503.498 97.2953 503.979 97.188 504.502 97.188ZM516.327 97.328L511.707 108.612H510.391L511.903 104.916L508.809 97.328H510.223L512.631 103.544L515.011 97.328H516.327ZM527.827 97.328L525.433 105H524.117L522.269 98.91L520.421 105H519.105L516.697 97.328H517.999L519.763 103.768L521.667 97.328H522.969L524.831 103.782L526.567 97.328H527.827ZM532.9 97.188C533.478 97.188 534.001 97.314 534.468 97.566C534.934 97.8087 535.298 98.1773 535.56 98.672C535.83 99.1667 535.966 99.7687 535.966 100.478V105H534.706V100.66C534.706 99.8947 534.514 99.3113 534.132 98.91C533.749 98.4993 533.226 98.294 532.564 98.294C531.892 98.294 531.355 98.504 530.954 98.924C530.562 99.344 530.366 99.9553 530.366 100.758V105H529.092V94.64H530.366V98.42C530.618 98.028 530.963 97.7247 531.402 97.51C531.85 97.2953 532.349 97.188 532.9 97.188ZM545.047 100.87C545.047 101.113 545.033 101.369 545.005 101.64H538.873C538.919 102.396 539.176 102.989 539.643 103.418C540.119 103.838 540.693 104.048 541.365 104.048C541.915 104.048 542.373 103.922 542.737 103.67C543.11 103.409 543.371 103.063 543.521 102.634H544.893C544.687 103.371 544.277 103.973 543.661 104.44C543.045 104.897 542.279 105.126 541.365 105.126C540.637 105.126 539.983 104.963 539.405 104.636C538.835 104.309 538.387 103.847 538.061 103.25C537.734 102.643 537.571 101.943 537.571 101.15C537.571 100.357 537.729 99.6613 538.047 99.064C538.364 98.4667 538.807 98.0093 539.377 97.692C539.955 97.3653 540.618 97.202 541.365 97.202C542.093 97.202 542.737 97.3607 543.297 97.678C543.857 97.9953 544.286 98.434 544.585 98.994C544.893 99.5447 545.047 100.17 545.047 100.87ZM543.731 100.604C543.731 100.119 543.623 99.7033 543.409 99.358C543.194 99.0033 542.9 98.7373 542.527 98.56C542.163 98.3733 541.757 98.28 541.309 98.28C540.665 98.28 540.114 98.4853 539.657 98.896C539.209 99.3067 538.952 99.876 538.887 100.604H543.731ZM548.002 98.574C548.226 98.1353 548.544 97.7947 548.954 97.552C549.374 97.3093 549.883 97.188 550.48 97.188V98.504H550.144C548.716 98.504 548.002 99.2787 548.002 100.828V105H546.728V97.328H548.002V98.574ZM558.951 100.87C558.951 101.113 558.937 101.369 558.909 101.64H552.777C552.824 102.396 553.08 102.989 553.547 103.418C554.023 103.838 554.597 104.048 555.269 104.048C555.82 104.048 556.277 103.922 556.641 103.67C557.014 103.409 557.276 103.063 557.425 102.634H558.797C558.592 103.371 558.181 103.973 557.565 104.44C556.949 104.897 556.184 105.126 555.269 105.126C554.541 105.126 553.888 104.963 553.309 104.636C552.74 104.309 552.292 103.847 551.965 103.25C551.638 102.643 551.475 101.943 551.475 101.15C551.475 100.357 551.634 99.6613 551.951 99.064C552.268 98.4667 552.712 98.0093 553.281 97.692C553.86 97.3653 554.522 97.202 555.269 97.202C555.997 97.202 556.641 97.3607 557.201 97.678C557.761 97.9953 558.19 98.434 558.489 98.994C558.797 99.5447 558.951 100.17 558.951 100.87ZM557.635 100.604C557.635 100.119 557.528 99.7033 557.313 99.358C557.098 99.0033 556.804 98.7373 556.431 98.56C556.067 98.3733 555.661 98.28 555.213 98.28C554.569 98.28 554.018 98.4853 553.561 98.896C553.113 99.3067 552.856 99.876 552.791 100.604H557.635ZM565.023 96.082C564.78 96.082 564.575 95.998 564.407 95.83C564.239 95.662 564.155 95.4567 564.155 95.214C564.155 94.9713 564.239 94.766 564.407 94.598C564.575 94.43 564.78 94.346 565.023 94.346C565.256 94.346 565.452 94.43 565.611 94.598C565.779 94.766 565.863 94.9713 565.863 95.214C565.863 95.4567 565.779 95.662 565.611 95.83C565.452 95.998 565.256 96.082 565.023 96.082ZM565.639 97.328V105H564.365V97.328H565.639ZM571.548 97.188C572.482 97.188 573.238 97.4727 573.816 98.042C574.395 98.602 574.684 99.414 574.684 100.478V105H573.424V100.66C573.424 99.8947 573.233 99.3113 572.85 98.91C572.468 98.4993 571.945 98.294 571.282 98.294C570.61 98.294 570.074 98.504 569.672 98.924C569.28 99.344 569.084 99.9553 569.084 100.758V105H567.81V97.328H569.084V98.42C569.336 98.028 569.677 97.7247 570.106 97.51C570.545 97.2953 571.026 97.188 571.548 97.188ZM580.022 101.15C580.022 100.357 580.181 99.666 580.498 99.078C580.815 98.4807 581.254 98.0187 581.814 97.692C582.383 97.3653 583.032 97.202 583.76 97.202C584.703 97.202 585.477 97.4307 586.084 97.888C586.7 98.3453 587.106 98.98 587.302 99.792H585.93C585.799 99.3253 585.543 98.9567 585.16 98.686C584.787 98.4153 584.32 98.28 583.76 98.28C583.032 98.28 582.444 98.532 581.996 99.036C581.548 99.5307 581.324 100.235 581.324 101.15C581.324 102.074 581.548 102.788 581.996 103.292C582.444 103.796 583.032 104.048 583.76 104.048C584.32 104.048 584.787 103.917 585.16 103.656C585.533 103.395 585.79 103.021 585.93 102.536H587.302C587.097 103.32 586.686 103.95 586.07 104.426C585.454 104.893 584.684 105.126 583.76 105.126C583.032 105.126 582.383 104.963 581.814 104.636C581.254 104.309 580.815 103.847 580.498 103.25C580.181 102.653 580.022 101.953 580.022 101.15ZM589.66 96.082C589.417 96.082 589.212 95.998 589.044 95.83C588.876 95.662 588.792 95.4567 588.792 95.214C588.792 94.9713 588.876 94.766 589.044 94.598C589.212 94.43 589.417 94.346 589.66 94.346C589.893 94.346 590.089 94.43 590.248 94.598C590.416 94.766 590.5 94.9713 590.5 95.214C590.5 95.4567 590.416 95.662 590.248 95.83C590.089 95.998 589.893 96.082 589.66 96.082ZM590.276 97.328V105H589.002V97.328H590.276ZM594.001 98.378V102.9C594.001 103.273 594.08 103.539 594.239 103.698C594.398 103.847 594.673 103.922 595.065 103.922H596.003V105H594.855C594.146 105 593.614 104.837 593.259 104.51C592.904 104.183 592.727 103.647 592.727 102.9V98.378H591.733V97.328H592.727V95.396H594.001V97.328H596.003V98.378H594.001ZM604.155 97.328L599.535 108.612H598.219L599.731 104.916L596.637 97.328H598.051L600.459 103.544L602.839 97.328H604.155ZM619.388 97.328L616.994 105H615.678L613.83 98.91L611.982 105H610.666L608.258 97.328H609.56L611.324 103.768L613.228 97.328H614.53L616.392 103.782L618.128 97.328H619.388ZM624.46 97.188C625.039 97.188 625.562 97.314 626.028 97.566C626.495 97.8087 626.859 98.1773 627.12 98.672C627.391 99.1667 627.526 99.7687 627.526 100.478V105H626.266V100.66C626.266 99.8947 626.075 99.3113 625.692 98.91C625.31 98.4993 624.787 98.294 624.124 98.294C623.452 98.294 622.916 98.504 622.514 98.924C622.122 99.344 621.926 99.9553 621.926 100.758V105H620.652V94.64H621.926V98.42C622.178 98.028 622.524 97.7247 622.962 97.51C623.41 97.2953 623.91 97.188 624.46 97.188ZM630.265 96.082C630.023 96.082 629.817 95.998 629.649 95.83C629.481 95.662 629.397 95.4567 629.397 95.214C629.397 94.9713 629.481 94.766 629.649 94.598C629.817 94.43 630.023 94.346 630.265 94.346C630.499 94.346 630.695 94.43 630.853 94.598C631.021 94.766 631.105 94.9713 631.105 95.214C631.105 95.4567 631.021 95.662 630.853 95.83C630.695 95.998 630.499 96.082 630.265 96.082ZM630.881 97.328V105H629.607V97.328H630.881ZM632.577 101.15C632.577 100.357 632.735 99.666 633.053 99.078C633.37 98.4807 633.809 98.0187 634.369 97.692C634.938 97.3653 635.587 97.202 636.315 97.202C637.257 97.202 638.032 97.4307 638.639 97.888C639.255 98.3453 639.661 98.98 639.857 99.792H638.485C638.354 99.3253 638.097 98.9567 637.715 98.686C637.341 98.4153 636.875 98.28 636.315 98.28C635.587 98.28 634.999 98.532 634.551 99.036C634.103 99.5307 633.879 100.235 633.879 101.15C633.879 102.074 634.103 102.788 634.551 103.292C634.999 103.796 635.587 104.048 636.315 104.048C636.875 104.048 637.341 103.917 637.715 103.656C638.088 103.395 638.345 103.021 638.485 102.536H639.857C639.651 103.32 639.241 103.95 638.625 104.426C638.009 104.893 637.239 105.126 636.315 105.126C635.587 105.126 634.938 104.963 634.369 104.636C633.809 104.309 633.37 103.847 633.053 103.25C632.735 102.653 632.577 101.953 632.577 101.15ZM645.365 97.188C645.943 97.188 646.466 97.314 646.933 97.566C647.399 97.8087 647.763 98.1773 648.025 98.672C648.295 99.1667 648.431 99.7687 648.431 100.478V105H647.171V100.66C647.171 99.8947 646.979 99.3113 646.597 98.91C646.214 98.4993 645.691 98.294 645.029 98.294C644.357 98.294 643.82 98.504 643.419 98.924C643.027 99.344 642.831 99.9553 642.831 100.758V105H641.557V94.64H642.831V98.42C643.083 98.028 643.428 97.7247 643.867 97.51C644.315 97.2953 644.814 97.188 645.365 97.188ZM654.902 96.082C654.659 96.082 654.454 95.998 654.286 95.83C654.118 95.662 654.034 95.4567 654.034 95.214C654.034 94.9713 654.118 94.766 654.286 94.598C654.454 94.43 654.659 94.346 654.902 94.346C655.135 94.346 655.331 94.43 655.49 94.598C655.658 94.766 655.742 94.9713 655.742 95.214C655.742 95.4567 655.658 95.662 655.49 95.83C655.331 95.998 655.135 96.082 654.902 96.082ZM655.518 97.328V105H654.244V97.328H655.518ZM660.405 105.126C659.817 105.126 659.29 105.028 658.823 104.832C658.357 104.627 657.988 104.347 657.717 103.992C657.447 103.628 657.297 103.213 657.269 102.746H658.585C658.623 103.129 658.8 103.441 659.117 103.684C659.444 103.927 659.869 104.048 660.391 104.048C660.877 104.048 661.259 103.941 661.539 103.726C661.819 103.511 661.959 103.241 661.959 102.914C661.959 102.578 661.81 102.331 661.511 102.172C661.213 102.004 660.751 101.841 660.125 101.682C659.556 101.533 659.089 101.383 658.725 101.234C658.371 101.075 658.063 100.847 657.801 100.548C657.549 100.24 657.423 99.8387 657.423 99.344C657.423 98.952 657.54 98.5927 657.773 98.266C658.007 97.9393 658.338 97.6827 658.767 97.496C659.197 97.3 659.687 97.202 660.237 97.202C661.087 97.202 661.773 97.4167 662.295 97.846C662.818 98.2753 663.098 98.8633 663.135 99.61H661.861C661.833 99.2087 661.67 98.8867 661.371 98.644C661.082 98.4013 660.69 98.28 660.195 98.28C659.738 98.28 659.374 98.378 659.103 98.574C658.833 98.77 658.697 99.0267 658.697 99.344C658.697 99.596 658.777 99.806 658.935 99.974C659.103 100.133 659.309 100.263 659.551 100.366C659.803 100.459 660.149 100.567 660.587 100.688C661.138 100.837 661.586 100.987 661.931 101.136C662.277 101.276 662.571 101.491 662.813 101.78C663.065 102.069 663.196 102.447 663.205 102.914C663.205 103.334 663.089 103.712 662.855 104.048C662.622 104.384 662.291 104.65 661.861 104.846C661.441 105.033 660.956 105.126 660.405 105.126ZM670.01 94.64V105H668.736V94.64H670.01ZM679.182 100.87C679.182 101.113 679.168 101.369 679.14 101.64H673.008C673.054 102.396 673.311 102.989 673.778 103.418C674.254 103.838 674.828 104.048 675.5 104.048C676.05 104.048 676.508 103.922 676.872 103.67C677.245 103.409 677.506 103.063 677.656 102.634H679.028C678.822 103.371 678.412 103.973 677.796 104.44C677.18 104.897 676.414 105.126 675.5 105.126C674.772 105.126 674.118 104.963 673.54 104.636C672.97 104.309 672.522 103.847 672.196 103.25C671.869 102.643 671.706 101.943 671.706 101.15C671.706 100.357 671.864 99.6613 672.182 99.064C672.499 98.4667 672.942 98.0093 673.512 97.692C674.09 97.3653 674.753 97.202 675.5 97.202C676.228 97.202 676.872 97.3607 677.432 97.678C677.992 97.9953 678.421 98.434 678.72 98.994C679.028 99.5447 679.182 100.17 679.182 100.87ZM677.866 100.604C677.866 100.119 677.758 99.7033 677.544 99.358C677.329 99.0033 677.035 98.7373 676.662 98.56C676.298 98.3733 675.892 98.28 675.444 98.28C674.8 98.28 674.249 98.4853 673.792 98.896C673.344 99.3067 673.087 99.876 673.022 100.604H677.866ZM684.027 97.202C684.69 97.202 685.268 97.3467 685.763 97.636C686.267 97.9253 686.64 98.2893 686.883 98.728V97.328H688.171V105.168C688.171 105.868 688.022 106.489 687.723 107.03C687.424 107.581 686.995 108.01 686.435 108.318C685.884 108.626 685.24 108.78 684.503 108.78C683.495 108.78 682.655 108.542 681.983 108.066C681.311 107.59 680.914 106.941 680.793 106.12H682.053C682.193 106.587 682.482 106.96 682.921 107.24C683.36 107.529 683.887 107.674 684.503 107.674C685.203 107.674 685.772 107.455 686.211 107.016C686.659 106.577 686.883 105.961 686.883 105.168V103.558C686.631 104.006 686.258 104.379 685.763 104.678C685.268 104.977 684.69 105.126 684.027 105.126C683.346 105.126 682.725 104.958 682.165 104.622C681.614 104.286 681.18 103.815 680.863 103.208C680.546 102.601 680.387 101.911 680.387 101.136C680.387 100.352 680.546 99.666 680.863 99.078C681.18 98.4807 681.614 98.0187 682.165 97.692C682.725 97.3653 683.346 97.202 684.027 97.202ZM686.883 101.15C686.883 100.571 686.766 100.067 686.533 99.638C686.3 99.2087 685.982 98.882 685.581 98.658C685.189 98.4247 684.755 98.308 684.279 98.308C683.803 98.308 683.369 98.42 682.977 98.644C682.585 98.868 682.272 99.1947 682.039 99.624C681.806 100.053 681.689 100.557 681.689 101.136C681.689 101.724 681.806 102.237 682.039 102.676C682.272 103.105 682.585 103.437 682.977 103.67C683.369 103.894 683.803 104.006 684.279 104.006C684.755 104.006 685.189 103.894 685.581 103.67C685.982 103.437 686.3 103.105 686.533 102.676C686.766 102.237 686.883 101.729 686.883 101.15ZM689.848 101.136C689.848 100.352 690.007 99.666 690.324 99.078C690.641 98.4807 691.075 98.0187 691.626 97.692C692.186 97.3653 692.807 97.202 693.488 97.202C694.16 97.202 694.743 97.3467 695.238 97.636C695.733 97.9253 696.101 98.2893 696.344 98.728V97.328H697.632V105H696.344V103.572C696.092 104.02 695.714 104.393 695.21 104.692C694.715 104.981 694.137 105.126 693.474 105.126C692.793 105.126 692.177 104.958 691.626 104.622C691.075 104.286 690.641 103.815 690.324 103.208C690.007 102.601 689.848 101.911 689.848 101.136ZM696.344 101.15C696.344 100.571 696.227 100.067 695.994 99.638C695.761 99.2087 695.443 98.882 695.042 98.658C694.65 98.4247 694.216 98.308 693.74 98.308C693.264 98.308 692.83 98.42 692.438 98.644C692.046 98.868 691.733 99.1947 691.5 99.624C691.267 100.053 691.15 100.557 691.15 101.136C691.15 101.724 691.267 102.237 691.5 102.676C691.733 103.105 692.046 103.437 692.438 103.67C692.83 103.894 693.264 104.006 693.74 104.006C694.216 104.006 694.65 103.894 695.042 103.67C695.443 103.437 695.761 103.105 695.994 102.676C696.227 102.237 696.344 101.729 696.344 101.15ZM701.059 94.64V105H699.785V94.64H701.059ZM704.504 94.64V105H703.23V94.64H704.504ZM713.284 97.328L708.664 108.612H707.348L708.86 104.916L705.766 97.328H707.18L709.588 103.544L711.968 97.328H713.284ZM719.571 98.742C719.823 98.3033 720.196 97.9393 720.691 97.65C721.195 97.3513 721.778 97.202 722.441 97.202C723.122 97.202 723.738 97.3653 724.289 97.692C724.849 98.0187 725.287 98.4807 725.605 99.078C725.922 99.666 726.081 100.352 726.081 101.136C726.081 101.911 725.922 102.601 725.605 103.208C725.287 103.815 724.849 104.286 724.289 104.622C723.738 104.958 723.122 105.126 722.441 105.126C721.787 105.126 721.209 104.981 720.705 104.692C720.21 104.393 719.832 104.025 719.571 103.586V108.64H718.297V97.328H719.571V98.742ZM724.779 101.136C724.779 100.557 724.662 100.053 724.429 99.624C724.195 99.1947 723.878 98.868 723.477 98.644C723.085 98.42 722.651 98.308 722.175 98.308C721.708 98.308 721.274 98.4247 720.873 98.658C720.481 98.882 720.163 99.2133 719.921 99.652C719.687 100.081 719.571 100.581 719.571 101.15C719.571 101.729 719.687 102.237 719.921 102.676C720.163 103.105 720.481 103.437 720.873 103.67C721.274 103.894 721.708 104.006 722.175 104.006C722.651 104.006 723.085 103.894 723.477 103.67C723.878 103.437 724.195 103.105 724.429 102.676C724.662 102.237 724.779 101.724 724.779 101.136ZM734.758 100.87C734.758 101.113 734.744 101.369 734.716 101.64H728.584C728.63 102.396 728.887 102.989 729.354 103.418C729.83 103.838 730.404 104.048 731.076 104.048C731.626 104.048 732.084 103.922 732.448 103.67C732.821 103.409 733.082 103.063 733.232 102.634H734.604C734.398 103.371 733.988 103.973 733.372 104.44C732.756 104.897 731.99 105.126 731.076 105.126C730.348 105.126 729.694 104.963 729.116 104.636C728.546 104.309 728.098 103.847 727.772 103.25C727.445 102.643 727.282 101.943 727.282 101.15C727.282 100.357 727.44 99.6613 727.758 99.064C728.075 98.4667 728.518 98.0093 729.088 97.692C729.666 97.3653 730.329 97.202 731.076 97.202C731.804 97.202 732.448 97.3607 733.008 97.678C733.568 97.9953 733.997 98.434 734.296 98.994C734.604 99.5447 734.758 100.17 734.758 100.87ZM733.442 100.604C733.442 100.119 733.334 99.7033 733.12 99.358C732.905 99.0033 732.611 98.7373 732.238 98.56C731.874 98.3733 731.468 98.28 731.02 98.28C730.376 98.28 729.825 98.4853 729.368 98.896C728.92 99.3067 728.663 99.876 728.598 100.604H733.442ZM737.713 98.574C737.937 98.1353 738.255 97.7947 738.665 97.552C739.085 97.3093 739.594 97.188 740.191 97.188V98.504H739.855C738.427 98.504 737.713 99.2787 737.713 100.828V105H736.439V97.328H737.713V98.574ZM750.888 97.188C751.485 97.188 752.017 97.314 752.484 97.566C752.951 97.8087 753.319 98.1773 753.59 98.672C753.861 99.1667 753.996 99.7687 753.996 100.478V105H752.736V100.66C752.736 99.8947 752.545 99.3113 752.162 98.91C751.789 98.4993 751.28 98.294 750.636 98.294C749.973 98.294 749.446 98.5087 749.054 98.938C748.662 99.358 748.466 99.9693 748.466 100.772V105H747.206V100.66C747.206 99.8947 747.015 99.3113 746.632 98.91C746.259 98.4993 745.75 98.294 745.106 98.294C744.443 98.294 743.916 98.5087 743.524 98.938C743.132 99.358 742.936 99.9693 742.936 100.772V105H741.662V97.328H742.936V98.434C743.188 98.0327 743.524 97.7247 743.944 97.51C744.373 97.2953 744.845 97.188 745.358 97.188C746.002 97.188 746.571 97.3327 747.066 97.622C747.561 97.9113 747.929 98.336 748.172 98.896C748.387 98.3547 748.741 97.9347 749.236 97.636C749.731 97.3373 750.281 97.188 750.888 97.188ZM756.744 96.082C756.501 96.082 756.296 95.998 756.128 95.83C755.96 95.662 755.876 95.4567 755.876 95.214C755.876 94.9713 755.96 94.766 756.128 94.598C756.296 94.43 756.501 94.346 756.744 94.346C756.977 94.346 757.173 94.43 757.332 94.598C757.5 94.766 757.584 94.9713 757.584 95.214C757.584 95.4567 757.5 95.662 757.332 95.83C757.173 95.998 756.977 96.082 756.744 96.082ZM757.36 97.328V105H756.086V97.328H757.36ZM761.085 98.378V102.9C761.085 103.273 761.164 103.539 761.323 103.698C761.482 103.847 761.757 103.922 762.149 103.922H763.087V105H761.939C761.23 105 760.698 104.837 760.343 104.51C759.988 104.183 759.811 103.647 759.811 102.9V98.378H758.817V97.328H759.811V95.396H761.085V97.328H763.087V98.378H761.085ZM766.185 98.378V102.9C766.185 103.273 766.264 103.539 766.423 103.698C766.581 103.847 766.857 103.922 767.249 103.922H768.187V105H767.039C766.329 105 765.797 104.837 765.443 104.51C765.088 104.183 764.911 103.647 764.911 102.9V98.378H763.917V97.328H764.911V95.396H766.185V97.328H768.187V98.378H766.185ZM776.73 100.87C776.73 101.113 776.716 101.369 776.688 101.64H770.556C770.603 102.396 770.86 102.989 771.326 103.418C771.802 103.838 772.376 104.048 773.048 104.048C773.599 104.048 774.056 103.922 774.42 103.67C774.794 103.409 775.055 103.063 775.204 102.634H776.576C776.371 103.371 775.96 103.973 775.344 104.44C774.728 104.897 773.963 105.126 773.048 105.126C772.32 105.126 771.667 104.963 771.088 104.636C770.519 104.309 770.071 103.847 769.744 103.25C769.418 102.643 769.254 101.943 769.254 101.15C769.254 100.357 769.413 99.6613 769.73 99.064C770.048 98.4667 770.491 98.0093 771.06 97.692C771.639 97.3653 772.302 97.202 773.048 97.202C773.776 97.202 774.42 97.3607 774.98 97.678C775.54 97.9953 775.97 98.434 776.268 98.994C776.576 99.5447 776.73 100.17 776.73 100.87ZM775.414 100.604C775.414 100.119 775.307 99.7033 775.092 99.358C774.878 99.0033 774.584 98.7373 774.21 98.56C773.846 98.3733 773.44 98.28 772.992 98.28C772.348 98.28 771.798 98.4853 771.34 98.896C770.892 99.3067 770.636 99.876 770.57 100.604H775.414ZM777.936 101.136C777.936 100.352 778.095 99.666 778.412 99.078C778.729 98.4807 779.163 98.0187 779.714 97.692C780.274 97.3653 780.899 97.202 781.59 97.202C782.187 97.202 782.743 97.342 783.256 97.622C783.769 97.8927 784.161 98.252 784.432 98.7V94.64H785.72V105H784.432V103.558C784.18 104.015 783.807 104.393 783.312 104.692C782.817 104.981 782.239 105.126 781.576 105.126C780.895 105.126 780.274 104.958 779.714 104.622C779.163 104.286 778.729 103.815 778.412 103.208C778.095 102.601 777.936 101.911 777.936 101.136ZM784.432 101.15C784.432 100.571 784.315 100.067 784.082 99.638C783.849 99.2087 783.531 98.882 783.13 98.658C782.738 98.4247 782.304 98.308 781.828 98.308C781.352 98.308 780.918 98.42 780.526 98.644C780.134 98.868 779.821 99.1947 779.588 99.624C779.355 100.053 779.238 100.557 779.238 101.136C779.238 101.724 779.355 102.237 779.588 102.676C779.821 103.105 780.134 103.437 780.526 103.67C780.918 103.894 781.352 104.006 781.828 104.006C782.304 104.006 782.738 103.894 783.13 103.67C783.531 103.437 783.849 103.105 784.082 102.676C784.315 102.237 784.432 101.729 784.432 101.15Z" fill="black" fill-opacity="0.75"/>
</svg>
