<svg width="460" height="485" viewBox="0 0 460 485" fill="none" xmlns="http://www.w3.org/2000/svg">
<g filter="url(#filter0_b_2683_293)">
<rect width="460" height="485" fill="white" fill-opacity="0.1"/>
</g>
<path d="M93.872 85.432C93.872 86.328 93.656 87.168 93.224 87.952C92.808 88.736 92.144 89.368 91.232 89.848C90.336 90.328 89.2 90.568 87.824 90.568H85.016V97H81.656V80.248H87.824C89.12 80.248 90.224 80.472 91.136 80.92C92.048 81.368 92.728 81.984 93.176 82.768C93.64 83.552 93.872 84.44 93.872 85.432ZM87.68 87.856C88.608 87.856 89.296 87.648 89.744 87.232C90.192 86.8 90.416 86.2 90.416 85.432C90.416 83.8 89.504 82.984 87.68 82.984H85.016V87.856H87.68ZM95.3936 90.304C95.3936 88.96 95.6576 87.768 96.1856 86.728C96.7296 85.688 97.4576 84.888 98.3696 84.328C99.2976 83.768 100.33 83.488 101.466 83.488C102.458 83.488 103.322 83.688 104.058 84.088C104.81 84.488 105.41 84.992 105.858 85.6V83.704H109.242V97H105.858V95.056C105.426 95.68 104.826 96.2 104.058 96.616C103.306 97.016 102.434 97.216 101.442 97.216C100.322 97.216 99.2976 96.928 98.3696 96.352C97.4576 95.776 96.7296 94.968 96.1856 93.928C95.6576 92.872 95.3936 91.664 95.3936 90.304ZM105.858 90.352C105.858 89.536 105.698 88.84 105.378 88.264C105.058 87.672 104.626 87.224 104.082 86.92C103.538 86.6 102.954 86.44 102.33 86.44C101.706 86.44 101.13 86.592 100.602 86.896C100.074 87.2 99.6416 87.648 99.3056 88.24C98.9856 88.816 98.8256 89.504 98.8256 90.304C98.8256 91.104 98.9856 91.808 99.3056 92.416C99.6416 93.008 100.074 93.464 100.602 93.784C101.146 94.104 101.722 94.264 102.33 94.264C102.954 94.264 103.538 94.112 104.082 93.808C104.626 93.488 105.058 93.04 105.378 92.464C105.698 91.872 105.858 91.168 105.858 90.352ZM115.883 85.768C116.315 85.064 116.875 84.512 117.563 84.112C118.267 83.712 119.067 83.512 119.963 83.512V87.04H119.075C118.019 87.04 117.219 87.288 116.675 87.784C116.147 88.28 115.883 89.144 115.883 90.376V97H112.523V83.704H115.883V85.768ZM126.138 86.464V92.896C126.138 93.344 126.242 93.672 126.45 93.88C126.674 94.072 127.042 94.168 127.554 94.168H129.114V97H127.002C124.17 97 122.754 95.624 122.754 92.872V86.464H121.17V83.704H122.754V80.416H126.138V83.704H129.114V86.464H126.138ZM138.899 83.512C140.483 83.512 141.763 84.016 142.739 85.024C143.715 86.016 144.203 87.408 144.203 89.2V97H140.843V89.656C140.843 88.6 140.579 87.792 140.051 87.232C139.523 86.656 138.803 86.368 137.891 86.368C136.963 86.368 136.227 86.656 135.683 87.232C135.155 87.792 134.891 88.6 134.891 89.656V97H131.531V83.704H134.891V85.36C135.339 84.784 135.907 84.336 136.595 84.016C137.299 83.68 138.067 83.512 138.899 83.512ZM159.758 90.064C159.758 90.544 159.726 90.976 159.662 91.36H149.942C150.022 92.32 150.358 93.072 150.95 93.616C151.542 94.16 152.27 94.432 153.134 94.432C154.382 94.432 155.27 93.896 155.798 92.824H159.422C159.038 94.104 158.302 95.16 157.214 95.992C156.126 96.808 154.79 97.216 153.206 97.216C151.926 97.216 150.774 96.936 149.75 96.376C148.742 95.8 147.95 94.992 147.374 93.952C146.814 92.912 146.534 91.712 146.534 90.352C146.534 88.976 146.814 87.768 147.374 86.728C147.934 85.688 148.718 84.888 149.726 84.328C150.734 83.768 151.894 83.488 153.206 83.488C154.47 83.488 155.598 83.76 156.59 84.304C157.598 84.848 158.374 85.624 158.918 86.632C159.478 87.624 159.758 88.768 159.758 90.064ZM156.278 89.104C156.262 88.24 155.95 87.552 155.342 87.04C154.734 86.512 153.99 86.248 153.11 86.248C152.278 86.248 151.574 86.504 150.998 87.016C150.438 87.512 150.094 88.208 149.966 89.104H156.278ZM165.571 85.768C166.003 85.064 166.563 84.512 167.251 84.112C167.955 83.712 168.755 83.512 169.651 83.512V87.04H168.763C167.707 87.04 166.907 87.288 166.363 87.784C165.835 88.28 165.571 89.144 165.571 90.376V97H162.211V83.704H165.571V85.768ZM196.065 83.704L192.177 97H188.553L186.129 87.712L183.705 97H180.057L176.145 83.704H179.553L181.905 93.832L184.449 83.704H188.001L190.497 93.808L192.849 83.704H196.065ZM199.587 82.12C198.995 82.12 198.499 81.936 198.099 81.568C197.715 81.184 197.523 80.712 197.523 80.152C197.523 79.592 197.715 79.128 198.099 78.76C198.499 78.376 198.995 78.184 199.587 78.184C200.179 78.184 200.667 78.376 201.051 78.76C201.451 79.128 201.651 79.592 201.651 80.152C201.651 80.712 201.451 81.184 201.051 81.568C200.667 81.936 200.179 82.12 199.587 82.12ZM201.243 83.704V97H197.883V83.704H201.243ZM208.474 86.464V92.896C208.474 93.344 208.578 93.672 208.786 93.88C209.01 94.072 209.378 94.168 209.89 94.168H211.45V97H209.338C206.506 97 205.09 95.624 205.09 92.872V86.464H203.506V83.704H205.09V80.416H208.474V83.704H211.45V86.464H208.474ZM221.355 83.512C222.363 83.512 223.259 83.736 224.043 84.184C224.827 84.616 225.435 85.264 225.867 86.128C226.315 86.976 226.539 88 226.539 89.2V97H223.179V89.656C223.179 88.6 222.915 87.792 222.387 87.232C221.859 86.656 221.139 86.368 220.227 86.368C219.299 86.368 218.563 86.656 218.019 87.232C217.491 87.792 217.227 88.6 217.227 89.656V97H213.867V79.24H217.227V85.36C217.659 84.784 218.235 84.336 218.955 84.016C219.675 83.68 220.475 83.512 221.355 83.512ZM248.005 83.704V97H244.621V95.32C244.189 95.896 243.621 96.352 242.917 96.688C242.229 97.008 241.477 97.168 240.661 97.168C239.621 97.168 238.701 96.952 237.901 96.52C237.101 96.072 236.469 95.424 236.005 94.576C235.557 93.712 235.333 92.688 235.333 91.504V83.704H238.693V91.024C238.693 92.08 238.957 92.896 239.485 93.472C240.013 94.032 240.733 94.312 241.645 94.312C242.573 94.312 243.301 94.032 243.829 93.472C244.357 92.896 244.621 92.08 244.621 91.024V83.704H248.005ZM256.408 97.216C255.32 97.216 254.344 97.024 253.48 96.64C252.616 96.24 251.928 95.704 251.416 95.032C250.92 94.36 250.648 93.616 250.6 92.8H253.984C254.048 93.312 254.296 93.736 254.728 94.072C255.176 94.408 255.728 94.576 256.384 94.576C257.024 94.576 257.52 94.448 257.872 94.192C258.24 93.936 258.424 93.608 258.424 93.208C258.424 92.776 258.2 92.456 257.752 92.248C257.32 92.024 256.624 91.784 255.664 91.528C254.672 91.288 253.856 91.04 253.216 90.784C252.592 90.528 252.048 90.136 251.584 89.608C251.136 89.08 250.912 88.368 250.912 87.472C250.912 86.736 251.12 86.064 251.536 85.456C251.968 84.848 252.576 84.368 253.36 84.016C254.16 83.664 255.096 83.488 256.168 83.488C257.752 83.488 259.016 83.888 259.96 84.688C260.904 85.472 261.424 86.536 261.52 87.88H258.304C258.256 87.352 258.032 86.936 257.632 86.632C257.248 86.312 256.728 86.152 256.072 86.152C255.464 86.152 254.992 86.264 254.656 86.488C254.336 86.712 254.176 87.024 254.176 87.424C254.176 87.872 254.4 88.216 254.848 88.456C255.296 88.68 255.992 88.912 256.936 89.152C257.896 89.392 258.688 89.64 259.312 89.896C259.936 90.152 260.472 90.552 260.92 91.096C261.384 91.624 261.624 92.328 261.64 93.208C261.64 93.976 261.424 94.664 260.992 95.272C260.576 95.88 259.968 96.36 259.168 96.712C258.384 97.048 257.464 97.216 256.408 97.216Z" fill="black" fill-opacity="0.7"/>
<defs>
<filter id="filter0_b_2683_293" x="-44" y="-44" width="548" height="573" filterUnits="userSpaceOnUse" color-interpolation-filters="sRGB">
<feFlood flood-opacity="0" result="BackgroundImageFix"/>
<feGaussianBlur in="BackgroundImageFix" stdDeviation="22"/>
<feComposite in2="SourceAlpha" operator="in" result="effect1_backgroundBlur_2683_293"/>
<feBlend mode="normal" in="SourceGraphic" in2="effect1_backgroundBlur_2683_293" result="shape"/>
</filter>
</defs>
</svg>
