<svg width="169" height="40" viewBox="0 0 169 40" fill="none" xmlns="http://www.w3.org/2000/svg">
<rect x="0.5" y="0.5" width="168" height="39" rx="3.5" fill="black" fill-opacity="0.3"/>
<rect x="0.5" y="0.5" width="168" height="39" rx="3.5" stroke="white"/>
<path d="M39.854 18.168C39.854 18.6627 39.7373 19.1293 39.504 19.568C39.2707 20.0067 38.8973 20.366 38.384 20.646C37.8707 20.9167 37.2127 21.052 36.41 21.052H34.646V25H33.05V15.27H36.41C37.1567 15.27 37.7867 15.4007 38.3 15.662C38.8227 15.914 39.21 16.2593 39.462 16.698C39.7233 17.1367 39.854 17.6267 39.854 18.168ZM36.41 19.75C37.0167 19.75 37.4693 19.6147 37.768 19.344C38.0667 19.064 38.216 18.672 38.216 18.168C38.216 17.104 37.614 16.572 36.41 16.572H34.646V19.75H36.41ZM40.8442 21.108C40.8442 20.3333 41.0028 19.6473 41.3202 19.05C41.6468 18.4527 42.0855 17.9907 42.6362 17.664C43.1962 17.328 43.8122 17.16 44.4842 17.16C45.0908 17.16 45.6182 17.2813 46.0662 17.524C46.5235 17.7573 46.8875 18.0513 47.1582 18.406V17.286H48.7682V25H47.1582V23.852C46.8875 24.216 46.5188 24.5193 46.0522 24.762C45.5855 25.0047 45.0535 25.126 44.4562 25.126C43.7935 25.126 43.1868 24.958 42.6362 24.622C42.0855 24.2767 41.6468 23.8007 41.3202 23.194C41.0028 22.578 40.8442 21.8827 40.8442 21.108ZM47.1582 21.136C47.1582 20.604 47.0462 20.142 46.8222 19.75C46.6075 19.358 46.3228 19.0593 45.9682 18.854C45.6135 18.6487 45.2308 18.546 44.8202 18.546C44.4095 18.546 44.0268 18.6487 43.6722 18.854C43.3175 19.05 43.0282 19.344 42.8042 19.736C42.5895 20.1187 42.4822 20.576 42.4822 21.108C42.4822 21.64 42.5895 22.1067 42.8042 22.508C43.0282 22.9093 43.3175 23.2173 43.6722 23.432C44.0362 23.6373 44.4188 23.74 44.8202 23.74C45.2308 23.74 45.6135 23.6373 45.9682 23.432C46.3228 23.2267 46.6075 22.928 46.8222 22.536C47.0462 22.1347 47.1582 21.668 47.1582 21.136ZM52.4605 18.406C52.6938 18.014 53.0018 17.7107 53.3845 17.496C53.7765 17.272 54.2385 17.16 54.7705 17.16V18.812H54.3645C53.7391 18.812 53.2631 18.9707 52.9365 19.288C52.6191 19.6053 52.4605 20.156 52.4605 20.94V25H50.8645V17.286H52.4605V18.406ZM58.0995 18.588V22.858C58.0995 23.1473 58.1648 23.3573 58.2955 23.488C58.4355 23.6093 58.6688 23.67 58.9955 23.67H59.9755V25H58.7155C57.9968 25 57.4462 24.832 57.0635 24.496C56.6808 24.16 56.4895 23.614 56.4895 22.858V18.588H55.5795V17.286H56.4895V15.368H58.0995V17.286H59.9755V18.588H58.0995ZM65.3385 17.16C65.9452 17.16 66.4865 17.286 66.9625 17.538C67.4478 17.79 67.8258 18.1633 68.0965 18.658C68.3672 19.1527 68.5025 19.75 68.5025 20.45V25H66.9205V20.688C66.9205 19.9973 66.7478 19.47 66.4025 19.106C66.0572 18.7327 65.5858 18.546 64.9885 18.546C64.3912 18.546 63.9152 18.7327 63.5605 19.106C63.2152 19.47 63.0425 19.9973 63.0425 20.688V25H61.4465V17.286H63.0425V18.168C63.3038 17.8507 63.6352 17.6033 64.0365 17.426C64.4472 17.2487 64.8812 17.16 65.3385 17.16ZM77.6083 20.954C77.6083 21.2433 77.5896 21.5047 77.5523 21.738H71.6583C71.7049 22.354 71.9336 22.8487 72.3443 23.222C72.7549 23.5953 73.2589 23.782 73.8563 23.782C74.7149 23.782 75.3216 23.4227 75.6763 22.704H77.3983C77.1649 23.4133 76.7403 23.9967 76.1243 24.454C75.5176 24.902 74.7616 25.126 73.8563 25.126C73.1189 25.126 72.4563 24.9627 71.8683 24.636C71.2896 24.3 70.8323 23.8333 70.4963 23.236C70.1696 22.6293 70.0063 21.9293 70.0063 21.136C70.0063 20.3427 70.1649 19.6473 70.4823 19.05C70.8089 18.4433 71.2616 17.9767 71.8403 17.65C72.4283 17.3233 73.1003 17.16 73.8563 17.16C74.5843 17.16 75.2329 17.3187 75.8023 17.636C76.3716 17.9533 76.8149 18.4013 77.1323 18.98C77.4496 19.5493 77.6083 20.2073 77.6083 20.954ZM75.9423 20.45C75.9329 19.862 75.7229 19.3907 75.3123 19.036C74.9016 18.6813 74.3929 18.504 73.7863 18.504C73.2356 18.504 72.7643 18.6813 72.3723 19.036C71.9803 19.3813 71.7469 19.8527 71.6723 20.45H75.9423ZM80.7749 18.406C81.0082 18.014 81.3162 17.7107 81.6989 17.496C82.0909 17.272 82.5529 17.16 83.0849 17.16V18.812H82.6789C82.0536 18.812 81.5776 18.9707 81.2509 19.288C80.9336 19.6053 80.7749 20.156 80.7749 20.94V25H79.1789V17.286H80.7749V18.406ZM98.5487 17.286L96.1547 25H94.4747L92.9207 19.302L91.3667 25H89.6867L87.2787 17.286H88.9027L90.5127 23.488L92.1507 17.286H93.8167L95.3847 23.46L96.9807 17.286H98.5487ZM100.553 16.264C100.264 16.264 100.021 16.166 99.8254 15.97C99.6294 15.774 99.5314 15.5313 99.5314 15.242C99.5314 14.9527 99.6294 14.71 99.8254 14.514C100.021 14.318 100.264 14.22 100.553 14.22C100.833 14.22 101.071 14.318 101.267 14.514C101.463 14.71 101.561 14.9527 101.561 15.242C101.561 15.5313 101.463 15.774 101.267 15.97C101.071 16.166 100.833 16.264 100.553 16.264ZM101.337 17.286V25H99.7414V17.286H101.337ZM105.295 18.588V22.858C105.295 23.1473 105.36 23.3573 105.491 23.488C105.631 23.6093 105.864 23.67 106.191 23.67H107.171V25H105.911C105.192 25 104.641 24.832 104.259 24.496C103.876 24.16 103.685 23.614 103.685 22.858V18.588H102.775V17.286H103.685V15.368H105.295V17.286H107.171V18.588H105.295ZM112.632 17.16C113.22 17.16 113.742 17.286 114.2 17.538C114.666 17.79 115.03 18.1633 115.292 18.658C115.562 19.1527 115.698 19.75 115.698 20.45V25H114.116V20.688C114.116 19.9973 113.943 19.47 113.598 19.106C113.252 18.7327 112.781 18.546 112.184 18.546C111.586 18.546 111.11 18.7327 110.756 19.106C110.41 19.47 110.238 19.9973 110.238 20.688V25H108.642V14.64H110.238V18.182C110.508 17.8553 110.849 17.6033 111.26 17.426C111.68 17.2487 112.137 17.16 112.632 17.16ZM128.356 17.286V25H126.76V24.09C126.508 24.4073 126.177 24.6593 125.766 24.846C125.365 25.0233 124.936 25.112 124.478 25.112C123.872 25.112 123.326 24.986 122.84 24.734C122.364 24.482 121.986 24.1087 121.706 23.614C121.436 23.1193 121.3 22.522 121.3 21.822V17.286H122.882V21.584C122.882 22.2747 123.055 22.8067 123.4 23.18C123.746 23.544 124.217 23.726 124.814 23.726C125.412 23.726 125.883 23.544 126.228 23.18C126.583 22.8067 126.76 22.2747 126.76 21.584V17.286H128.356ZM133.262 25.126C132.655 25.126 132.109 25.0187 131.624 24.804C131.148 24.58 130.77 24.2813 130.49 23.908C130.21 23.5253 130.061 23.1007 130.042 22.634H131.694C131.722 22.9607 131.876 23.236 132.156 23.46C132.445 23.6747 132.805 23.782 133.234 23.782C133.682 23.782 134.027 23.698 134.27 23.53C134.522 23.3527 134.648 23.1287 134.648 22.858C134.648 22.5687 134.508 22.354 134.228 22.214C133.957 22.074 133.523 21.92 132.926 21.752C132.347 21.5933 131.876 21.4393 131.512 21.29C131.148 21.1407 130.831 20.912 130.56 20.604C130.299 20.296 130.168 19.89 130.168 19.386C130.168 18.9753 130.289 18.602 130.532 18.266C130.775 17.9207 131.12 17.65 131.568 17.454C132.025 17.258 132.548 17.16 133.136 17.16C134.013 17.16 134.718 17.384 135.25 17.832C135.791 18.2707 136.081 18.8727 136.118 19.638H134.522C134.494 19.2927 134.354 19.0173 134.102 18.812C133.85 18.6067 133.509 18.504 133.08 18.504C132.66 18.504 132.338 18.5833 132.114 18.742C131.89 18.9007 131.778 19.1107 131.778 19.372C131.778 19.5773 131.853 19.75 132.002 19.89C132.151 20.03 132.333 20.142 132.548 20.226C132.763 20.3007 133.08 20.3987 133.5 20.52C134.06 20.6693 134.517 20.8233 134.872 20.982C135.236 21.1313 135.549 21.3553 135.81 21.654C136.071 21.9527 136.207 22.3493 136.216 22.844C136.216 23.2827 136.095 23.6747 135.852 24.02C135.609 24.3653 135.264 24.636 134.816 24.832C134.377 25.028 133.859 25.126 133.262 25.126Z" fill="white"/>
</svg>
