<svg width="600" height="40" viewBox="0 0 600 40" fill="none" xmlns="http://www.w3.org/2000/svg">
<rect width="600" height="40" rx="4" fill="black" fill-opacity="0.1"/>
<path d="M23.602 18.098C23.602 18.91 23.322 19.5867 22.762 20.128C22.2113 20.66 21.3667 20.926 20.228 20.926H18.352V25H17.078V15.242H20.228C21.3293 15.242 22.1647 15.508 22.734 16.04C23.3127 16.572 23.602 17.258 23.602 18.098ZM20.228 19.876C20.9373 19.876 21.46 19.722 21.796 19.414C22.132 19.106 22.3 18.6673 22.3 18.098C22.3 16.894 21.6093 16.292 20.228 16.292H18.352V19.876H20.228ZM28.9934 17.188C29.5721 17.188 30.0948 17.314 30.5614 17.566C31.0281 17.8087 31.3921 18.1773 31.6534 18.672C31.9241 19.1667 32.0594 19.7687 32.0594 20.478V25H30.7994V20.66C30.7994 19.8947 30.6081 19.3113 30.2254 18.91C29.8428 18.4993 29.3201 18.294 28.6574 18.294C27.9854 18.294 27.4488 18.504 27.0474 18.924C26.6554 19.344 26.4594 19.9553 26.4594 20.758V25H25.1854V14.64H26.4594V18.42C26.7114 18.028 27.0568 17.7247 27.4954 17.51C27.9434 17.2953 28.4428 17.188 28.9934 17.188ZM37.4865 25.126C36.7678 25.126 36.1145 24.9627 35.5265 24.636C34.9478 24.3093 34.4905 23.8473 34.1545 23.25C33.8278 22.6433 33.6645 21.9433 33.6645 21.15C33.6645 20.366 33.8325 19.6753 34.1685 19.078C34.5138 18.4713 34.9805 18.0093 35.5685 17.692C36.1565 17.3653 36.8145 17.202 37.5425 17.202C38.2705 17.202 38.9285 17.3653 39.5165 17.692C40.1045 18.0093 40.5665 18.4667 40.9025 19.064C41.2478 19.6613 41.4205 20.3567 41.4205 21.15C41.4205 21.9433 41.2432 22.6433 40.8885 23.25C40.5432 23.8473 40.0718 24.3093 39.4745 24.636C38.8772 24.9627 38.2145 25.126 37.4865 25.126ZM37.4865 24.006C37.9438 24.006 38.3732 23.8987 38.7745 23.684C39.1758 23.4693 39.4978 23.1473 39.7405 22.718C39.9925 22.2887 40.1185 21.766 40.1185 21.15C40.1185 20.534 39.9972 20.0113 39.7545 19.582C39.5118 19.1527 39.1945 18.8353 38.8025 18.63C38.4105 18.4153 37.9858 18.308 37.5285 18.308C37.0618 18.308 36.6325 18.4153 36.2405 18.63C35.8578 18.8353 35.5498 19.1527 35.3165 19.582C35.0832 20.0113 34.9665 20.534 34.9665 21.15C34.9665 21.7753 35.0785 22.3027 35.3025 22.732C35.5358 23.1613 35.8438 23.4833 36.2265 23.698C36.6092 23.9033 37.0292 24.006 37.4865 24.006ZM46.8336 17.188C47.7669 17.188 48.5229 17.4727 49.1016 18.042C49.6802 18.602 49.9696 19.414 49.9696 20.478V25H48.7096V20.66C48.7096 19.8947 48.5182 19.3113 48.1356 18.91C47.7529 18.4993 47.2302 18.294 46.5676 18.294C45.8956 18.294 45.3589 18.504 44.9576 18.924C44.5656 19.344 44.3696 19.9553 44.3696 20.758V25H43.0956V17.328H44.3696V18.42C44.6216 18.028 44.9622 17.7247 45.3916 17.51C45.8302 17.2953 46.3109 17.188 46.8336 17.188ZM59.0507 20.87C59.0507 21.1127 59.0367 21.3693 59.0087 21.64H52.8767C52.9233 22.396 53.18 22.9887 53.6467 23.418C54.1227 23.838 54.6967 24.048 55.3687 24.048C55.9193 24.048 56.3767 23.922 56.7407 23.67C57.114 23.4087 57.3753 23.0633 57.5247 22.634H58.8967C58.6913 23.3713 58.2807 23.9733 57.6647 24.44C57.0487 24.8973 56.2833 25.126 55.3687 25.126C54.6407 25.126 53.9873 24.9627 53.4087 24.636C52.8393 24.3093 52.3913 23.8473 52.0647 23.25C51.738 22.6433 51.5747 21.9433 51.5747 21.15C51.5747 20.3567 51.7333 19.6613 52.0507 19.064C52.368 18.4667 52.8113 18.0093 53.3807 17.692C53.9593 17.3653 54.622 17.202 55.3687 17.202C56.0967 17.202 56.7407 17.3607 57.3007 17.678C57.8607 17.9953 58.29 18.434 58.5887 18.994C58.8967 19.5447 59.0507 20.17 59.0507 20.87ZM57.7347 20.604C57.7347 20.1187 57.6273 19.7033 57.4127 19.358C57.198 19.0033 56.904 18.7373 56.5307 18.56C56.1667 18.3733 55.7607 18.28 55.3127 18.28C54.6687 18.28 54.118 18.4853 53.6607 18.896C53.2127 19.3067 52.956 19.876 52.8907 20.604H57.7347ZM72.1367 25H70.8627L65.7387 17.23V25H64.4647V15.228H65.7387L70.8627 22.984V15.228H72.1367V25ZM81.1125 17.328V25H79.8385V23.866C79.5958 24.258 79.2551 24.566 78.8165 24.79C78.3871 25.0047 77.9111 25.112 77.3885 25.112C76.7911 25.112 76.2545 24.9907 75.7785 24.748C75.3025 24.496 74.9245 24.1227 74.6445 23.628C74.3738 23.1333 74.2385 22.5313 74.2385 21.822V17.328H75.4985V21.654C75.4985 22.41 75.6898 22.9933 76.0725 23.404C76.4551 23.8053 76.9778 24.006 77.6405 24.006C78.3218 24.006 78.8585 23.796 79.2505 23.376C79.6425 22.956 79.8385 22.3447 79.8385 21.542V17.328H81.1125ZM92.4895 17.188C93.0869 17.188 93.6189 17.314 94.0855 17.566C94.5522 17.8087 94.9209 18.1773 95.1915 18.672C95.4622 19.1667 95.5975 19.7687 95.5975 20.478V25H94.3375V20.66C94.3375 19.8947 94.1462 19.3113 93.7635 18.91C93.3902 18.4993 92.8815 18.294 92.2375 18.294C91.5749 18.294 91.0475 18.5087 90.6555 18.938C90.2635 19.358 90.0675 19.9693 90.0675 20.772V25H88.8075V20.66C88.8075 19.8947 88.6162 19.3113 88.2335 18.91C87.8602 18.4993 87.3515 18.294 86.7075 18.294C86.0449 18.294 85.5175 18.5087 85.1255 18.938C84.7335 19.358 84.5375 19.9693 84.5375 20.772V25H83.2635V17.328H84.5375V18.434C84.7895 18.0327 85.1255 17.7247 85.5455 17.51C85.9749 17.2953 86.4462 17.188 86.9595 17.188C87.6035 17.188 88.1729 17.3327 88.6675 17.622C89.1622 17.9113 89.5309 18.336 89.7735 18.896C89.9882 18.3547 90.3429 17.9347 90.8375 17.636C91.3322 17.3373 91.8829 17.188 92.4895 17.188ZM98.9614 18.756C99.2227 18.2987 99.6054 17.9253 100.109 17.636C100.613 17.3467 101.187 17.202 101.831 17.202C102.522 17.202 103.143 17.3653 103.693 17.692C104.244 18.0187 104.678 18.4807 104.995 19.078C105.313 19.666 105.471 20.352 105.471 21.136C105.471 21.9107 105.313 22.6013 104.995 23.208C104.678 23.8147 104.239 24.286 103.679 24.622C103.129 24.958 102.513 25.126 101.831 25.126C101.169 25.126 100.585 24.9813 100.081 24.692C99.5867 24.4027 99.2134 24.034 98.9614 23.586V25H97.6874V14.64H98.9614V18.756ZM104.169 21.136C104.169 20.5573 104.053 20.0533 103.819 19.624C103.586 19.1947 103.269 18.868 102.867 18.644C102.475 18.42 102.041 18.308 101.565 18.308C101.099 18.308 100.665 18.4247 100.263 18.658C99.8714 18.882 99.554 19.2133 99.3114 19.652C99.078 20.0813 98.9614 20.5807 98.9614 21.15C98.9614 21.7287 99.078 22.2373 99.3114 22.676C99.554 23.1053 99.8714 23.4367 100.263 23.67C100.665 23.894 101.099 24.006 101.565 24.006C102.041 24.006 102.475 23.894 102.867 23.67C103.269 23.4367 103.586 23.1053 103.819 22.676C104.053 22.2373 104.169 21.724 104.169 21.136ZM114.148 20.87C114.148 21.1127 114.134 21.3693 114.106 21.64H107.974C108.021 22.396 108.278 22.9887 108.744 23.418C109.22 23.838 109.794 24.048 110.466 24.048C111.017 24.048 111.474 23.922 111.838 23.67C112.212 23.4087 112.473 23.0633 112.622 22.634H113.994C113.789 23.3713 113.378 23.9733 112.762 24.44C112.146 24.8973 111.381 25.126 110.466 25.126C109.738 25.126 109.085 24.9627 108.506 24.636C107.937 24.3093 107.489 23.8473 107.162 23.25C106.836 22.6433 106.672 21.9433 106.672 21.15C106.672 20.3567 106.831 19.6613 107.148 19.064C107.466 18.4667 107.909 18.0093 108.478 17.692C109.057 17.3653 109.72 17.202 110.466 17.202C111.194 17.202 111.838 17.3607 112.398 17.678C112.958 17.9953 113.388 18.434 113.686 18.994C113.994 19.5447 114.148 20.17 114.148 20.87ZM112.832 20.604C112.832 20.1187 112.725 19.7033 112.51 19.358C112.296 19.0033 112.002 18.7373 111.628 18.56C111.264 18.3733 110.858 18.28 110.41 18.28C109.766 18.28 109.216 18.4853 108.758 18.896C108.31 19.3067 108.054 19.876 107.988 20.604H112.832ZM117.104 18.574C117.328 18.1353 117.645 17.7947 118.056 17.552C118.476 17.3093 118.985 17.188 119.582 17.188V18.504H119.246C117.818 18.504 117.104 19.2787 117.104 20.828V25H115.83V17.328H117.104V18.574Z" fill="black" fill-opacity="0.6"/>
</svg>
