<svg width="220" height="50" viewBox="0 0 220 50" fill="none" xmlns="http://www.w3.org/2000/svg">
<circle cx="25" cy="25" r="25" fill="#00CED1"/>
<path d="M34.97 31.33C34.97 31.69 34.89 32.06 34.72 32.42C34.55 32.78 34.33 33.12 34.04 33.44C33.55 33.98 33.01 34.37 32.4 34.62C31.8 34.87 31.15 35 30.45 35C29.43 35 28.34 34.76 27.19 34.27C26.04 33.78 24.89 33.12 23.75 32.29C22.6 31.45 21.51 30.52 20.47 29.49C19.44 28.45 18.51 27.36 17.68 26.22C16.86 25.08 16.2 23.94 15.72 22.81C15.24 21.67 15 20.58 15 19.54C15 18.86 15.12 18.21 15.36 17.61C15.6 17 15.98 16.44 16.51 15.94C17.15 15.31 17.85 15 18.59 15C18.87 15 19.15 15.06 19.4 15.18C19.66 15.3 19.89 15.48 20.07 15.74L22.39 19.01C22.57 19.26 22.7 19.49 22.79 19.71C22.88 19.92 22.93 20.13 22.93 20.32C22.93 20.56 22.86 20.8 22.72 21.03C22.59 21.26 22.4 21.5 22.16 21.74L21.4 22.53C21.29 22.64 21.24 22.77 21.24 22.93C21.24 23.01 21.25 23.08 21.27 23.16C21.3 23.24 21.33 23.3 21.35 23.36C21.53 23.69 21.84 24.12 22.28 24.64C22.73 25.16 23.21 25.69 23.73 26.22C24.27 26.75 24.79 27.24 25.32 27.69C25.84 28.13 26.27 28.43 26.61 28.61C26.66 28.63 26.72 28.66 26.79 28.69C26.87 28.72 26.95 28.73 27.04 28.73C27.21 28.73 27.34 28.67 27.45 28.56L28.21 27.81C28.46 27.56 28.7 27.37 28.93 27.25C29.16 27.11 29.39 27.04 29.64 27.04C29.83 27.04 30.03 27.08 30.25 27.17C30.47 27.26 30.7 27.39 30.95 27.56L34.26 29.91C34.52 30.09 34.7 30.3 34.81 30.55C34.91 30.8 34.97 31.05 34.97 31.33Z" stroke="white" stroke-width="1.5" stroke-miterlimit="10"/>
<path d="M31.5 22C31.5 21.4 31.03 20.48 30.33 19.73C29.69 19.04 28.84 18.5 28 18.5" stroke="white" stroke-width="1.5" stroke-linecap="round" stroke-linejoin="round"/>
<path d="M35 22C35 18.13 31.87 15 28 15" stroke="white" stroke-width="1.5" stroke-linecap="round" stroke-linejoin="round"/>
<path d="M85.016 25.366H81.38V29.092H79.472V25.366H75.836V23.638H79.472V19.912H81.38V23.638H85.016V25.366ZM90.4856 27.436C90.6056 28.036 90.8636 28.492 91.2596 28.804C91.6556 29.116 92.1896 29.272 92.8616 29.272C93.7136 29.272 94.3376 28.936 94.7336 28.264C95.1296 27.592 95.3276 26.446 95.3276 24.826C95.0396 25.234 94.6316 25.552 94.1036 25.78C93.5876 25.996 93.0236 26.104 92.4116 26.104C91.6316 26.104 90.9236 25.948 90.2876 25.636C89.6516 25.312 89.1476 24.838 88.7756 24.214C88.4156 23.578 88.2356 22.81 88.2356 21.91C88.2356 20.59 88.6196 19.54 89.3876 18.76C90.1676 17.968 91.2356 17.572 92.5916 17.572C94.2236 17.572 95.3816 18.118 96.0656 19.21C96.7616 20.29 97.1096 21.952 97.1096 24.196C97.1096 25.744 96.9776 27.01 96.7136 27.994C96.4616 28.978 96.0176 29.722 95.3816 30.226C94.7456 30.73 93.8636 30.982 92.7356 30.982C91.4516 30.982 90.4616 30.646 89.7656 29.974C89.0696 29.302 88.6796 28.456 88.5956 27.436H90.4856ZM92.7716 24.376C93.4916 24.376 94.0556 24.154 94.4636 23.71C94.8836 23.254 95.0936 22.654 95.0936 21.91C95.0936 21.082 94.8716 20.44 94.4276 19.984C93.9956 19.516 93.4016 19.282 92.6456 19.282C91.8896 19.282 91.2896 19.522 90.8456 20.002C90.4136 20.47 90.1976 21.088 90.1976 21.856C90.1976 22.588 90.4076 23.194 90.8276 23.674C91.2596 24.142 91.9076 24.376 92.7716 24.376ZM99.0854 19.75V17.878H102.829V31H100.759V19.75H99.0854ZM112.88 27.436C113 28.036 113.258 28.492 113.654 28.804C114.05 29.116 114.584 29.272 115.256 29.272C116.108 29.272 116.732 28.936 117.128 28.264C117.524 27.592 117.722 26.446 117.722 24.826C117.434 25.234 117.026 25.552 116.498 25.78C115.982 25.996 115.418 26.104 114.806 26.104C114.026 26.104 113.318 25.948 112.682 25.636C112.046 25.312 111.542 24.838 111.17 24.214C110.81 23.578 110.63 22.81 110.63 21.91C110.63 20.59 111.014 19.54 111.782 18.76C112.562 17.968 113.63 17.572 114.986 17.572C116.618 17.572 117.776 18.118 118.46 19.21C119.156 20.29 119.504 21.952 119.504 24.196C119.504 25.744 119.372 27.01 119.108 27.994C118.856 28.978 118.412 29.722 117.776 30.226C117.14 30.73 116.258 30.982 115.13 30.982C113.846 30.982 112.856 30.646 112.16 29.974C111.464 29.302 111.074 28.456 110.99 27.436H112.88ZM115.166 24.376C115.886 24.376 116.45 24.154 116.858 23.71C117.278 23.254 117.488 22.654 117.488 21.91C117.488 21.082 117.266 20.44 116.822 19.984C116.39 19.516 115.796 19.282 115.04 19.282C114.284 19.282 113.684 19.522 113.24 20.002C112.808 20.47 112.592 21.088 112.592 21.856C112.592 22.588 112.802 23.194 113.222 23.674C113.654 24.142 114.302 24.376 115.166 24.376ZM130.066 19.462L125.062 31H122.992L128.05 19.678H121.39V17.932H130.066V19.462ZM140.138 19.462L135.134 31H133.064L138.122 19.678H131.462V17.932H140.138V19.462ZM144.108 24.142C142.86 23.518 142.236 22.534 142.236 21.19C142.236 20.542 142.398 19.948 142.722 19.408C143.046 18.868 143.532 18.442 144.18 18.13C144.828 17.806 145.62 17.644 146.556 17.644C147.48 17.644 148.266 17.806 148.914 18.13C149.574 18.442 150.066 18.868 150.39 19.408C150.714 19.948 150.876 20.542 150.876 21.19C150.876 21.862 150.702 22.456 150.354 22.972C150.018 23.476 149.568 23.866 149.004 24.142C149.688 24.394 150.228 24.808 150.624 25.384C151.02 25.948 151.218 26.614 151.218 27.382C151.218 28.162 151.02 28.852 150.624 29.452C150.228 30.052 149.676 30.514 148.968 30.838C148.26 31.162 147.456 31.324 146.556 31.324C145.656 31.324 144.852 31.162 144.144 30.838C143.448 30.514 142.902 30.052 142.506 29.452C142.11 28.852 141.912 28.162 141.912 27.382C141.912 26.602 142.11 25.93 142.506 25.366C142.902 24.802 143.436 24.394 144.108 24.142ZM148.914 21.442C148.914 20.77 148.704 20.254 148.284 19.894C147.864 19.534 147.288 19.354 146.556 19.354C145.836 19.354 145.266 19.534 144.846 19.894C144.426 20.254 144.216 20.776 144.216 21.46C144.216 22.06 144.432 22.552 144.864 22.936C145.308 23.308 145.872 23.494 146.556 23.494C147.24 23.494 147.804 23.302 148.248 22.918C148.692 22.534 148.914 22.042 148.914 21.442ZM146.556 25.042C145.764 25.042 145.116 25.24 144.612 25.636C144.12 26.02 143.874 26.578 143.874 27.31C143.874 27.994 144.114 28.552 144.594 28.984C145.074 29.404 145.728 29.614 146.556 29.614C147.372 29.614 148.014 29.398 148.482 28.966C148.962 28.534 149.202 27.982 149.202 27.31C149.202 26.59 148.956 26.032 148.464 25.636C147.984 25.24 147.348 25.042 146.556 25.042ZM153.103 19.75V17.878H156.847V31H154.777V19.75H153.103ZM166.556 24.142C165.308 23.518 164.684 22.534 164.684 21.19C164.684 20.542 164.846 19.948 165.17 19.408C165.494 18.868 165.98 18.442 166.628 18.13C167.276 17.806 168.068 17.644 169.004 17.644C169.928 17.644 170.714 17.806 171.362 18.13C172.022 18.442 172.514 18.868 172.838 19.408C173.162 19.948 173.324 20.542 173.324 21.19C173.324 21.862 173.15 22.456 172.802 22.972C172.466 23.476 172.016 23.866 171.452 24.142C172.136 24.394 172.676 24.808 173.072 25.384C173.468 25.948 173.666 26.614 173.666 27.382C173.666 28.162 173.468 28.852 173.072 29.452C172.676 30.052 172.124 30.514 171.416 30.838C170.708 31.162 169.904 31.324 169.004 31.324C168.104 31.324 167.3 31.162 166.592 30.838C165.896 30.514 165.35 30.052 164.954 29.452C164.558 28.852 164.36 28.162 164.36 27.382C164.36 26.602 164.558 25.93 164.954 25.366C165.35 24.802 165.884 24.394 166.556 24.142ZM171.362 21.442C171.362 20.77 171.152 20.254 170.732 19.894C170.312 19.534 169.736 19.354 169.004 19.354C168.284 19.354 167.714 19.534 167.294 19.894C166.874 20.254 166.664 20.776 166.664 21.46C166.664 22.06 166.88 22.552 167.312 22.936C167.756 23.308 168.32 23.494 169.004 23.494C169.688 23.494 170.252 23.302 170.696 22.918C171.14 22.534 171.362 22.042 171.362 21.442ZM169.004 25.042C168.212 25.042 167.564 25.24 167.06 25.636C166.568 26.02 166.322 26.578 166.322 27.31C166.322 27.994 166.562 28.552 167.042 28.984C167.522 29.404 168.176 29.614 169.004 29.614C169.82 29.614 170.462 29.398 170.93 28.966C171.41 28.534 171.65 27.982 171.65 27.31C171.65 26.59 171.404 26.032 170.912 25.636C170.432 25.24 169.796 25.042 169.004 25.042ZM175.82 24.268C175.82 22.192 176.168 20.572 176.864 19.408C177.572 18.232 178.784 17.644 180.5 17.644C182.216 17.644 183.422 18.232 184.118 19.408C184.826 20.572 185.18 22.192 185.18 24.268C185.18 26.368 184.826 28.012 184.118 29.2C183.422 30.376 182.216 30.964 180.5 30.964C178.784 30.964 177.572 30.376 176.864 29.2C176.168 28.012 175.82 26.368 175.82 24.268ZM183.164 24.268C183.164 23.296 183.098 22.474 182.966 21.802C182.846 21.13 182.594 20.584 182.21 20.164C181.826 19.732 181.256 19.516 180.5 19.516C179.744 19.516 179.174 19.732 178.79 20.164C178.406 20.584 178.148 21.13 178.016 21.802C177.896 22.474 177.836 23.296 177.836 24.268C177.836 25.276 177.896 26.122 178.016 26.806C178.136 27.49 178.388 28.042 178.772 28.462C179.168 28.882 179.744 29.092 180.5 29.092C181.256 29.092 181.826 28.882 182.21 28.462C182.606 28.042 182.864 27.49 182.984 26.806C183.104 26.122 183.164 25.276 183.164 24.268ZM195.667 19.462L190.663 31H188.593L193.651 19.678H186.991V17.932H195.667V19.462ZM199.98 27.436C200.1 28.036 200.358 28.492 200.754 28.804C201.15 29.116 201.684 29.272 202.356 29.272C203.208 29.272 203.832 28.936 204.228 28.264C204.624 27.592 204.822 26.446 204.822 24.826C204.534 25.234 204.126 25.552 203.598 25.78C203.082 25.996 202.518 26.104 201.906 26.104C201.126 26.104 200.418 25.948 199.782 25.636C199.146 25.312 198.642 24.838 198.27 24.214C197.91 23.578 197.73 22.81 197.73 21.91C197.73 20.59 198.114 19.54 198.882 18.76C199.662 17.968 200.73 17.572 202.086 17.572C203.718 17.572 204.876 18.118 205.56 19.21C206.256 20.29 206.604 21.952 206.604 24.196C206.604 25.744 206.472 27.01 206.208 27.994C205.956 28.978 205.512 29.722 204.876 30.226C204.24 30.73 203.358 30.982 202.23 30.982C200.946 30.982 199.956 30.646 199.26 29.974C198.564 29.302 198.174 28.456 198.09 27.436H199.98ZM202.266 24.376C202.986 24.376 203.55 24.154 203.958 23.71C204.378 23.254 204.588 22.654 204.588 21.91C204.588 21.082 204.366 20.44 203.922 19.984C203.49 19.516 202.896 19.282 202.14 19.282C201.384 19.282 200.784 19.522 200.34 20.002C199.908 20.47 199.692 21.088 199.692 21.856C199.692 22.588 199.902 23.194 200.322 23.674C200.754 24.142 201.402 24.376 202.266 24.376ZM208.598 28.264V26.716L214.646 18.04H217.13V26.482H218.804V28.264H217.13V31H215.114V28.264H208.598ZM215.204 20.128L210.956 26.482H215.204V20.128Z" fill="black" fill-opacity="0.75"/>
</svg>
