<svg width="1200" height="135" viewBox="0 0 1200 135" fill="none" xmlns="http://www.w3.org/2000/svg">
<rect width="1200" height="135" rx="10" fill="white"/>
<circle cx="49" cy="49" r="25" fill="#00CED1"/>
<path d="M40.1699 44.4399L48.9999 49.5499L57.7699 44.4699" stroke="white" stroke-linecap="round" stroke-linejoin="round"/>
<path d="M49 58.61V49.54" stroke="white" stroke-linecap="round" stroke-linejoin="round"/>
<path d="M46.9306 39.4798L41.5906 42.4398C40.3806 43.1098 39.3906 44.7898 39.3906 46.1698V51.8198C39.3906 53.1998 40.3806 54.8798 41.5906 55.5498L46.9306 58.5198C48.0706 59.1498 49.9406 59.1498 51.0806 58.5198L56.4206 55.5498C57.6306 54.8798 58.6206 53.1998 58.6206 51.8198V46.1698C58.6206 44.7898 57.6306 43.1098 56.4206 42.4398L51.0806 39.4698C49.9306 38.8398 48.0706 38.8398 46.9306 39.4798Z" stroke="white" stroke-linecap="round" stroke-linejoin="round"/>
<path d="M112.248 45.288C112.248 45.8853 112.104 46.4453 111.816 46.968C111.539 47.4907 111.096 47.912 110.488 48.232C109.891 48.552 109.133 48.712 108.216 48.712H106.344V53H104.104V41.832H108.216C109.08 41.832 109.816 41.9813 110.424 42.28C111.032 42.5787 111.485 42.9893 111.784 43.512C112.093 44.0347 112.248 44.6267 112.248 45.288ZM108.12 46.904C108.739 46.904 109.197 46.7653 109.496 46.488C109.795 46.2 109.944 45.8 109.944 45.288C109.944 44.2 109.336 43.656 108.12 43.656H106.344V46.904H108.12ZM114.974 43.08C114.58 43.08 114.249 42.9573 113.982 42.712C113.726 42.456 113.598 42.1413 113.598 41.768C113.598 41.3947 113.726 41.0853 113.982 40.84C114.249 40.584 114.58 40.456 114.974 40.456C115.369 40.456 115.694 40.584 115.95 40.84C116.217 41.0853 116.35 41.3947 116.35 41.768C116.35 42.1413 116.217 42.456 115.95 42.712C115.694 42.9573 115.369 43.08 114.974 43.08ZM116.078 44.136V53H113.838V44.136H116.078ZM117.715 48.568C117.715 47.6507 117.902 46.8507 118.276 46.168C118.649 45.4747 119.166 44.9413 119.828 44.568C120.489 44.184 121.246 43.992 122.1 43.992C123.198 43.992 124.105 44.2693 124.82 44.824C125.545 45.368 126.03 46.136 126.276 47.128H123.86C123.732 46.744 123.513 46.4453 123.204 46.232C122.905 46.008 122.532 45.896 122.084 45.896C121.444 45.896 120.937 46.1307 120.564 46.6C120.19 47.0587 120.004 47.7147 120.004 48.568C120.004 49.4107 120.19 50.0667 120.564 50.536C120.937 50.9947 121.444 51.224 122.084 51.224C122.99 51.224 123.582 50.8187 123.86 50.008H126.276C126.03 50.968 125.545 51.7307 124.82 52.296C124.094 52.8613 123.188 53.144 122.1 53.144C121.246 53.144 120.489 52.9573 119.828 52.584C119.166 52.2 118.649 51.6667 118.276 50.984C117.902 50.2907 117.715 49.4853 117.715 48.568ZM133.165 53L130.157 49.224V53H127.917V41.16H130.157V47.896L133.133 44.136H136.045L132.141 48.584L136.077 53H133.165ZM149.665 53L148.449 51.8C147.414 52.728 146.15 53.192 144.657 53.192C143.835 53.192 143.11 53.0533 142.481 52.776C141.862 52.488 141.382 52.088 141.041 51.576C140.699 51.0533 140.529 50.4507 140.529 49.768C140.529 49.032 140.737 48.3707 141.153 47.784C141.569 47.1973 142.182 46.7227 142.993 46.36C142.705 46.008 142.497 45.672 142.369 45.352C142.241 45.0213 142.177 44.6693 142.177 44.296C142.177 43.784 142.31 43.3253 142.577 42.92C142.843 42.504 143.222 42.1787 143.713 41.944C144.214 41.7093 144.795 41.592 145.457 41.592C146.129 41.592 146.705 41.72 147.185 41.976C147.665 42.232 148.022 42.5733 148.257 43C148.491 43.4267 148.593 43.9013 148.561 44.424H146.385C146.395 44.072 146.31 43.8053 146.129 43.624C145.947 43.432 145.702 43.336 145.393 43.336C145.094 43.336 144.843 43.4267 144.641 43.608C144.449 43.7787 144.353 44.0027 144.353 44.28C144.353 44.5467 144.433 44.8133 144.593 45.08C144.753 45.336 145.014 45.656 145.377 46.04L148.193 48.824C148.214 48.8027 148.23 48.7813 148.241 48.76C148.251 48.7387 148.262 48.7173 148.273 48.696L149.185 47.176H151.521L150.401 49.144C150.187 49.56 149.958 49.9547 149.713 50.328L152.417 53H149.665ZM144.721 51.336C145.595 51.336 146.369 51.0267 147.041 50.408L144.289 47.688C143.254 48.1467 142.737 48.7973 142.737 49.64C142.737 50.12 142.918 50.5253 143.281 50.856C143.643 51.176 144.123 51.336 144.721 51.336ZM161.242 41.832C162.416 41.832 163.445 42.0613 164.33 42.52C165.226 42.9787 165.914 43.6347 166.394 44.488C166.885 45.3307 167.13 46.312 167.13 47.432C167.13 48.552 166.885 49.5333 166.394 50.376C165.914 51.208 165.226 51.8533 164.33 52.312C163.445 52.7707 162.416 53 161.242 53H157.338V41.832H161.242ZM161.162 51.096C162.336 51.096 163.242 50.776 163.882 50.136C164.522 49.496 164.842 48.5947 164.842 47.432C164.842 46.2693 164.522 45.3627 163.882 44.712C163.242 44.0507 162.336 43.72 161.162 43.72H159.578V51.096H161.162ZM171.047 45.512C171.335 45.0427 171.708 44.6747 172.167 44.408C172.636 44.1413 173.17 44.008 173.767 44.008V46.36H173.175C172.471 46.36 171.938 46.5253 171.575 46.856C171.223 47.1867 171.047 47.7627 171.047 48.584V53H168.807V44.136H171.047V45.512ZM179.212 53.144C178.359 53.144 177.591 52.9573 176.908 52.584C176.225 52.2 175.687 51.6613 175.292 50.968C174.908 50.2747 174.716 49.4747 174.716 48.568C174.716 47.6613 174.913 46.8613 175.308 46.168C175.713 45.4747 176.263 44.9413 176.956 44.568C177.649 44.184 178.423 43.992 179.276 43.992C180.129 43.992 180.903 44.184 181.596 44.568C182.289 44.9413 182.833 45.4747 183.228 46.168C183.633 46.8613 183.836 47.6613 183.836 48.568C183.836 49.4747 183.628 50.2747 183.212 50.968C182.807 51.6613 182.252 52.2 181.548 52.584C180.855 52.9573 180.076 53.144 179.212 53.144ZM179.212 51.192C179.617 51.192 179.996 51.096 180.348 50.904C180.711 50.7013 180.999 50.4027 181.212 50.008C181.425 49.6133 181.532 49.1333 181.532 48.568C181.532 47.7253 181.308 47.08 180.86 46.632C180.423 46.1733 179.884 45.944 179.244 45.944C178.604 45.944 178.065 46.1733 177.628 46.632C177.201 47.08 176.988 47.7253 176.988 48.568C176.988 49.4107 177.196 50.0613 177.612 50.52C178.039 50.968 178.572 51.192 179.212 51.192ZM187.719 45.416C188.007 45.0107 188.402 44.6747 188.903 44.408C189.415 44.1307 189.996 43.992 190.647 43.992C191.404 43.992 192.087 44.1787 192.695 44.552C193.314 44.9253 193.799 45.4587 194.151 46.152C194.514 46.8347 194.695 47.6293 194.695 48.536C194.695 49.4427 194.514 50.248 194.151 50.952C193.799 51.6453 193.314 52.184 192.695 52.568C192.087 52.952 191.404 53.144 190.647 53.144C189.996 53.144 189.42 53.0107 188.919 52.744C188.428 52.4773 188.028 52.1413 187.719 51.736V57.224H185.479V44.136H187.719V45.416ZM192.407 48.536C192.407 48.0027 192.295 47.544 192.071 47.16C191.858 46.7653 191.57 46.4667 191.207 46.264C190.855 46.0613 190.471 45.96 190.055 45.96C189.65 45.96 189.266 46.0667 188.903 46.28C188.551 46.4827 188.263 46.7813 188.039 47.176C187.826 47.5707 187.719 48.0347 187.719 48.568C187.719 49.1013 187.826 49.5653 188.039 49.96C188.263 50.3547 188.551 50.6587 188.903 50.872C189.266 51.0747 189.65 51.176 190.055 51.176C190.471 51.176 190.855 51.0693 191.207 50.856C191.57 50.6427 191.858 50.3387 192.071 49.944C192.295 49.5493 192.407 49.08 192.407 48.536Z" fill="black"/>
<path d="M31.982 95.939V105H30.799V100.892H26.184V105H25.001V95.939H26.184V99.917H30.799V95.939H31.982ZM34.613 96.719C34.3876 96.719 34.197 96.641 34.041 96.485C33.885 96.329 33.807 96.1383 33.807 95.913C33.807 95.6877 33.885 95.497 34.041 95.341C34.197 95.185 34.3876 95.107 34.613 95.107C34.8296 95.107 35.0116 95.185 35.159 95.341C35.315 95.497 35.393 95.6877 35.393 95.913C35.393 96.1383 35.315 96.329 35.159 96.485C35.0116 96.641 34.8296 96.719 34.613 96.719ZM35.185 97.876V105H34.002V97.876H35.185ZM38.3842 99.033C38.5922 98.6257 38.8869 98.3093 39.2682 98.084C39.6582 97.8587 40.1305 97.746 40.6852 97.746V98.968H40.3732C39.0472 98.968 38.3842 99.6873 38.3842 101.126V105H37.2012V97.876H38.3842V99.033ZM48.5508 101.165C48.5508 101.39 48.5378 101.629 48.5118 101.88H42.8178C42.8611 102.582 43.0995 103.132 43.5328 103.531C43.9748 103.921 44.5078 104.116 45.1318 104.116C45.6431 104.116 46.0678 103.999 46.4058 103.765C46.7525 103.522 46.9951 103.202 47.1338 102.803H48.4078C48.2171 103.488 47.8358 104.047 47.2638 104.48C46.6918 104.905 45.9811 105.117 45.1318 105.117C44.4558 105.117 43.8491 104.965 43.3118 104.662C42.7831 104.359 42.3671 103.93 42.0638 103.375C41.7605 102.812 41.6088 102.162 41.6088 101.425C41.6088 100.688 41.7561 100.043 42.0508 99.488C42.3455 98.9333 42.7571 98.5087 43.2858 98.214C43.8231 97.9107 44.4385 97.759 45.1318 97.759C45.8078 97.759 46.4058 97.9063 46.9258 98.201C47.4458 98.4957 47.8445 98.903 48.1218 99.423C48.4078 99.9343 48.5508 100.515 48.5508 101.165ZM47.3288 100.918C47.3288 100.467 47.2291 100.082 47.0298 99.761C46.8305 99.4317 46.5575 99.1847 46.2108 99.02C45.8728 98.8467 45.4958 98.76 45.0798 98.76C44.4818 98.76 43.9705 98.9507 43.5458 99.332C43.1298 99.7133 42.8915 100.242 42.8308 100.918H47.3288ZM58.9341 102.985H54.9821L54.2541 105H53.0061L56.2821 95.991H57.6471L60.9101 105H59.6621L58.9341 102.985ZM58.5961 102.023L56.9581 97.447L55.3201 102.023H58.5961ZM68.6247 95.939C69.6127 95.939 70.4664 96.1253 71.1857 96.498C71.9137 96.862 72.4684 97.3863 72.8497 98.071C73.2397 98.7557 73.4347 99.5617 73.4347 100.489C73.4347 101.416 73.2397 102.222 72.8497 102.907C72.4684 103.583 71.9137 104.103 71.1857 104.467C70.4664 104.822 69.6127 105 68.6247 105H65.8037V95.939H68.6247ZM68.6247 104.025C69.7947 104.025 70.6874 103.717 71.3027 103.102C71.9181 102.478 72.2257 101.607 72.2257 100.489C72.2257 99.3623 71.9137 98.4827 71.2897 97.85C70.6744 97.2173 69.7861 96.901 68.6247 96.901H66.9867V104.025H68.6247ZM81.4951 101.165C81.4951 101.39 81.4821 101.629 81.4561 101.88H75.7621C75.8055 102.582 76.0438 103.132 76.4771 103.531C76.9191 103.921 77.4521 104.116 78.0761 104.116C78.5875 104.116 79.0121 103.999 79.3501 103.765C79.6968 103.522 79.9395 103.202 80.0781 102.803H81.3521C81.1615 103.488 80.7801 104.047 80.2081 104.48C79.6361 104.905 78.9255 105.117 78.0761 105.117C77.4001 105.117 76.7935 104.965 76.2561 104.662C75.7275 104.359 75.3115 103.93 75.0081 103.375C74.7048 102.812 74.5531 102.162 74.5531 101.425C74.5531 100.688 74.7005 100.043 74.9951 99.488C75.2898 98.9333 75.7015 98.5087 76.2301 98.214C76.7675 97.9107 77.3828 97.759 78.0761 97.759C78.7521 97.759 79.3501 97.9063 79.8701 98.201C80.3901 98.4957 80.7888 98.903 81.0661 99.423C81.3521 99.9343 81.4951 100.515 81.4951 101.165ZM80.2731 100.918C80.2731 100.467 80.1735 100.082 79.9741 99.761C79.7748 99.4317 79.5018 99.1847 79.1551 99.02C78.8171 98.8467 78.4401 98.76 78.0241 98.76C77.4261 98.76 76.9148 98.9507 76.4901 99.332C76.0741 99.7133 75.8358 100.242 75.7751 100.918H80.2731ZM84.2397 95.38V105H83.0567V95.38H84.2397ZM86.8669 96.719C86.6415 96.719 86.4509 96.641 86.2949 96.485C86.1389 96.329 86.0609 96.1383 86.0609 95.913C86.0609 95.6877 86.1389 95.497 86.2949 95.341C86.4509 95.185 86.6415 95.107 86.8669 95.107C87.0835 95.107 87.2655 95.185 87.4129 95.341C87.5689 95.497 87.6469 95.6877 87.6469 95.913C87.6469 96.1383 87.5689 96.329 87.4129 96.485C87.2655 96.641 87.0835 96.719 86.8669 96.719ZM87.4389 97.876V105H86.2559V97.876H87.4389ZM92.1071 103.908L94.3171 97.876H95.5781L92.7831 105H91.4051L88.6101 97.876H89.8841L92.1071 103.908ZM103.242 101.165C103.242 101.39 103.229 101.629 103.203 101.88H97.5092C97.5525 102.582 97.7909 103.132 98.2242 103.531C98.6662 103.921 99.1992 104.116 99.8232 104.116C100.335 104.116 100.759 103.999 101.097 103.765C101.444 103.522 101.687 103.202 101.825 102.803H103.099C102.909 103.488 102.527 104.047 101.955 104.48C101.383 104.905 100.673 105.117 99.8232 105.117C99.1472 105.117 98.5405 104.965 98.0032 104.662C97.4745 104.359 97.0585 103.93 96.7552 103.375C96.4519 102.812 96.3002 102.162 96.3002 101.425C96.3002 100.688 96.4475 100.043 96.7422 99.488C97.0369 98.9333 97.4485 98.5087 97.9772 98.214C98.5145 97.9107 99.1299 97.759 99.8232 97.759C100.499 97.759 101.097 97.9063 101.617 98.201C102.137 98.4957 102.536 98.903 102.813 99.423C103.099 99.9343 103.242 100.515 103.242 101.165ZM102.02 100.918C102.02 100.467 101.921 100.082 101.721 99.761C101.522 99.4317 101.249 99.1847 100.902 99.02C100.564 98.8467 100.187 98.76 99.7712 98.76C99.1732 98.76 98.6619 98.9507 98.2372 99.332C97.8212 99.7133 97.5829 100.242 97.5222 100.918H102.02ZM105.987 99.033C106.195 98.6257 106.489 98.3093 106.871 98.084C107.261 97.8587 107.733 97.746 108.288 97.746V98.968H107.976C106.65 98.968 105.987 99.6873 105.987 101.126V105H104.804V97.876H105.987V99.033ZM115.789 97.876L111.499 108.354H110.277L111.681 104.922L108.808 97.876H110.121L112.357 103.648L114.567 97.876H115.789ZM124.981 100.333C125.311 100.385 125.61 100.519 125.878 100.736C126.156 100.953 126.372 101.221 126.528 101.542C126.693 101.863 126.775 102.205 126.775 102.569C126.775 103.028 126.658 103.444 126.424 103.817C126.19 104.181 125.848 104.471 125.397 104.688C124.955 104.896 124.431 105 123.824 105H120.444V95.939H123.694C124.31 95.939 124.834 96.043 125.267 96.251C125.701 96.4503 126.026 96.7233 126.242 97.07C126.459 97.4167 126.567 97.8067 126.567 98.24C126.567 98.7773 126.42 99.2237 126.125 99.579C125.839 99.9257 125.458 100.177 124.981 100.333ZM121.627 99.852H123.616C124.171 99.852 124.6 99.722 124.903 99.462C125.207 99.202 125.358 98.8423 125.358 98.383C125.358 97.9237 125.207 97.564 124.903 97.304C124.6 97.044 124.162 96.914 123.59 96.914H121.627V99.852ZM123.72 104.025C124.31 104.025 124.769 103.886 125.098 103.609C125.428 103.332 125.592 102.946 125.592 102.452C125.592 101.949 125.419 101.555 125.072 101.269C124.726 100.974 124.262 100.827 123.681 100.827H121.627V104.025H123.72ZM131.524 105.117C130.857 105.117 130.25 104.965 129.704 104.662C129.167 104.359 128.742 103.93 128.43 103.375C128.127 102.812 127.975 102.162 127.975 101.425C127.975 100.697 128.131 100.056 128.443 99.501C128.764 98.9377 129.197 98.5087 129.743 98.214C130.289 97.9107 130.9 97.759 131.576 97.759C132.252 97.759 132.863 97.9107 133.409 98.214C133.955 98.5087 134.384 98.9333 134.696 99.488C135.017 100.043 135.177 100.688 135.177 101.425C135.177 102.162 135.012 102.812 134.683 103.375C134.362 103.93 133.925 104.359 133.37 104.662C132.815 104.965 132.2 105.117 131.524 105.117ZM131.524 104.077C131.949 104.077 132.347 103.977 132.72 103.778C133.093 103.579 133.392 103.28 133.617 102.881C133.851 102.482 133.968 101.997 133.968 101.425C133.968 100.853 133.855 100.368 133.63 99.969C133.405 99.5703 133.11 99.2757 132.746 99.085C132.382 98.8857 131.988 98.786 131.563 98.786C131.13 98.786 130.731 98.8857 130.367 99.085C130.012 99.2757 129.726 99.5703 129.509 99.969C129.292 100.368 129.184 100.853 129.184 101.425C129.184 102.006 129.288 102.495 129.496 102.894C129.713 103.293 129.999 103.592 130.354 103.791C130.709 103.982 131.099 104.077 131.524 104.077ZM142.868 97.876L138.578 108.354H137.356L138.76 104.922L135.887 97.876H137.2L139.436 103.648L141.646 97.876H142.868ZM153.1 95.939V96.901H150.63V105H149.447V96.901H146.964V95.939H153.1ZM158.093 97.746C158.63 97.746 159.115 97.863 159.549 98.097C159.982 98.3223 160.32 98.6647 160.563 99.124C160.814 99.5833 160.94 100.142 160.94 100.801V105H159.77V100.97C159.77 100.259 159.592 99.7177 159.237 99.345C158.881 98.9637 158.396 98.773 157.781 98.773C157.157 98.773 156.658 98.968 156.286 99.358C155.922 99.748 155.74 100.316 155.74 101.061V105H154.557V95.38H155.74V98.89C155.974 98.526 156.294 98.2443 156.702 98.045C157.118 97.8457 157.581 97.746 158.093 97.746ZM162.43 101.412C162.43 100.684 162.577 100.047 162.872 99.501C163.167 98.9463 163.57 98.5173 164.081 98.214C164.601 97.9107 165.177 97.759 165.81 97.759C166.434 97.759 166.976 97.8933 167.435 98.162C167.894 98.4307 168.237 98.7687 168.462 99.176V97.876H169.658V105H168.462V103.674C168.228 104.09 167.877 104.437 167.409 104.714C166.95 104.983 166.412 105.117 165.797 105.117C165.164 105.117 164.592 104.961 164.081 104.649C163.57 104.337 163.167 103.899 162.872 103.336C162.577 102.773 162.43 102.131 162.43 101.412ZM168.462 101.425C168.462 100.888 168.354 100.42 168.137 100.021C167.92 99.6223 167.626 99.319 167.253 99.111C166.889 98.8943 166.486 98.786 166.044 98.786C165.602 98.786 165.199 98.89 164.835 99.098C164.471 99.306 164.181 99.6093 163.964 100.008C163.747 100.407 163.639 100.875 163.639 101.412C163.639 101.958 163.747 102.435 163.964 102.842C164.181 103.241 164.471 103.548 164.835 103.765C165.199 103.973 165.602 104.077 166.044 104.077C166.486 104.077 166.889 103.973 167.253 103.765C167.626 103.548 167.92 103.241 168.137 102.842C168.354 102.435 168.462 101.962 168.462 101.425ZM173.1 98.851V103.05C173.1 103.397 173.174 103.644 173.321 103.791C173.469 103.93 173.724 103.999 174.088 103.999H174.959V105H173.893C173.235 105 172.741 104.848 172.411 104.545C172.082 104.242 171.917 103.743 171.917 103.05V98.851H170.994V97.876H171.917V96.082H173.1V97.876H174.959V98.851H173.1ZM191.246 95.939L188.62 105H187.294L185.188 97.707L183.004 105L181.691 105.013L179.156 95.939H180.417L182.393 103.622L184.577 95.939H185.903L187.983 103.596L189.972 95.939H191.246ZM193.152 96.719C192.927 96.719 192.736 96.641 192.58 96.485C192.424 96.329 192.346 96.1383 192.346 95.913C192.346 95.6877 192.424 95.497 192.58 95.341C192.736 95.185 192.927 95.107 193.152 95.107C193.369 95.107 193.551 95.185 193.698 95.341C193.854 95.497 193.932 95.6877 193.932 95.913C193.932 96.1383 193.854 96.329 193.698 96.485C193.551 96.641 193.369 96.719 193.152 96.719ZM193.724 97.876V105H192.541V97.876H193.724ZM196.923 95.38V105H195.74V95.38H196.923ZM200.122 95.38V105H198.939V95.38H200.122ZM208.426 95.939C209.414 95.939 210.267 96.1253 210.987 96.498C211.715 96.862 212.269 97.3863 212.651 98.071C213.041 98.7557 213.236 99.5617 213.236 100.489C213.236 101.416 213.041 102.222 212.651 102.907C212.269 103.583 211.715 104.103 210.987 104.467C210.267 104.822 209.414 105 208.426 105H205.605V95.939H208.426ZM208.426 104.025C209.596 104.025 210.488 103.717 211.104 103.102C211.719 102.478 212.027 101.607 212.027 100.489C212.027 99.3623 211.715 98.4827 211.091 97.85C210.475 97.2173 209.587 96.901 208.426 96.901H206.788V104.025H208.426ZM217.903 105.117C217.236 105.117 216.629 104.965 216.083 104.662C215.546 104.359 215.121 103.93 214.809 103.375C214.506 102.812 214.354 102.162 214.354 101.425C214.354 100.697 214.51 100.056 214.822 99.501C215.143 98.9377 215.576 98.5087 216.122 98.214C216.668 97.9107 217.279 97.759 217.955 97.759C218.631 97.759 219.242 97.9107 219.788 98.214C220.334 98.5087 220.763 98.9333 221.075 99.488C221.396 100.043 221.556 100.688 221.556 101.425C221.556 102.162 221.391 102.812 221.062 103.375C220.741 103.93 220.304 104.359 219.749 104.662C219.194 104.965 218.579 105.117 217.903 105.117ZM217.903 104.077C218.328 104.077 218.726 103.977 219.099 103.778C219.472 103.579 219.771 103.28 219.996 102.881C220.23 102.482 220.347 101.997 220.347 101.425C220.347 100.853 220.234 100.368 220.009 99.969C219.784 99.5703 219.489 99.2757 219.125 99.085C218.761 98.8857 218.367 98.786 217.942 98.786C217.509 98.786 217.11 98.8857 216.746 99.085C216.391 99.2757 216.105 99.5703 215.888 99.969C215.671 100.368 215.563 100.853 215.563 101.425C215.563 102.006 215.667 102.495 215.875 102.894C216.092 103.293 216.378 103.592 216.733 103.791C217.088 103.982 217.478 104.077 217.903 104.077ZM232.921 95.939L229.97 101.581V105H228.787V101.581L225.823 95.939H227.136L229.372 100.528L231.608 95.939H232.921ZM237.276 105.117C236.609 105.117 236.002 104.965 235.456 104.662C234.919 104.359 234.494 103.93 234.182 103.375C233.879 102.812 233.727 102.162 233.727 101.425C233.727 100.697 233.883 100.056 234.195 99.501C234.516 98.9377 234.949 98.5087 235.495 98.214C236.041 97.9107 236.652 97.759 237.328 97.759C238.004 97.759 238.615 97.9107 239.161 98.214C239.707 98.5087 240.136 98.9333 240.448 99.488C240.769 100.043 240.929 100.688 240.929 101.425C240.929 102.162 240.764 102.812 240.435 103.375C240.114 103.93 239.677 104.359 239.122 104.662C238.567 104.965 237.952 105.117 237.276 105.117ZM237.276 104.077C237.701 104.077 238.099 103.977 238.472 103.778C238.845 103.579 239.144 103.28 239.369 102.881C239.603 102.482 239.72 101.997 239.72 101.425C239.72 100.853 239.607 100.368 239.382 99.969C239.157 99.5703 238.862 99.2757 238.498 99.085C238.134 98.8857 237.74 98.786 237.315 98.786C236.882 98.786 236.483 98.8857 236.119 99.085C235.764 99.2757 235.478 99.5703 235.261 99.969C235.044 100.368 234.936 100.853 234.936 101.425C234.936 102.006 235.04 102.495 235.248 102.894C235.465 103.293 235.751 103.592 236.106 103.791C236.461 103.982 236.851 104.077 237.276 104.077ZM248.802 97.876V105H247.619V103.947C247.394 104.311 247.078 104.597 246.67 104.805C246.272 105.004 245.83 105.104 245.344 105.104C244.79 105.104 244.291 104.991 243.849 104.766C243.407 104.532 243.056 104.185 242.796 103.726C242.545 103.267 242.419 102.708 242.419 102.049V97.876H243.589V101.893C243.589 102.595 243.767 103.137 244.122 103.518C244.478 103.891 244.963 104.077 245.578 104.077C246.211 104.077 246.709 103.882 247.073 103.492C247.437 103.102 247.619 102.534 247.619 101.789V97.876H248.802ZM251.983 99.033C252.191 98.6257 252.485 98.3093 252.867 98.084C253.257 97.8587 253.729 97.746 254.284 97.746V98.968H253.972C252.646 98.968 251.983 99.6873 251.983 101.126V105H250.8V97.876H251.983V99.033ZM260.298 96.901V99.93H263.6V100.905H260.298V104.025H263.99V105H259.115V95.926H263.99V96.901H260.298ZM266.963 99.033C267.171 98.6257 267.466 98.3093 267.847 98.084C268.237 97.8587 268.71 97.746 269.264 97.746V98.968H268.952C267.626 98.968 266.963 99.6873 266.963 101.126V105H265.78V97.876H266.963V99.033ZM271.813 99.033C272.021 98.6257 272.316 98.3093 272.697 98.084C273.087 97.8587 273.559 97.746 274.114 97.746V98.968H273.802C272.476 98.968 271.813 99.6873 271.813 101.126V105H270.63V97.876H271.813V99.033ZM275.038 101.412C275.038 100.684 275.185 100.047 275.48 99.501C275.774 98.9463 276.177 98.5173 276.689 98.214C277.209 97.9107 277.785 97.759 278.418 97.759C279.042 97.759 279.583 97.8933 280.043 98.162C280.502 98.4307 280.844 98.7687 281.07 99.176V97.876H282.266V105H281.07V103.674C280.836 104.09 280.485 104.437 280.017 104.714C279.557 104.983 279.02 105.117 278.405 105.117C277.772 105.117 277.2 104.961 276.689 104.649C276.177 104.337 275.774 103.899 275.48 103.336C275.185 102.773 275.038 102.131 275.038 101.412ZM281.07 101.425C281.07 100.888 280.961 100.42 280.745 100.021C280.528 99.6223 280.233 99.319 279.861 99.111C279.497 98.8943 279.094 98.786 278.652 98.786C278.21 98.786 277.807 98.89 277.443 99.098C277.079 99.306 276.788 99.6093 276.572 100.008C276.355 100.407 276.247 100.875 276.247 101.412C276.247 101.958 276.355 102.435 276.572 102.842C276.788 103.241 277.079 103.548 277.443 103.765C277.807 103.973 278.21 104.077 278.652 104.077C279.094 104.077 279.497 103.973 279.861 103.765C280.233 103.548 280.528 103.241 280.745 102.842C280.961 102.435 281.07 101.962 281.07 101.425ZM287.736 97.746C288.602 97.746 289.304 98.0103 289.842 98.539C290.379 99.059 290.648 99.813 290.648 100.801V105H289.478V100.97C289.478 100.259 289.3 99.7177 288.945 99.345C288.589 98.9637 288.104 98.773 287.489 98.773C286.865 98.773 286.366 98.968 285.994 99.358C285.63 99.748 285.448 100.316 285.448 101.061V105H284.265V97.876H285.448V98.89C285.682 98.526 285.998 98.2443 286.397 98.045C286.804 97.8457 287.25 97.746 287.736 97.746ZM292.138 101.412C292.138 100.684 292.285 100.047 292.58 99.501C292.875 98.9463 293.278 98.5173 293.789 98.214C294.309 97.9107 294.89 97.759 295.531 97.759C296.086 97.759 296.601 97.889 297.078 98.149C297.555 98.4003 297.919 98.734 298.17 99.15V95.38H299.366V105H298.17V103.661C297.936 104.086 297.589 104.437 297.13 104.714C296.671 104.983 296.133 105.117 295.518 105.117C294.885 105.117 294.309 104.961 293.789 104.649C293.278 104.337 292.875 103.899 292.58 103.336C292.285 102.773 292.138 102.131 292.138 101.412ZM298.17 101.425C298.17 100.888 298.062 100.42 297.845 100.021C297.628 99.6223 297.334 99.319 296.961 99.111C296.597 98.8943 296.194 98.786 295.752 98.786C295.31 98.786 294.907 98.89 294.543 99.098C294.179 99.306 293.889 99.6093 293.672 100.008C293.455 100.407 293.347 100.875 293.347 101.412C293.347 101.958 293.455 102.435 293.672 102.842C293.889 103.241 294.179 103.548 294.543 103.765C294.907 103.973 295.31 104.077 295.752 104.077C296.194 104.077 296.597 103.973 296.961 103.765C297.334 103.548 297.628 103.241 297.845 102.842C298.062 102.435 298.17 101.962 298.17 101.425ZM309.394 95.939V102.634C309.394 103.379 309.164 103.977 308.705 104.428C308.246 104.87 307.639 105.091 306.885 105.091C306.122 105.091 305.511 104.866 305.052 104.415C304.593 103.956 304.363 103.332 304.363 102.543H305.546C305.555 102.985 305.667 103.345 305.884 103.622C306.109 103.899 306.443 104.038 306.885 104.038C307.327 104.038 307.656 103.908 307.873 103.648C308.09 103.379 308.198 103.041 308.198 102.634V95.939H309.394ZM314.832 105.117C314.164 105.117 313.558 104.965 313.012 104.662C312.474 104.359 312.05 103.93 311.738 103.375C311.434 102.812 311.283 102.162 311.283 101.425C311.283 100.697 311.439 100.056 311.751 99.501C312.071 98.9377 312.505 98.5087 313.051 98.214C313.597 97.9107 314.208 97.759 314.884 97.759C315.56 97.759 316.171 97.9107 316.717 98.214C317.263 98.5087 317.692 98.9333 318.004 99.488C318.324 100.043 318.485 100.688 318.485 101.425C318.485 102.162 318.32 102.812 317.991 103.375C317.67 103.93 317.232 104.359 316.678 104.662C316.123 104.965 315.508 105.117 314.832 105.117ZM314.832 104.077C315.256 104.077 315.655 103.977 316.028 103.778C316.4 103.579 316.699 103.28 316.925 102.881C317.159 102.482 317.276 101.997 317.276 101.425C317.276 100.853 317.163 100.368 316.938 99.969C316.712 99.5703 316.418 99.2757 316.054 99.085C315.69 98.8857 315.295 98.786 314.871 98.786C314.437 98.786 314.039 98.8857 313.675 99.085C313.319 99.2757 313.033 99.5703 312.817 99.969C312.6 100.368 312.492 100.853 312.492 101.425C312.492 102.006 312.596 102.495 312.804 102.894C313.02 103.293 313.306 103.592 313.662 103.791C314.017 103.982 314.407 104.077 314.832 104.077ZM321.223 99.202C321.466 98.7773 321.821 98.4307 322.289 98.162C322.757 97.8933 323.29 97.759 323.888 97.759C324.529 97.759 325.106 97.9107 325.617 98.214C326.128 98.5173 326.531 98.9463 326.826 99.501C327.121 100.047 327.268 100.684 327.268 101.412C327.268 102.131 327.121 102.773 326.826 103.336C326.531 103.899 326.124 104.337 325.604 104.649C325.093 104.961 324.521 105.117 323.888 105.117C323.273 105.117 322.731 104.983 322.263 104.714C321.804 104.445 321.457 104.103 321.223 103.687V105H320.04V95.38H321.223V99.202ZM326.059 101.412C326.059 100.875 325.951 100.407 325.734 100.008C325.517 99.6093 325.223 99.306 324.85 99.098C324.486 98.89 324.083 98.786 323.641 98.786C323.208 98.786 322.805 98.8943 322.432 99.111C322.068 99.319 321.773 99.6267 321.548 100.034C321.331 100.433 321.223 100.896 321.223 101.425C321.223 101.962 321.331 102.435 321.548 102.842C321.773 103.241 322.068 103.548 322.432 103.765C322.805 103.973 323.208 104.077 323.641 104.077C324.083 104.077 324.486 103.973 324.85 103.765C325.223 103.548 325.517 103.241 325.734 102.842C325.951 102.435 326.059 101.958 326.059 101.412ZM331.347 105.117C330.801 105.117 330.312 105.026 329.878 104.844C329.445 104.653 329.103 104.393 328.851 104.064C328.6 103.726 328.461 103.34 328.435 102.907H329.657C329.692 103.262 329.857 103.553 330.151 103.778C330.455 104.003 330.849 104.116 331.334 104.116C331.785 104.116 332.14 104.016 332.4 103.817C332.66 103.618 332.79 103.366 332.79 103.063C332.79 102.751 332.652 102.521 332.374 102.374C332.097 102.218 331.668 102.066 331.087 101.919C330.559 101.78 330.125 101.642 329.787 101.503C329.458 101.356 329.172 101.143 328.929 100.866C328.695 100.58 328.578 100.207 328.578 99.748C328.578 99.384 328.687 99.0503 328.903 98.747C329.12 98.4437 329.428 98.2053 329.826 98.032C330.225 97.85 330.68 97.759 331.191 97.759C331.98 97.759 332.617 97.9583 333.102 98.357C333.588 98.7557 333.848 99.3017 333.882 99.995H332.699C332.673 99.6223 332.522 99.3233 332.244 99.098C331.976 98.8727 331.612 98.76 331.152 98.76C330.728 98.76 330.39 98.851 330.138 99.033C329.887 99.215 329.761 99.4533 329.761 99.748C329.761 99.982 329.835 100.177 329.982 100.333C330.138 100.48 330.329 100.602 330.554 100.697C330.788 100.784 331.109 100.883 331.516 100.996C332.028 101.135 332.444 101.273 332.764 101.412C333.085 101.542 333.358 101.741 333.583 102.01C333.817 102.279 333.939 102.63 333.947 103.063C333.947 103.453 333.839 103.804 333.622 104.116C333.406 104.428 333.098 104.675 332.699 104.857C332.309 105.03 331.859 105.117 331.347 105.117ZM343.191 105.091C342.35 105.091 341.583 104.896 340.89 104.506C340.197 104.107 339.646 103.557 339.239 102.855C338.84 102.144 338.641 101.347 338.641 100.463C338.641 99.579 338.84 98.786 339.239 98.084C339.646 97.3733 340.197 96.823 340.89 96.433C341.583 96.0343 342.35 95.835 343.191 95.835C344.04 95.835 344.812 96.0343 345.505 96.433C346.198 96.823 346.744 97.369 347.143 98.071C347.542 98.773 347.741 99.5703 347.741 100.463C347.741 101.356 347.542 102.153 347.143 102.855C346.744 103.557 346.198 104.107 345.505 104.506C344.812 104.896 344.04 105.091 343.191 105.091ZM343.191 104.064C343.824 104.064 344.391 103.917 344.894 103.622C345.405 103.327 345.804 102.907 346.09 102.361C346.385 101.815 346.532 101.182 346.532 100.463C346.532 99.735 346.385 99.1023 346.09 98.565C345.804 98.019 345.41 97.5987 344.907 97.304C344.404 97.0093 343.832 96.862 343.191 96.862C342.55 96.862 341.978 97.0093 341.475 97.304C340.972 97.5987 340.574 98.019 340.279 98.565C339.993 99.1023 339.85 99.735 339.85 100.463C339.85 101.182 339.993 101.815 340.279 102.361C340.574 102.907 340.972 103.327 341.475 103.622C341.986 103.917 342.558 104.064 343.191 104.064ZM352.202 98.851H350.707V105H349.524V98.851H348.601V97.876H349.524V97.369C349.524 96.5717 349.727 95.991 350.135 95.627C350.551 95.2543 351.214 95.068 352.124 95.068V96.056C351.604 96.056 351.235 96.16 351.019 96.368C350.811 96.5673 350.707 96.901 350.707 97.369V97.876H352.202V98.851ZM363.105 98.591C363.105 99.345 362.845 99.9733 362.325 100.476C361.814 100.97 361.029 101.217 359.972 101.217H358.23V105H357.047V95.939H359.972C360.995 95.939 361.77 96.186 362.299 96.68C362.836 97.174 363.105 97.811 363.105 98.591ZM359.972 100.242C360.631 100.242 361.116 100.099 361.428 99.813C361.74 99.527 361.896 99.1197 361.896 98.591C361.896 97.473 361.255 96.914 359.972 96.914H358.23V100.242H359.972ZM365.186 96.719C364.961 96.719 364.77 96.641 364.614 96.485C364.458 96.329 364.38 96.1383 364.38 95.913C364.38 95.6877 364.458 95.497 364.614 95.341C364.77 95.185 364.961 95.107 365.186 95.107C365.403 95.107 365.585 95.185 365.732 95.341C365.888 95.497 365.966 95.6877 365.966 95.913C365.966 96.1383 365.888 96.329 365.732 96.485C365.585 96.641 365.403 96.719 365.186 96.719ZM365.758 97.876V105H364.575V97.876H365.758ZM367.332 101.425C367.332 100.688 367.48 100.047 367.774 99.501C368.069 98.9463 368.476 98.5173 368.996 98.214C369.525 97.9107 370.127 97.759 370.803 97.759C371.679 97.759 372.398 97.9713 372.961 98.396C373.533 98.8207 373.91 99.41 374.092 100.164H372.818C372.697 99.7307 372.459 99.3883 372.103 99.137C371.757 98.8857 371.323 98.76 370.803 98.76C370.127 98.76 369.581 98.994 369.165 99.462C368.749 99.9213 368.541 100.576 368.541 101.425C368.541 102.283 368.749 102.946 369.165 103.414C369.581 103.882 370.127 104.116 370.803 104.116C371.323 104.116 371.757 103.995 372.103 103.752C372.45 103.509 372.688 103.163 372.818 102.712H374.092C373.902 103.44 373.52 104.025 372.948 104.467C372.376 104.9 371.661 105.117 370.803 105.117C370.127 105.117 369.525 104.965 368.996 104.662C368.476 104.359 368.069 103.93 367.774 103.375C367.48 102.82 367.332 102.17 367.332 101.425ZM379.649 105L376.854 101.854V105H375.671V95.38H376.854V101.035L379.597 97.876H381.248L377.894 101.425L381.261 105H379.649ZM388.679 97.876V105H387.496V103.947C387.271 104.311 386.955 104.597 386.547 104.805C386.149 105.004 385.707 105.104 385.221 105.104C384.667 105.104 384.168 104.991 383.726 104.766C383.284 104.532 382.933 104.185 382.673 103.726C382.422 103.267 382.296 102.708 382.296 102.049V97.876H383.466V101.893C383.466 102.595 383.644 103.137 383.999 103.518C384.355 103.891 384.84 104.077 385.455 104.077C386.088 104.077 386.586 103.882 386.95 103.492C387.314 103.102 387.496 102.534 387.496 101.789V97.876H388.679ZM391.86 99.189C392.094 98.7817 392.44 98.4437 392.9 98.175C393.368 97.8977 393.909 97.759 394.525 97.759C395.157 97.759 395.729 97.9107 396.241 98.214C396.761 98.5173 397.168 98.9463 397.463 99.501C397.757 100.047 397.905 100.684 397.905 101.412C397.905 102.131 397.757 102.773 397.463 103.336C397.168 103.899 396.761 104.337 396.241 104.649C395.729 104.961 395.157 105.117 394.525 105.117C393.918 105.117 393.381 104.983 392.913 104.714C392.453 104.437 392.102 104.094 391.86 103.687V108.38H390.677V97.876H391.86V99.189ZM396.696 101.412C396.696 100.875 396.587 100.407 396.371 100.008C396.154 99.6093 395.859 99.306 395.487 99.098C395.123 98.89 394.72 98.786 394.278 98.786C393.844 98.786 393.441 98.8943 393.069 99.111C392.705 99.319 392.41 99.6267 392.185 100.034C391.968 100.433 391.86 100.896 391.86 101.425C391.86 101.962 391.968 102.435 392.185 102.842C392.41 103.241 392.705 103.548 393.069 103.765C393.441 103.973 393.844 104.077 394.278 104.077C394.72 104.077 395.123 103.973 395.487 103.765C395.859 103.548 396.154 103.241 396.371 102.842C396.587 102.435 396.696 101.958 396.696 101.412ZM409.883 105L408.7 103.804C408.258 104.263 407.785 104.606 407.283 104.831C406.78 105.048 406.212 105.156 405.58 105.156C404.956 105.156 404.401 105.043 403.916 104.818C403.439 104.593 403.066 104.272 402.798 103.856C402.538 103.44 402.408 102.955 402.408 102.4C402.408 101.767 402.585 101.213 402.941 100.736C403.305 100.251 403.838 99.8693 404.54 99.592C404.262 99.2627 404.063 98.9593 403.942 98.682C403.82 98.4047 403.76 98.1013 403.76 97.772C403.76 97.3907 403.855 97.0483 404.046 96.745C404.245 96.433 404.527 96.1903 404.891 96.017C405.255 95.8437 405.675 95.757 406.152 95.757C406.62 95.757 407.027 95.848 407.374 96.03C407.72 96.212 407.98 96.4677 408.154 96.797C408.327 97.1177 408.405 97.4773 408.388 97.876H407.205C407.213 97.5207 407.114 97.2433 406.906 97.044C406.698 96.836 406.429 96.732 406.1 96.732C405.753 96.732 405.471 96.8317 405.255 97.031C405.047 97.2217 404.943 97.4687 404.943 97.772C404.943 98.032 405.012 98.2833 405.151 98.526C405.298 98.7687 405.541 99.0677 405.879 99.423L408.583 102.14L408.817 101.776L409.701 100.294H410.975L409.909 102.14C409.761 102.4 409.588 102.673 409.389 102.959L411.43 105H409.883ZM405.58 104.142C406.048 104.142 406.468 104.051 406.841 103.869C407.222 103.687 407.582 103.405 407.92 103.024L405.255 100.346C404.145 100.771 403.591 101.442 403.591 102.361C403.591 102.872 403.773 103.297 404.137 103.635C404.509 103.973 404.99 104.142 405.58 104.142ZM418.825 95.939C419.813 95.939 420.667 96.1253 421.386 96.498C422.114 96.862 422.669 97.3863 423.05 98.071C423.44 98.7557 423.635 99.5617 423.635 100.489C423.635 101.416 423.44 102.222 423.05 102.907C422.669 103.583 422.114 104.103 421.386 104.467C420.667 104.822 419.813 105 418.825 105H416.004V95.939H418.825ZM418.825 104.025C419.995 104.025 420.888 103.717 421.503 103.102C422.118 102.478 422.426 101.607 422.426 100.489C422.426 99.3623 422.114 98.4827 421.49 97.85C420.875 97.2173 419.986 96.901 418.825 96.901H417.187V104.025H418.825ZM426.378 99.033C426.586 98.6257 426.881 98.3093 427.262 98.084C427.652 97.8587 428.125 97.746 428.679 97.746V98.968H428.367C427.041 98.968 426.378 99.6873 426.378 101.126V105H425.195V97.876H426.378V99.033ZM433.152 105.117C432.485 105.117 431.878 104.965 431.332 104.662C430.795 104.359 430.37 103.93 430.058 103.375C429.755 102.812 429.603 102.162 429.603 101.425C429.603 100.697 429.759 100.056 430.071 99.501C430.392 98.9377 430.825 98.5087 431.371 98.214C431.917 97.9107 432.528 97.759 433.204 97.759C433.88 97.759 434.491 97.9107 435.037 98.214C435.583 98.5087 436.012 98.9333 436.324 99.488C436.645 100.043 436.805 100.688 436.805 101.425C436.805 102.162 436.64 102.812 436.311 103.375C435.99 103.93 435.553 104.359 434.998 104.662C434.443 104.965 433.828 105.117 433.152 105.117ZM433.152 104.077C433.577 104.077 433.975 103.977 434.348 103.778C434.721 103.579 435.02 103.28 435.245 102.881C435.479 102.482 435.596 101.997 435.596 101.425C435.596 100.853 435.483 100.368 435.258 99.969C435.033 99.5703 434.738 99.2757 434.374 99.085C434.01 98.8857 433.616 98.786 433.191 98.786C432.758 98.786 432.359 98.8857 431.995 99.085C431.64 99.2757 431.354 99.5703 431.137 99.969C430.92 100.368 430.812 100.853 430.812 101.425C430.812 102.006 430.916 102.495 431.124 102.894C431.341 103.293 431.627 103.592 431.982 103.791C432.337 103.982 432.727 104.077 433.152 104.077ZM439.543 99.189C439.777 98.7817 440.124 98.4437 440.583 98.175C441.051 97.8977 441.593 97.759 442.208 97.759C442.841 97.759 443.413 97.9107 443.924 98.214C444.444 98.5173 444.852 98.9463 445.146 99.501C445.441 100.047 445.588 100.684 445.588 101.412C445.588 102.131 445.441 102.773 445.146 103.336C444.852 103.899 444.444 104.337 443.924 104.649C443.413 104.961 442.841 105.117 442.208 105.117C441.602 105.117 441.064 104.983 440.596 104.714C440.137 104.437 439.786 104.094 439.543 103.687V108.38H438.36V97.876H439.543V99.189ZM444.379 101.412C444.379 100.875 444.271 100.407 444.054 100.008C443.838 99.6093 443.543 99.306 443.17 99.098C442.806 98.89 442.403 98.786 441.961 98.786C441.528 98.786 441.125 98.8943 440.752 99.111C440.388 99.319 440.094 99.6267 439.868 100.034C439.652 100.433 439.543 100.896 439.543 101.425C439.543 101.962 439.652 102.435 439.868 102.842C440.094 103.241 440.388 103.548 440.752 103.765C441.125 103.973 441.528 104.077 441.961 104.077C442.403 104.077 442.806 103.973 443.17 103.765C443.543 103.548 443.838 103.241 444.054 102.842C444.271 102.435 444.379 101.958 444.379 101.412ZM451.794 95.939V105H450.611V95.939H451.794ZM457.282 97.746C458.148 97.746 458.85 98.0103 459.388 98.539C459.925 99.059 460.194 99.813 460.194 100.801V105H459.024V100.97C459.024 100.259 458.846 99.7177 458.491 99.345C458.135 98.9637 457.65 98.773 457.035 98.773C456.411 98.773 455.912 98.968 455.54 99.358C455.176 99.748 454.994 100.316 454.994 101.061V105H453.811V97.876H454.994V98.89C455.228 98.526 455.544 98.2443 455.943 98.045C456.35 97.8457 456.796 97.746 457.282 97.746ZM471.936 95.939L468.985 101.581V105H467.802V101.581L464.838 95.939H466.151L468.387 100.528L470.623 95.939H471.936ZM476.291 105.117C475.623 105.117 475.017 104.965 474.471 104.662C473.933 104.359 473.509 103.93 473.197 103.375C472.893 102.812 472.742 102.162 472.742 101.425C472.742 100.697 472.898 100.056 473.21 99.501C473.53 98.9377 473.964 98.5087 474.51 98.214C475.056 97.9107 475.667 97.759 476.343 97.759C477.019 97.759 477.63 97.9107 478.176 98.214C478.722 98.5087 479.151 98.9333 479.463 99.488C479.783 100.043 479.944 100.688 479.944 101.425C479.944 102.162 479.779 102.812 479.45 103.375C479.129 103.93 478.691 104.359 478.137 104.662C477.582 104.965 476.967 105.117 476.291 105.117ZM476.291 104.077C476.715 104.077 477.114 103.977 477.487 103.778C477.859 103.579 478.158 103.28 478.384 102.881C478.618 102.482 478.735 101.997 478.735 101.425C478.735 100.853 478.622 100.368 478.397 99.969C478.171 99.5703 477.877 99.2757 477.513 99.085C477.149 98.8857 476.754 98.786 476.33 98.786C475.896 98.786 475.498 98.8857 475.134 99.085C474.778 99.2757 474.492 99.5703 474.276 99.969C474.059 100.368 473.951 100.853 473.951 101.425C473.951 102.006 474.055 102.495 474.263 102.894C474.479 103.293 474.765 103.592 475.121 103.791C475.476 103.982 475.866 104.077 476.291 104.077ZM487.817 97.876V105H486.634V103.947C486.409 104.311 486.092 104.597 485.685 104.805C485.286 105.004 484.844 105.104 484.359 105.104C483.804 105.104 483.306 104.991 482.864 104.766C482.422 104.532 482.071 104.185 481.811 103.726C481.56 103.267 481.434 102.708 481.434 102.049V97.876H482.604V101.893C482.604 102.595 482.782 103.137 483.137 103.518C483.492 103.891 483.978 104.077 484.593 104.077C485.226 104.077 485.724 103.882 486.088 103.492C486.452 103.102 486.634 102.534 486.634 101.789V97.876H487.817ZM490.997 99.033C491.205 98.6257 491.5 98.3093 491.881 98.084C492.271 97.8587 492.744 97.746 493.298 97.746V98.968H492.986C491.66 98.968 490.997 99.6873 490.997 101.126V105H489.814V97.876H490.997V99.033ZM505.254 105H504.071L499.313 97.785V105H498.13V95.926H499.313L504.071 103.128V95.926H505.254V105ZM513.771 101.165C513.771 101.39 513.758 101.629 513.732 101.88H508.038C508.081 102.582 508.319 103.132 508.753 103.531C509.195 103.921 509.728 104.116 510.352 104.116C510.863 104.116 511.288 103.999 511.626 103.765C511.972 103.522 512.215 103.202 512.354 102.803H513.628C513.437 103.488 513.056 104.047 512.484 104.48C511.912 104.905 511.201 105.117 510.352 105.117C509.676 105.117 509.069 104.965 508.532 104.662C508.003 104.359 507.587 103.93 507.284 103.375C506.98 102.812 506.829 102.162 506.829 101.425C506.829 100.688 506.976 100.043 507.271 99.488C507.565 98.9333 507.977 98.5087 508.506 98.214C509.043 97.9107 509.658 97.759 510.352 97.759C511.028 97.759 511.626 97.9063 512.146 98.201C512.666 98.4957 513.064 98.903 513.342 99.423C513.628 99.9343 513.771 100.515 513.771 101.165ZM512.549 100.918C512.549 100.467 512.449 100.082 512.25 99.761C512.05 99.4317 511.777 99.1847 511.431 99.02C511.093 98.8467 510.716 98.76 510.3 98.76C509.702 98.76 509.19 98.9507 508.766 99.332C508.35 99.7133 508.111 100.242 508.051 100.918H512.549ZM514.89 101.412C514.89 100.684 515.037 100.047 515.332 99.501C515.627 98.9463 516.03 98.5173 516.541 98.214C517.061 97.9107 517.637 97.759 518.27 97.759C518.894 97.759 519.436 97.8933 519.895 98.162C520.354 98.4307 520.697 98.7687 520.922 99.176V97.876H522.118V105H520.922V103.674C520.688 104.09 520.337 104.437 519.869 104.714C519.41 104.983 518.872 105.117 518.257 105.117C517.624 105.117 517.052 104.961 516.541 104.649C516.03 104.337 515.627 103.899 515.332 103.336C515.037 102.773 514.89 102.131 514.89 101.412ZM520.922 101.425C520.922 100.888 520.814 100.42 520.597 100.021C520.38 99.6223 520.086 99.319 519.713 99.111C519.349 98.8943 518.946 98.786 518.504 98.786C518.062 98.786 517.659 98.89 517.295 99.098C516.931 99.306 516.641 99.6093 516.424 100.008C516.207 100.407 516.099 100.875 516.099 101.412C516.099 101.958 516.207 102.435 516.424 102.842C516.641 103.241 516.931 103.548 517.295 103.765C517.659 103.973 518.062 104.077 518.504 104.077C518.946 104.077 519.349 103.973 519.713 103.765C520.086 103.548 520.38 103.241 520.597 102.842C520.814 102.435 520.922 101.962 520.922 101.425ZM525.3 99.033C525.508 98.6257 525.803 98.3093 526.184 98.084C526.574 97.8587 527.047 97.746 527.601 97.746V98.968H527.289C525.963 98.968 525.3 99.6873 525.3 101.126V105H524.117V97.876H525.3V99.033ZM530.15 99.202C530.392 98.7773 530.748 98.4307 531.216 98.162C531.684 97.8933 532.217 97.759 532.815 97.759C533.456 97.759 534.032 97.9107 534.544 98.214C535.055 98.5173 535.458 98.9463 535.753 99.501C536.047 100.047 536.195 100.684 536.195 101.412C536.195 102.131 536.047 102.773 535.753 103.336C535.458 103.899 535.051 104.337 534.531 104.649C534.019 104.961 533.447 105.117 532.815 105.117C532.199 105.117 531.658 104.983 531.19 104.714C530.73 104.445 530.384 104.103 530.15 103.687V105H528.967V95.38H530.15V99.202ZM534.986 101.412C534.986 100.875 534.877 100.407 534.661 100.008C534.444 99.6093 534.149 99.306 533.777 99.098C533.413 98.89 533.01 98.786 532.568 98.786C532.134 98.786 531.731 98.8943 531.359 99.111C530.995 99.319 530.7 99.6267 530.475 100.034C530.258 100.433 530.15 100.896 530.15 101.425C530.15 101.962 530.258 102.435 530.475 102.842C530.7 103.241 530.995 103.548 531.359 103.765C531.731 103.973 532.134 104.077 532.568 104.077C533.01 104.077 533.413 103.973 533.777 103.765C534.149 103.548 534.444 103.241 534.661 102.842C534.877 102.435 534.986 101.958 534.986 101.412ZM543.888 97.876L539.598 108.354H538.376L539.78 104.922L536.907 97.876H538.22L540.456 103.648L542.666 97.876H543.888ZM553.899 102.985H549.947L549.219 105H547.971L551.247 95.991H552.612L555.875 105H554.627L553.899 102.985ZM553.561 102.023L551.923 97.447L550.285 102.023H553.561ZM558.486 99.033C558.694 98.6257 558.988 98.3093 559.37 98.084C559.76 97.8587 560.232 97.746 560.787 97.746V98.968H560.475C559.149 98.968 558.486 99.6873 558.486 101.126V105H557.303V97.876H558.486V99.033ZM568.652 101.165C568.652 101.39 568.639 101.629 568.613 101.88H562.919C562.963 102.582 563.201 103.132 563.634 103.531C564.076 103.921 564.609 104.116 565.233 104.116C565.745 104.116 566.169 103.999 566.507 103.765C566.854 103.522 567.097 103.202 567.235 102.803H568.509C568.319 103.488 567.937 104.047 567.365 104.48C566.793 104.905 566.083 105.117 565.233 105.117C564.557 105.117 563.951 104.965 563.413 104.662C562.885 104.359 562.469 103.93 562.165 103.375C561.862 102.812 561.71 102.162 561.71 101.425C561.71 100.688 561.858 100.043 562.152 99.488C562.447 98.9333 562.859 98.5087 563.387 98.214C563.925 97.9107 564.54 97.759 565.233 97.759C565.909 97.759 566.507 97.9063 567.027 98.201C567.547 98.4957 567.946 98.903 568.223 99.423C568.509 99.9343 568.652 100.515 568.652 101.165ZM567.43 100.918C567.43 100.467 567.331 100.082 567.131 99.761C566.932 99.4317 566.659 99.1847 566.312 99.02C565.974 98.8467 565.597 98.76 565.181 98.76C564.583 98.76 564.072 98.9507 563.647 99.332C563.231 99.7133 562.993 100.242 562.932 100.918H567.43ZM569.772 101.412C569.772 100.684 569.919 100.047 570.214 99.501C570.509 98.9463 570.912 98.5173 571.423 98.214C571.943 97.9107 572.519 97.759 573.152 97.759C573.776 97.759 574.318 97.8933 574.777 98.162C575.236 98.4307 575.579 98.7687 575.804 99.176V97.876H577V105H575.804V103.674C575.57 104.09 575.219 104.437 574.751 104.714C574.292 104.983 573.754 105.117 573.139 105.117C572.506 105.117 571.934 104.961 571.423 104.649C570.912 104.337 570.509 103.899 570.214 103.336C569.919 102.773 569.772 102.131 569.772 101.412ZM575.804 101.425C575.804 100.888 575.696 100.42 575.479 100.021C575.262 99.6223 574.968 99.319 574.595 99.111C574.231 98.8943 573.828 98.786 573.386 98.786C572.944 98.786 572.541 98.89 572.177 99.098C571.813 99.306 571.523 99.6093 571.306 100.008C571.089 100.407 570.981 100.875 570.981 101.412C570.981 101.958 571.089 102.435 571.306 102.842C571.523 103.241 571.813 103.548 572.177 103.765C572.541 103.973 572.944 104.077 573.386 104.077C573.828 104.077 574.231 103.973 574.595 103.765C574.968 103.548 575.262 103.241 575.479 102.842C575.696 102.435 575.804 101.962 575.804 101.425ZM579.376 105.078C579.151 105.078 578.96 105 578.804 104.844C578.648 104.688 578.57 104.497 578.57 104.272C578.57 104.047 578.648 103.856 578.804 103.7C578.96 103.544 579.151 103.466 579.376 103.466C579.593 103.466 579.775 103.544 579.922 103.7C580.078 103.856 580.156 104.047 580.156 104.272C580.156 104.497 580.078 104.688 579.922 104.844C579.775 105 579.593 105.078 579.376 105.078Z" fill="black" fill-opacity="0.75"/>
</svg>
