<svg width="600" height="40" viewBox="0 0 600 40" fill="none" xmlns="http://www.w3.org/2000/svg">
<rect width="600" height="40" rx="4" fill="black" fill-opacity="0.1"/>
<path d="M20.172 25.098C19.528 25.098 18.9493 24.986 18.436 24.762C17.932 24.5287 17.5353 24.2113 17.246 23.81C16.9567 23.3993 16.8073 22.928 16.798 22.396H18.156C18.2027 22.8533 18.3893 23.2407 18.716 23.558C19.052 23.866 19.5373 24.02 20.172 24.02C20.7787 24.02 21.2547 23.8707 21.6 23.572C21.9547 23.264 22.132 22.872 22.132 22.396C22.132 22.0227 22.0293 21.7193 21.824 21.486C21.6187 21.2527 21.362 21.0753 21.054 20.954C20.746 20.8327 20.3307 20.702 19.808 20.562C19.164 20.394 18.646 20.226 18.254 20.058C17.8713 19.89 17.54 19.6287 17.26 19.274C16.9893 18.91 16.854 18.4247 16.854 17.818C16.854 17.286 16.9893 16.8147 17.26 16.404C17.5307 15.9933 17.9087 15.676 18.394 15.452C18.8887 15.228 19.4533 15.116 20.088 15.116C21.0027 15.116 21.7493 15.3447 22.328 15.802C22.916 16.2593 23.2473 16.866 23.322 17.622H21.922C21.8753 17.2487 21.6793 16.922 21.334 16.642C20.9887 16.3527 20.5313 16.208 19.962 16.208C19.43 16.208 18.996 16.348 18.66 16.628C18.324 16.8987 18.156 17.2813 18.156 17.776C18.156 18.1307 18.254 18.42 18.45 18.644C18.6553 18.868 18.9027 19.0407 19.192 19.162C19.4907 19.274 19.906 19.4047 20.438 19.554C21.082 19.7313 21.6 19.9087 21.992 20.086C22.384 20.254 22.72 20.52 23 20.884C23.28 21.2387 23.42 21.724 23.42 22.34C23.42 22.816 23.294 23.264 23.042 23.684C22.79 24.104 22.4167 24.4447 21.922 24.706C21.4273 24.9673 20.844 25.098 20.172 25.098ZM32.0988 17.328V25H30.8248V23.866C30.5821 24.258 30.2415 24.566 29.8028 24.79C29.3735 25.0047 28.8975 25.112 28.3748 25.112C27.7775 25.112 27.2408 24.9907 26.7648 24.748C26.2888 24.496 25.9108 24.1227 25.6308 23.628C25.3601 23.1333 25.2248 22.5313 25.2248 21.822V17.328H26.4848V21.654C26.4848 22.41 26.6761 22.9933 27.0588 23.404C27.4415 23.8053 27.9641 24.006 28.6268 24.006C29.3081 24.006 29.8448 23.796 30.2368 23.376C30.6288 22.956 30.8248 22.3447 30.8248 21.542V17.328H32.0988ZM35.5239 18.756C35.7852 18.2987 36.1679 17.9253 36.6719 17.636C37.1759 17.3467 37.7499 17.202 38.3939 17.202C39.0845 17.202 39.7052 17.3653 40.2559 17.692C40.8065 18.0187 41.2405 18.4807 41.5579 19.078C41.8752 19.666 42.0339 20.352 42.0339 21.136C42.0339 21.9107 41.8752 22.6013 41.5579 23.208C41.2405 23.8147 40.8019 24.286 40.2419 24.622C39.6912 24.958 39.0752 25.126 38.3939 25.126C37.7312 25.126 37.1479 24.9813 36.6439 24.692C36.1492 24.4027 35.7759 24.034 35.5239 23.586V25H34.2499V14.64H35.5239V18.756ZM40.7319 21.136C40.7319 20.5573 40.6152 20.0533 40.3819 19.624C40.1485 19.1947 39.8312 18.868 39.4299 18.644C39.0379 18.42 38.6039 18.308 38.1279 18.308C37.6612 18.308 37.2272 18.4247 36.8259 18.658C36.4339 18.882 36.1165 19.2133 35.8739 19.652C35.6405 20.0813 35.5239 20.5807 35.5239 21.15C35.5239 21.7287 35.6405 22.2373 35.8739 22.676C36.1165 23.1053 36.4339 23.4367 36.8259 23.67C37.2272 23.894 37.6612 24.006 38.1279 24.006C38.6039 24.006 39.0379 23.894 39.4299 23.67C39.8312 23.4367 40.1485 23.1053 40.3819 22.676C40.6152 22.2373 40.7319 21.724 40.7319 21.136ZM44.3968 16.082C44.1541 16.082 43.9488 15.998 43.7808 15.83C43.6221 15.662 43.5428 15.4567 43.5428 15.214C43.5428 14.9713 43.6221 14.766 43.7808 14.598C43.9488 14.43 44.1541 14.346 44.3968 14.346C44.6395 14.346 44.8401 14.43 44.9988 14.598C45.1668 14.766 45.2508 14.9713 45.2508 15.214C45.2508 15.4567 45.1668 15.662 44.9988 15.83C44.8401 15.998 44.6395 16.082 44.3968 16.082ZM45.0268 26.666C45.0268 27.3473 44.8541 27.8467 44.5088 28.164C44.1635 28.4813 43.6595 28.64 42.9968 28.64H42.2548V27.562H42.7868C43.1415 27.562 43.3888 27.492 43.5288 27.352C43.6781 27.212 43.7528 26.974 43.7528 26.638V17.328H45.0268V26.666ZM54.1835 20.87C54.1835 21.1127 54.1695 21.3693 54.1415 21.64H48.0095C48.0561 22.396 48.3128 22.9887 48.7795 23.418C49.2555 23.838 49.8295 24.048 50.5015 24.048C51.0521 24.048 51.5095 23.922 51.8735 23.67C52.2468 23.4087 52.5081 23.0633 52.6575 22.634H54.0295C53.8241 23.3713 53.4135 23.9733 52.7975 24.44C52.1815 24.8973 51.4161 25.126 50.5015 25.126C49.7735 25.126 49.1201 24.9627 48.5415 24.636C47.9721 24.3093 47.5241 23.8473 47.1975 23.25C46.8708 22.6433 46.7075 21.9433 46.7075 21.15C46.7075 20.3567 46.8661 19.6613 47.1835 19.064C47.5008 18.4667 47.9441 18.0093 48.5135 17.692C49.0921 17.3653 49.7548 17.202 50.5015 17.202C51.2295 17.202 51.8735 17.3607 52.4335 17.678C52.9935 17.9953 53.4228 18.434 53.7215 18.994C54.0295 19.5447 54.1835 20.17 54.1835 20.87ZM52.8675 20.604C52.8675 20.1187 52.7601 19.7033 52.5455 19.358C52.3308 19.0033 52.0368 18.7373 51.6635 18.56C51.2995 18.3733 50.8935 18.28 50.4455 18.28C49.8015 18.28 49.2508 18.4853 48.7935 18.896C48.3455 19.3067 48.0888 19.876 48.0235 20.604H52.8675ZM55.3891 21.15C55.3891 20.3567 55.5478 19.666 55.8651 19.078C56.1824 18.4807 56.6211 18.0187 57.1811 17.692C57.7504 17.3653 58.3991 17.202 59.1271 17.202C60.0698 17.202 60.8444 17.4307 61.4511 17.888C62.0671 18.3453 62.4731 18.98 62.6691 19.792H61.2971C61.1664 19.3253 60.9098 18.9567 60.5271 18.686C60.1538 18.4153 59.6871 18.28 59.1271 18.28C58.3991 18.28 57.8111 18.532 57.3631 19.036C56.9151 19.5307 56.6911 20.2353 56.6911 21.15C56.6911 22.074 56.9151 22.788 57.3631 23.292C57.8111 23.796 58.3991 24.048 59.1271 24.048C59.6871 24.048 60.1538 23.9173 60.5271 23.656C60.9004 23.3947 61.1571 23.0213 61.2971 22.536H62.6691C62.4638 23.32 62.0531 23.95 61.4371 24.426C60.8211 24.8927 60.0511 25.126 59.1271 25.126C58.3991 25.126 57.7504 24.9627 57.1811 24.636C56.6211 24.3093 56.1824 23.8473 55.8651 23.25C55.5478 22.6527 55.3891 21.9527 55.3891 21.15ZM65.923 18.378V22.9C65.923 23.2733 66.0023 23.5393 66.161 23.698C66.3197 23.8473 66.595 23.922 66.987 23.922H67.925V25H66.777C66.0677 25 65.5357 24.8367 65.181 24.51C64.8263 24.1833 64.649 23.6467 64.649 22.9V18.378H63.655V17.328H64.649V15.396H65.923V17.328H67.925V18.378H65.923Z" fill="black" fill-opacity="0.6"/>
</svg>
