<svg width="600" height="40" viewBox="0 0 600 40" fill="none" xmlns="http://www.w3.org/2000/svg">
<rect width="600" height="40" rx="4" fill="#00CED1"/>
<path d="M286.256 25.098C285.603 25.098 285.015 24.986 284.492 24.762C283.969 24.5287 283.559 24.202 283.26 23.782C282.961 23.362 282.812 22.872 282.812 22.312H284.52C284.557 22.732 284.721 23.0773 285.01 23.348C285.309 23.6187 285.724 23.754 286.256 23.754C286.807 23.754 287.236 23.6233 287.544 23.362C287.852 23.0913 288.006 22.746 288.006 22.326C288.006 21.9993 287.908 21.7333 287.712 21.528C287.525 21.3227 287.287 21.164 286.998 21.052C286.718 20.94 286.326 20.8187 285.822 20.688C285.187 20.52 284.669 20.352 284.268 20.184C283.876 20.0067 283.54 19.736 283.26 19.372C282.98 19.008 282.84 18.5227 282.84 17.916C282.84 17.356 282.98 16.866 283.26 16.446C283.54 16.026 283.932 15.704 284.436 15.48C284.94 15.256 285.523 15.144 286.186 15.144C287.129 15.144 287.899 15.382 288.496 15.858C289.103 16.3247 289.439 16.9687 289.504 17.79H287.74C287.712 17.4353 287.544 17.132 287.236 16.88C286.928 16.628 286.522 16.502 286.018 16.502C285.561 16.502 285.187 16.6187 284.898 16.852C284.609 17.0853 284.464 17.4213 284.464 17.86C284.464 18.1587 284.553 18.406 284.73 18.602C284.917 18.7887 285.15 18.938 285.43 19.05C285.71 19.162 286.093 19.2833 286.578 19.414C287.222 19.5913 287.745 19.7687 288.146 19.946C288.557 20.1233 288.902 20.3987 289.182 20.772C289.471 21.136 289.616 21.626 289.616 22.242C289.616 22.7367 289.481 23.2033 289.21 23.642C288.949 24.0807 288.561 24.4353 288.048 24.706C287.544 24.9673 286.947 25.098 286.256 25.098ZM298.569 20.954C298.569 21.2433 298.551 21.5047 298.513 21.738H292.619C292.666 22.354 292.895 22.8487 293.305 23.222C293.716 23.5953 294.22 23.782 294.817 23.782C295.676 23.782 296.283 23.4227 296.637 22.704H298.359C298.126 23.4133 297.701 23.9967 297.085 24.454C296.479 24.902 295.723 25.126 294.817 25.126C294.08 25.126 293.417 24.9627 292.829 24.636C292.251 24.3 291.793 23.8333 291.457 23.236C291.131 22.6293 290.967 21.9293 290.967 21.136C290.967 20.3427 291.126 19.6473 291.443 19.05C291.77 18.4433 292.223 17.9767 292.801 17.65C293.389 17.3233 294.061 17.16 294.817 17.16C295.545 17.16 296.194 17.3187 296.763 17.636C297.333 17.9533 297.776 18.4013 298.093 18.98C298.411 19.5493 298.569 20.2073 298.569 20.954ZM296.903 20.45C296.894 19.862 296.684 19.3907 296.273 19.036C295.863 18.6813 295.354 18.504 294.747 18.504C294.197 18.504 293.725 18.6813 293.333 19.036C292.941 19.3813 292.708 19.8527 292.633 20.45H296.903ZM304.032 17.16C304.639 17.16 305.18 17.286 305.656 17.538C306.141 17.79 306.519 18.1633 306.79 18.658C307.061 19.1527 307.196 19.75 307.196 20.45V25H305.614V20.688C305.614 19.9973 305.441 19.47 305.096 19.106C304.751 18.7327 304.279 18.546 303.682 18.546C303.085 18.546 302.609 18.7327 302.254 19.106C301.909 19.47 301.736 19.9973 301.736 20.688V25H300.14V17.286H301.736V18.168C301.997 17.8507 302.329 17.6033 302.73 17.426C303.141 17.2487 303.575 17.16 304.032 17.16ZM308.7 21.108C308.7 20.3333 308.858 19.6473 309.176 19.05C309.502 18.4527 309.941 17.9907 310.492 17.664C311.052 17.328 311.672 17.16 312.354 17.16C312.858 17.16 313.352 17.272 313.838 17.496C314.332 17.7107 314.724 18 315.014 18.364V14.64H316.624V25H315.014V23.838C314.752 24.2113 314.388 24.5193 313.922 24.762C313.464 25.0047 312.937 25.126 312.34 25.126C311.668 25.126 311.052 24.958 310.492 24.622C309.941 24.2767 309.502 23.8007 309.176 23.194C308.858 22.578 308.7 21.8827 308.7 21.108ZM315.014 21.136C315.014 20.604 314.902 20.142 314.678 19.75C314.463 19.358 314.178 19.0593 313.824 18.854C313.469 18.6487 313.086 18.546 312.676 18.546C312.265 18.546 311.882 18.6487 311.528 18.854C311.173 19.05 310.884 19.344 310.66 19.736C310.445 20.1187 310.338 20.576 310.338 21.108C310.338 21.64 310.445 22.1067 310.66 22.508C310.884 22.9093 311.173 23.2173 311.528 23.432C311.892 23.6373 312.274 23.74 312.676 23.74C313.086 23.74 313.469 23.6373 313.824 23.432C314.178 23.2267 314.463 22.928 314.678 22.536C314.902 22.1347 315.014 21.668 315.014 21.136Z" fill="white"/>
</svg>
