<svg width="421" height="113" viewBox="0 0 421 113" fill="none" xmlns="http://www.w3.org/2000/svg">
<path d="M60 28.24V41.8H25.08V63.28H51.84V76.6H25.08V112H8.28V28.24H60ZM123.273 96.04H89.9128L84.3928 112H66.7528L96.8728 28.12H116.433L146.553 112H128.793L123.273 96.04ZM118.713 82.6L106.593 47.56L94.4728 82.6H118.713ZM249.131 28.24V112H232.331V57.52L209.891 112H197.171L174.611 57.52V112H157.811V28.24H176.891L203.531 90.52L230.171 28.24H249.131ZM322.741 28.24V41.8H300.421V112H283.621V41.8H261.301V28.24H322.741ZM373.879 112.84C366.039 112.84 358.839 111 352.279 107.32C345.719 103.64 340.519 98.56 336.679 92.08C332.839 85.52 330.919 78.12 330.919 69.88C330.919 61.72 332.839 54.4 336.679 47.92C340.519 41.36 345.719 36.24 352.279 32.56C358.839 28.88 366.039 27.04 373.879 27.04C381.799 27.04 388.999 28.88 395.479 32.56C402.039 36.24 407.199 41.36 410.959 47.92C414.799 54.4 416.719 61.72 416.719 69.88C416.719 78.12 414.799 85.52 410.959 92.08C407.199 98.56 402.039 103.64 395.479 107.32C388.919 111 381.719 112.84 373.879 112.84ZM373.879 97.84C378.919 97.84 383.359 96.72 387.199 94.48C391.039 92.16 394.039 88.88 396.199 84.64C398.359 80.4 399.439 75.48 399.439 69.88C399.439 64.28 398.359 59.4 396.199 55.24C394.039 51 391.039 47.76 387.199 45.52C383.359 43.28 378.919 42.16 373.879 42.16C368.839 42.16 364.359 43.28 360.439 45.52C356.599 47.76 353.599 51 351.439 55.24C349.279 59.4 348.199 64.28 348.199 69.88C348.199 75.48 349.279 80.4 351.439 84.64C353.599 88.88 356.599 92.16 360.439 94.48C364.359 96.72 368.839 97.84 373.879 97.84Z" fill="black" fill-opacity="0.05"/>
<path d="M25.872 1.272L21.024 18H18.576L14.688 4.536L10.656 18L8.232 18.024L3.552 1.272H5.88L9.528 15.456L13.56 1.272H16.008L19.848 15.408L23.52 1.272H25.872ZM40.2621 10.92C40.2621 11.336 40.2381 11.776 40.1901 12.24H29.6781C29.7581 13.536 30.1981 14.552 30.9981 15.288C31.8141 16.008 32.7981 16.368 33.9501 16.368C34.8941 16.368 35.6781 16.152 36.3021 15.72C36.9421 15.272 37.3901 14.68 37.6461 13.944H39.9981C39.6461 15.208 38.9421 16.24 37.8861 17.04C36.8301 17.824 35.5181 18.216 33.9501 18.216C32.7021 18.216 31.5821 17.936 30.5901 17.376C29.6141 16.816 28.8461 16.024 28.2861 15C27.7261 13.96 27.4461 12.76 27.4461 11.4C27.4461 10.04 27.7181 8.848 28.2621 7.824C28.8061 6.8 29.5661 6.016 30.5421 5.472C31.5341 4.912 32.6701 4.632 33.9501 4.632C35.1981 4.632 36.3021 4.904 37.2621 5.448C38.2221 5.992 38.9581 6.744 39.4701 7.704C39.9981 8.648 40.2621 9.72 40.2621 10.92ZM38.0061 10.464C38.0061 9.632 37.8221 8.92 37.4541 8.328C37.0861 7.72 36.5821 7.264 35.9421 6.96C35.3181 6.64 34.6221 6.48 33.8541 6.48C32.7501 6.48 31.8061 6.832 31.0221 7.536C30.2541 8.24 29.8141 9.216 29.7021 10.464H38.0061ZM45.3289 0.24V18H43.1449V0.24H45.3289ZM48.2351 11.4C48.2351 10.04 48.5071 8.856 49.0511 7.848C49.5951 6.824 50.3471 6.032 51.3071 5.472C52.2831 4.912 53.3951 4.632 54.6431 4.632C56.2591 4.632 57.5871 5.024 58.6271 5.808C59.6831 6.592 60.3791 7.68 60.7151 9.072H58.3631C58.1391 8.272 57.6991 7.64 57.0431 7.176C56.4031 6.712 55.6031 6.48 54.6431 6.48C53.3951 6.48 52.3871 6.912 51.6191 7.776C50.8511 8.624 50.4671 9.832 50.4671 11.4C50.4671 12.984 50.8511 14.208 51.6191 15.072C52.3871 15.936 53.3951 16.368 54.6431 16.368C55.6031 16.368 56.4031 16.144 57.0431 15.696C57.6831 15.248 58.1231 14.608 58.3631 13.776H60.7151C60.3631 15.12 59.6591 16.2 58.6031 17.016C57.5471 17.816 56.2271 18.216 54.6431 18.216C53.3951 18.216 52.2831 17.936 51.3071 17.376C50.3471 16.816 49.5951 16.024 49.0511 15C48.5071 13.976 48.2351 12.776 48.2351 11.4ZM69.3653 18.216C68.1333 18.216 67.0133 17.936 66.0053 17.376C65.0133 16.816 64.2293 16.024 63.6533 15C63.0933 13.96 62.8133 12.76 62.8133 11.4C62.8133 10.056 63.1013 8.872 63.6773 7.848C64.2693 6.808 65.0693 6.016 66.0773 5.472C67.0853 4.912 68.2133 4.632 69.4613 4.632C70.7093 4.632 71.8373 4.912 72.8453 5.472C73.8533 6.016 74.6453 6.8 75.2213 7.824C75.8133 8.848 76.1093 10.04 76.1093 11.4C76.1093 12.76 75.8053 13.96 75.1973 15C74.6053 16.024 73.7973 16.816 72.7733 17.376C71.7493 17.936 70.6133 18.216 69.3653 18.216ZM69.3653 16.296C70.1493 16.296 70.8853 16.112 71.5733 15.744C72.2613 15.376 72.8133 14.824 73.2293 14.088C73.6613 13.352 73.8773 12.456 73.8773 11.4C73.8773 10.344 73.6693 9.448 73.2533 8.712C72.8373 7.976 72.2933 7.432 71.6213 7.08C70.9493 6.712 70.2213 6.528 69.4373 6.528C68.6373 6.528 67.9013 6.712 67.2293 7.08C66.5733 7.432 66.0453 7.976 65.6453 8.712C65.2453 9.448 65.0453 10.344 65.0453 11.4C65.0453 12.472 65.2373 13.376 65.6213 14.112C66.0213 14.848 66.5493 15.4 67.2053 15.768C67.8613 16.12 68.5813 16.296 69.3653 16.296ZM94.7968 4.608C95.8208 4.608 96.7328 4.824 97.5328 5.256C98.3328 5.672 98.9648 6.304 99.4288 7.152C99.8928 8 100.125 9.032 100.125 10.248V18H97.9648V10.56C97.9648 9.248 97.6368 8.248 96.9808 7.56C96.3408 6.856 95.4688 6.504 94.3648 6.504C93.2288 6.504 92.3248 6.872 91.6528 7.608C90.9808 8.328 90.6448 9.376 90.6448 10.752V18H88.4848V10.56C88.4848 9.248 88.1568 8.248 87.5008 7.56C86.8608 6.856 85.9888 6.504 84.8848 6.504C83.7488 6.504 82.8448 6.872 82.1728 7.608C81.5008 8.328 81.1648 9.376 81.1648 10.752V18H78.9808V4.848H81.1648V6.744C81.5968 6.056 82.1728 5.528 82.8928 5.16C83.6288 4.792 84.4368 4.608 85.3168 4.608C86.4208 4.608 87.3968 4.856 88.2448 5.352C89.0928 5.848 89.7248 6.576 90.1408 7.536C90.5088 6.608 91.1168 5.888 91.9648 5.376C92.8128 4.864 93.7568 4.608 94.7968 4.608ZM115.707 10.92C115.707 11.336 115.683 11.776 115.635 12.24H105.123C105.203 13.536 105.643 14.552 106.443 15.288C107.259 16.008 108.243 16.368 109.395 16.368C110.339 16.368 111.123 16.152 111.747 15.72C112.387 15.272 112.835 14.68 113.091 13.944H115.443C115.091 15.208 114.387 16.24 113.331 17.04C112.275 17.824 110.963 18.216 109.395 18.216C108.147 18.216 107.027 17.936 106.035 17.376C105.059 16.816 104.291 16.024 103.731 15C103.171 13.96 102.891 12.76 102.891 11.4C102.891 10.04 103.163 8.848 103.707 7.824C104.251 6.8 105.011 6.016 105.987 5.472C106.979 4.912 108.115 4.632 109.395 4.632C110.643 4.632 111.747 4.904 112.707 5.448C113.667 5.992 114.403 6.744 114.915 7.704C115.443 8.648 115.707 9.72 115.707 10.92ZM113.451 10.464C113.451 9.632 113.267 8.92 112.899 8.328C112.531 7.72 112.027 7.264 111.387 6.96C110.763 6.64 110.067 6.48 109.299 6.48C108.195 6.48 107.251 6.832 106.467 7.536C105.699 8.24 105.259 9.216 105.147 10.464H113.451ZM127.653 6.648V14.4C127.653 15.04 127.789 15.496 128.061 15.768C128.333 16.024 128.805 16.152 129.477 16.152H131.085V18H129.117C127.901 18 126.989 17.72 126.381 17.16C125.773 16.6 125.469 15.68 125.469 14.4V6.648H123.765V4.848H125.469V1.536H127.653V4.848H131.085V6.648H127.653ZM139.467 18.216C138.235 18.216 137.115 17.936 136.107 17.376C135.115 16.816 134.331 16.024 133.755 15C133.195 13.96 132.915 12.76 132.915 11.4C132.915 10.056 133.203 8.872 133.779 7.848C134.371 6.808 135.171 6.016 136.179 5.472C137.187 4.912 138.315 4.632 139.563 4.632C140.811 4.632 141.939 4.912 142.947 5.472C143.955 6.016 144.747 6.8 145.323 7.824C145.915 8.848 146.211 10.04 146.211 11.4C146.211 12.76 145.907 13.96 145.299 15C144.707 16.024 143.899 16.816 142.875 17.376C141.851 17.936 140.715 18.216 139.467 18.216ZM139.467 16.296C140.251 16.296 140.987 16.112 141.675 15.744C142.363 15.376 142.915 14.824 143.331 14.088C143.763 13.352 143.979 12.456 143.979 11.4C143.979 10.344 143.771 9.448 143.355 8.712C142.939 7.976 142.395 7.432 141.723 7.08C141.051 6.712 140.323 6.528 139.539 6.528C138.739 6.528 138.003 6.712 137.331 7.08C136.675 7.432 136.147 7.976 135.747 8.712C135.347 9.448 135.147 10.344 135.147 11.4C135.147 12.472 135.339 13.376 135.723 14.112C136.123 14.848 136.651 15.4 137.307 15.768C137.963 16.12 138.683 16.296 139.467 16.296Z" fill="black" fill-opacity="0.75"/>
<path d="M43 42.16V51.2H19.72V65.52H37.56V74.4H19.72V98H8.52V42.16H43ZM85.1819 87.36H62.9419L59.2619 98H47.5019L67.5819 42.08H80.6219L100.702 98H88.8619L85.1819 87.36ZM82.1419 78.4L74.0619 55.04L65.9819 78.4H82.1419ZM169.088 42.16V98H157.888V61.68L142.928 98H134.448L119.408 61.68V98H108.208V42.16H120.928L138.688 83.68L156.448 42.16H169.088ZM218.161 42.16V51.2H203.281V98H192.081V51.2H177.201V42.16H218.161ZM252.253 98.56C247.026 98.56 242.226 97.3333 237.853 94.88C233.479 92.4267 230.013 89.04 227.453 84.72C224.893 80.3467 223.613 75.4133 223.613 69.92C223.613 64.48 224.893 59.6 227.453 55.28C230.013 50.9067 233.479 47.4933 237.853 45.04C242.226 42.5867 247.026 41.36 252.253 41.36C257.533 41.36 262.333 42.5867 266.653 45.04C271.026 47.4933 274.466 50.9067 276.973 55.28C279.533 59.6 280.813 64.48 280.813 69.92C280.813 75.4133 279.533 80.3467 276.973 84.72C274.466 89.04 271.026 92.4267 266.653 94.88C262.279 97.3333 257.479 98.56 252.253 98.56ZM252.253 88.56C255.613 88.56 258.573 87.8133 261.133 86.32C263.693 84.7733 265.693 82.5867 267.133 79.76C268.573 76.9333 269.293 73.6533 269.293 69.92C269.293 66.1867 268.573 62.9333 267.133 60.16C265.693 57.3333 263.693 55.1733 261.133 53.68C258.573 52.1867 255.613 51.44 252.253 51.44C248.893 51.44 245.906 52.1867 243.293 53.68C240.733 55.1733 238.733 57.3333 237.293 60.16C235.853 62.9333 235.133 66.1867 235.133 69.92C235.133 73.6533 235.853 76.9333 237.293 79.76C238.733 82.5867 240.733 84.7733 243.293 86.32C245.906 87.8133 248.893 88.56 252.253 88.56Z" fill="black"/>
</svg>
